<?xml version="1.0" encoding="UTF-8" standalone="no"?><svg xmlns="http://www.w3.org/2000/svg" xmlns:xlink="http://www.w3.org/1999/xlink" contentStyleType="text/css" height="577px" preserveAspectRatio="none" style="width:644px;height:577px;background:#FFFFFF;" version="1.1" viewBox="0 0 644 577" width="644px" zoomAndPan="magnify"><defs/><g><!--MD5=[b854a15348c14bf8d2de44e62ca1ae6c]
class RegisterArrivalOfSNSUserUI--><g id="elem_RegisterArrivalOfSNSUserUI"><rect codeLine="3" fill="#F1F1F1" height="48" id="RegisterArrivalOfSNSUserUI" rx="2.5" ry="2.5" style="stroke:#181818;stroke-width:0.5;" width="208" x="218" y="7"/><ellipse cx="233" cy="23" fill="#ADD1B2" rx="11" ry="11" style="stroke:#181818;stroke-width:1.0;"/><path d="M235,19.5 Q235.2031,19 235.4375,18.75 Q235.6719,18.5 235.9375,18.5 Q236.4063,18.5 236.7031,18.7813 Q237,19.0625 237,19.7188 L237,21.2813 Q237,21.9375 236.7188,22.2188 Q236.4375,22.5 236,22.5 Q235.6094,22.5 235.3594,22.3281 Q235.1094,22.1563 235,21.7031 Q234.9531,21.3906 234.7813,21.2188 Q234.4688,20.8906 233.9063,20.7031 Q233.3438,20.5 232.7813,20.5 Q232.0781,20.5 231.4844,20.7813 Q230.9063,21.0625 230.4531,21.6875 Q230,22.3125 230,23.1719 L230,24.0938 Q230,25.125 230.8438,25.8125 Q231.6875,26.5 233.1875,26.5 Q234.0781,26.5 234.7031,26.2969 Q235.0625,26.1875 235.4688,25.8281 Q235.7344,25.625 235.875,25.5625 Q236.0156,25.5 236.1875,25.5 Q236.5156,25.5 236.75,25.7656 Q237,26.0156 237,26.375 Q237,26.7188 236.6563,27.125 Q236.1563,27.7188 235.3594,28.0469 Q234.3125,28.5 233.0313,28.5 Q231.5313,28.5 230.3281,27.9063 Q229.3594,27.4375 228.6719,26.4219 Q228,25.4063 228,24.2031 L228,23.1094 Q228,21.8594 228.5938,20.7656 Q229.2031,19.6719 230.25,19.0938 Q231.3125,18.5 232.5,18.5 Q233.2188,18.5 233.8438,18.75 Q234.4688,19 235,19.5 Z " fill="#000000"/><text fill="#000000" font-family="sans-serif" font-size="14" lengthAdjust="spacing" textLength="176" x="247" y="28.7285">RegisterArrivalOfSNSUserUI</text><line style="stroke:#181818;stroke-width:0.5;" x1="219" x2="425" y1="39" y2="39"/><line style="stroke:#181818;stroke-width:0.5;" x1="219" x2="425" y1="47" y2="47"/></g><!--MD5=[7596083637d10a9733a3a3b1fb1a72db]
class RegisterArrivalOfSNSUserController--><g id="elem_RegisterArrivalOfSNSUserController"><rect codeLine="6" fill="#F1F1F1" height="224.0938" id="RegisterArrivalOfSNSUserController" rx="2.5" ry="2.5" style="stroke:#181818;stroke-width:0.5;" width="630" x="7" y="115"/><ellipse cx="204.75" cy="131" fill="#ADD1B2" rx="11" ry="11" style="stroke:#181818;stroke-width:1.0;"/><path d="M206.75,127.5 Q206.9531,127 207.1875,126.75 Q207.4219,126.5 207.6875,126.5 Q208.1563,126.5 208.4531,126.7813 Q208.75,127.0625 208.75,127.7188 L208.75,129.2813 Q208.75,129.9375 208.4688,130.2188 Q208.1875,130.5 207.75,130.5 Q207.3594,130.5 207.1094,130.3281 Q206.8594,130.1563 206.75,129.7031 Q206.7031,129.3906 206.5313,129.2188 Q206.2188,128.8906 205.6563,128.7031 Q205.0938,128.5 204.5313,128.5 Q203.8281,128.5 203.2344,128.7813 Q202.6563,129.0625 202.2031,129.6875 Q201.75,130.3125 201.75,131.1719 L201.75,132.0938 Q201.75,133.125 202.5938,133.8125 Q203.4375,134.5 204.9375,134.5 Q205.8281,134.5 206.4531,134.2969 Q206.8125,134.1875 207.2188,133.8281 Q207.4844,133.625 207.625,133.5625 Q207.7656,133.5 207.9375,133.5 Q208.2656,133.5 208.5,133.7656 Q208.75,134.0156 208.75,134.375 Q208.75,134.7188 208.4063,135.125 Q207.9063,135.7188 207.1094,136.0469 Q206.0625,136.5 204.7813,136.5 Q203.2813,136.5 202.0781,135.9063 Q201.1094,135.4375 200.4219,134.4219 Q199.75,133.4063 199.75,132.2031 L199.75,131.1094 Q199.75,129.8594 200.3438,128.7656 Q200.9531,127.6719 202,127.0938 Q203.0625,126.5 204.25,126.5 Q204.9688,126.5 205.5938,126.75 Q206.2188,127 206.75,127.5 Z " fill="#000000"/><text fill="#000000" font-family="sans-serif" font-size="14" lengthAdjust="spacing" textLength="226" x="225.25" y="136.7285">RegisterArrivalOfSNSUserController</text><line style="stroke:#181818;stroke-width:0.5;" x1="8" x2="636" y1="147" y2="147"/><text fill="#000000" font-family="sans-serif" font-size="14" lengthAdjust="spacing" textLength="126" x="13" y="165.5332">-Company company</text><text fill="#000000" font-family="sans-serif" font-size="14" lengthAdjust="spacing" textLength="307" x="13" y="183.1426">-VaccinationCenterStore vaccinationCenterStore</text><line style="stroke:#181818;stroke-width:0.5;" x1="8" x2="636" y1="190.2188" y2="190.2188"/><text fill="#000000" font-family="sans-serif" font-size="14" lengthAdjust="spacing" textLength="154" x="13" y="208.752">+getVacinationCenters()</text><text fill="#000000" font-family="sans-serif" font-size="14" lengthAdjust="spacing" textLength="220" x="13" y="226.3613">+CheckIfCenterExists(String name)</text><text fill="#000000" font-family="sans-serif" font-size="14" lengthAdjust="spacing" textLength="618" x="13" y="243.9707">+validateVaccinationCenter(String vaccinationCenterName, ScheduledVaccine scheduledVaccine)</text><text fill="#000000" font-family="sans-serif" font-size="14" lengthAdjust="spacing" textLength="146" x="13" y="261.5801">+getAppointmentsList()</text><text fill="#000000" font-family="sans-serif" font-size="14" lengthAdjust="spacing" textLength="275" x="13" y="279.1895">+checkAppointment(String snsUserNumber)</text><text fill="#000000" font-family="sans-serif" font-size="14" lengthAdjust="spacing" textLength="199" x="13" y="296.7988">+getScheduleVaccine(int index)</text><text fill="#000000" font-family="sans-serif" font-size="14" lengthAdjust="spacing" textLength="247" x="13" y="314.4082">+registerArrival(String snsUserNumber)</text><text fill="#000000" font-family="sans-serif" font-size="14" lengthAdjust="spacing" textLength="512" x="13" y="332.0176">+validateDate(LocalDate appointmentDay, ScheduledVaccine scheduledVaccine)</text></g><!--MD5=[de60e6d4f424ae4d0522096f76a59010]
class VaccinationCenter--><g id="elem_VaccinationCenter"><rect codeLine="19" fill="#F1F1F1" height="171.2656" id="VaccinationCenter" rx="2.5" ry="2.5" style="stroke:#181818;stroke-width:0.5;" width="259" x="59.5" y="399"/><ellipse cx="126.75" cy="415" fill="#ADD1B2" rx="11" ry="11" style="stroke:#181818;stroke-width:1.0;"/><path d="M128.75,411.5 Q128.9531,411 129.1875,410.75 Q129.4219,410.5 129.6875,410.5 Q130.1563,410.5 130.4531,410.7813 Q130.75,411.0625 130.75,411.7188 L130.75,413.2813 Q130.75,413.9375 130.4688,414.2188 Q130.1875,414.5 129.75,414.5 Q129.3594,414.5 129.1094,414.3281 Q128.8594,414.1563 128.75,413.7031 Q128.7031,413.3906 128.5313,413.2188 Q128.2188,412.8906 127.6563,412.7031 Q127.0938,412.5 126.5313,412.5 Q125.8281,412.5 125.2344,412.7813 Q124.6563,413.0625 124.2031,413.6875 Q123.75,414.3125 123.75,415.1719 L123.75,416.0938 Q123.75,417.125 124.5938,417.8125 Q125.4375,418.5 126.9375,418.5 Q127.8281,418.5 128.4531,418.2969 Q128.8125,418.1875 129.2188,417.8281 Q129.4844,417.625 129.625,417.5625 Q129.7656,417.5 129.9375,417.5 Q130.2656,417.5 130.5,417.7656 Q130.75,418.0156 130.75,418.375 Q130.75,418.7188 130.4063,419.125 Q129.9063,419.7188 129.1094,420.0469 Q128.0625,420.5 126.7813,420.5 Q125.2813,420.5 124.0781,419.9063 Q123.1094,419.4375 122.4219,418.4219 Q121.75,417.4063 121.75,416.2031 L121.75,415.1094 Q121.75,413.8594 122.3438,412.7656 Q122.9531,411.6719 124,411.0938 Q125.0625,410.5 126.25,410.5 Q126.9688,410.5 127.5938,410.75 Q128.2188,411 128.75,411.5 Z " fill="#000000"/><text fill="#000000" font-family="sans-serif" font-size="14" lengthAdjust="spacing" textLength="116" x="147.25" y="420.7285">VaccinationCenter</text><line style="stroke:#181818;stroke-width:0.5;" x1="60.5" x2="317.5" y1="431" y2="431"/><text fill="#000000" font-family="sans-serif" font-size="14" lengthAdjust="spacing" textLength="81" x="65.5" y="449.5332">-String name</text><text fill="#000000" font-family="sans-serif" font-size="14" lengthAdjust="spacing" textLength="135" x="65.5" y="467.1426">-int openingHourHour</text><text fill="#000000" font-family="sans-serif" font-size="14" lengthAdjust="spacing" textLength="147" x="65.5" y="484.752">-int openingHourMinute</text><text fill="#000000" font-family="sans-serif" font-size="14" lengthAdjust="spacing" textLength="128" x="65.5" y="502.3613">-int closingHourHour</text><text fill="#000000" font-family="sans-serif" font-size="14" lengthAdjust="spacing" textLength="140" x="65.5" y="519.9707">-int closingHourMinute</text><line style="stroke:#181818;stroke-width:0.5;" x1="60.5" x2="317.5" y1="527.0469" y2="527.0469"/><text fill="#000000" font-family="sans-serif" font-size="14" lengthAdjust="spacing" textLength="220" x="65.5" y="545.5801">+ArrayList&lt;String&gt; getArrivalsList()</text><text fill="#000000" font-family="sans-serif" font-size="14" lengthAdjust="spacing" textLength="247" x="65.5" y="563.1895">+registerArrival(String snsUserNumber)</text></g><!--MD5=[8d21a970f1bd1e0e0584d0ecf91221be]
class ScheduleVaccine--><g id="elem_ScheduleVaccine"><rect codeLine="31" fill="#F1F1F1" height="153.6563" id="ScheduleVaccine" rx="2.5" ry="2.5" style="stroke:#181818;stroke-width:0.5;" width="203" x="353.5" y="407.5"/><ellipse cx="396.4" cy="423.5" fill="#ADD1B2" rx="11" ry="11" style="stroke:#181818;stroke-width:1.0;"/><path d="M398.4,420 Q398.6031,419.5 398.8375,419.25 Q399.0719,419 399.3375,419 Q399.8063,419 400.1031,419.2813 Q400.4,419.5625 400.4,420.2188 L400.4,421.7813 Q400.4,422.4375 400.1188,422.7188 Q399.8375,423 399.4,423 Q399.0094,423 398.7594,422.8281 Q398.5094,422.6563 398.4,422.2031 Q398.3531,421.8906 398.1813,421.7188 Q397.8688,421.3906 397.3063,421.2031 Q396.7438,421 396.1813,421 Q395.4781,421 394.8844,421.2813 Q394.3063,421.5625 393.8531,422.1875 Q393.4,422.8125 393.4,423.6719 L393.4,424.5938 Q393.4,425.625 394.2438,426.3125 Q395.0875,427 396.5875,427 Q397.4781,427 398.1031,426.7969 Q398.4625,426.6875 398.8688,426.3281 Q399.1344,426.125 399.275,426.0625 Q399.4156,426 399.5875,426 Q399.9156,426 400.15,426.2656 Q400.4,426.5156 400.4,426.875 Q400.4,427.2188 400.0563,427.625 Q399.5563,428.2188 398.7594,428.5469 Q397.7125,429 396.4313,429 Q394.9313,429 393.7281,428.4063 Q392.7594,427.9375 392.0719,426.9219 Q391.4,425.9063 391.4,424.7031 L391.4,423.6094 Q391.4,422.3594 391.9938,421.2656 Q392.6031,420.1719 393.65,419.5938 Q394.7125,419 395.9,419 Q396.6188,419 397.2438,419.25 Q397.8688,419.5 398.4,420 Z " fill="#000000"/><text fill="#000000" font-family="sans-serif" font-size="14" lengthAdjust="spacing" textLength="109" x="416.6" y="429.2285">ScheduleVaccine</text><line style="stroke:#181818;stroke-width:0.5;" x1="354.5" x2="555.5" y1="439.5" y2="439.5"/><text fill="#000000" font-family="sans-serif" font-size="14" lengthAdjust="spacing" textLength="121" x="359.5" y="458.0332">String SNSNumber;</text><text fill="#000000" font-family="sans-serif" font-size="14" lengthAdjust="spacing" textLength="191" x="359.5" y="475.6426">String vaccinationCenterName</text><text fill="#000000" font-family="sans-serif" font-size="14" lengthAdjust="spacing" textLength="96" x="359.5" y="493.252">LocalDate date</text><text fill="#000000" font-family="sans-serif" font-size="14" lengthAdjust="spacing" textLength="166" x="359.5" y="510.8613">VaccinationCenterSlot slot</text><text fill="#000000" font-family="sans-serif" font-size="14" lengthAdjust="spacing" textLength="121" x="359.5" y="528.4707">String vaccineType</text><text fill="#000000" font-family="sans-serif" font-size="14" lengthAdjust="spacing" textLength="125" x="359.5" y="546.0801">String vaccineName</text><line style="stroke:#181818;stroke-width:0.5;" x1="354.5" x2="555.5" y1="553.1563" y2="553.1563"/></g><!--MD5=[c02671460e69f12b5222eca068106625]
link RegisterArrivalOfSNSUserUI to RegisterArrivalOfSNSUserController--><g id="link_RegisterArrivalOfSNSUserUI_RegisterArrivalOfSNSUserController"><path codeLine="42" d="M322,55.02 C322,69.33 322,88.92 322,109.76 " fill="none" id="RegisterArrivalOfSNSUserUI-to-RegisterArrivalOfSNSUserController" style="stroke:#181818;stroke-width:1.0;stroke-dasharray:7.0,7.0;"/><polygon fill="#181818" points="322,114.79,326,105.79,322,109.79,318,105.79,322,114.79" style="stroke:#181818;stroke-width:1.0;"/></g><!--MD5=[ee503a6c31b04ca0fe4bc99a4c59da51]
link RegisterArrivalOfSNSUserController to VaccinationCenter--><g id="link_RegisterArrivalOfSNSUserController_VaccinationCenter"><path codeLine="43" d="M264.05,339.32 C254.5,357.67 244.71,376.48 235.49,394.2 " fill="none" id="RegisterArrivalOfSNSUserController-to-VaccinationCenter" style="stroke:#181818;stroke-width:1.0;stroke-dasharray:7.0,7.0;"/><polygon fill="#181818" points="233.15,398.68,240.8554,392.5459,235.4599,394.2456,233.7603,388.8501,233.15,398.68" style="stroke:#181818;stroke-width:1.0;"/></g><!--MD5=[640259cad4ed2cb7e1723b84ecabd7c0]
link RegisterArrivalOfSNSUserController to ScheduleVaccine--><g id="link_RegisterArrivalOfSNSUserController_ScheduleVaccine"><path codeLine="44" d="M379.95,339.32 C391.08,360.7 402.53,382.7 413.03,402.88 " fill="none" id="RegisterArrivalOfSNSUserController-to-ScheduleVaccine" style="stroke:#181818;stroke-width:1.0;stroke-dasharray:7.0,7.0;"/><polygon fill="#181818" points="415.4,407.43,414.7767,397.6009,413.0842,402.9986,407.6865,401.3061,415.4,407.43" style="stroke:#181818;stroke-width:1.0;"/></g><!--MD5=[3ae02fa8df3446de0f977807aed1054f]
@startuml
skinparam classAttributeIconSize 0

class RegisterArrivalOfSNSUserUI{
}

class RegisterArrivalOfSNSUserController{
    -Company company
    -VaccinationCenterStore vaccinationCenterStore
    +getVacinationCenters()
    +CheckIfCenterExists(String name)
    +validateVaccinationCenter(String vaccinationCenterName, ScheduledVaccine scheduledVaccine)
    +getAppointmentsList()
    +checkAppointment(String snsUserNumber)
    +getScheduleVaccine(int index)
    +registerArrival(String snsUserNumber)
    +validateDate(LocalDate appointmentDay, ScheduledVaccine scheduledVaccine)
}

class VaccinationCenter{
    -String name
    -int openingHourHour
    -int openingHourMinute
    -int closingHourHour
    -int closingHourMinute
    +ArrayList<String> getArrivalsList()
    +registerArrival(String snsUserNumber)


}

class ScheduleVaccine{
     String SNSNumber;
     String vaccinationCenterName
     LocalDate date
     VaccinationCenterSlot slot
     String vaccineType
     String vaccineName
}



RegisterArrivalOfSNSUserUI ..> RegisterArrivalOfSNSUserController
RegisterArrivalOfSNSUserController ..> VaccinationCenter
RegisterArrivalOfSNSUserController ..> ScheduleVaccine

@enduml

PlantUML version 1.2022.5(Sat Apr 30 11:55:52 BST 2022)
(GPL source distribution)
Java Runtime: OpenJDK Runtime Environment
JVM: OpenJDK 64-Bit Server VM
Default Encoding: Cp1252
Language: pt
Country: PT
--></g></svg>