<?xml version="1.0" encoding="UTF-8" standalone="no"?><svg xmlns="http://www.w3.org/2000/svg" xmlns:xlink="http://www.w3.org/1999/xlink" contentScriptType="application/ecmascript" contentStyleType="text/css" height="398px" preserveAspectRatio="none" style="width:531px;height:398px;background:#FFFFFF;" version="1.1" viewBox="0 0 531 398" width="531px" zoomAndPan="magnify"><defs><filter height="300%" id="f14ux3qvxl4zja" width="300%" x="-1" y="-1"><feGaussianBlur result="blurOut" stdDeviation="2.0"/><feColorMatrix in="blurOut" result="blurOut2" type="matrix" values="0 0 0 0 0 0 0 0 0 0 0 0 0 0 0 0 0 0 .4 0"/><feOffset dx="4.0" dy="4.0" in="blurOut2" result="blurOut3"/><feBlend in="SourceGraphic" in2="blurOut3" mode="normal"/></filter></defs><g><rect fill="#FFFFFF" filter="url(#f14ux3qvxl4zja)" height="197.1738" style="stroke:#A80036;stroke-width:1.0;" width="10" x="97.5" y="98.4883"/><rect fill="#FFFFFF" filter="url(#f14ux3qvxl4zja)" height="29.3105" style="stroke:#A80036;stroke-width:1.0;" width="10" x="481.5" y="119.7988"/><rect fill="#FFFFFF" filter="url(#f14ux3qvxl4zja)" height="29.3105" style="stroke:#A80036;stroke-width:1.0;" width="10" x="481.5" y="178.4199"/><rect fill="#FFFFFF" filter="url(#f14ux3qvxl4zja)" height="29.3105" style="stroke:#A80036;stroke-width:1.0;" width="10" x="481.5" y="266.3516"/><line style="stroke:#A80036;stroke-width:1.0;stroke-dasharray:5.0,5.0;" x1="102" x2="102" y1="88.4883" y2="313.6621"/><line style="stroke:#A80036;stroke-width:1.0;stroke-dasharray:5.0,5.0;" x1="486.5" x2="486.5" y1="88.4883" y2="313.6621"/><text fill="#000000" font-family="sans-serif" font-size="14" lengthAdjust="spacing" textLength="189" x="5" y="85.5352">Organization Administrator</text><ellipse cx="102.5" cy="15" fill="#FEFECE" filter="url(#f14ux3qvxl4zja)" rx="8" ry="8" style="stroke:#A80036;stroke-width:2.0;"/><path d="M102.5,23 L102.5,50 M89.5,31 L115.5,31 M102.5,50 L89.5,65 M102.5,50 L115.5,65 " fill="none" filter="url(#f14ux3qvxl4zja)" style="stroke:#A80036;stroke-width:2.0;"/><text fill="#000000" font-family="sans-serif" font-size="14" lengthAdjust="spacing" textLength="189" x="5" y="326.1973">Organization Administrator</text><ellipse cx="102.5" cy="339.1504" fill="#FEFECE" filter="url(#f14ux3qvxl4zja)" rx="8" ry="8" style="stroke:#A80036;stroke-width:2.0;"/><path d="M102.5,347.1504 L102.5,374.1504 M89.5,355.1504 L115.5,355.1504 M102.5,374.1504 L89.5,389.1504 M102.5,374.1504 L115.5,389.1504 " fill="none" filter="url(#f14ux3qvxl4zja)" style="stroke:#A80036;stroke-width:2.0;"/><rect fill="#FEFECE" filter="url(#f14ux3qvxl4zja)" height="30.4883" style="stroke:#A80036;stroke-width:1.5;" width="66" x="451.5" y="53"/><text fill="#000000" font-family="sans-serif" font-size="14" lengthAdjust="spacing" textLength="52" x="458.5" y="73.5352">:System</text><rect fill="#FEFECE" filter="url(#f14ux3qvxl4zja)" height="30.4883" style="stroke:#A80036;stroke-width:1.5;" width="66" x="451.5" y="312.6621"/><text fill="#000000" font-family="sans-serif" font-size="14" lengthAdjust="spacing" textLength="52" x="458.5" y="333.1973">:System</text><rect fill="#FFFFFF" filter="url(#f14ux3qvxl4zja)" height="197.1738" style="stroke:#A80036;stroke-width:1.0;" width="10" x="97.5" y="98.4883"/><rect fill="#FFFFFF" filter="url(#f14ux3qvxl4zja)" height="29.3105" style="stroke:#A80036;stroke-width:1.0;" width="10" x="481.5" y="119.7988"/><rect fill="#FFFFFF" filter="url(#f14ux3qvxl4zja)" height="29.3105" style="stroke:#A80036;stroke-width:1.0;" width="10" x="481.5" y="178.4199"/><rect fill="#FFFFFF" filter="url(#f14ux3qvxl4zja)" height="29.3105" style="stroke:#A80036;stroke-width:1.0;" width="10" x="481.5" y="266.3516"/><polygon fill="#A80036" points="469.5,115.7988,479.5,119.7988,469.5,123.7988,473.5,119.7988" style="stroke:#A80036;stroke-width:1.0;"/><line style="stroke:#A80036;stroke-width:1.0;" x1="107.5" x2="475.5" y1="119.7988" y2="119.7988"/><text fill="#000000" font-family="sans-serif" font-size="13" font-weight="bold" lengthAdjust="spacing" textLength="9" x="114.5" y="115.0566">1</text><text fill="#000000" font-family="sans-serif" font-size="13" lengthAdjust="spacing" textLength="342" x="127.5" y="115.0566">asks for a list of Employees with a given function/role</text><polygon fill="#A80036" points="118.5,145.1094,108.5,149.1094,118.5,153.1094,114.5,149.1094" style="stroke:#A80036;stroke-width:1.0;"/><line style="stroke:#A80036;stroke-width:1.0;stroke-dasharray:2.0,2.0;" x1="112.5" x2="485.5" y1="149.1094" y2="149.1094"/><text fill="#000000" font-family="sans-serif" font-size="13" font-weight="bold" lengthAdjust="spacing" textLength="9" x="124.5" y="144.3672">2</text><text fill="#000000" font-family="sans-serif" font-size="13" lengthAdjust="spacing" textLength="121" x="137.5" y="144.3672">requests data (role)</text><polygon fill="#A80036" points="469.5,174.4199,479.5,178.4199,469.5,182.4199,473.5,178.4199" style="stroke:#A80036;stroke-width:1.0;"/><line style="stroke:#A80036;stroke-width:1.0;" x1="107.5" x2="475.5" y1="178.4199" y2="178.4199"/><text fill="#000000" font-family="sans-serif" font-size="13" font-weight="bold" lengthAdjust="spacing" textLength="9" x="114.5" y="173.6777">3</text><text fill="#000000" font-family="sans-serif" font-size="13" lengthAdjust="spacing" textLength="131" x="127.5" y="173.6777">types requested data</text><polygon fill="#A80036" points="118.5,203.7305,108.5,207.7305,118.5,211.7305,114.5,207.7305" style="stroke:#A80036;stroke-width:1.0;"/><line style="stroke:#A80036;stroke-width:1.0;stroke-dasharray:2.0,2.0;" x1="112.5" x2="485.5" y1="207.7305" y2="207.7305"/><text fill="#000000" font-family="sans-serif" font-size="13" font-weight="bold" lengthAdjust="spacing" textLength="9" x="124.5" y="202.9883">4</text><text fill="#000000" font-family="sans-serif" font-size="13" lengthAdjust="spacing" textLength="329" x="137.5" y="202.9883">create a list of Employees with a given function/role</text><polygon fill="#A80036" points="118.5,233.041,108.5,237.041,118.5,241.041,114.5,237.041" style="stroke:#A80036;stroke-width:1.0;"/><line style="stroke:#A80036;stroke-width:1.0;stroke-dasharray:2.0,2.0;" x1="112.5" x2="485.5" y1="237.041" y2="237.041"/><text fill="#000000" font-family="sans-serif" font-size="13" font-weight="bold" lengthAdjust="spacing" textLength="9" x="124.5" y="232.2988">5</text><text fill="#000000" font-family="sans-serif" font-size="13" lengthAdjust="spacing" textLength="260" x="137.5" y="232.2988">shows all data and requests confirmation</text><polygon fill="#A80036" points="469.5,262.3516,479.5,266.3516,469.5,270.3516,473.5,266.3516" style="stroke:#A80036;stroke-width:1.0;"/><line style="stroke:#A80036;stroke-width:1.0;" x1="107.5" x2="475.5" y1="266.3516" y2="266.3516"/><text fill="#000000" font-family="sans-serif" font-size="13" font-weight="bold" lengthAdjust="spacing" textLength="9" x="114.5" y="261.6094">6</text><text fill="#000000" font-family="sans-serif" font-size="13" lengthAdjust="spacing" textLength="111" x="127.5" y="261.6094">confirms the data</text><polygon fill="#A80036" points="113.5,291.6621,103.5,295.6621,113.5,299.6621,109.5,295.6621" style="stroke:#A80036;stroke-width:1.0;"/><line style="stroke:#A80036;stroke-width:1.0;stroke-dasharray:2.0,2.0;" x1="107.5" x2="485.5" y1="295.6621" y2="295.6621"/><text fill="#000000" font-family="sans-serif" font-size="13" font-weight="bold" lengthAdjust="spacing" textLength="9" x="119.5" y="290.9199">7</text><text fill="#000000" font-family="sans-serif" font-size="13" lengthAdjust="spacing" textLength="167" x="132.5" y="290.9199">informs operation success</text><!--MD5=[c1a01f18026aa091320ba91cbdf681f0]
@startuml
autonumber
actor "Organization Administrator" as ADM

activate ADM
ADM -> ":System" : asks for a list of Employees with a given function/role
activate ":System"
":System" - -> ADM : requests data (role)
deactivate ":System"

ADM -> ":System" : types requested data
activate ":System"
":System" - -> ADM : create a list of Employees with a given function/role
deactivate ":System"

":System" - -> ADM : shows all data and requests confirmation
deactivate ":System"

ADM -> ":System" : confirms the data
activate ":System"
":System" - -> ADM : informs operation success
deactivate ":System"

deactivate ADM

@enduml

PlantUML version 1.2022.1(Tue Feb 01 18:19:58 WET 2022)
(GPL source distribution)
Java Runtime: OpenJDK Runtime Environment
JVM: OpenJDK 64-Bit Server VM
Default Encoding: UTF-8
Language: pt
Country: PT
--></g></svg>