<?xml version="1.0" encoding="UTF-8" standalone="no"?><svg xmlns="http://www.w3.org/2000/svg" xmlns:xlink="http://www.w3.org/1999/xlink" contentStyleType="text/css" height="609px" preserveAspectRatio="none" style="width:1036px;height:609px;background:#FFFFFF;" version="1.1" viewBox="0 0 1036 609" width="1036px" zoomAndPan="magnify"><defs/><g><!--MD5=[02e4b9b7573f1156f41e60aa5b4e25a4]
class Company--><g id="elem_Company"><rect codeLine="6" fill="#F1F1F1" height="57.6094" id="Company" rx="2.5" ry="2.5" style="stroke:#181818;stroke-width:0.5;" width="99" x="32.5" y="148"/><ellipse cx="50.65" cy="164" fill="#ADD1B2" rx="11" ry="11" style="stroke:#181818;stroke-width:1.0;"/><path d="M52.65,160.5 Q52.8531,160 53.0875,159.75 Q53.3219,159.5 53.5875,159.5 Q54.0563,159.5 54.3531,159.7813 Q54.65,160.0625 54.65,160.7188 L54.65,162.2813 Q54.65,162.9375 54.3688,163.2188 Q54.0875,163.5 53.65,163.5 Q53.2594,163.5 53.0094,163.3281 Q52.7594,163.1563 52.65,162.7031 Q52.6031,162.3906 52.4313,162.2188 Q52.1188,161.8906 51.5563,161.7031 Q50.9938,161.5 50.4313,161.5 Q49.7281,161.5 49.1344,161.7813 Q48.5563,162.0625 48.1031,162.6875 Q47.65,163.3125 47.65,164.1719 L47.65,165.0938 Q47.65,166.125 48.4938,166.8125 Q49.3375,167.5 50.8375,167.5 Q51.7281,167.5 52.3531,167.2969 Q52.7125,167.1875 53.1188,166.8281 Q53.3844,166.625 53.525,166.5625 Q53.6656,166.5 53.8375,166.5 Q54.1656,166.5 54.4,166.7656 Q54.65,167.0156 54.65,167.375 Q54.65,167.7188 54.3063,168.125 Q53.8063,168.7188 53.0094,169.0469 Q51.9625,169.5 50.6813,169.5 Q49.1813,169.5 47.9781,168.9063 Q47.0094,168.4375 46.3219,167.4219 Q45.65,166.4063 45.65,165.2031 L45.65,164.1094 Q45.65,162.8594 46.2438,161.7656 Q46.8531,160.6719 47.9,160.0938 Q48.9625,159.5 50.15,159.5 Q50.8688,159.5 51.4938,159.75 Q52.1188,160 52.65,160.5 Z " fill="#000000"/><text fill="#000000" font-family="sans-serif" font-size="14" lengthAdjust="spacing" textLength="60" x="65.35" y="169.7285">Company</text><line style="stroke:#181818;stroke-width:0.5;" x1="33.5" x2="130.5" y1="180" y2="180"/><text fill="#000000" font-family="sans-serif" font-size="14" lengthAdjust="spacing" textLength="73" x="52.5" y="198.5332">designation</text></g><!--MD5=[7421f545a0d8420c5bec41e74b387d9c]
class Employee--><g id="elem_Employee"><rect codeLine="10" fill="#F1F1F1" height="145.6563" id="Employee" rx="2.5" ry="2.5" style="stroke:#181818;stroke-width:0.5;" width="145" x="286.5" y="7"/><ellipse cx="324.45" cy="23" fill="#ADD1B2" rx="11" ry="11" style="stroke:#181818;stroke-width:1.0;"/><path d="M326.45,19.5 Q326.6531,19 326.8875,18.75 Q327.1219,18.5 327.3875,18.5 Q327.8563,18.5 328.1531,18.7813 Q328.45,19.0625 328.45,19.7188 L328.45,21.2813 Q328.45,21.9375 328.1688,22.2188 Q327.8875,22.5 327.45,22.5 Q327.0594,22.5 326.8094,22.3281 Q326.5594,22.1563 326.45,21.7031 Q326.4031,21.3906 326.2313,21.2188 Q325.9188,20.8906 325.3563,20.7031 Q324.7938,20.5 324.2313,20.5 Q323.5281,20.5 322.9344,20.7813 Q322.3563,21.0625 321.9031,21.6875 Q321.45,22.3125 321.45,23.1719 L321.45,24.0938 Q321.45,25.125 322.2938,25.8125 Q323.1375,26.5 324.6375,26.5 Q325.5281,26.5 326.1531,26.2969 Q326.5125,26.1875 326.9188,25.8281 Q327.1844,25.625 327.325,25.5625 Q327.4656,25.5 327.6375,25.5 Q327.9656,25.5 328.2,25.7656 Q328.45,26.0156 328.45,26.375 Q328.45,26.7188 328.1063,27.125 Q327.6063,27.7188 326.8094,28.0469 Q325.7625,28.5 324.4813,28.5 Q322.9813,28.5 321.7781,27.9063 Q320.8094,27.4375 320.1219,26.4219 Q319.45,25.4063 319.45,24.2031 L319.45,23.1094 Q319.45,21.8594 320.0438,20.7656 Q320.6531,19.6719 321.7,19.0938 Q322.7625,18.5 323.95,18.5 Q324.6688,18.5 325.2938,18.75 Q325.9188,19 326.45,19.5 Z " fill="#000000"/><text fill="#000000" font-family="sans-serif" font-size="14" lengthAdjust="spacing" textLength="62" x="343.55" y="28.7285">Employee</text><line style="stroke:#181818;stroke-width:0.5;" x1="287.5" x2="430.5" y1="39" y2="39"/><text fill="#000000" font-family="sans-serif" font-size="14" lengthAdjust="spacing" textLength="11" x="306.5" y="57.5332">id</text><text fill="#000000" font-family="sans-serif" font-size="14" lengthAdjust="spacing" textLength="35" x="306.5" y="75.1426">name</text><text fill="#000000" font-family="sans-serif" font-size="14" lengthAdjust="spacing" textLength="33" x="306.5" y="92.752">email</text><text fill="#000000" font-family="sans-serif" font-size="14" lengthAdjust="spacing" textLength="51" x="306.5" y="110.3613">address</text><text fill="#000000" font-family="sans-serif" font-size="14" lengthAdjust="spacing" textLength="89" x="306.5" y="127.9707">phoneNumber</text><text fill="#000000" font-family="sans-serif" font-size="14" lengthAdjust="spacing" textLength="119" x="306.5" y="145.5801">citizenCardNumber</text></g><!--MD5=[45d42ff7800d812d5f83c7d3273eb427]
class UserRole--><g id="elem_UserRole"><rect codeLine="19" fill="#F1F1F1" height="75.2188" id="UserRole" rx="2.5" ry="2.5" style="stroke:#181818;stroke-width:0.5;" width="99" x="670" y="168.5"/><ellipse cx="689.05" cy="184.5" fill="#ADD1B2" rx="11" ry="11" style="stroke:#181818;stroke-width:1.0;"/><path d="M691.05,181 Q691.2531,180.5 691.4875,180.25 Q691.7219,180 691.9875,180 Q692.4563,180 692.7531,180.2813 Q693.05,180.5625 693.05,181.2188 L693.05,182.7813 Q693.05,183.4375 692.7688,183.7188 Q692.4875,184 692.05,184 Q691.6594,184 691.4094,183.8281 Q691.1594,183.6563 691.05,183.2031 Q691.0031,182.8906 690.8313,182.7188 Q690.5188,182.3906 689.9563,182.2031 Q689.3938,182 688.8313,182 Q688.1281,182 687.5344,182.2813 Q686.9563,182.5625 686.5031,183.1875 Q686.05,183.8125 686.05,184.6719 L686.05,185.5938 Q686.05,186.625 686.8938,187.3125 Q687.7375,188 689.2375,188 Q690.1281,188 690.7531,187.7969 Q691.1125,187.6875 691.5188,187.3281 Q691.7844,187.125 691.925,187.0625 Q692.0656,187 692.2375,187 Q692.5656,187 692.8,187.2656 Q693.05,187.5156 693.05,187.875 Q693.05,188.2188 692.7063,188.625 Q692.2063,189.2188 691.4094,189.5469 Q690.3625,190 689.0813,190 Q687.5813,190 686.3781,189.4063 Q685.4094,188.9375 684.7219,187.9219 Q684.05,186.9063 684.05,185.7031 L684.05,184.6094 Q684.05,183.3594 684.6438,182.2656 Q685.2531,181.1719 686.3,180.5938 Q687.3625,180 688.55,180 Q689.2688,180 689.8938,180.25 Q690.5188,180.5 691.05,181 Z " fill="#000000"/><text fill="#000000" font-family="sans-serif" font-size="14" lengthAdjust="spacing" textLength="58" x="703.95" y="190.2285">UserRole</text><line style="stroke:#181818;stroke-width:0.5;" x1="671" x2="768" y1="200.5" y2="200.5"/><text fill="#000000" font-family="sans-serif" font-size="14" lengthAdjust="spacing" textLength="11" x="690" y="219.0332">id</text><text fill="#000000" font-family="sans-serif" font-size="14" lengthAdjust="spacing" textLength="73" x="690" y="236.6426">designation</text></g><!--MD5=[2d935fd2dd068a13da1ae531f9857c4f]
class CenterCoordinator--><g id="elem_CenterCoordinator"><rect codeLine="24" fill="#F1F1F1" height="40" id="CenterCoordinator" rx="2.5" ry="2.5" style="stroke:#181818;stroke-width:0.5;" width="150" x="7" y="294"/><ellipse cx="22" cy="310" fill="#ADD1B2" rx="11" ry="11" style="stroke:#181818;stroke-width:1.0;"/><path d="M24,306.5 Q24.2031,306 24.4375,305.75 Q24.6719,305.5 24.9375,305.5 Q25.4063,305.5 25.7031,305.7813 Q26,306.0625 26,306.7188 L26,308.2813 Q26,308.9375 25.7188,309.2188 Q25.4375,309.5 25,309.5 Q24.6094,309.5 24.3594,309.3281 Q24.1094,309.1563 24,308.7031 Q23.9531,308.3906 23.7813,308.2188 Q23.4688,307.8906 22.9063,307.7031 Q22.3438,307.5 21.7813,307.5 Q21.0781,307.5 20.4844,307.7813 Q19.9063,308.0625 19.4531,308.6875 Q19,309.3125 19,310.1719 L19,311.0938 Q19,312.125 19.8438,312.8125 Q20.6875,313.5 22.1875,313.5 Q23.0781,313.5 23.7031,313.2969 Q24.0625,313.1875 24.4688,312.8281 Q24.7344,312.625 24.875,312.5625 Q25.0156,312.5 25.1875,312.5 Q25.5156,312.5 25.75,312.7656 Q26,313.0156 26,313.375 Q26,313.7188 25.6563,314.125 Q25.1563,314.7188 24.3594,315.0469 Q23.3125,315.5 22.0313,315.5 Q20.5313,315.5 19.3281,314.9063 Q18.3594,314.4375 17.6719,313.4219 Q17,312.4063 17,311.2031 L17,310.1094 Q17,308.8594 17.5938,307.7656 Q18.2031,306.6719 19.25,306.0938 Q20.3125,305.5 21.5,305.5 Q22.2188,305.5 22.8438,305.75 Q23.4688,306 24,306.5 Z " fill="#000000"/><text fill="#000000" font-family="sans-serif" font-size="14" lengthAdjust="spacing" textLength="118" x="36" y="315.7285">CenterCoordinator</text><line style="stroke:#181818;stroke-width:0.5;" x1="8" x2="156" y1="326" y2="326"/></g><!--MD5=[b2c24ec9159ea4e2d3ba0ba902be6e34]
class EntryRecord--><g id="elem_EntryRecord"><rect codeLine="27" fill="#F1F1F1" height="57.6094" id="EntryRecord" rx="2.5" ry="2.5" style="stroke:#181818;stroke-width:0.5;" width="111" x="909.5" y="397"/><ellipse cx="924.5" cy="413" fill="#ADD1B2" rx="11" ry="11" style="stroke:#181818;stroke-width:1.0;"/><path d="M926.5,409.5 Q926.7031,409 926.9375,408.75 Q927.1719,408.5 927.4375,408.5 Q927.9063,408.5 928.2031,408.7813 Q928.5,409.0625 928.5,409.7188 L928.5,411.2813 Q928.5,411.9375 928.2188,412.2188 Q927.9375,412.5 927.5,412.5 Q927.1094,412.5 926.8594,412.3281 Q926.6094,412.1563 926.5,411.7031 Q926.4531,411.3906 926.2813,411.2188 Q925.9688,410.8906 925.4063,410.7031 Q924.8438,410.5 924.2813,410.5 Q923.5781,410.5 922.9844,410.7813 Q922.4063,411.0625 921.9531,411.6875 Q921.5,412.3125 921.5,413.1719 L921.5,414.0938 Q921.5,415.125 922.3438,415.8125 Q923.1875,416.5 924.6875,416.5 Q925.5781,416.5 926.2031,416.2969 Q926.5625,416.1875 926.9688,415.8281 Q927.2344,415.625 927.375,415.5625 Q927.5156,415.5 927.6875,415.5 Q928.0156,415.5 928.25,415.7656 Q928.5,416.0156 928.5,416.375 Q928.5,416.7188 928.1563,417.125 Q927.6563,417.7188 926.8594,418.0469 Q925.8125,418.5 924.5313,418.5 Q923.0313,418.5 921.8281,417.9063 Q920.8594,417.4375 920.1719,416.4219 Q919.5,415.4063 919.5,414.2031 L919.5,413.1094 Q919.5,411.8594 920.0938,410.7656 Q920.7031,409.6719 921.75,409.0938 Q922.8125,408.5 924,408.5 Q924.7188,408.5 925.3438,408.75 Q925.9688,409 926.5,409.5 Z " fill="#000000"/><text fill="#000000" font-family="sans-serif" font-size="14" lengthAdjust="spacing" textLength="79" x="938.5" y="418.7285">EntryRecord</text><line style="stroke:#181818;stroke-width:0.5;" x1="910.5" x2="1019.5" y1="429" y2="429"/><text fill="#000000" font-family="sans-serif" font-size="14" lengthAdjust="spacing" textLength="94" x="915.5" y="447.5332">entry date/time</text></g><!--MD5=[626ec0bbe18c4f7e6ddf555c44ce3319]
class LeavingRecord--><g id="elem_LeavingRecord"><rect codeLine="30" fill="#F1F1F1" height="57.6094" id="LeavingRecord" rx="2.5" ry="2.5" style="stroke:#181818;stroke-width:0.5;" width="128" x="901" y="490"/><ellipse cx="916" cy="506" fill="#ADD1B2" rx="11" ry="11" style="stroke:#181818;stroke-width:1.0;"/><path d="M918,502.5 Q918.2031,502 918.4375,501.75 Q918.6719,501.5 918.9375,501.5 Q919.4063,501.5 919.7031,501.7813 Q920,502.0625 920,502.7188 L920,504.2813 Q920,504.9375 919.7188,505.2188 Q919.4375,505.5 919,505.5 Q918.6094,505.5 918.3594,505.3281 Q918.1094,505.1563 918,504.7031 Q917.9531,504.3906 917.7813,504.2188 Q917.4688,503.8906 916.9063,503.7031 Q916.3438,503.5 915.7813,503.5 Q915.0781,503.5 914.4844,503.7813 Q913.9063,504.0625 913.4531,504.6875 Q913,505.3125 913,506.1719 L913,507.0938 Q913,508.125 913.8438,508.8125 Q914.6875,509.5 916.1875,509.5 Q917.0781,509.5 917.7031,509.2969 Q918.0625,509.1875 918.4688,508.8281 Q918.7344,508.625 918.875,508.5625 Q919.0156,508.5 919.1875,508.5 Q919.5156,508.5 919.75,508.7656 Q920,509.0156 920,509.375 Q920,509.7188 919.6563,510.125 Q919.1563,510.7188 918.3594,511.0469 Q917.3125,511.5 916.0313,511.5 Q914.5313,511.5 913.3281,510.9063 Q912.3594,510.4375 911.6719,509.4219 Q911,508.4063 911,507.2031 L911,506.1094 Q911,504.8594 911.5938,503.7656 Q912.2031,502.6719 913.25,502.0938 Q914.3125,501.5 915.5,501.5 Q916.2188,501.5 916.8438,501.75 Q917.4688,502 918,502.5 Z " fill="#000000"/><text fill="#000000" font-family="sans-serif" font-size="14" lengthAdjust="spacing" textLength="96" x="930" y="511.7285">LeavingRecord</text><line style="stroke:#181818;stroke-width:0.5;" x1="902" x2="1028" y1="522" y2="522"/><text fill="#000000" font-family="sans-serif" font-size="14" lengthAdjust="spacing" textLength="107" x="907" y="540.5332">leaving date/time</text></g><!--MD5=[107cfa23aa516ff83d0cf17a6f9fe7ba]
class VaccineAdministration--><g id="elem_VaccineAdministration"><rect codeLine="34" fill="#F1F1F1" height="57.6094" id="VaccineAdministration" rx="2.5" ry="2.5" style="stroke:#181818;stroke-width:0.5;" width="171" x="634" y="324"/><ellipse cx="649" cy="340" fill="#ADD1B2" rx="11" ry="11" style="stroke:#181818;stroke-width:1.0;"/><path d="M651,336.5 Q651.2031,336 651.4375,335.75 Q651.6719,335.5 651.9375,335.5 Q652.4063,335.5 652.7031,335.7813 Q653,336.0625 653,336.7188 L653,338.2813 Q653,338.9375 652.7188,339.2188 Q652.4375,339.5 652,339.5 Q651.6094,339.5 651.3594,339.3281 Q651.1094,339.1563 651,338.7031 Q650.9531,338.3906 650.7813,338.2188 Q650.4688,337.8906 649.9063,337.7031 Q649.3438,337.5 648.7813,337.5 Q648.0781,337.5 647.4844,337.7813 Q646.9063,338.0625 646.4531,338.6875 Q646,339.3125 646,340.1719 L646,341.0938 Q646,342.125 646.8438,342.8125 Q647.6875,343.5 649.1875,343.5 Q650.0781,343.5 650.7031,343.2969 Q651.0625,343.1875 651.4688,342.8281 Q651.7344,342.625 651.875,342.5625 Q652.0156,342.5 652.1875,342.5 Q652.5156,342.5 652.75,342.7656 Q653,343.0156 653,343.375 Q653,343.7188 652.6563,344.125 Q652.1563,344.7188 651.3594,345.0469 Q650.3125,345.5 649.0313,345.5 Q647.5313,345.5 646.3281,344.9063 Q645.3594,344.4375 644.6719,343.4219 Q644,342.4063 644,341.2031 L644,340.1094 Q644,338.8594 644.5938,337.7656 Q645.2031,336.6719 646.25,336.0938 Q647.3125,335.5 648.5,335.5 Q649.2188,335.5 649.8438,335.75 Q650.4688,336 651,336.5 Z " fill="#000000"/><text fill="#000000" font-family="sans-serif" font-size="14" lengthAdjust="spacing" textLength="139" x="663" y="345.7285">VaccineAdministration</text><line style="stroke:#181818;stroke-width:0.5;" x1="635" x2="804" y1="356" y2="356"/><text fill="#000000" font-family="sans-serif" font-size="14" lengthAdjust="spacing" textLength="80" x="654" y="374.5332">codeNumber</text></g><!--MD5=[de60e6d4f424ae4d0522096f76a59010]
class VaccinationCenter--><g id="elem_VaccinationCenter"><rect codeLine="38" fill="#F1F1F1" height="216.0938" id="VaccinationCenter" rx="2.5" ry="2.5" style="stroke:#181818;stroke-width:0.5;" width="148" x="285" y="364"/><ellipse cx="300" cy="380" fill="#ADD1B2" rx="11" ry="11" style="stroke:#181818;stroke-width:1.0;"/><path d="M302,376.5 Q302.2031,376 302.4375,375.75 Q302.6719,375.5 302.9375,375.5 Q303.4063,375.5 303.7031,375.7813 Q304,376.0625 304,376.7188 L304,378.2813 Q304,378.9375 303.7188,379.2188 Q303.4375,379.5 303,379.5 Q302.6094,379.5 302.3594,379.3281 Q302.1094,379.1563 302,378.7031 Q301.9531,378.3906 301.7813,378.2188 Q301.4688,377.8906 300.9063,377.7031 Q300.3438,377.5 299.7813,377.5 Q299.0781,377.5 298.4844,377.7813 Q297.9063,378.0625 297.4531,378.6875 Q297,379.3125 297,380.1719 L297,381.0938 Q297,382.125 297.8438,382.8125 Q298.6875,383.5 300.1875,383.5 Q301.0781,383.5 301.7031,383.2969 Q302.0625,383.1875 302.4688,382.8281 Q302.7344,382.625 302.875,382.5625 Q303.0156,382.5 303.1875,382.5 Q303.5156,382.5 303.75,382.7656 Q304,383.0156 304,383.375 Q304,383.7188 303.6563,384.125 Q303.1563,384.7188 302.3594,385.0469 Q301.3125,385.5 300.0313,385.5 Q298.5313,385.5 297.3281,384.9063 Q296.3594,384.4375 295.6719,383.4219 Q295,382.4063 295,381.2031 L295,380.1094 Q295,378.8594 295.5938,377.7656 Q296.2031,376.6719 297.25,376.0938 Q298.3125,375.5 299.5,375.5 Q300.2188,375.5 300.8438,375.75 Q301.4688,376 302,376.5 Z " fill="#000000"/><text fill="#000000" font-family="sans-serif" font-size="14" lengthAdjust="spacing" textLength="116" x="314" y="385.7285">VaccinationCenter</text><line style="stroke:#181818;stroke-width:0.5;" x1="286" x2="432" y1="396" y2="396"/><text fill="#000000" font-family="sans-serif" font-size="14" lengthAdjust="spacing" textLength="35" x="305" y="414.5332">name</text><text fill="#000000" font-family="sans-serif" font-size="14" lengthAdjust="spacing" textLength="89" x="305" y="432.1426">phoneNumber</text><text fill="#000000" font-family="sans-serif" font-size="14" lengthAdjust="spacing" textLength="33" x="305" y="449.752">email</text><text fill="#000000" font-family="sans-serif" font-size="14" lengthAdjust="spacing" textLength="67" x="305" y="467.3613">faxNumber</text><text fill="#000000" font-family="sans-serif" font-size="14" lengthAdjust="spacing" textLength="99" x="305" y="484.9707">websiteAddress</text><text fill="#000000" font-family="sans-serif" font-size="14" lengthAdjust="spacing" textLength="62" x="305" y="502.5801">openHour</text><text fill="#000000" font-family="sans-serif" font-size="14" lengthAdjust="spacing" textLength="63" x="305" y="520.1895">closeHour</text><text fill="#000000" font-family="sans-serif" font-size="14" lengthAdjust="spacing" textLength="76" x="305" y="537.7988">slotDuration</text><text fill="#000000" font-family="sans-serif" font-size="14" lengthAdjust="spacing" textLength="73" x="305" y="555.4082">fullCapacity</text><text fill="#000000" font-family="sans-serif" font-size="14" lengthAdjust="spacing" textLength="121" x="305" y="573.0176">maxVaccinePerSlot</text></g><!--MD5=[cd4ce1c0d44638ff9f42448de30e6b92]
class VaccineSchedule--><g id="elem_VaccineSchedule"><rect codeLine="51" fill="#F1F1F1" height="110.4375" id="VaccineSchedule" rx="2.5" ry="2.5" style="stroke:#181818;stroke-width:0.5;" width="146" x="646.5" y="417"/><ellipse cx="663.75" cy="433" fill="#ADD1B2" rx="11" ry="11" style="stroke:#181818;stroke-width:1.0;"/><path d="M665.75,429.5 Q665.9531,429 666.1875,428.75 Q666.4219,428.5 666.6875,428.5 Q667.1563,428.5 667.4531,428.7813 Q667.75,429.0625 667.75,429.7188 L667.75,431.2813 Q667.75,431.9375 667.4688,432.2188 Q667.1875,432.5 666.75,432.5 Q666.3594,432.5 666.1094,432.3281 Q665.8594,432.1563 665.75,431.7031 Q665.7031,431.3906 665.5313,431.2188 Q665.2188,430.8906 664.6563,430.7031 Q664.0938,430.5 663.5313,430.5 Q662.8281,430.5 662.2344,430.7813 Q661.6563,431.0625 661.2031,431.6875 Q660.75,432.3125 660.75,433.1719 L660.75,434.0938 Q660.75,435.125 661.5938,435.8125 Q662.4375,436.5 663.9375,436.5 Q664.8281,436.5 665.4531,436.2969 Q665.8125,436.1875 666.2188,435.8281 Q666.4844,435.625 666.625,435.5625 Q666.7656,435.5 666.9375,435.5 Q667.2656,435.5 667.5,435.7656 Q667.75,436.0156 667.75,436.375 Q667.75,436.7188 667.4063,437.125 Q666.9063,437.7188 666.1094,438.0469 Q665.0625,438.5 663.7813,438.5 Q662.2813,438.5 661.0781,437.9063 Q660.1094,437.4375 659.4219,436.4219 Q658.75,435.4063 658.75,434.2031 L658.75,433.1094 Q658.75,431.8594 659.3438,430.7656 Q659.9531,429.6719 661,429.0938 Q662.0625,428.5 663.25,428.5 Q663.9688,428.5 664.5938,428.75 Q665.2188,429 665.75,429.5 Z " fill="#000000"/><text fill="#000000" font-family="sans-serif" font-size="14" lengthAdjust="spacing" textLength="109" x="678.25" y="438.7285">VaccineSchedule</text><line style="stroke:#181818;stroke-width:0.5;" x1="647.5" x2="791.5" y1="449" y2="449"/><text fill="#000000" font-family="sans-serif" font-size="14" lengthAdjust="spacing" textLength="59" x="666.5" y="467.5332">dateTime</text><text fill="#000000" font-family="sans-serif" font-size="14" lengthAdjust="spacing" textLength="86" x="666.5" y="485.1426">Vaccine Type</text><text fill="#000000" font-family="sans-serif" font-size="14" lengthAdjust="spacing" textLength="120" x="666.5" y="502.752">Vaccination Center</text><text fill="#000000" font-family="sans-serif" font-size="14" lengthAdjust="spacing" textLength="119" x="666.5" y="520.3613">schedule date/time</text></g><!--MD5=[0f39e4cb6f03951afbf6d14bd2505654]
class Address--><g id="elem_Address"><rect fill="#F1F1F1" height="40" id="Address" rx="2.5" ry="2.5" style="stroke:#181818;stroke-width:0.5;" width="84" x="677.5" y="562"/><ellipse cx="692.5" cy="578" fill="#ADD1B2" rx="11" ry="11" style="stroke:#181818;stroke-width:1.0;"/><path d="M694.5,574.5 Q694.7031,574 694.9375,573.75 Q695.1719,573.5 695.4375,573.5 Q695.9063,573.5 696.2031,573.7813 Q696.5,574.0625 696.5,574.7188 L696.5,576.2813 Q696.5,576.9375 696.2188,577.2188 Q695.9375,577.5 695.5,577.5 Q695.1094,577.5 694.8594,577.3281 Q694.6094,577.1563 694.5,576.7031 Q694.4531,576.3906 694.2813,576.2188 Q693.9688,575.8906 693.4063,575.7031 Q692.8438,575.5 692.2813,575.5 Q691.5781,575.5 690.9844,575.7813 Q690.4063,576.0625 689.9531,576.6875 Q689.5,577.3125 689.5,578.1719 L689.5,579.0938 Q689.5,580.125 690.3438,580.8125 Q691.1875,581.5 692.6875,581.5 Q693.5781,581.5 694.2031,581.2969 Q694.5625,581.1875 694.9688,580.8281 Q695.2344,580.625 695.375,580.5625 Q695.5156,580.5 695.6875,580.5 Q696.0156,580.5 696.25,580.7656 Q696.5,581.0156 696.5,581.375 Q696.5,581.7188 696.1563,582.125 Q695.6563,582.7188 694.8594,583.0469 Q693.8125,583.5 692.5313,583.5 Q691.0313,583.5 689.8281,582.9063 Q688.8594,582.4375 688.1719,581.4219 Q687.5,580.4063 687.5,579.2031 L687.5,578.1094 Q687.5,576.8594 688.0938,575.7656 Q688.7031,574.6719 689.75,574.0938 Q690.8125,573.5 692,573.5 Q692.7188,573.5 693.3438,573.75 Q693.9688,574 694.5,574.5 Z " fill="#000000"/><text fill="#000000" font-family="sans-serif" font-size="14" lengthAdjust="spacing" textLength="52" x="706.5" y="583.7285">Address</text><line style="stroke:#181818;stroke-width:0.5;" x1="678.5" x2="760.5" y1="594" y2="594"/></g><!--MD5=[233a09a91aa8c3856d31bdcfa7c5bcf8]
link VaccinationCenter to Address--><g id="link_VaccinationCenter_Address"><path codeLine="58" d="M433.41,494.53 C506.95,517.09 617.53,551.02 677.04,569.28 " fill="none" id="VaccinationCenter-Address" style="stroke:#181818;stroke-width:1.0;"/><polygon fill="#000000" points="525.2801,497.6424,517.4949,492.1796,515.7708,497.7989,525.2801,497.6424" style="stroke:#000000;stroke-width:1.0;"/><text fill="#000000" font-family="sans-serif" font-size="13" lengthAdjust="spacing" textLength="21" x="529.5" y="501.4951">has</text></g><!--MD5=[149abafbba6b9e0b8678398b3d9ebfaa]
link VaccineSchedule to EntryRecord--><g id="link_VaccineSchedule_EntryRecord"><path codeLine="59" d="M792.57,458.39 C829.87,451.34 874.69,442.87 909.14,436.36 " fill="none" id="VaccineSchedule-EntryRecord" style="stroke:#181818;stroke-width:1.0;"/><polygon fill="#000000" points="844.913,435.2473,835.4795,434.0391,836.571,439.8148,844.913,435.2473" style="stroke:#000000;stroke-width:1.0;"/><text fill="#000000" font-family="sans-serif" font-size="13" lengthAdjust="spacing" textLength="21" x="849" y="441.4951">has</text><text fill="#000000" font-family="sans-serif" font-size="13" lengthAdjust="spacing" textLength="7" x="800.4663" y="471.3022">1</text><text fill="#000000" font-family="sans-serif" font-size="13" lengthAdjust="spacing" textLength="7" x="894.5345" y="452.255">1</text></g><!--MD5=[9db72f652c7414afcf0d91967a84e7e2]
link VaccineSchedule to LeavingRecord--><g id="link_VaccineSchedule_LeavingRecord"><path codeLine="60" d="M792.57,485.91 C826.93,492.54 867.66,500.4 900.79,506.8 " fill="none" id="VaccineSchedule-LeavingRecord" style="stroke:#181818;stroke-width:1.0;"/><polygon fill="#000000" points="844.9094,488.1235,836.5853,483.5234,835.4712,489.2948,844.9094,488.1235" style="stroke:#000000;stroke-width:1.0;"/><text fill="#000000" font-family="sans-serif" font-size="13" lengthAdjust="spacing" textLength="21" x="849" y="492.4951">has</text><text fill="#000000" font-family="sans-serif" font-size="13" lengthAdjust="spacing" textLength="7" x="800.4663" y="501.6602">1</text><text fill="#000000" font-family="sans-serif" font-size="13" lengthAdjust="spacing" textLength="7" x="885.961" y="519.8524">1</text></g><!--MD5=[58a7f89859e4960c06ec5aa43a0116b6]
link VaccinationCenter to VaccineAdministration--><g id="link_VaccinationCenter_VaccineAdministration"><path codeLine="61" d="M433.41,447.63 C491.59,428.32 572.94,401.32 633.86,381.1 " fill="none" id="VaccinationCenter-VaccineAdministration" style="stroke:#181818;stroke-width:1.0;"/><polygon fill="#000000" points="488.2546,384.7508,497.7649,384.6909,495.9134,379.1123,488.2546,384.7508" style="stroke:#000000;stroke-width:1.0;"/><text fill="#000000" font-family="sans-serif" font-size="13" lengthAdjust="spacing" textLength="76" x="502" y="388.4951">are related to</text><text fill="#000000" font-family="sans-serif" font-size="13" lengthAdjust="spacing" textLength="7" x="441.0793" y="459.5264">1</text><text fill="#000000" font-family="sans-serif" font-size="13" lengthAdjust="spacing" textLength="20" x="605.9398" y="397.6154">0..*</text></g><!--MD5=[1fe780c5042c93c38b83d74528355a6b]
link VaccinationCenter to VaccineSchedule--><g id="link_VaccinationCenter_VaccineSchedule"><path codeLine="63" d="M433.41,472 C495.69,472 584.52,472 646.41,472 " fill="none" id="VaccinationCenter-VaccineSchedule" style="stroke:#181818;stroke-width:1.0;"/><polygon fill="#000000" points="473,463.1758,463.9549,460.2369,463.9549,466.1147,473,463.1758" style="stroke:#000000;stroke-width:1.0;"/><text fill="#000000" font-family="sans-serif" font-size="13" lengthAdjust="spacing" textLength="126" x="477" y="468.4951">is/are associated with</text><text fill="#000000" font-family="sans-serif" font-size="13" lengthAdjust="spacing" textLength="7" x="441.0793" y="486.2953">1</text><text fill="#000000" font-family="sans-serif" font-size="13" lengthAdjust="spacing" textLength="20" x="618.4905" y="486.2535">1..*</text></g><!--MD5=[3ea266e1f1a083dbb2328bdfa2f9d45f]
link CenterCoordinator to UserRole--><g id="link_CenterCoordinator_UserRole"><path codeLine="65" d="M157.14,301.4 C281.28,280.3 529.4,238.14 649.81,217.67 " fill="none" id="CenterCoordinator-to-UserRole" style="stroke:#181818;stroke-width:1.0;"/><polygon fill="none" points="648.82,210.74,669.71,214.29,651.17,224.54,648.82,210.74" style="stroke:#181818;stroke-width:1.0;"/><text fill="#000000" font-family="sans-serif" font-size="13" lengthAdjust="spacing" textLength="21" x="348.5" y="251.4951">is a</text></g><!--MD5=[09366576ee87d48d594df10cacc83f45]
link Company to Employee--><g id="link_Company_Employee"><path codeLine="68" d="M131.53,159.88 C174.47,144.73 237.71,122.43 286.45,105.24 " fill="none" id="Company-Employee" style="stroke:#181818;stroke-width:1.0;"/><polygon fill="#000000" points="202.2153,106.5127,192.7077,106.7497,194.6628,112.2928,202.2153,106.5127" style="stroke:#000000;stroke-width:1.0;"/><text fill="#000000" font-family="sans-serif" font-size="13" lengthAdjust="spacing" textLength="42" x="206.5" y="113.4951">employ</text><text fill="#000000" font-family="sans-serif" font-size="13" lengthAdjust="spacing" textLength="7" x="139.6502" y="172.0354">1</text><text fill="#000000" font-family="sans-serif" font-size="13" lengthAdjust="spacing" textLength="5" x="273.7105" y="122.1988">*</text></g><!--MD5=[4d2bf9651ec2cec1e10821c6121f5fe0]
link Company to UserRole--><g id="link_Company_UserRole"><path codeLine="69" d="M131.56,179.82 C172.47,182.15 232.55,185.48 285,188 C424.57,194.7 589.48,201.14 669.73,204.18 " fill="none" id="Company-UserRole" style="stroke:#181818;stroke-width:1.0;"/><polygon fill="#000000" points="324.9949,179.4019,316.0919,176.0569,315.8262,181.9288,324.9949,179.4019" style="stroke:#000000;stroke-width:1.0;"/><text fill="#000000" font-family="sans-serif" font-size="13" lengthAdjust="spacing" textLength="73" x="329" y="184.4951">Compreends</text><text fill="#000000" font-family="sans-serif" font-size="13" lengthAdjust="spacing" textLength="7" x="139.3532" y="194.9588">1</text><text fill="#000000" font-family="sans-serif" font-size="13" lengthAdjust="spacing" textLength="5" x="657.0528" y="218.5926">*</text></g><!--MD5=[edf9467fb81ecc5fe28608b9d8a617e0]
link Employee to UserRole--><g id="link_Employee_UserRole"><path codeLine="71" d="M431.69,105.2 C502.39,130.04 608.51,167.34 669.9,188.92 " fill="none" id="Employee-UserRole" style="stroke:#181818;stroke-width:1.0;"/><polygon fill="#000000" points="507.7171,110.8336,500.1582,105.0619,498.2093,110.6072,507.7171,110.8336" style="stroke:#000000;stroke-width:1.0;"/><text fill="#000000" font-family="sans-serif" font-size="13" lengthAdjust="spacing" textLength="56" x="512" y="114.4951">has/plays</text></g><!--MD5=[d5cf03d886352995267197dc535618ec]
link CenterCoordinator to VaccinationCenter--><g id="link_CenterCoordinator_VaccinationCenter"><path codeLine="73" d="M117.83,334.01 C159.6,358.01 230.73,398.88 284.78,429.93 " fill="none" id="CenterCoordinator-VaccinationCenter" style="stroke:#181818;stroke-width:1.0;"/><polygon fill="#000000" points="196.3354,368.6666,189.9567,361.6124,187.0285,366.7089,196.3354,368.6666" style="stroke:#000000;stroke-width:1.0;"/><text fill="#000000" font-family="sans-serif" font-size="13" lengthAdjust="spacing" textLength="53" x="201" y="371.4951">manages</text><text fill="#000000" font-family="sans-serif" font-size="13" lengthAdjust="spacing" textLength="7" x="119.9228" y="355.4324">1</text><text fill="#000000" font-family="sans-serif" font-size="13" lengthAdjust="spacing" textLength="7" x="269.7651" y="439.9249">1</text></g><!--MD5=[b10b33eb228d10d2d458b7b6c0a19fcb]
@startuml
hide methods

left to right direction
skinparam classAttributeIconSize 1

class Company{
 -designation
}

class Employee{
-id
-name
-email
-address
-phoneNumber
-citizenCardNumber
}

class UserRole{
-id
-designation
}

class CenterCoordinator{
}

class EntryRecord{
entry date/time
}
class LeavingRecord{
leaving date/time
}

class VaccineAdministration{
 -codeNumber
}

class VaccinationCenter {
  -name
  -phoneNumber
  -email
  -faxNumber
  -websiteAddress
  -openHour
  -closeHour
  -slotDuration
  -fullCapacity
  -maxVaccinePerSlot
}

class VaccineSchedule{
 -dateTime
 -Vaccine Type
 -Vaccination Center
 -schedule date/time
}

VaccinationCenter  - -  "Address" : has >
VaccineSchedule "1" - - "1" EntryRecord : has >
VaccineSchedule "1" - - "1" LeavingRecord  : has >
VaccinationCenter  "1" - - "0..*" VaccineAdministration : are related to <

VaccinationCenter "1" - - "1..*" VaccineSchedule  : is/are associated with >

CenterCoordinator  - - -|>  UserRole : is a


Company "1" - - "*" Employee : employ >
Company "1" - - "*" UserRole : Compreends >

Employee  - - UserRole : has/plays >

CenterCoordinator "1" - - "1" VaccinationCenter : manages >





@enduml

PlantUML version 1.2022.5(Sat Apr 30 11:55:52 BST 2022)
(GPL source distribution)
Java Runtime: OpenJDK Runtime Environment
JVM: OpenJDK 64-Bit Server VM
Default Encoding: Cp1252
Language: pt
Country: PT
--></g></svg>