<?xml version="1.0" encoding="UTF-8" standalone="no"?><svg xmlns="http://www.w3.org/2000/svg" xmlns:xlink="http://www.w3.org/1999/xlink" contentStyleType="text/css" height="1245px" preserveAspectRatio="none" style="width:2523px;height:1245px;background:#FFFFFF;" version="1.1" viewBox="0 0 2523 1245" width="2523px" zoomAndPan="magnify"><defs/><g><!--MD5=[d5ac3844f66b12d9e08170e47495e096]
cluster app--><g id="cluster_app"><path d="M8.5,6 L35.5,6 A3.75,3.75 0 0 1 38,8.5 L45,29.6094 L2031.5,29.6094 A2.5,2.5 0 0 1 2034,32.1094 L2034,1235.5 A2.5,2.5 0 0 1 2031.5,1238 L8.5,1238 A2.5,2.5 0 0 1 6,1235.5 L6,8.5 A2.5,2.5 0 0 1 8.5,6 " fill="#DDDDDD" style="stroke:#000000;stroke-width:1.5;"/><line style="stroke:#000000;stroke-width:1.5;" x1="6" x2="45" y1="29.6094" y2="29.6094"/><text fill="#000000" font-family="sans-serif" font-size="14" font-weight="bold" lengthAdjust="spacing" textLength="26" x="10" y="22.5332">app</text></g><!--MD5=[64e2e010ba86d7988e5cd73bd64f61f9]
cluster ui--><g id="cluster_ui"><path d="M1588.5,50 L1602.5,50 A3.75,3.75 0 0 1 1605,52.5 L1612,73.6094 L1881.5,73.6094 A2.5,2.5 0 0 1 1884,76.1094 L1884,215.5 A2.5,2.5 0 0 1 1881.5,218 L1588.5,218 A2.5,2.5 0 0 1 1586,215.5 L1586,52.5 A2.5,2.5 0 0 1 1588.5,50 " fill="#DDDDDD" style="stroke:#000000;stroke-width:1.5;"/><line style="stroke:#000000;stroke-width:1.5;" x1="1586" x2="1612" y1="73.6094" y2="73.6094"/><text fill="#000000" font-family="sans-serif" font-size="14" font-weight="bold" lengthAdjust="spacing" textLength="13" x="1590" y="66.5332">ui</text></g><!--MD5=[4b7a55d430ce43d42ce9ebad9e6b4010]
cluster console--><g id="cluster_console"><path d="M1612.5,94 L1669.5,94 A3.75,3.75 0 0 1 1672,96.5 L1679,117.6094 L1857.5,117.6094 A2.5,2.5 0 0 1 1860,120.1094 L1860,191.5 A2.5,2.5 0 0 1 1857.5,194 L1612.5,194 A2.5,2.5 0 0 1 1610,191.5 L1610,96.5 A2.5,2.5 0 0 1 1612.5,94 " fill="#DDDDDD" style="stroke:#000000;stroke-width:1.5;"/><line style="stroke:#000000;stroke-width:1.5;" x1="1610" x2="1679" y1="117.6094" y2="117.6094"/><text fill="#000000" font-family="sans-serif" font-size="14" font-weight="bold" lengthAdjust="spacing" textLength="56" x="1614" y="110.5332">console</text></g><!--MD5=[10ea673caf457862023e152271927b45]
cluster controller--><g id="cluster_controller"><path d="M1462.5,251 L1532.5,251 A3.75,3.75 0 0 1 1535,253.5 L1542,274.6094 L2007.5,274.6094 A2.5,2.5 0 0 1 2010,277.1094 L2010,454.5 A2.5,2.5 0 0 1 2007.5,457 L1462.5,457 A2.5,2.5 0 0 1 1460,454.5 L1460,253.5 A2.5,2.5 0 0 1 1462.5,251 " fill="#DDDDDD" style="stroke:#000000;stroke-width:1.5;"/><line style="stroke:#000000;stroke-width:1.5;" x1="1460" x2="1542" y1="274.6094" y2="274.6094"/><text fill="#000000" font-family="sans-serif" font-size="14" font-weight="bold" lengthAdjust="spacing" textLength="69" x="1464" y="267.5332">controller</text></g><!--MD5=[27f772719433d509ddbc20ff768eba08]
cluster domain--><g id="cluster_domain"><path d="M32.5,490 L84.5,490 A3.75,3.75 0 0 1 87,492.5 L94,513.6094 L1944.5,513.6094 A2.5,2.5 0 0 1 1947,516.1094 L1947,1211.5 A2.5,2.5 0 0 1 1944.5,1214 L32.5,1214 A2.5,2.5 0 0 1 30,1211.5 L30,492.5 A2.5,2.5 0 0 1 32.5,490 " fill="#DDDDDD" style="stroke:#000000;stroke-width:1.5;"/><line style="stroke:#000000;stroke-width:1.5;" x1="30" x2="94" y1="513.6094" y2="513.6094"/><text fill="#000000" font-family="sans-serif" font-size="14" font-weight="bold" lengthAdjust="spacing" textLength="51" x="34" y="506.5332">domain</text></g><!--MD5=[5d4cd377749310b66bf14896f5cd8d9b]
cluster model--><g id="cluster_model"><path d="M56.5,534 L100.5,534 A3.75,3.75 0 0 1 103,536.5 L110,557.6094 L1920.5,557.6094 A2.5,2.5 0 0 1 1923,560.1094 L1923,1187.5 A2.5,2.5 0 0 1 1920.5,1190 L56.5,1190 A2.5,2.5 0 0 1 54,1187.5 L54,536.5 A2.5,2.5 0 0 1 56.5,534 " fill="#DDDDDD" style="stroke:#000000;stroke-width:1.5;"/><line style="stroke:#000000;stroke-width:1.5;" x1="54" x2="110" y1="557.6094" y2="557.6094"/><text fill="#000000" font-family="sans-serif" font-size="14" font-weight="bold" lengthAdjust="spacing" textLength="43" x="58" y="550.5332">model</text></g><!--MD5=[7ce1723ddb6e6233854253973eae5a71]
cluster Store--><g id="cluster_Store"><path d="M645.5,876.5 L684.5,876.5 A3.75,3.75 0 0 1 687,879 L694,900.1094 L1896.5,900.1094 A2.5,2.5 0 0 1 1899,902.6094 L1899,1009 A2.5,2.5 0 0 1 1896.5,1011.5 L645.5,1011.5 A2.5,2.5 0 0 1 643,1009 L643,879 A2.5,2.5 0 0 1 645.5,876.5 " fill="#DDDDDD" style="stroke:#000000;stroke-width:1.5;"/><line style="stroke:#000000;stroke-width:1.5;" x1="643" x2="694" y1="900.1094" y2="900.1094"/><text fill="#000000" font-family="sans-serif" font-size="14" font-weight="bold" lengthAdjust="spacing" textLength="38" x="647" y="893.0332">Store</text></g><!--MD5=[3bbea03787a63c9e9e3a6e07c5a481f8]
cluster shared--><g id="cluster_shared"><path d="M609.5,604.5 L659.5,604.5 A3.75,3.75 0 0 1 662,607 L669,628.1094 L858.5,628.1094 A2.5,2.5 0 0 1 861,630.6094 L861,737 A2.5,2.5 0 0 1 858.5,739.5 L609.5,739.5 A2.5,2.5 0 0 1 607,737 L607,607 A2.5,2.5 0 0 1 609.5,604.5 " fill="#DDDDDD" style="stroke:#000000;stroke-width:1.5;"/><line style="stroke:#000000;stroke-width:1.5;" x1="607" x2="669" y1="628.1094" y2="628.1094"/><text fill="#000000" font-family="sans-serif" font-size="14" font-weight="bold" lengthAdjust="spacing" textLength="49" x="611" y="621.0332">shared</text></g><!--MD5=[030a0aaaa6af829f258adf6d57d590a1]
cluster ExternalLibrary--><g id="cluster_ExternalLibrary"><path d="M2060.5,841 L2167.5,841 A3.75,3.75 0 0 1 2170,843.5 L2177,864.6094 L2513.5,864.6094 A2.5,2.5 0 0 1 2516,867.1094 L2516,1024.5 A2.5,2.5 0 0 1 2513.5,1027 L2060.5,1027 A2.5,2.5 0 0 1 2058,1024.5 L2058,843.5 A2.5,2.5 0 0 1 2060.5,841 " fill="#DDDDDD" style="stroke:#000000;stroke-width:1.5;"/><line style="stroke:#000000;stroke-width:1.5;" x1="2058" x2="2177" y1="864.6094" y2="864.6094"/><text fill="#000000" font-family="sans-serif" font-size="14" font-weight="bold" lengthAdjust="spacing" textLength="106" x="2062" y="857.5332">ExternalLibrary</text></g><!--MD5=[b310d2047f96b29cf4b2a1f2fbae3e34]
cluster pt.isep.lei.esoft.auth--><g id="cluster_pt.isep.lei.esoft.auth"><path d="M2084.5,885 L2229.5,885 A3.75,3.75 0 0 1 2232,887.5 L2239,908.6094 L2489.5,908.6094 A2.5,2.5 0 0 1 2492,911.1094 L2492,1000.5 A2.5,2.5 0 0 1 2489.5,1003 L2084.5,1003 A2.5,2.5 0 0 1 2082,1000.5 L2082,887.5 A2.5,2.5 0 0 1 2084.5,885 " style="stroke:#000000;stroke-width:1.5;fill:none;"/><line style="stroke:#000000;stroke-width:1.5;fill:none;" x1="2082" x2="2239" y1="908.6094" y2="908.6094"/><text fill="#000000" font-family="sans-serif" font-size="14" font-weight="bold" lengthAdjust="spacing" textLength="144" x="2086" y="901.5332">pt.isep.lei.esoft.auth</text></g><!--MD5=[38d5c3d1b070f4858ff477cf4e3c14fd]
class AnalyzeCenterPerformanceUI--><g id="elem_AnalyzeCenterPerformanceUI"><rect codeLine="6" fill="#F1F1F1" height="48" id="AnalyzeCenterPerformanceUI" rx="2.5" ry="2.5" style="stroke:#181818;stroke-width:0.5;" width="217" x="1626.5" y="130"/><ellipse cx="1641.5" cy="146" fill="#ADD1B2" rx="11" ry="11" style="stroke:#181818;stroke-width:1.0;"/><path d="M1643.5,142.5 Q1643.7031,142 1643.9375,141.75 Q1644.1719,141.5 1644.4375,141.5 Q1644.9063,141.5 1645.2031,141.7813 Q1645.5,142.0625 1645.5,142.7188 L1645.5,144.2813 Q1645.5,144.9375 1645.2188,145.2188 Q1644.9375,145.5 1644.5,145.5 Q1644.1094,145.5 1643.8594,145.3281 Q1643.6094,145.1563 1643.5,144.7031 Q1643.4531,144.3906 1643.2813,144.2188 Q1642.9688,143.8906 1642.4063,143.7031 Q1641.8438,143.5 1641.2813,143.5 Q1640.5781,143.5 1639.9844,143.7813 Q1639.4063,144.0625 1638.9531,144.6875 Q1638.5,145.3125 1638.5,146.1719 L1638.5,147.0938 Q1638.5,148.125 1639.3438,148.8125 Q1640.1875,149.5 1641.6875,149.5 Q1642.5781,149.5 1643.2031,149.2969 Q1643.5625,149.1875 1643.9688,148.8281 Q1644.2344,148.625 1644.375,148.5625 Q1644.5156,148.5 1644.6875,148.5 Q1645.0156,148.5 1645.25,148.7656 Q1645.5,149.0156 1645.5,149.375 Q1645.5,149.7188 1645.1563,150.125 Q1644.6563,150.7188 1643.8594,151.0469 Q1642.8125,151.5 1641.5313,151.5 Q1640.0313,151.5 1638.8281,150.9063 Q1637.8594,150.4375 1637.1719,149.4219 Q1636.5,148.4063 1636.5,147.2031 L1636.5,146.1094 Q1636.5,144.8594 1637.0938,143.7656 Q1637.7031,142.6719 1638.75,142.0938 Q1639.8125,141.5 1641,141.5 Q1641.7188,141.5 1642.3438,141.75 Q1642.9688,142 1643.5,142.5 Z " fill="#000000"/><text fill="#000000" font-family="sans-serif" font-size="14" lengthAdjust="spacing" textLength="185" x="1655.5" y="151.7285">AnalyzeCenterPerformanceUI</text><line style="stroke:#181818;stroke-width:0.5;" x1="1627.5" x2="1842.5" y1="162" y2="162"/><line style="stroke:#181818;stroke-width:0.5;" x1="1627.5" x2="1842.5" y1="170" y2="170"/></g><!--MD5=[cf03b78ac703c64bed85491c07634811]
class AnalyzeCenterPerformanceController--><g id="elem_AnalyzeCenterPerformanceController"><rect codeLine="12" fill="#F1F1F1" height="153.6563" id="AnalyzeCenterPerformanceController" rx="2.5" ry="2.5" style="stroke:#181818;stroke-width:0.5;" width="518" x="1476" y="287"/><ellipse cx="1613.25" cy="303" fill="#ADD1B2" rx="11" ry="11" style="stroke:#181818;stroke-width:1.0;"/><path d="M1615.25,299.5 Q1615.4531,299 1615.6875,298.75 Q1615.9219,298.5 1616.1875,298.5 Q1616.6563,298.5 1616.9531,298.7813 Q1617.25,299.0625 1617.25,299.7188 L1617.25,301.2813 Q1617.25,301.9375 1616.9688,302.2188 Q1616.6875,302.5 1616.25,302.5 Q1615.8594,302.5 1615.6094,302.3281 Q1615.3594,302.1563 1615.25,301.7031 Q1615.2031,301.3906 1615.0313,301.2188 Q1614.7188,300.8906 1614.1563,300.7031 Q1613.5938,300.5 1613.0313,300.5 Q1612.3281,300.5 1611.7344,300.7813 Q1611.1563,301.0625 1610.7031,301.6875 Q1610.25,302.3125 1610.25,303.1719 L1610.25,304.0938 Q1610.25,305.125 1611.0938,305.8125 Q1611.9375,306.5 1613.4375,306.5 Q1614.3281,306.5 1614.9531,306.2969 Q1615.3125,306.1875 1615.7188,305.8281 Q1615.9844,305.625 1616.125,305.5625 Q1616.2656,305.5 1616.4375,305.5 Q1616.7656,305.5 1617,305.7656 Q1617.25,306.0156 1617.25,306.375 Q1617.25,306.7188 1616.9063,307.125 Q1616.4063,307.7188 1615.6094,308.0469 Q1614.5625,308.5 1613.2813,308.5 Q1611.7813,308.5 1610.5781,307.9063 Q1609.6094,307.4375 1608.9219,306.4219 Q1608.25,305.4063 1608.25,304.2031 L1608.25,303.1094 Q1608.25,301.8594 1608.8438,300.7656 Q1609.4531,299.6719 1610.5,299.0938 Q1611.5625,298.5 1612.75,298.5 Q1613.4688,298.5 1614.0938,298.75 Q1614.7188,299 1615.25,299.5 Z " fill="#000000"/><text fill="#000000" font-family="sans-serif" font-size="14" lengthAdjust="spacing" textLength="235" x="1633.75" y="308.7285">AnalyzeCenterPerformanceController</text><line style="stroke:#181818;stroke-width:0.5;" x1="1477" x2="1993" y1="319" y2="319"/><line style="stroke:#181818;stroke-width:0.5;" x1="1477" x2="1993" y1="327" y2="327"/><ellipse cx="1487" cy="338" fill="#84BE84" rx="3" ry="3" style="stroke:#038048;stroke-width:1.0;"/><text fill="#000000" font-family="sans-serif" font-size="14" lengthAdjust="spacing" textLength="222" x="1496" y="345.5332">getVaccinationCenterForTheUser()</text><ellipse cx="1487" cy="355.6094" fill="#84BE84" rx="3" ry="3" style="stroke:#038048;stroke-width:1.0;"/><text fill="#000000" font-family="sans-serif" font-size="14" lengthAdjust="spacing" textLength="175" x="1496" y="363.1426">validateVaccinationCenter()</text><ellipse cx="1487" cy="373.2188" fill="#84BE84" rx="3" ry="3" style="stroke:#038048;stroke-width:1.0;"/><text fill="#000000" font-family="sans-serif" font-size="14" lengthAdjust="spacing" textLength="105" x="1496" y="380.752">checkDate(date)</text><ellipse cx="1487" cy="390.8281" fill="#84BE84" rx="3" ry="3" style="stroke:#038048;stroke-width:1.0;"/><text fill="#000000" font-family="sans-serif" font-size="14" lengthAdjust="spacing" textLength="196" x="1496" y="398.3613">checkTimeInterval(timeInterval)</text><ellipse cx="1487" cy="408.4375" fill="#84BE84" rx="3" ry="3" style="stroke:#038048;stroke-width:1.0;"/><text fill="#000000" font-family="sans-serif" font-size="14" lengthAdjust="spacing" textLength="358" x="1496" y="415.9707">analyzeVaccinationCenterPerformance(day, timeInterval)</text><ellipse cx="1487" cy="426.0469" fill="#84BE84" rx="3" ry="3" style="stroke:#038048;stroke-width:1.0;"/><text fill="#000000" font-family="sans-serif" font-size="14" lengthAdjust="spacing" textLength="492" x="1496" y="433.5801">Analysis(String vaccinationCenter,differences,maximumSum,hoursPeriod,sum)</text></g><!--MD5=[a94b40465eb7df25a98ca627d4c70567]
class PerformanceCenter--><g id="elem_PerformanceCenter"><rect codeLine="28" fill="#F1F1F1" height="224.0938" id="PerformanceCenter" rx="2.5" ry="2.5" style="stroke:#181818;stroke-width:0.5;" width="785" x="880.5" y="570"/><ellipse cx="1206.75" cy="586" fill="#ADD1B2" rx="11" ry="11" style="stroke:#181818;stroke-width:1.0;"/><path d="M1208.75,582.5 Q1208.9531,582 1209.1875,581.75 Q1209.4219,581.5 1209.6875,581.5 Q1210.1563,581.5 1210.4531,581.7813 Q1210.75,582.0625 1210.75,582.7188 L1210.75,584.2813 Q1210.75,584.9375 1210.4688,585.2188 Q1210.1875,585.5 1209.75,585.5 Q1209.3594,585.5 1209.1094,585.3281 Q1208.8594,585.1563 1208.75,584.7031 Q1208.7031,584.3906 1208.5313,584.2188 Q1208.2188,583.8906 1207.6563,583.7031 Q1207.0938,583.5 1206.5313,583.5 Q1205.8281,583.5 1205.2344,583.7813 Q1204.6563,584.0625 1204.2031,584.6875 Q1203.75,585.3125 1203.75,586.1719 L1203.75,587.0938 Q1203.75,588.125 1204.5938,588.8125 Q1205.4375,589.5 1206.9375,589.5 Q1207.8281,589.5 1208.4531,589.2969 Q1208.8125,589.1875 1209.2188,588.8281 Q1209.4844,588.625 1209.625,588.5625 Q1209.7656,588.5 1209.9375,588.5 Q1210.2656,588.5 1210.5,588.7656 Q1210.75,589.0156 1210.75,589.375 Q1210.75,589.7188 1210.4063,590.125 Q1209.9063,590.7188 1209.1094,591.0469 Q1208.0625,591.5 1206.7813,591.5 Q1205.2813,591.5 1204.0781,590.9063 Q1203.1094,590.4375 1202.4219,589.4219 Q1201.75,588.4063 1201.75,587.2031 L1201.75,586.1094 Q1201.75,584.8594 1202.3438,583.7656 Q1202.9531,582.6719 1204,582.0938 Q1205.0625,581.5 1206.25,581.5 Q1206.9688,581.5 1207.5938,581.75 Q1208.2188,582 1208.75,582.5 Z " fill="#000000"/><text fill="#000000" font-family="sans-serif" font-size="14" lengthAdjust="spacing" textLength="124" x="1227.25" y="591.7285">PerformanceCenter</text><line style="stroke:#181818;stroke-width:0.5;" x1="881.5" x2="1664.5" y1="602" y2="602"/><line style="stroke:#181818;stroke-width:0.5;" x1="881.5" x2="1664.5" y1="610" y2="610"/><ellipse cx="891.5" cy="621" fill="#84BE84" rx="3" ry="3" style="stroke:#038048;stroke-width:1.0;"/><text fill="#000000" font-family="sans-serif" font-size="14" lengthAdjust="spacing" textLength="342" x="900.5" y="628.5332">recordByTimeIntervalEntry(entryRecords, timeInterval)</text><ellipse cx="891.5" cy="638.6094" fill="#84BE84" rx="3" ry="3" style="stroke:#038048;stroke-width:1.0;"/><text fill="#000000" font-family="sans-serif" font-size="14" lengthAdjust="spacing" textLength="372" x="900.5" y="646.1426">recordByTimeIntervalLeaving(leavingRecords, timeInterval)</text><ellipse cx="891.5" cy="656.2188" fill="#84BE84" rx="3" ry="3" style="stroke:#038048;stroke-width:1.0;"/><text fill="#000000" font-family="sans-serif" font-size="14" lengthAdjust="spacing" textLength="759" x="900.5" y="663.752">calculateDifferencesBetweenEntryAndLeavingRecordsOfVaccinationCenter(entryRecords, leavingRecords, timeInterval);</text><ellipse cx="891.5" cy="673.8281" fill="#84BE84" rx="3" ry="3" style="stroke:#038048;stroke-width:1.0;"/><text fill="#000000" font-family="sans-serif" font-size="14" lengthAdjust="spacing" textLength="405" x="900.5" y="681.3613">getHoursPeriodOfMaximumSumSublist(differences, timeInterval);</text><ellipse cx="891.5" cy="691.4375" fill="#84BE84" rx="3" ry="3" style="stroke:#038048;stroke-width:1.0;"/><text fill="#000000" font-family="sans-serif" font-size="14" lengthAdjust="spacing" textLength="235" x="900.5" y="698.9707">generateTimeInterval(int timeInterval)</text><ellipse cx="891.5" cy="709.0469" fill="#84BE84" rx="3" ry="3" style="stroke:#038048;stroke-width:1.0;"/><text fill="#000000" font-family="sans-serif" font-size="14" lengthAdjust="spacing" textLength="323" x="900.5" y="716.5801">getStartAndEndOfMaximumSumSublist(differences)</text><ellipse cx="891.5" cy="726.6563" fill="#84BE84" rx="3" ry="3" style="stroke:#038048;stroke-width:1.0;"/><text fill="#000000" font-family="sans-serif" font-size="14" lengthAdjust="spacing" textLength="340" x="900.5" y="734.1895">calculateMaximumSumContiguousSublist(differences);</text><ellipse cx="891.5" cy="744.2656" fill="#84BE84" rx="3" ry="3" style="stroke:#038048;stroke-width:1.0;"/><text fill="#000000" font-family="sans-serif" font-size="14" lengthAdjust="spacing" textLength="214" x="900.5" y="751.7988">bruteForceAlgorithm(differences))</text><ellipse cx="891.5" cy="761.875" fill="#84BE84" rx="3" ry="3" style="stroke:#038048;stroke-width:1.0;"/><text fill="#000000" font-family="sans-serif" font-size="14" lengthAdjust="spacing" textLength="209" x="900.5" y="769.4082">benchmarkAlgorithm(differences)</text><ellipse cx="891.5" cy="779.4844" fill="#84BE84" rx="3" ry="3" style="stroke:#038048;stroke-width:1.0;"/><text fill="#000000" font-family="sans-serif" font-size="14" lengthAdjust="spacing" textLength="310" x="900.5" y="787.0176">calculateSumofContiguousSublist(maximumSum);</text></g><!--MD5=[02e4b9b7573f1156f41e60aa5b4e25a4]
class Company--><g id="elem_Company"><rect codeLine="44" fill="#F1F1F1" height="136.0469" id="Company" rx="2.5" ry="2.5" style="stroke:#181818;stroke-width:0.5;" width="206" x="1701" y="614"/><ellipse cx="1769.75" cy="630" fill="#ADD1B2" rx="11" ry="11" style="stroke:#181818;stroke-width:1.0;"/><path d="M1771.75,626.5 Q1771.9531,626 1772.1875,625.75 Q1772.4219,625.5 1772.6875,625.5 Q1773.1563,625.5 1773.4531,625.7813 Q1773.75,626.0625 1773.75,626.7188 L1773.75,628.2813 Q1773.75,628.9375 1773.4688,629.2188 Q1773.1875,629.5 1772.75,629.5 Q1772.3594,629.5 1772.1094,629.3281 Q1771.8594,629.1563 1771.75,628.7031 Q1771.7031,628.3906 1771.5313,628.2188 Q1771.2188,627.8906 1770.6563,627.7031 Q1770.0938,627.5 1769.5313,627.5 Q1768.8281,627.5 1768.2344,627.7813 Q1767.6563,628.0625 1767.2031,628.6875 Q1766.75,629.3125 1766.75,630.1719 L1766.75,631.0938 Q1766.75,632.125 1767.5938,632.8125 Q1768.4375,633.5 1769.9375,633.5 Q1770.8281,633.5 1771.4531,633.2969 Q1771.8125,633.1875 1772.2188,632.8281 Q1772.4844,632.625 1772.625,632.5625 Q1772.7656,632.5 1772.9375,632.5 Q1773.2656,632.5 1773.5,632.7656 Q1773.75,633.0156 1773.75,633.375 Q1773.75,633.7188 1773.4063,634.125 Q1772.9063,634.7188 1772.1094,635.0469 Q1771.0625,635.5 1769.7813,635.5 Q1768.2813,635.5 1767.0781,634.9063 Q1766.1094,634.4375 1765.4219,633.4219 Q1764.75,632.4063 1764.75,631.2031 L1764.75,630.1094 Q1764.75,628.8594 1765.3438,627.7656 Q1765.9531,626.6719 1767,626.0938 Q1768.0625,625.5 1769.25,625.5 Q1769.9688,625.5 1770.5938,625.75 Q1771.2188,626 1771.75,626.5 Z " fill="#000000"/><text fill="#000000" font-family="sans-serif" font-size="14" lengthAdjust="spacing" textLength="60" x="1790.25" y="635.7285">Company</text><line style="stroke:#181818;stroke-width:0.5;" x1="1702" x2="1906" y1="646" y2="646"/><rect fill="none" height="6" style="stroke:#C82930;stroke-width:1.0;" width="6" x="1709" y="654"/><text fill="#000000" font-family="sans-serif" font-size="14" lengthAdjust="spacing" textLength="73" x="1721" y="664.5332">designation</text><line style="stroke:#181818;stroke-width:0.5;" x1="1702" x2="1906" y1="671.6094" y2="671.6094"/><ellipse cx="1712" cy="682.6094" fill="#84BE84" rx="3" ry="3" style="stroke:#038048;stroke-width:1.0;"/><text fill="#000000" font-family="sans-serif" font-size="14" lengthAdjust="spacing" textLength="180" x="1721" y="690.1426">getVaccinationCenterStore()</text><ellipse cx="1712" cy="700.2188" fill="#84BE84" rx="3" ry="3" style="stroke:#038048;stroke-width:1.0;"/><text fill="#000000" font-family="sans-serif" font-size="14" lengthAdjust="spacing" textLength="143" x="1721" y="707.752">getEntryRecordStore()</text><ellipse cx="1712" cy="717.8281" fill="#84BE84" rx="3" ry="3" style="stroke:#038048;stroke-width:1.0;"/><text fill="#000000" font-family="sans-serif" font-size="14" lengthAdjust="spacing" textLength="160" x="1721" y="725.3613">getLeavingRecordStore()</text><ellipse cx="1712" cy="735.4375" fill="#84BE84" rx="3" ry="3" style="stroke:#038048;stroke-width:1.0;"/><text fill="#000000" font-family="sans-serif" font-size="14" lengthAdjust="spacing" textLength="93" x="1721" y="742.9707">getUserEmail()</text></g><!--MD5=[b2c24ec9159ea4e2d3ba0ba902be6e34]
class EntryRecord--><g id="elem_EntryRecord"><rect codeLine="52" fill="#F1F1F1" height="83.2188" id="EntryRecord" rx="2.5" ry="2.5" style="stroke:#181818;stroke-width:0.5;" width="185" x="1022.5" y="1091"/><ellipse cx="1071.25" cy="1107" fill="#ADD1B2" rx="11" ry="11" style="stroke:#181818;stroke-width:1.0;"/><path d="M1073.25,1103.5 Q1073.4531,1103 1073.6875,1102.75 Q1073.9219,1102.5 1074.1875,1102.5 Q1074.6563,1102.5 1074.9531,1102.7813 Q1075.25,1103.0625 1075.25,1103.7188 L1075.25,1105.2813 Q1075.25,1105.9375 1074.9688,1106.2188 Q1074.6875,1106.5 1074.25,1106.5 Q1073.8594,1106.5 1073.6094,1106.3281 Q1073.3594,1106.1563 1073.25,1105.7031 Q1073.2031,1105.3906 1073.0313,1105.2188 Q1072.7188,1104.8906 1072.1563,1104.7031 Q1071.5938,1104.5 1071.0313,1104.5 Q1070.3281,1104.5 1069.7344,1104.7813 Q1069.1563,1105.0625 1068.7031,1105.6875 Q1068.25,1106.3125 1068.25,1107.1719 L1068.25,1108.0938 Q1068.25,1109.125 1069.0938,1109.8125 Q1069.9375,1110.5 1071.4375,1110.5 Q1072.3281,1110.5 1072.9531,1110.2969 Q1073.3125,1110.1875 1073.7188,1109.8281 Q1073.9844,1109.625 1074.125,1109.5625 Q1074.2656,1109.5 1074.4375,1109.5 Q1074.7656,1109.5 1075,1109.7656 Q1075.25,1110.0156 1075.25,1110.375 Q1075.25,1110.7188 1074.9063,1111.125 Q1074.4063,1111.7188 1073.6094,1112.0469 Q1072.5625,1112.5 1071.2813,1112.5 Q1069.7813,1112.5 1068.5781,1111.9063 Q1067.6094,1111.4375 1066.9219,1110.4219 Q1066.25,1109.4063 1066.25,1108.2031 L1066.25,1107.1094 Q1066.25,1105.8594 1066.8438,1104.7656 Q1067.4531,1103.6719 1068.5,1103.0938 Q1069.5625,1102.5 1070.75,1102.5 Q1071.4688,1102.5 1072.0938,1102.75 Q1072.7188,1103 1073.25,1103.5 Z " fill="#000000"/><text fill="#000000" font-family="sans-serif" font-size="14" lengthAdjust="spacing" textLength="79" x="1091.75" y="1112.7285">EntryRecord</text><line style="stroke:#181818;stroke-width:0.5;" x1="1023.5" x2="1206.5" y1="1123" y2="1123"/><line style="stroke:#181818;stroke-width:0.5;" x1="1023.5" x2="1206.5" y1="1131" y2="1131"/><ellipse cx="1033.5" cy="1142" fill="#84BE84" rx="3" ry="3" style="stroke:#038048;stroke-width:1.0;"/><text fill="#000000" font-family="sans-serif" font-size="14" lengthAdjust="spacing" textLength="159" x="1042.5" y="1149.5332">getTimeMS(entryRecord)</text><ellipse cx="1033.5" cy="1159.6094" fill="#84BE84" rx="3" ry="3" style="stroke:#038048;stroke-width:1.0;"/><text fill="#000000" font-family="sans-serif" font-size="14" lengthAdjust="spacing" textLength="124" x="1042.5" y="1167.1426">getEntryDateTime()</text></g><!--MD5=[626ec0bbe18c4f7e6ddf555c44ce3319]
class LeavingRecord--><g id="elem_LeavingRecord"><rect codeLine="57" fill="#F1F1F1" height="83.2188" id="LeavingRecord" rx="2.5" ry="2.5" style="stroke:#181818;stroke-width:0.5;" width="198" x="1537" y="1091"/><ellipse cx="1583.75" cy="1107" fill="#ADD1B2" rx="11" ry="11" style="stroke:#181818;stroke-width:1.0;"/><path d="M1585.75,1103.5 Q1585.9531,1103 1586.1875,1102.75 Q1586.4219,1102.5 1586.6875,1102.5 Q1587.1563,1102.5 1587.4531,1102.7813 Q1587.75,1103.0625 1587.75,1103.7188 L1587.75,1105.2813 Q1587.75,1105.9375 1587.4688,1106.2188 Q1587.1875,1106.5 1586.75,1106.5 Q1586.3594,1106.5 1586.1094,1106.3281 Q1585.8594,1106.1563 1585.75,1105.7031 Q1585.7031,1105.3906 1585.5313,1105.2188 Q1585.2188,1104.8906 1584.6563,1104.7031 Q1584.0938,1104.5 1583.5313,1104.5 Q1582.8281,1104.5 1582.2344,1104.7813 Q1581.6563,1105.0625 1581.2031,1105.6875 Q1580.75,1106.3125 1580.75,1107.1719 L1580.75,1108.0938 Q1580.75,1109.125 1581.5938,1109.8125 Q1582.4375,1110.5 1583.9375,1110.5 Q1584.8281,1110.5 1585.4531,1110.2969 Q1585.8125,1110.1875 1586.2188,1109.8281 Q1586.4844,1109.625 1586.625,1109.5625 Q1586.7656,1109.5 1586.9375,1109.5 Q1587.2656,1109.5 1587.5,1109.7656 Q1587.75,1110.0156 1587.75,1110.375 Q1587.75,1110.7188 1587.4063,1111.125 Q1586.9063,1111.7188 1586.1094,1112.0469 Q1585.0625,1112.5 1583.7813,1112.5 Q1582.2813,1112.5 1581.0781,1111.9063 Q1580.1094,1111.4375 1579.4219,1110.4219 Q1578.75,1109.4063 1578.75,1108.2031 L1578.75,1107.1094 Q1578.75,1105.8594 1579.3438,1104.7656 Q1579.9531,1103.6719 1581,1103.0938 Q1582.0625,1102.5 1583.25,1102.5 Q1583.9688,1102.5 1584.5938,1102.75 Q1585.2188,1103 1585.75,1103.5 Z " fill="#000000"/><text fill="#000000" font-family="sans-serif" font-size="14" lengthAdjust="spacing" textLength="96" x="1604.25" y="1112.7285">LeavingRecord</text><line style="stroke:#181818;stroke-width:0.5;" x1="1538" x2="1734" y1="1123" y2="1123"/><line style="stroke:#181818;stroke-width:0.5;" x1="1538" x2="1734" y1="1131" y2="1131"/><ellipse cx="1548" cy="1142" fill="#84BE84" rx="3" ry="3" style="stroke:#038048;stroke-width:1.0;"/><text fill="#000000" font-family="sans-serif" font-size="14" lengthAdjust="spacing" textLength="172" x="1557" y="1149.5332">getTimeMS(leavingRecord)</text><ellipse cx="1548" cy="1159.6094" fill="#84BE84" rx="3" ry="3" style="stroke:#038048;stroke-width:1.0;"/><text fill="#000000" font-family="sans-serif" font-size="14" lengthAdjust="spacing" textLength="141" x="1557" y="1167.1426">getLeavingDateTime()</text></g><!--MD5=[05d04b564e9d963c5556604ff8f07e7e]
class Analysis--><g id="elem_Analysis"><rect codeLine="63" fill="#F1F1F1" height="65.6094" id="Analysis" rx="2.5" ry="2.5" style="stroke:#181818;stroke-width:0.5;" width="518" x="70" y="649"/><ellipse cx="298.75" cy="665" fill="#ADD1B2" rx="11" ry="11" style="stroke:#181818;stroke-width:1.0;"/><path d="M300.75,661.5 Q300.9531,661 301.1875,660.75 Q301.4219,660.5 301.6875,660.5 Q302.1563,660.5 302.4531,660.7813 Q302.75,661.0625 302.75,661.7188 L302.75,663.2813 Q302.75,663.9375 302.4688,664.2188 Q302.1875,664.5 301.75,664.5 Q301.3594,664.5 301.1094,664.3281 Q300.8594,664.1563 300.75,663.7031 Q300.7031,663.3906 300.5313,663.2188 Q300.2188,662.8906 299.6563,662.7031 Q299.0938,662.5 298.5313,662.5 Q297.8281,662.5 297.2344,662.7813 Q296.6563,663.0625 296.2031,663.6875 Q295.75,664.3125 295.75,665.1719 L295.75,666.0938 Q295.75,667.125 296.5938,667.8125 Q297.4375,668.5 298.9375,668.5 Q299.8281,668.5 300.4531,668.2969 Q300.8125,668.1875 301.2188,667.8281 Q301.4844,667.625 301.625,667.5625 Q301.7656,667.5 301.9375,667.5 Q302.2656,667.5 302.5,667.7656 Q302.75,668.0156 302.75,668.375 Q302.75,668.7188 302.4063,669.125 Q301.9063,669.7188 301.1094,670.0469 Q300.0625,670.5 298.7813,670.5 Q297.2813,670.5 296.0781,669.9063 Q295.1094,669.4375 294.4219,668.4219 Q293.75,667.4063 293.75,666.2031 L293.75,665.1094 Q293.75,663.8594 294.3438,662.7656 Q294.9531,661.6719 296,661.0938 Q297.0625,660.5 298.25,660.5 Q298.9688,660.5 299.5938,660.75 Q300.2188,661 300.75,661.5 Z " fill="#000000"/><text fill="#000000" font-family="sans-serif" font-size="14" lengthAdjust="spacing" textLength="52" x="319.25" y="670.7285">Analysis</text><line style="stroke:#181818;stroke-width:0.5;" x1="71" x2="587" y1="681" y2="681"/><line style="stroke:#181818;stroke-width:0.5;" x1="71" x2="587" y1="689" y2="689"/><ellipse cx="81" cy="700" fill="#84BE84" rx="3" ry="3" style="stroke:#038048;stroke-width:1.0;"/><text fill="#000000" font-family="sans-serif" font-size="14" lengthAdjust="spacing" textLength="492" x="90" y="707.5332">Analysis(String vaccinationCenter,differences,maximumSum,hoursPeriod,sum)</text></g><!--MD5=[a29876ea2f21a6ca48ea477740122fd8]
class VaccinationCenterStore--><g id="elem_VaccinationCenterStore"><rect codeLine="68" fill="#F1F1F1" height="65.6094" id="VaccinationCenterStore" rx="2.5" ry="2.5" style="stroke:#181818;stroke-width:0.5;" width="182" x="659" y="921"/><ellipse cx="674" cy="937" fill="#ADD1B2" rx="11" ry="11" style="stroke:#181818;stroke-width:1.0;"/><path d="M676,933.5 Q676.2031,933 676.4375,932.75 Q676.6719,932.5 676.9375,932.5 Q677.4063,932.5 677.7031,932.7813 Q678,933.0625 678,933.7188 L678,935.2813 Q678,935.9375 677.7188,936.2188 Q677.4375,936.5 677,936.5 Q676.6094,936.5 676.3594,936.3281 Q676.1094,936.1563 676,935.7031 Q675.9531,935.3906 675.7813,935.2188 Q675.4688,934.8906 674.9063,934.7031 Q674.3438,934.5 673.7813,934.5 Q673.0781,934.5 672.4844,934.7813 Q671.9063,935.0625 671.4531,935.6875 Q671,936.3125 671,937.1719 L671,938.0938 Q671,939.125 671.8438,939.8125 Q672.6875,940.5 674.1875,940.5 Q675.0781,940.5 675.7031,940.2969 Q676.0625,940.1875 676.4688,939.8281 Q676.7344,939.625 676.875,939.5625 Q677.0156,939.5 677.1875,939.5 Q677.5156,939.5 677.75,939.7656 Q678,940.0156 678,940.375 Q678,940.7188 677.6563,941.125 Q677.1563,941.7188 676.3594,942.0469 Q675.3125,942.5 674.0313,942.5 Q672.5313,942.5 671.3281,941.9063 Q670.3594,941.4375 669.6719,940.4219 Q669,939.4063 669,938.2031 L669,937.1094 Q669,935.8594 669.5938,934.7656 Q670.2031,933.6719 671.25,933.0938 Q672.3125,932.5 673.5,932.5 Q674.2188,932.5 674.8438,932.75 Q675.4688,933 676,933.5 Z " fill="#000000"/><text fill="#000000" font-family="sans-serif" font-size="14" lengthAdjust="spacing" textLength="150" x="688" y="942.7285">VaccinationCenterStore</text><line style="stroke:#181818;stroke-width:0.5;" x1="660" x2="840" y1="953" y2="953"/><line style="stroke:#181818;stroke-width:0.5;" x1="660" x2="840" y1="961" y2="961"/><ellipse cx="670" cy="972" fill="#84BE84" rx="3" ry="3" style="stroke:#038048;stroke-width:1.0;"/><text fill="#000000" font-family="sans-serif" font-size="14" lengthAdjust="spacing" textLength="153" x="679" y="979.5332">getVaccinationCenters()</text></g><!--MD5=[691f9b37f98522bca089583e3402c9a2]
class EntryRecordStore--><g id="elem_EntryRecordStore"><rect codeLine="73" fill="#F1F1F1" height="83.2188" id="EntryRecordStore" rx="2.5" ry="2.5" style="stroke:#181818;stroke-width:0.5;" width="477" x="876.5" y="912.5"/><ellipse cx="1054.25" cy="928.5" fill="#ADD1B2" rx="11" ry="11" style="stroke:#181818;stroke-width:1.0;"/><path d="M1056.25,925 Q1056.4531,924.5 1056.6875,924.25 Q1056.9219,924 1057.1875,924 Q1057.6563,924 1057.9531,924.2813 Q1058.25,924.5625 1058.25,925.2188 L1058.25,926.7813 Q1058.25,927.4375 1057.9688,927.7188 Q1057.6875,928 1057.25,928 Q1056.8594,928 1056.6094,927.8281 Q1056.3594,927.6563 1056.25,927.2031 Q1056.2031,926.8906 1056.0313,926.7188 Q1055.7188,926.3906 1055.1563,926.2031 Q1054.5938,926 1054.0313,926 Q1053.3281,926 1052.7344,926.2813 Q1052.1563,926.5625 1051.7031,927.1875 Q1051.25,927.8125 1051.25,928.6719 L1051.25,929.5938 Q1051.25,930.625 1052.0938,931.3125 Q1052.9375,932 1054.4375,932 Q1055.3281,932 1055.9531,931.7969 Q1056.3125,931.6875 1056.7188,931.3281 Q1056.9844,931.125 1057.125,931.0625 Q1057.2656,931 1057.4375,931 Q1057.7656,931 1058,931.2656 Q1058.25,931.5156 1058.25,931.875 Q1058.25,932.2188 1057.9063,932.625 Q1057.4063,933.2188 1056.6094,933.5469 Q1055.5625,934 1054.2813,934 Q1052.7813,934 1051.5781,933.4063 Q1050.6094,932.9375 1049.9219,931.9219 Q1049.25,930.9063 1049.25,929.7031 L1049.25,928.6094 Q1049.25,927.3594 1049.8438,926.2656 Q1050.4531,925.1719 1051.5,924.5938 Q1052.5625,924 1053.75,924 Q1054.4688,924 1055.0938,924.25 Q1055.7188,924.5 1056.25,925 Z " fill="#000000"/><text fill="#000000" font-family="sans-serif" font-size="14" lengthAdjust="spacing" textLength="113" x="1074.75" y="934.2285">EntryRecordStore</text><line style="stroke:#181818;stroke-width:0.5;" x1="877.5" x2="1352.5" y1="944.5" y2="944.5"/><line style="stroke:#181818;stroke-width:0.5;" x1="877.5" x2="1352.5" y1="952.5" y2="952.5"/><ellipse cx="887.5" cy="963.5" fill="#84BE84" rx="3" ry="3" style="stroke:#038048;stroke-width:1.0;"/><text fill="#000000" font-family="sans-serif" font-size="14" lengthAdjust="spacing" textLength="352" x="896.5" y="971.0332">getTotalEntriesByVaccinationCenter(vaccinationCenter)</text><ellipse cx="887.5" cy="981.1094" fill="#84BE84" rx="3" ry="3" style="stroke:#038048;stroke-width:1.0;"/><text fill="#000000" font-family="sans-serif" font-size="14" lengthAdjust="spacing" textLength="451" x="896.5" y="988.6426">getEntryRecordsFromVaccinationCenterByDay(vaccinationCenter, day)</text></g><!--MD5=[252d68cf472186b983ecf533a6f6d503]
class LeavingRecordStore--><g id="elem_LeavingRecordStore"><rect codeLine="78" fill="#F1F1F1" height="83.2188" id="LeavingRecordStore" rx="2.5" ry="2.5" style="stroke:#181818;stroke-width:0.5;" width="494" x="1389" y="912.5"/><ellipse cx="1566.75" cy="928.5" fill="#ADD1B2" rx="11" ry="11" style="stroke:#181818;stroke-width:1.0;"/><path d="M1568.75,925 Q1568.9531,924.5 1569.1875,924.25 Q1569.4219,924 1569.6875,924 Q1570.1563,924 1570.4531,924.2813 Q1570.75,924.5625 1570.75,925.2188 L1570.75,926.7813 Q1570.75,927.4375 1570.4688,927.7188 Q1570.1875,928 1569.75,928 Q1569.3594,928 1569.1094,927.8281 Q1568.8594,927.6563 1568.75,927.2031 Q1568.7031,926.8906 1568.5313,926.7188 Q1568.2188,926.3906 1567.6563,926.2031 Q1567.0938,926 1566.5313,926 Q1565.8281,926 1565.2344,926.2813 Q1564.6563,926.5625 1564.2031,927.1875 Q1563.75,927.8125 1563.75,928.6719 L1563.75,929.5938 Q1563.75,930.625 1564.5938,931.3125 Q1565.4375,932 1566.9375,932 Q1567.8281,932 1568.4531,931.7969 Q1568.8125,931.6875 1569.2188,931.3281 Q1569.4844,931.125 1569.625,931.0625 Q1569.7656,931 1569.9375,931 Q1570.2656,931 1570.5,931.2656 Q1570.75,931.5156 1570.75,931.875 Q1570.75,932.2188 1570.4063,932.625 Q1569.9063,933.2188 1569.1094,933.5469 Q1568.0625,934 1566.7813,934 Q1565.2813,934 1564.0781,933.4063 Q1563.1094,932.9375 1562.4219,931.9219 Q1561.75,930.9063 1561.75,929.7031 L1561.75,928.6094 Q1561.75,927.3594 1562.3438,926.2656 Q1562.9531,925.1719 1564,924.5938 Q1565.0625,924 1566.25,924 Q1566.9688,924 1567.5938,924.25 Q1568.2188,924.5 1568.75,925 Z " fill="#000000"/><text fill="#000000" font-family="sans-serif" font-size="14" lengthAdjust="spacing" textLength="130" x="1587.25" y="934.2285">LeavingRecordStore</text><line style="stroke:#181818;stroke-width:0.5;" x1="1390" x2="1882" y1="944.5" y2="944.5"/><line style="stroke:#181818;stroke-width:0.5;" x1="1390" x2="1882" y1="952.5" y2="952.5"/><ellipse cx="1400" cy="963.5" fill="#84BE84" rx="3" ry="3" style="stroke:#038048;stroke-width:1.0;"/><text fill="#000000" font-family="sans-serif" font-size="14" lengthAdjust="spacing" textLength="337" x="1409" y="971.0332">getTotalExitsByVaccinationCenter(vaccinationCenter)</text><ellipse cx="1400" cy="981.1094" fill="#84BE84" rx="3" ry="3" style="stroke:#038048;stroke-width:1.0;"/><text fill="#000000" font-family="sans-serif" font-size="14" lengthAdjust="spacing" textLength="468" x="1409" y="988.6426">getLeavingRecordsFromVaccinationCenterByDay(vaccinationCenter, day)</text></g><!--MD5=[b75b80c8c0df95d5fcc6bb1f1b7f9dcf]
class UtilsCheck--><g id="elem_UtilsCheck"><rect codeLine="86" fill="#F1F1F1" height="83.2188" id="UtilsCheck" rx="2.5" ry="2.5" style="stroke:#181818;stroke-width:0.5;" width="222" x="623" y="640.5"/><ellipse cx="696.75" cy="656.5" fill="#ADD1B2" rx="11" ry="11" style="stroke:#181818;stroke-width:1.0;"/><path d="M698.75,653 Q698.9531,652.5 699.1875,652.25 Q699.4219,652 699.6875,652 Q700.1563,652 700.4531,652.2813 Q700.75,652.5625 700.75,653.2188 L700.75,654.7813 Q700.75,655.4375 700.4688,655.7188 Q700.1875,656 699.75,656 Q699.3594,656 699.1094,655.8281 Q698.8594,655.6563 698.75,655.2031 Q698.7031,654.8906 698.5313,654.7188 Q698.2188,654.3906 697.6563,654.2031 Q697.0938,654 696.5313,654 Q695.8281,654 695.2344,654.2813 Q694.6563,654.5625 694.2031,655.1875 Q693.75,655.8125 693.75,656.6719 L693.75,657.5938 Q693.75,658.625 694.5938,659.3125 Q695.4375,660 696.9375,660 Q697.8281,660 698.4531,659.7969 Q698.8125,659.6875 699.2188,659.3281 Q699.4844,659.125 699.625,659.0625 Q699.7656,659 699.9375,659 Q700.2656,659 700.5,659.2656 Q700.75,659.5156 700.75,659.875 Q700.75,660.2188 700.4063,660.625 Q699.9063,661.2188 699.1094,661.5469 Q698.0625,662 696.7813,662 Q695.2813,662 694.0781,661.4063 Q693.1094,660.9375 692.4219,659.9219 Q691.75,658.9063 691.75,657.7031 L691.75,656.6094 Q691.75,655.3594 692.3438,654.2656 Q692.9531,653.1719 694,652.5938 Q695.0625,652 696.25,652 Q696.9688,652 697.5938,652.25 Q698.2188,652.5 698.75,653 Z " fill="#000000"/><text fill="#000000" font-family="sans-serif" font-size="14" lengthAdjust="spacing" textLength="66" x="717.25" y="662.2285">UtilsCheck</text><line style="stroke:#181818;stroke-width:0.5;" x1="624" x2="844" y1="672.5" y2="672.5"/><line style="stroke:#181818;stroke-width:0.5;" x1="624" x2="844" y1="680.5" y2="680.5"/><ellipse cx="634" cy="691.5" fill="#84BE84" rx="3" ry="3" style="stroke:#038048;stroke-width:1.0;"/><text fill="#000000" font-family="sans-serif" font-size="14" lengthAdjust="spacing" textLength="105" x="643" y="699.0332">checkDate(date)</text><ellipse cx="634" cy="709.1094" fill="#84BE84" rx="3" ry="3" style="stroke:#038048;stroke-width:1.0;"/><text fill="#000000" font-family="sans-serif" font-size="14" lengthAdjust="spacing" textLength="196" x="643" y="716.6426">checkTimeInterval(timeInterval)</text></g><!--MD5=[c5b08e60048ef1bcd788d24cf324082e]
class UserSession--><g id="elem_UserSession"><rect codeLine="99" fill="#F1F1F1" height="65.6094" id="UserSession" rx="2.5" ry="2.5" style="stroke:#181818;stroke-width:0.5;" width="159" x="2316.5" y="921"/><ellipse cx="2353.1" cy="937" fill="#ADD1B2" rx="11" ry="11" style="stroke:#181818;stroke-width:1.0;"/><path d="M2355.1,933.5 Q2355.3031,933 2355.5375,932.75 Q2355.7719,932.5 2356.0375,932.5 Q2356.5063,932.5 2356.8031,932.7813 Q2357.1,933.0625 2357.1,933.7188 L2357.1,935.2813 Q2357.1,935.9375 2356.8188,936.2188 Q2356.5375,936.5 2356.1,936.5 Q2355.7094,936.5 2355.4594,936.3281 Q2355.2094,936.1563 2355.1,935.7031 Q2355.0531,935.3906 2354.8813,935.2188 Q2354.5688,934.8906 2354.0063,934.7031 Q2353.4438,934.5 2352.8813,934.5 Q2352.1781,934.5 2351.5844,934.7813 Q2351.0063,935.0625 2350.5531,935.6875 Q2350.1,936.3125 2350.1,937.1719 L2350.1,938.0938 Q2350.1,939.125 2350.9438,939.8125 Q2351.7875,940.5 2353.2875,940.5 Q2354.1781,940.5 2354.8031,940.2969 Q2355.1625,940.1875 2355.5688,939.8281 Q2355.8344,939.625 2355.975,939.5625 Q2356.1156,939.5 2356.2875,939.5 Q2356.6156,939.5 2356.85,939.7656 Q2357.1,940.0156 2357.1,940.375 Q2357.1,940.7188 2356.7563,941.125 Q2356.2563,941.7188 2355.4594,942.0469 Q2354.4125,942.5 2353.1313,942.5 Q2351.6313,942.5 2350.4281,941.9063 Q2349.4594,941.4375 2348.7719,940.4219 Q2348.1,939.4063 2348.1,938.2031 L2348.1,937.1094 Q2348.1,935.8594 2348.6938,934.7656 Q2349.3031,933.6719 2350.35,933.0938 Q2351.4125,932.5 2352.6,932.5 Q2353.3188,932.5 2353.9438,932.75 Q2354.5688,933 2355.1,933.5 Z " fill="#000000"/><text fill="#000000" font-family="sans-serif" font-size="14" lengthAdjust="spacing" textLength="79" x="2371.9" y="942.7285">UserSession</text><line style="stroke:#181818;stroke-width:0.5;" x1="2317.5" x2="2474.5" y1="953" y2="953"/><line style="stroke:#181818;stroke-width:0.5;" x1="2317.5" x2="2474.5" y1="961" y2="961"/><ellipse cx="2327.5" cy="972" fill="#84BE84" rx="3" ry="3" style="stroke:#038048;stroke-width:1.0;"/><text fill="#000000" font-family="sans-serif" font-size="14" lengthAdjust="spacing" textLength="133" x="2336.5" y="979.5332">getUserId().toString()</text></g><!--MD5=[8ae808d068a8995f06b9b3ec51357f0b]
class AuthFacade--><g id="elem_AuthFacade"><rect codeLine="103" fill="#F1F1F1" height="65.6094" id="AuthFacade" rx="2.5" ry="2.5" style="stroke:#181818;stroke-width:0.5;" width="183" x="2098.5" y="921"/><ellipse cx="2147.25" cy="937" fill="#ADD1B2" rx="11" ry="11" style="stroke:#181818;stroke-width:1.0;"/><path d="M2149.25,933.5 Q2149.4531,933 2149.6875,932.75 Q2149.9219,932.5 2150.1875,932.5 Q2150.6563,932.5 2150.9531,932.7813 Q2151.25,933.0625 2151.25,933.7188 L2151.25,935.2813 Q2151.25,935.9375 2150.9688,936.2188 Q2150.6875,936.5 2150.25,936.5 Q2149.8594,936.5 2149.6094,936.3281 Q2149.3594,936.1563 2149.25,935.7031 Q2149.2031,935.3906 2149.0313,935.2188 Q2148.7188,934.8906 2148.1563,934.7031 Q2147.5938,934.5 2147.0313,934.5 Q2146.3281,934.5 2145.7344,934.7813 Q2145.1563,935.0625 2144.7031,935.6875 Q2144.25,936.3125 2144.25,937.1719 L2144.25,938.0938 Q2144.25,939.125 2145.0938,939.8125 Q2145.9375,940.5 2147.4375,940.5 Q2148.3281,940.5 2148.9531,940.2969 Q2149.3125,940.1875 2149.7188,939.8281 Q2149.9844,939.625 2150.125,939.5625 Q2150.2656,939.5 2150.4375,939.5 Q2150.7656,939.5 2151,939.7656 Q2151.25,940.0156 2151.25,940.375 Q2151.25,940.7188 2150.9063,941.125 Q2150.4063,941.7188 2149.6094,942.0469 Q2148.5625,942.5 2147.2813,942.5 Q2145.7813,942.5 2144.5781,941.9063 Q2143.6094,941.4375 2142.9219,940.4219 Q2142.25,939.4063 2142.25,938.2031 L2142.25,937.1094 Q2142.25,935.8594 2142.8438,934.7656 Q2143.4531,933.6719 2144.5,933.0938 Q2145.5625,932.5 2146.75,932.5 Q2147.4688,932.5 2148.0938,932.75 Q2148.7188,933 2149.25,933.5 Z " fill="#000000"/><text fill="#000000" font-family="sans-serif" font-size="14" lengthAdjust="spacing" textLength="77" x="2167.75" y="942.7285">AuthFacade</text><line style="stroke:#181818;stroke-width:0.5;" x1="2099.5" x2="2280.5" y1="953" y2="953"/><line style="stroke:#181818;stroke-width:0.5;" x1="2099.5" x2="2280.5" y1="961" y2="961"/><ellipse cx="2109.5" cy="972" fill="#84BE84" rx="3" ry="3" style="stroke:#038048;stroke-width:1.0;"/><text fill="#000000" font-family="sans-serif" font-size="14" lengthAdjust="spacing" textLength="157" x="2118.5" y="979.5332">getCurrentUserSession()</text></g><!--MD5=[192c77f549c7e9c4a571185ef007c749]
link AnalyzeCenterPerformanceUI to AnalyzeCenterPerformanceController--><g id="link_AnalyzeCenterPerformanceUI_AnalyzeCenterPerformanceController"><path codeLine="107" d="M1735,178.05 C1735,202.96 1735,244.06 1735,281.2 " fill="none" id="AnalyzeCenterPerformanceUI-to-AnalyzeCenterPerformanceController" style="stroke:#181818;stroke-width:1.0;stroke-dasharray:7.0,7.0;"/><polygon fill="#181818" points="1735,286.65,1739,277.65,1735,281.65,1731,277.65,1735,286.65" style="stroke:#181818;stroke-width:1.0;"/></g><!--MD5=[61a279e24b33202b0df6bec3197d669e]
link AnalyzeCenterPerformanceController to Company--><g id="link_AnalyzeCenterPerformanceController_Company"><path codeLine="109" d="M1751.62,441.09 C1762.74,492.03 1777.29,558.67 1788.23,608.78 " fill="none" id="AnalyzeCenterPerformanceController-to-Company" style="stroke:#181818;stroke-width:1.0;stroke-dasharray:7.0,7.0;"/><polygon fill="#181818" points="1789.35,613.89,1791.3562,604.2476,1788.2926,609.0031,1783.5371,605.9395,1789.35,613.89" style="stroke:#181818;stroke-width:1.0;"/></g><!--MD5=[67a4e6b9f0e6341ebdfddd2e121b9619]
link AnalyzeCenterPerformanceController to PerformanceCenter--><g id="link_AnalyzeCenterPerformanceController_PerformanceCenter"><path codeLine="110" d="M1623.75,441.09 C1568.6,478.81 1500.87,525.14 1439.68,566.99 " fill="none" id="AnalyzeCenterPerformanceController-to-PerformanceCenter" style="stroke:#181818;stroke-width:1.0;stroke-dasharray:7.0,7.0;"/><polygon fill="#181818" points="1435.29,570,1444.9754,568.2131,1439.4148,567.174,1440.4538,561.6134,1435.29,570" style="stroke:#181818;stroke-width:1.0;"/></g><!--MD5=[4ca188e900b84cc544f87600cbe7ab58]
link AnalyzeCenterPerformanceController to UtilsCheck--><g id="link_AnalyzeCenterPerformanceController_UtilsCheck"><path codeLine="111" d="M1475.96,374.11 C1251.96,386.47 948.86,415.28 849,482 C795.06,518.04 763.25,588.56 747.22,635.24 " fill="none" id="AnalyzeCenterPerformanceController-to-UtilsCheck" style="stroke:#181818;stroke-width:1.0;stroke-dasharray:7.0,7.0;"/><polygon fill="#181818" points="745.53,640.24,752.197,632.9908,747.1283,635.5023,744.6167,630.4336,745.53,640.24" style="stroke:#181818;stroke-width:1.0;"/></g><!--MD5=[bc0d5b4bfe6e1bf0a8fced13bc4bdd47]
link Company to VaccinationCenterStore--><g id="link_Company_VaccinationCenterStore"><path codeLine="113" d="M1747.22,750.04 C1728.67,767.48 1706.68,784.13 1683,794 C1513.79,864.51 1024.83,754.86 859,833 C821.3,850.76 790.74,888.13 771.68,916.47 " fill="none" id="Company-to-VaccinationCenterStore" style="stroke:#181818;stroke-width:1.0;"/><polygon fill="#181818" points="768.72,920.94,777.0196,915.6374,771.477,916.7688,770.3456,911.2262,768.72,920.94" style="stroke:#181818;stroke-width:1.0;"/></g><!--MD5=[d61074a475ba92ad6b686588b81083d8]
link Company to EntryRecordStore--><g id="link_Company_EntryRecordStore"><path codeLine="114" d="M1745.48,750.05 C1727.18,767.05 1705.77,783.46 1683,794 C1556.58,852.52 1505.85,794.4 1372,833 C1308.28,851.38 1240.47,883.63 1190.51,910.08 " fill="none" id="Company-to-EntryRecordStore" style="stroke:#181818;stroke-width:1.0;"/><polygon fill="#181818" points="1186.04,912.46,1195.8649,911.7739,1190.4565,910.116,1192.1145,904.7075,1186.04,912.46" style="stroke:#181818;stroke-width:1.0;"/></g><!--MD5=[fd935e3be330d1256135fc941531dfc2]
link Company to LeavingRecordStore--><g id="link_Company_LeavingRecordStore"><path codeLine="115" d="M1762.26,750.09 C1731.63,799.31 1690.86,864.82 1664.05,907.92 " fill="none" id="Company-to-LeavingRecordStore" style="stroke:#181818;stroke-width:1.0;"/><polygon fill="#181818" points="1661.34,912.28,1669.4853,906.7434,1663.9772,908.032,1662.6885,902.5239,1661.34,912.28" style="stroke:#181818;stroke-width:1.0;"/></g><!--MD5=[717d4b03d3c4372f4eafe5e342a0a7dd]
link Company to AuthFacade--><g id="link_Company_AuthFacade"><path codeLine="116" d="M1899.91,750.09 C1976.01,803.32 2079.34,875.59 2139.92,917.97 " fill="none" id="Company-to-AuthFacade" style="stroke:#181818;stroke-width:1.0;stroke-dasharray:7.0,7.0;"/><polygon fill="#181818" points="2144.21,920.97,2139.1327,912.5307,2140.1145,918.1017,2134.5435,919.0835,2144.21,920.97" style="stroke:#181818;stroke-width:1.0;"/></g><!--MD5=[04f1d20ae473dd3104aa0085aade998b]
link AnalyzeCenterPerformanceController to VaccinationCenterStore--><g id="link_AnalyzeCenterPerformanceController_VaccinationCenterStore"><path codeLine="118" d="M1890.07,441.21 C1903.09,453.16 1914.51,466.71 1923,482 C1941.51,515.32 1949.85,797.95 1923,825 C1912.59,835.49 872.49,826.97 859,833 C820.83,850.07 790.26,887.73 771.31,916.35 " fill="none" id="AnalyzeCenterPerformanceController-to-VaccinationCenterStore" style="stroke:#181818;stroke-width:1.0;stroke-dasharray:7.0,7.0;"/><polygon fill="#181818" points="768.38,920.86,776.6457,915.5049,771.1105,916.6714,769.9439,911.1361,768.38,920.86" style="stroke:#181818;stroke-width:1.0;"/></g><!--MD5=[11b8a74608d9b8d9a77a316c7e6029b3]
link AnalyzeCenterPerformanceController to EntryRecordStore--><g id="link_AnalyzeCenterPerformanceController_EntryRecordStore"><path codeLine="119" d="M1925.47,441.2 C1935.66,450.64 1944.69,461.19 1952,473 C1993.19,539.5 2006.93,769.31 1952,825 C1940.69,836.47 1387.71,829.4 1372,833 C1305.61,848.22 1235.93,882.03 1185.9,909.89 " fill="none" id="AnalyzeCenterPerformanceController-to-EntryRecordStore" style="stroke:#181818;stroke-width:1.0;stroke-dasharray:7.0,7.0;"/><polygon fill="#181818" points="1181.42,912.4,1191.2265,911.4877,1185.7813,909.9548,1187.3142,904.5096,1181.42,912.4" style="stroke:#181818;stroke-width:1.0;"/></g><!--MD5=[c766cb97e79626a4c2ebb69c579de09c]
link AnalyzeCenterPerformanceController to LeavingRecordStore--><g id="link_AnalyzeCenterPerformanceController_LeavingRecordStore"><path codeLine="120" d="M1961.08,441.1 C1971.67,450.53 1981.14,461.11 1989,473 C2075.31,603.48 2078.81,696.9 1989,825 C1961.47,864.27 1920.61,891.54 1876.35,910.46 " fill="none" id="AnalyzeCenterPerformanceController-to-LeavingRecordStore" style="stroke:#181818;stroke-width:1.0;stroke-dasharray:7.0,7.0;"/><polygon fill="#181818" points="1871.5,912.5,1881.3469,912.694,1876.1082,910.5597,1878.2425,905.3209,1871.5,912.5" style="stroke:#181818;stroke-width:1.0;"/></g><!--MD5=[57bb72e72fc67f639c09260ef1430e72]
link AnalyzeCenterPerformanceController to Analysis--><g id="link_AnalyzeCenterPerformanceController_Analysis"><path codeLine="121" d="M1475.89,376.5 C1193.26,391.74 760.61,423.77 607,482 C509.63,518.91 415.16,598.68 365.34,645.24 " fill="none" id="AnalyzeCenterPerformanceController-to-Analysis" style="stroke:#181818;stroke-width:1.0;stroke-dasharray:7.0,7.0;"/><polygon fill="#181818" points="361.54,648.81,370.842,645.5739,365.1881,645.3908,365.3713,639.7369,361.54,648.81" style="stroke:#181818;stroke-width:1.0;"/></g><!--MD5=[605918b6bfd8cb41971ed47ca6389ba2]
link EntryRecordStore to EntryRecord--><g id="link_EntryRecordStore_EntryRecord"><path codeLine="122" d="M1115,995.94 C1115,1022.78 1115,1057.91 1115,1085.69 " fill="none" id="EntryRecordStore-to-EntryRecord" style="stroke:#181818;stroke-width:1.0;"/><polygon fill="#181818" points="1115,1090.79,1119,1081.79,1115,1085.79,1111,1081.79,1115,1090.79" style="stroke:#181818;stroke-width:1.0;"/><polygon fill="#000000" points="1120,1057.1758,1122.9389,1048.1307,1117.0611,1048.1307,1120,1057.1758" style="stroke:#000000;stroke-width:1.0;"/><text fill="#000000" font-family="sans-serif" font-size="13" lengthAdjust="spacing" textLength="30" x="1129" y="1057.4951">owns</text><text fill="#000000" font-family="sans-serif" font-size="13" lengthAdjust="spacing" textLength="7" x="1107.4641" y="1017.0923">1</text><text fill="#000000" font-family="sans-serif" font-size="13" lengthAdjust="spacing" textLength="20" x="1093.3438" y="1080.0629">1..*</text></g><!--MD5=[363d8465504b1b53eb099ff0bdd55a78]
link LeavingRecordStore to LeavingRecord--><g id="link_LeavingRecordStore_LeavingRecord"><path codeLine="123" d="M1636,995.94 C1636,1022.78 1636,1057.91 1636,1085.69 " fill="none" id="LeavingRecordStore-to-LeavingRecord" style="stroke:#181818;stroke-width:1.0;"/><polygon fill="#181818" points="1636,1090.79,1640,1081.79,1636,1085.79,1632,1081.79,1636,1090.79" style="stroke:#181818;stroke-width:1.0;"/><polygon fill="#000000" points="1641,1057.1758,1643.9389,1048.1307,1638.0611,1048.1307,1641,1057.1758" style="stroke:#000000;stroke-width:1.0;"/><text fill="#000000" font-family="sans-serif" font-size="13" lengthAdjust="spacing" textLength="30" x="1650" y="1057.4951">owns</text><text fill="#000000" font-family="sans-serif" font-size="13" lengthAdjust="spacing" textLength="7" x="1628.4641" y="1017.0923">1</text><text fill="#000000" font-family="sans-serif" font-size="13" lengthAdjust="spacing" textLength="20" x="1614.3438" y="1080.0629">1..*</text></g><!--MD5=[20a80efccf89d48667a17417e318238e]
@startuml
'https://plantuml.com/class-diagram

package app <<Folder>>#DDDDDD {
package ui <<Folder>>#DDDDDD {
package console <<Folder>>#DDDDDD {
class AnalyzeCenterPerformanceUI {

    }
}
}
package controller <<Folder>>#DDDDDD {
class AnalyzeCenterPerformanceController {

+getVaccinationCenterForTheUser()
+validateVaccinationCenter()
+checkDate(date)
+checkTimeInterval(timeInterval)
+analyzeVaccinationCenterPerformance(day, timeInterval)
+Analysis(String vaccinationCenter,differences,maximumSum,hoursPeriod,sum)

}
}

package domain <<Folder>>#DDDDDD {
package model <<Folder>>#DDDDDD {


class PerformanceCenter {
+recordByTimeIntervalEntry(entryRecords, timeInterval)
+recordByTimeIntervalLeaving(leavingRecords, timeInterval)
+calculateDifferencesBetweenEntryAndLeavingRecordsOfVaccinationCenter(entryRecords, leavingRecords, timeInterval);
+getHoursPeriodOfMaximumSumSublist(differences, timeInterval);
+generateTimeInterval(int timeInterval)
+getStartAndEndOfMaximumSumSublist(differences)
+calculateMaximumSumContiguousSublist(differences);
+bruteForceAlgorithm(differences))
+benchmarkAlgorithm(differences)
+calculateSumofContiguousSublist(maximumSum);


     }


class Company {
 -designation
+getVaccinationCenterStore()
+getEntryRecordStore()
+getLeavingRecordStore()
+getUserEmail()
}

class EntryRecord {
+getTimeMS(entryRecord)
+getEntryDateTime()
}

class LeavingRecord {
+getTimeMS(leavingRecord)
+getLeavingDateTime()

}

class Analysis {
+ Analysis(String vaccinationCenter,differences,maximumSum,hoursPeriod,sum)
}

package Store <<Folder>>#DDDDDD {
class VaccinationCenterStore {
+getVaccinationCenters()

     }

class EntryRecordStore {
+getTotalEntriesByVaccinationCenter(vaccinationCenter)
+getEntryRecordsFromVaccinationCenterByDay(vaccinationCenter, day)
     }

class LeavingRecordStore {
+getTotalExitsByVaccinationCenter(vaccinationCenter)
+getLeavingRecordsFromVaccinationCenterByDay(vaccinationCenter, day)

     }
    }
    package shared <<Folder>>#DDDDDD{

    class UtilsCheck{
    +checkDate(date)
    +checkTimeInterval(timeInterval)
    
    
   }

  }
 }
  }
}
package ExternalLibrary <<Folder>>#DDDDDD {
package pt.isep.lei.esoft.auth <<Folder>> {
class UserSession{
+getUserId().toString()
}

class AuthFacade {
+ getCurrentUserSession()
}

AnalyzeCenterPerformanceUI ..> AnalyzeCenterPerformanceController

AnalyzeCenterPerformanceController ..> Company
AnalyzeCenterPerformanceController ..> PerformanceCenter
AnalyzeCenterPerformanceController ..> UtilsCheck

Company - -> VaccinationCenterStore
Company - -> EntryRecordStore
Company - -> LeavingRecordStore
Company ..> AuthFacade

AnalyzeCenterPerformanceController ..> VaccinationCenterStore
AnalyzeCenterPerformanceController ..> EntryRecordStore
AnalyzeCenterPerformanceController ..> LeavingRecordStore
AnalyzeCenterPerformanceController ..> Analysis
EntryRecordStore "1" - -> "1..*" EntryRecord: owns >
LeavingRecordStore "1" - -> "1..*" LeavingRecord: owns >








@enduml

@startuml

package app <<Folder>>#DDDDDD {
package ui <<Folder>>#DDDDDD {
package console <<Folder>>#DDDDDD {
class AnalyzeCenterPerformanceUI {

    }
}
}
package controller <<Folder>>#DDDDDD {
class AnalyzeCenterPerformanceController {

+getVaccinationCenterForTheUser()
+validateVaccinationCenter()
+checkDate(date)
+checkTimeInterval(timeInterval)
+analyzeVaccinationCenterPerformance(day, timeInterval)
+Analysis(String vaccinationCenter,differences,maximumSum,hoursPeriod,sum)

}
}

package domain <<Folder>>#DDDDDD {
package model <<Folder>>#DDDDDD {


class PerformanceCenter {
+recordByTimeIntervalEntry(entryRecords, timeInterval)
+recordByTimeIntervalLeaving(leavingRecords, timeInterval)
+calculateDifferencesBetweenEntryAndLeavingRecordsOfVaccinationCenter(entryRecords, leavingRecords, timeInterval);
+getHoursPeriodOfMaximumSumSublist(differences, timeInterval);
+generateTimeInterval(int timeInterval)
+getStartAndEndOfMaximumSumSublist(differences)
+calculateMaximumSumContiguousSublist(differences);
+bruteForceAlgorithm(differences))
+benchmarkAlgorithm(differences)
+calculateSumofContiguousSublist(maximumSum);


     }


class Company {
 -designation
+getVaccinationCenterStore()
+getEntryRecordStore()
+getLeavingRecordStore()
+getUserEmail()
}

class EntryRecord {
+getTimeMS(entryRecord)
+getEntryDateTime()
}

class LeavingRecord {
+getTimeMS(leavingRecord)
+getLeavingDateTime()

}

class Analysis {
+ Analysis(String vaccinationCenter,differences,maximumSum,hoursPeriod,sum)
}

package Store <<Folder>>#DDDDDD {
class VaccinationCenterStore {
+getVaccinationCenters()

     }

class EntryRecordStore {
+getTotalEntriesByVaccinationCenter(vaccinationCenter)
+getEntryRecordsFromVaccinationCenterByDay(vaccinationCenter, day)
     }

class LeavingRecordStore {
+getTotalExitsByVaccinationCenter(vaccinationCenter)
+getLeavingRecordsFromVaccinationCenterByDay(vaccinationCenter, day)

     }
    }
    package shared <<Folder>>#DDDDDD{

    class UtilsCheck{
    +checkDate(date)
    +checkTimeInterval(timeInterval)
    
    
   }

  }
 }
  }
}
package ExternalLibrary <<Folder>>#DDDDDD {
package pt.isep.lei.esoft.auth <<Folder>> {
class UserSession{
+getUserId().toString()
}

class AuthFacade {
+ getCurrentUserSession()
}

AnalyzeCenterPerformanceUI ..> AnalyzeCenterPerformanceController

AnalyzeCenterPerformanceController ..> Company
AnalyzeCenterPerformanceController ..> PerformanceCenter
AnalyzeCenterPerformanceController ..> UtilsCheck

Company - -> VaccinationCenterStore
Company - -> EntryRecordStore
Company - -> LeavingRecordStore
Company ..> AuthFacade

AnalyzeCenterPerformanceController ..> VaccinationCenterStore
AnalyzeCenterPerformanceController ..> EntryRecordStore
AnalyzeCenterPerformanceController ..> LeavingRecordStore
AnalyzeCenterPerformanceController ..> Analysis
EntryRecordStore "1" - -> "1..*" EntryRecord: owns >
LeavingRecordStore "1" - -> "1..*" LeavingRecord: owns >








@enduml

PlantUML version 1.2022.5(Sat Apr 30 11:55:52 BST 2022)
(GPL source distribution)
Java Runtime: OpenJDK Runtime Environment
JVM: OpenJDK 64-Bit Server VM
Default Encoding: Cp1252
Language: pt
Country: PT
--></g></svg>