<?xml version="1.0" encoding="UTF-8" standalone="no"?><svg xmlns="http://www.w3.org/2000/svg" xmlns:xlink="http://www.w3.org/1999/xlink" contentScriptType="application/ecmascript" contentStyleType="text/css" height="510px" preserveAspectRatio="none" style="width:529px;height:510px;background:#FFFFFF;" version="1.1" viewBox="0 0 529 510" width="529px" zoomAndPan="magnify"><defs><filter height="300%" id="fkywv2ce1kmvg" width="300%" x="-1" y="-1"><feGaussianBlur result="blurOut" stdDeviation="2.0"/><feColorMatrix in="blurOut" result="blurOut2" type="matrix" values="0 0 0 0 0 0 0 0 0 0 0 0 0 0 0 0 0 0 .4 0"/><feOffset dx="4.0" dy="4.0" in="blurOut2" result="blurOut3"/><feBlend in="SourceGraphic" in2="blurOut3" mode="normal"/></filter></defs><g><!--MD5=[a3638c1e5b65d287ecad7f06f5c0f212]
class Role--><rect codeLine="3" fill="#FEFECE" filter="url(#fkywv2ce1kmvg)" height="86.8652" id="Role" style="stroke:#A80036;stroke-width:1.5;" width="161" x="181.75" y="409.5"/><ellipse cx="245.5" cy="425.5" fill="#ADD1B2" rx="11" ry="11" style="stroke:#A80036;stroke-width:1.0;"/><path d="M247.9731,431.6431 Q247.3921,431.9419 246.7529,432.0913 Q246.1138,432.2407 245.4082,432.2407 Q242.9014,432.2407 241.5815,430.5889 Q240.2617,428.937 240.2617,425.8159 Q240.2617,422.6865 241.5815,421.0347 Q242.9014,419.3828 245.4082,419.3828 Q246.1138,419.3828 246.7612,419.5322 Q247.4087,419.6816 247.9731,419.9805 L247.9731,422.7031 Q247.3423,422.1221 246.7488,421.8523 Q246.1553,421.5825 245.5244,421.5825 Q244.1797,421.5825 243.4949,422.6492 Q242.8101,423.7158 242.8101,425.8159 Q242.8101,427.9077 243.4949,428.9744 Q244.1797,430.041 245.5244,430.041 Q246.1553,430.041 246.7488,429.7712 Q247.3423,429.5015 247.9731,428.9204 Z " fill="#000000"/><text fill="#000000" font-family="sans-serif" font-size="12" lengthAdjust="spacing" textLength="25" x="266" y="430.0352">Role</text><line style="stroke:#A80036;stroke-width:1.5;" x1="182.75" x2="341.75" y1="441.5" y2="441.5"/><text fill="#000000" font-family="sans-serif" font-size="11" lengthAdjust="spacing" textLength="43" x="187.75" y="456.1348">-float id</text><text fill="#000000" font-family="sans-serif" font-size="11" lengthAdjust="spacing" textLength="104" x="187.75" y="469.0898">-String designation</text><line style="stroke:#A80036;stroke-width:1.5;" x1="182.75" x2="341.75" y1="475.4102" y2="475.4102"/><text fill="#000000" font-family="sans-serif" font-size="11" lengthAdjust="spacing" textLength="149" x="187.75" y="490.0449">+createRole(id,designation)</text><!--MD5=[da547346deef918ea16944ba046651ef]
class Administrator--><rect codeLine="9" fill="#FEFECE" filter="url(#fkywv2ce1kmvg)" height="48" id="Administrator" style="stroke:#A80036;stroke-width:1.5;" width="110" x="7" y="283"/><ellipse cx="22" cy="299" fill="#ADD1B2" rx="11" ry="11" style="stroke:#A80036;stroke-width:1.0;"/><path d="M24.4731,305.1431 Q23.8921,305.4419 23.2529,305.5913 Q22.6138,305.7407 21.9082,305.7407 Q19.4014,305.7407 18.0815,304.0889 Q16.7617,302.437 16.7617,299.3159 Q16.7617,296.1865 18.0815,294.5347 Q19.4014,292.8828 21.9082,292.8828 Q22.6138,292.8828 23.2612,293.0322 Q23.9087,293.1816 24.4731,293.4805 L24.4731,296.2031 Q23.8423,295.6221 23.2488,295.3523 Q22.6553,295.0825 22.0244,295.0825 Q20.6797,295.0825 19.9949,296.1492 Q19.3101,297.2158 19.3101,299.3159 Q19.3101,301.4077 19.9949,302.4744 Q20.6797,303.541 22.0244,303.541 Q22.6553,303.541 23.2488,303.2712 Q23.8423,303.0015 24.4731,302.4204 Z " fill="#000000"/><text fill="#000000" font-family="sans-serif" font-size="12" lengthAdjust="spacing" textLength="78" x="36" y="303.5352">Administrator</text><line style="stroke:#A80036;stroke-width:1.5;" x1="8" x2="116" y1="315" y2="315"/><line style="stroke:#A80036;stroke-width:1.5;" x1="8" x2="116" y1="323" y2="323"/><!--MD5=[03960189e81aa2c066c762ffabbee709]
class Receptionist--><rect codeLine="12" fill="#FEFECE" filter="url(#fkywv2ce1kmvg)" height="48" id="Receptionist" style="stroke:#A80036;stroke-width:1.5;" width="102" x="152" y="283"/><ellipse cx="167" cy="299" fill="#ADD1B2" rx="11" ry="11" style="stroke:#A80036;stroke-width:1.0;"/><path d="M169.4731,305.1431 Q168.8921,305.4419 168.2529,305.5913 Q167.6138,305.7407 166.9082,305.7407 Q164.4014,305.7407 163.0815,304.0889 Q161.7617,302.437 161.7617,299.3159 Q161.7617,296.1865 163.0815,294.5347 Q164.4014,292.8828 166.9082,292.8828 Q167.6138,292.8828 168.2612,293.0322 Q168.9087,293.1816 169.4731,293.4805 L169.4731,296.2031 Q168.8423,295.6221 168.2488,295.3523 Q167.6553,295.0825 167.0244,295.0825 Q165.6797,295.0825 164.9949,296.1492 Q164.3101,297.2158 164.3101,299.3159 Q164.3101,301.4077 164.9949,302.4744 Q165.6797,303.541 167.0244,303.541 Q167.6553,303.541 168.2488,303.2712 Q168.8423,303.0015 169.4731,302.4204 Z " fill="#000000"/><text fill="#000000" font-family="sans-serif" font-size="12" lengthAdjust="spacing" textLength="70" x="181" y="303.5352">Receptionist</text><line style="stroke:#A80036;stroke-width:1.5;" x1="153" x2="253" y1="315" y2="315"/><line style="stroke:#A80036;stroke-width:1.5;" x1="153" x2="253" y1="323" y2="323"/><!--MD5=[a059576e163b46f56762f12600c49258]
class Nurse--><rect codeLine="15" fill="#FEFECE" filter="url(#fkywv2ce1kmvg)" height="48" id="Nurse" style="stroke:#A80036;stroke-width:1.5;" width="66" x="289" y="283"/><ellipse cx="304" cy="299" fill="#ADD1B2" rx="11" ry="11" style="stroke:#A80036;stroke-width:1.0;"/><path d="M306.4731,305.1431 Q305.8921,305.4419 305.2529,305.5913 Q304.6138,305.7407 303.9082,305.7407 Q301.4014,305.7407 300.0815,304.0889 Q298.7617,302.437 298.7617,299.3159 Q298.7617,296.1865 300.0815,294.5347 Q301.4014,292.8828 303.9082,292.8828 Q304.6138,292.8828 305.2612,293.0322 Q305.9087,293.1816 306.4731,293.4805 L306.4731,296.2031 Q305.8423,295.6221 305.2488,295.3523 Q304.6553,295.0825 304.0244,295.0825 Q302.6797,295.0825 301.9949,296.1492 Q301.3101,297.2158 301.3101,299.3159 Q301.3101,301.4077 301.9949,302.4744 Q302.6797,303.541 304.0244,303.541 Q304.6553,303.541 305.2488,303.2712 Q305.8423,303.0015 306.4731,302.4204 Z " fill="#000000"/><text fill="#000000" font-family="sans-serif" font-size="12" lengthAdjust="spacing" textLength="34" x="318" y="303.5352">Nurse</text><line style="stroke:#A80036;stroke-width:1.5;" x1="290" x2="354" y1="315" y2="315"/><line style="stroke:#A80036;stroke-width:1.5;" x1="290" x2="354" y1="323" y2="323"/><!--MD5=[18a0665590fbc0bb97e0cbe57f5649d5]
class GetListWithGivenRoleUI--><rect codeLine="18" fill="#FEFECE" filter="url(#fkywv2ce1kmvg)" height="48" id="GetListWithGivenRoleUI" style="stroke:#A80036;stroke-width:1.5;" width="163" x="352.75" y="7"/><ellipse cx="367.75" cy="23" fill="#ADD1B2" rx="11" ry="11" style="stroke:#A80036;stroke-width:1.0;"/><path d="M370.2231,29.1431 Q369.6421,29.4419 369.0029,29.5913 Q368.3638,29.7407 367.6582,29.7407 Q365.1514,29.7407 363.8315,28.0889 Q362.5117,26.437 362.5117,23.3159 Q362.5117,20.1865 363.8315,18.5347 Q365.1514,16.8828 367.6582,16.8828 Q368.3638,16.8828 369.0112,17.0322 Q369.6587,17.1816 370.2231,17.4805 L370.2231,20.2031 Q369.5923,19.6221 368.9988,19.3523 Q368.4053,19.0825 367.7744,19.0825 Q366.4297,19.0825 365.7449,20.1492 Q365.0601,21.2158 365.0601,23.3159 Q365.0601,25.4077 365.7449,26.4744 Q366.4297,27.541 367.7744,27.541 Q368.4053,27.541 368.9988,27.2712 Q369.5923,27.0015 370.2231,26.4204 Z " fill="#000000"/><text fill="#000000" font-family="sans-serif" font-size="12" lengthAdjust="spacing" textLength="131" x="381.75" y="27.5352">GetListWithGivenRoleUI</text><line style="stroke:#A80036;stroke-width:1.5;" x1="353.75" x2="514.75" y1="39" y2="39"/><line style="stroke:#A80036;stroke-width:1.5;" x1="353.75" x2="514.75" y1="47" y2="47"/><!--MD5=[36190900780404e25bd4d2266e5347f1]
class GetListWithGivenRole--><rect codeLine="21" fill="#FEFECE" filter="url(#fkywv2ce1kmvg)" height="86.8652" id="GetListWithGivenRole" style="stroke:#A80036;stroke-width:1.5;" width="152" x="358" y="133.5"/><ellipse cx="373" cy="149.5" fill="#ADD1B2" rx="11" ry="11" style="stroke:#A80036;stroke-width:1.0;"/><path d="M375.4731,155.6431 Q374.8921,155.9419 374.2529,156.0913 Q373.6138,156.2407 372.9082,156.2407 Q370.4014,156.2407 369.0815,154.5889 Q367.7617,152.937 367.7617,149.8159 Q367.7617,146.6865 369.0815,145.0347 Q370.4014,143.3828 372.9082,143.3828 Q373.6138,143.3828 374.2612,143.5322 Q374.9087,143.6816 375.4731,143.9805 L375.4731,146.7031 Q374.8423,146.1221 374.2488,145.8523 Q373.6553,145.5825 373.0244,145.5825 Q371.6797,145.5825 370.9949,146.6492 Q370.3101,147.7158 370.3101,149.8159 Q370.3101,151.9077 370.9949,152.9744 Q371.6797,154.041 373.0244,154.041 Q373.6553,154.041 374.2488,153.7712 Q374.8423,153.5015 375.4731,152.9204 Z " fill="#000000"/><text fill="#000000" font-family="sans-serif" font-size="12" lengthAdjust="spacing" textLength="120" x="387" y="154.0352">GetListWithGivenRole</text><line style="stroke:#A80036;stroke-width:1.5;" x1="359" x2="509" y1="165.5" y2="165.5"/><text fill="#000000" font-family="sans-serif" font-size="11" lengthAdjust="spacing" textLength="56" x="364" y="180.1348">+getName</text><text fill="#000000" font-family="sans-serif" font-size="11" lengthAdjust="spacing" textLength="49" x="364" y="193.0898">+getRole</text><line style="stroke:#A80036;stroke-width:1.5;" x1="359" x2="509" y1="199.4102" y2="199.4102"/><text fill="#000000" font-family="sans-serif" font-size="11" lengthAdjust="spacing" textLength="70" x="364" y="214.0449">+addToList()</text><!--MD5=[7421f545a0d8420c5bec41e74b387d9c]
class Employee--><rect fill="#FEFECE" filter="url(#fkywv2ce1kmvg)" height="48" id="Employee" style="stroke:#A80036;stroke-width:1.5;" width="88" x="390" y="283"/><ellipse cx="405" cy="299" fill="#ADD1B2" rx="11" ry="11" style="stroke:#A80036;stroke-width:1.0;"/><path d="M407.4731,305.1431 Q406.8921,305.4419 406.2529,305.5913 Q405.6138,305.7407 404.9082,305.7407 Q402.4014,305.7407 401.0815,304.0889 Q399.7617,302.437 399.7617,299.3159 Q399.7617,296.1865 401.0815,294.5347 Q402.4014,292.8828 404.9082,292.8828 Q405.6138,292.8828 406.2612,293.0322 Q406.9087,293.1816 407.4731,293.4805 L407.4731,296.2031 Q406.8423,295.6221 406.2488,295.3523 Q405.6553,295.0825 405.0244,295.0825 Q403.6797,295.0825 402.9949,296.1492 Q402.3101,297.2158 402.3101,299.3159 Q402.3101,301.4077 402.9949,302.4744 Q403.6797,303.541 405.0244,303.541 Q405.6553,303.541 406.2488,303.2712 Q406.8423,303.0015 407.4731,302.4204 Z " fill="#000000"/><text fill="#000000" font-family="sans-serif" font-size="12" lengthAdjust="spacing" textLength="56" x="419" y="303.5352">Employee</text><line style="stroke:#A80036;stroke-width:1.5;" x1="391" x2="477" y1="315" y2="315"/><line style="stroke:#A80036;stroke-width:1.5;" x1="391" x2="477" y1="323" y2="323"/><!--MD5=[144de1c6dbc9150bf6d7aaefd3c54abb]
link Receptionist to Role--><path codeLine="28" d="M203.632,331.035 C204.651,345.257 207.127,363.654 213,379 C216.361,387.78 220.941,396.562 225.959,404.8349 " fill="none" id="Receptionist-to-Role" style="stroke:#A80036;stroke-width:1.0;"/><polygon fill="#A80036" points="228.787,409.3757,227.4245,399.6215,226.1438,405.1315,220.6338,403.8507,228.787,409.3757" style="stroke:#A80036;stroke-width:1.0;"/><polygon fill="#000000" points="219.4479,374.4411,219.6417,364.9325,214.0156,366.6345,219.4479,374.4411" style="stroke:#000000;stroke-width:1.0;"/><text fill="#000000" font-family="sans-serif" font-size="13" lengthAdjust="spacing" textLength="50" x="227" y="374.5684">extends</text><!--MD5=[5f0244ce66f1ed78b4d16b37f9160431]
link Nurse to Role--><path codeLine="29" d="M312.36,331.136 C304.13,350.888 292.03,379.928 281.753,404.5928 " fill="none" id="Nurse-to-Role" style="stroke:#A80036;stroke-width:1.0;"/><polygon fill="#A80036" points="279.724,409.4633,286.8778,402.694,281.647,404.8479,279.4931,399.6171,279.724,409.4633" style="stroke:#A80036;stroke-width:1.0;"/><polygon fill="#000000" points="302.0769,374.2707,308.2687,367.0517,302.8429,364.791,302.0769,374.2707" style="stroke:#000000;stroke-width:1.0;"/><text fill="#000000" font-family="sans-serif" font-size="13" lengthAdjust="spacing" textLength="50" x="313" y="374.5684">extends</text><!--MD5=[956170db1c992375439d6e0ffa41a1bc]
link Administrator to Role--><path codeLine="32" d="M82.6952,331.327 C96.4013,346.007 115.249,364.794 134,379 C147.305,389.08 162.143,398.7642 176.869,407.5993 " fill="none" id="Administrator-to-Role" style="stroke:#A80036;stroke-width:1.0;"/><polygon fill="#A80036" points="181.433,410.3134,175.7419,402.2753,177.1355,407.7578,171.6529,409.1513,181.433,410.3134" style="stroke:#A80036;stroke-width:1.0;"/><polygon fill="#000000" points="142.8855,372.8022,137.7063,364.8255,134.0069,369.3932,142.8855,372.8022" style="stroke:#000000;stroke-width:1.0;"/><text fill="#000000" font-family="sans-serif" font-size="13" lengthAdjust="spacing" textLength="50" x="148" y="374.5684">extends</text><text fill="#000000" font-family="sans-serif" font-size="13" lengthAdjust="spacing" textLength="8" x="77.5209" y="351.691">1</text><text fill="#000000" font-family="sans-serif" font-size="13" lengthAdjust="spacing" textLength="6" x="167.6741" y="402.8201">*</text><!--MD5=[5f26196e5b5c3c1fd118965e43e7bb40]
reverse link Employee to Role--><path codeLine="34" d="M408.338,341.692 C398.052,354.123 385.647,367.877 373,379 C360.79,389.739 346.887,400.0993 333.149,409.4752 " fill="none" id="Employee-backto-Role" style="stroke:#A80036;stroke-width:1.0;"/><polygon fill="#A80036" points="416.784,331.207,409.905,333.3702,409.256,340.552,416.135,338.3888,416.784,331.207" style="stroke:#A80036;stroke-width:1.0;"/><text fill="#000000" font-family="sans-serif" font-size="13" lengthAdjust="spacing" textLength="54" x="392" y="374.5684">contains</text><!--MD5=[b5ec9691e17784b781ec38dab744326b]
link GetListWithGivenRole to Employee--><path codeLine="36" d="M434,220.622 C434,239.472 434,261.116 434,277.896 " fill="none" id="GetListWithGivenRole-to-Employee" style="stroke:#A80036;stroke-width:1.0;stroke-dasharray:7.0,7.0;"/><polygon fill="#A80036" points="434,282.938,438,273.938,434,277.938,430,273.938,434,282.938" style="stroke:#A80036;stroke-width:1.0;"/><!--MD5=[55c91b4f27936b70ad279055d9cc14d5]
link GetListWithGivenRoleUI to GetListWithGivenRole--><path codeLine="37" d="M434,55.136 C434,74.805 434,103.686 434,128.284 " fill="none" id="GetListWithGivenRoleUI-to-GetListWithGivenRole" style="stroke:#A80036;stroke-width:1.0;stroke-dasharray:7.0,7.0;"/><polygon fill="#A80036" points="434,133.463,438,124.463,434,128.463,430,124.463,434,133.463" style="stroke:#A80036;stroke-width:1.0;"/><text fill="#000000" font-family="sans-serif" font-size="13" lengthAdjust="spacing" textLength="38" x="435" y="98.5684">create</text><!--MD5=[42401c89e4584e63d78ca5f93054a856]
@startuml
skinparam classAttributeIconSize 0

class Role{
-float id
-String designation
+createRole(id,designation)
}

class Administrator {
}

class Receptionist{
}

class Nurse{
}

class GetListWithGivenRoleUI{

}
class GetListWithGivenRole{
+getName
+getRole
+addToList()
}


Receptionist  - ->  Role :extends >
Nurse - ->  Role : extends >


Administrator "1" - -> "*" Role :extends >

Employee  *- - Role : contains

GetListWithGivenRole   -[dashed]->  Employee
GetListWithGivenRoleUI -[dashed]-> GetListWithGivenRole  : create



@enduml

PlantUML version 1.2022.1(Tue Feb 01 18:19:58 WET 2022)
(GPL source distribution)
Java Runtime: OpenJDK Runtime Environment
JVM: OpenJDK 64-Bit Server VM
Default Encoding: UTF-8
Language: pt
Country: PT
--></g></svg>