<?xml version="1.0" encoding="UTF-8" standalone="no"?><svg xmlns="http://www.w3.org/2000/svg" xmlns:xlink="http://www.w3.org/1999/xlink" contentScriptType="application/ecmascript" contentStyleType="text/css" height="321px" preserveAspectRatio="none" style="width:584px;height:321px;background:#FFFFFF;" version="1.1" viewBox="0 0 584 321" width="584px" zoomAndPan="magnify"><defs><filter height="300%" id="f1mmtou2jdqfqb" width="300%" x="-1" y="-1"><feGaussianBlur result="blurOut" stdDeviation="2.0"/><feColorMatrix in="blurOut" result="blurOut2" type="matrix" values="0 0 0 0 0 0 0 0 0 0 0 0 0 0 0 0 0 0 .4 0"/><feOffset dx="4.0" dy="4.0" in="blurOut2" result="blurOut3"/><feBlend in="SourceGraphic" in2="blurOut3" mode="normal"/></filter></defs><g><!--MD5=[a3638c1e5b65d287ecad7f06f5c0f212]
class Role--><rect codeLine="6" fill="#FEFECE" filter="url(#f1mmtou2jdqfqb)" height="65.9102" id="Role" style="stroke:#A80036;stroke-width:1.5;" width="81" x="489.5" y="139.2422"/><ellipse cx="515.3" cy="155.2422" fill="#ADD1B2" rx="11" ry="11" style="stroke:#A80036;stroke-width:1.0;"/><path d="M517.7731,161.3853 Q517.1921,161.6841 516.5529,161.8335 Q515.9138,161.9829 515.2082,161.9829 Q512.7014,161.9829 511.3815,160.3311 Q510.0617,158.6792 510.0617,155.5581 Q510.0617,152.4287 511.3815,150.7769 Q512.7014,149.125 515.2082,149.125 Q515.9138,149.125 516.5612,149.2744 Q517.2087,149.4238 517.7731,149.7227 L517.7731,152.4453 Q517.1423,151.8643 516.5488,151.5945 Q515.9553,151.3247 515.3244,151.3247 Q513.9797,151.3247 513.2949,152.3914 Q512.6101,153.458 512.6101,155.5581 Q512.6101,157.6499 513.2949,158.7166 Q513.9797,159.7832 515.3244,159.7832 Q515.9553,159.7832 516.5488,159.5134 Q517.1423,159.2437 517.7731,158.6626 Z " fill="#000000"/><text fill="#000000" font-family="sans-serif" font-size="12" lengthAdjust="spacing" textLength="25" x="531.7" y="159.7773">Role</text><line style="stroke:#A80036;stroke-width:1.5;" x1="490.5" x2="569.5" y1="171.2422" y2="171.2422"/><text fill="#000000" font-family="sans-serif" font-size="11" lengthAdjust="spacing" textLength="16" x="495.5" y="185.877">-id</text><text fill="#000000" font-family="sans-serif" font-size="11" lengthAdjust="spacing" textLength="69" x="495.5" y="198.832">-designation</text><!--MD5=[7421f545a0d8420c5bec41e74b387d9c]
class Employee--><rect codeLine="11" fill="#FEFECE" filter="url(#f1mmtou2jdqfqb)" height="91.8203" id="Employee" style="stroke:#A80036;stroke-width:1.5;" width="122" x="249" y="65.2422"/><ellipse cx="279.3" cy="81.2422" fill="#ADD1B2" rx="11" ry="11" style="stroke:#A80036;stroke-width:1.0;"/><path d="M281.7731,87.3853 Q281.1921,87.6841 280.5529,87.8335 Q279.9138,87.9829 279.2082,87.9829 Q276.7014,87.9829 275.3815,86.3311 Q274.0617,84.6792 274.0617,81.5581 Q274.0617,78.4287 275.3815,76.7769 Q276.7014,75.125 279.2082,75.125 Q279.9138,75.125 280.5612,75.2744 Q281.2087,75.4238 281.7731,75.7227 L281.7731,78.4453 Q281.1423,77.8643 280.5488,77.5945 Q279.9553,77.3247 279.3244,77.3247 Q277.9797,77.3247 277.2949,78.3914 Q276.6101,79.458 276.6101,81.5581 Q276.6101,83.6499 277.2949,84.7166 Q277.9797,85.7832 279.3244,85.7832 Q279.9553,85.7832 280.5488,85.5134 Q281.1423,85.2437 281.7731,84.6626 Z " fill="#000000"/><text fill="#000000" font-family="sans-serif" font-size="12" lengthAdjust="spacing" textLength="56" x="296.7" y="85.7773">Employee</text><line style="stroke:#A80036;stroke-width:1.5;" x1="250" x2="370" y1="97.2422" y2="97.2422"/><text fill="#000000" font-family="sans-serif" font-size="11" lengthAdjust="spacing" textLength="16" x="255" y="111.877">-id</text><text fill="#000000" font-family="sans-serif" font-size="11" lengthAdjust="spacing" textLength="42" x="255" y="124.832">-adress</text><text fill="#000000" font-family="sans-serif" font-size="11" lengthAdjust="spacing" textLength="83" x="255" y="137.7871">-phoneNumber</text><text fill="#000000" font-family="sans-serif" font-size="11" lengthAdjust="spacing" textLength="110" x="255" y="150.7422">-citizenCardNumber</text><!--MD5=[da547346deef918ea16944ba046651ef]
class Administrator--><rect codeLine="18" fill="#FEFECE" filter="url(#f1mmtou2jdqfqb)" height="40" id="Administrator" style="stroke:#A80036;stroke-width:1.5;" width="110" x="7" y="14.2422"/><ellipse cx="22" cy="30.2422" fill="#ADD1B2" rx="11" ry="11" style="stroke:#A80036;stroke-width:1.0;"/><path d="M24.4731,36.3853 Q23.8921,36.6841 23.2529,36.8335 Q22.6138,36.9829 21.9082,36.9829 Q19.4014,36.9829 18.0815,35.3311 Q16.7617,33.6792 16.7617,30.5581 Q16.7617,27.4287 18.0815,25.7769 Q19.4014,24.125 21.9082,24.125 Q22.6138,24.125 23.2612,24.2744 Q23.9087,24.4238 24.4731,24.7227 L24.4731,27.4453 Q23.8423,26.8643 23.2488,26.5945 Q22.6553,26.3247 22.0244,26.3247 Q20.6797,26.3247 19.9949,27.3914 Q19.3101,28.458 19.3101,30.5581 Q19.3101,32.6499 19.9949,33.7166 Q20.6797,34.7832 22.0244,34.7832 Q22.6553,34.7832 23.2488,34.5134 Q23.8423,34.2437 24.4731,33.6626 Z " fill="#000000"/><text fill="#000000" font-family="sans-serif" font-size="12" lengthAdjust="spacing" textLength="78" x="36" y="34.7773">Administrator</text><line style="stroke:#A80036;stroke-width:1.5;" x1="8" x2="116" y1="46.2422" y2="46.2422"/><!--MD5=[03960189e81aa2c066c762ffabbee709]
class Receptionist--><rect codeLine="21" fill="#FEFECE" filter="url(#f1mmtou2jdqfqb)" height="40" id="Receptionist" style="stroke:#A80036;stroke-width:1.5;" width="102" x="259" y="192.2422"/><ellipse cx="274" cy="208.2422" fill="#ADD1B2" rx="11" ry="11" style="stroke:#A80036;stroke-width:1.0;"/><path d="M276.4731,214.3853 Q275.8921,214.6841 275.2529,214.8335 Q274.6138,214.9829 273.9082,214.9829 Q271.4014,214.9829 270.0815,213.3311 Q268.7617,211.6792 268.7617,208.5581 Q268.7617,205.4287 270.0815,203.7769 Q271.4014,202.125 273.9082,202.125 Q274.6138,202.125 275.2612,202.2744 Q275.9087,202.4238 276.4731,202.7227 L276.4731,205.4453 Q275.8423,204.8643 275.2488,204.5945 Q274.6553,204.3247 274.0244,204.3247 Q272.6797,204.3247 271.9949,205.3914 Q271.3101,206.458 271.3101,208.5581 Q271.3101,210.6499 271.9949,211.7166 Q272.6797,212.7832 274.0244,212.7832 Q274.6553,212.7832 275.2488,212.5134 Q275.8423,212.2437 276.4731,211.6626 Z " fill="#000000"/><text fill="#000000" font-family="sans-serif" font-size="12" lengthAdjust="spacing" textLength="70" x="288" y="212.7773">Receptionist</text><line style="stroke:#A80036;stroke-width:1.5;" x1="260" x2="360" y1="224.2422" y2="224.2422"/><!--MD5=[a059576e163b46f56762f12600c49258]
class Nurse--><rect codeLine="24" fill="#FEFECE" filter="url(#f1mmtou2jdqfqb)" height="40" id="Nurse" style="stroke:#A80036;stroke-width:1.5;" width="66" x="277" y="267.2422"/><ellipse cx="292" cy="283.2422" fill="#ADD1B2" rx="11" ry="11" style="stroke:#A80036;stroke-width:1.0;"/><path d="M294.4731,289.3853 Q293.8921,289.6841 293.2529,289.8335 Q292.6138,289.9829 291.9082,289.9829 Q289.4014,289.9829 288.0815,288.3311 Q286.7617,286.6792 286.7617,283.5581 Q286.7617,280.4287 288.0815,278.7769 Q289.4014,277.125 291.9082,277.125 Q292.6138,277.125 293.2612,277.2744 Q293.9087,277.4238 294.4731,277.7227 L294.4731,280.4453 Q293.8423,279.8643 293.2488,279.5945 Q292.6553,279.3247 292.0244,279.3247 Q290.6797,279.3247 289.9949,280.3914 Q289.3101,281.458 289.3101,283.5581 Q289.3101,285.6499 289.9949,286.7166 Q290.6797,287.7832 292.0244,287.7832 Q292.6553,287.7832 293.2488,287.5134 Q293.8423,287.2437 294.4731,286.6626 Z " fill="#000000"/><text fill="#000000" font-family="sans-serif" font-size="12" lengthAdjust="spacing" textLength="34" x="306" y="287.7773">Nurse</text><line style="stroke:#A80036;stroke-width:1.5;" x1="278" x2="342" y1="299.2422" y2="299.2422"/><!--MD5=[5f26196e5b5c3c1fd118965e43e7bb40]
reverse link Employee to Role--><path codeLine="28" d="M383.832,131.6222 C419.047,141.4752 459.943,152.9192 489.337,161.1442 " fill="none" id="Employee-backto-Role" style="stroke:#A80036;stroke-width:1.0;"/><polygon fill="#A80036" points="371.147,128.0722,375.8474,133.5409,382.7032,131.3054,378.0028,125.8367,371.147,128.0722" style="stroke:#A80036;stroke-width:1.0;"/><text fill="#000000" font-family="sans-serif" font-size="13" lengthAdjust="spacing" textLength="54" x="402.5" y="132.8105">contains</text><!--MD5=[8f7dd94d56b58fc07b233ccd3dd98f8c]
link Administrator to Employee--><path codeLine="29" d="M117.29,51.2352 C154.529,62.8912 204.139,78.4202 243.562,90.7592 " fill="none" id="Administrator-to-Employee" style="stroke:#A80036;stroke-width:1.0;"/><polygon fill="#A80036" points="248.809,92.4022,241.4158,85.8953,244.0375,90.9079,239.0249,93.5296,248.809,92.4022" style="stroke:#A80036;stroke-width:1.0;"/><polygon fill="#000000" points="156.7717,54.391,149.0175,48.8844,147.2617,54.4939,156.7717,54.391" style="stroke:#000000;stroke-width:1.0;"/><text fill="#000000" font-family="sans-serif" font-size="13" lengthAdjust="spacing" textLength="56" x="161" y="57.8105">manages</text><text fill="#000000" font-family="sans-serif" font-size="13" lengthAdjust="spacing" textLength="8" x="124.8865" y="66.9616">1</text><text fill="#000000" font-family="sans-serif" font-size="13" lengthAdjust="spacing" textLength="6" x="235.0862" y="103.8264">*</text><!--MD5=[956170db1c992375439d6e0ffa41a1bc]
link Administrator to Role--><path codeLine="30" d="M117.227,26.8492 C180.299,20.4172 286.554,16.3672 371,47.2422 C420.56,65.3622 466.58,105.5382 496.02,135.4802 " fill="none" id="Administrator-to-Role" style="stroke:#A80036;stroke-width:1.0;"/><polygon fill="#A80036" points="499.528,139.0792,496.1116,129.8419,496.0385,135.4982,490.3821,135.4251,499.528,139.0792" style="stroke:#A80036;stroke-width:1.0;"/><polygon fill="#000000" points="300.8063,16.2758,292.9218,10.9573,291.3015,16.6074,300.8063,16.2758" style="stroke:#000000;stroke-width:1.0;"/><text fill="#000000" font-family="sans-serif" font-size="13" lengthAdjust="spacing" textLength="22" x="305" y="19.8105">is a</text><!--MD5=[144de1c6dbc9150bf6d7aaefd3c54abb]
link Receptionist to Role--><path codeLine="31" d="M361.014,207.8804 C389.856,204.8532 426.693,200.1132 459,193.2422 C467.222,191.4932 475.876,189.2432 484.189,186.8692 " fill="none" id="Receptionist-to-Role" style="stroke:#A80036;stroke-width:1.0;"/><polygon fill="#A80036" points="489.313,185.3772,479.5538,184.0511,484.5121,186.7742,481.789,191.7325,489.313,185.3772" style="stroke:#A80036;stroke-width:1.0;"/><polygon fill="#000000" points="420.9288,183.0567,411.5183,181.6806,412.5067,187.4747,420.9288,183.0567" style="stroke:#000000;stroke-width:1.0;"/><text fill="#000000" font-family="sans-serif" font-size="13" lengthAdjust="spacing" textLength="22" x="425" y="188.8105">is a</text><!--MD5=[5f0244ce66f1ed78b4d16b37f9160431]
link Nurse to Role--><path codeLine="32" d="M343.148,277.492 C374.004,267.437 421.346,250.1549 459,228.2422 C468.595,222.6587 478.277,215.8392 487.253,208.9059 " fill="none" id="Nurse-to-Role" style="stroke:#A80036;stroke-width:1.0;"/><polygon fill="#A80036" points="491.599,205.4982,482.0481,207.9025,487.6639,208.5829,486.9836,214.1987,491.599,205.4982" style="stroke:#A80036;stroke-width:1.0;"/><polygon fill="#000000" points="420.5147,216.7487,411.0845,217.9822,413.6105,223.2895,420.5147,216.7487" style="stroke:#000000;stroke-width:1.0;"/><text fill="#000000" font-family="sans-serif" font-size="13" lengthAdjust="spacing" textLength="22" x="425" y="223.8105">is a</text><!--MD5=[6b305f7e524b78965775fa7144e0f639]
@startuml
hide methods
left to right direction
skinparam classAttributeIconSize 0


class Role {
  -id
  -designation
}

class Employee {
  -id
  -adress
  -phoneNumber
  -citizenCardNumber
}

class Administrator {
}

class Receptionist{
}

class Nurse{
}


Employee  *- - Role : contains
Administrator "1" - -> "*" Employee : manages >
Administrator - -> Role : is a >
Receptionist - -> Role : is a >
Nurse - -> Role  : is a >



@enduml

PlantUML version 1.2022.1(Tue Feb 01 18:19:58 WET 2022)
(GPL source distribution)
Java Runtime: OpenJDK Runtime Environment
JVM: OpenJDK 64-Bit Server VM
Default Encoding: UTF-8
Language: pt
Country: PT
--></g></svg>