<?xml version="1.0" encoding="UTF-8" standalone="no"?><svg xmlns="http://www.w3.org/2000/svg" xmlns:xlink="http://www.w3.org/1999/xlink" contentStyleType="text/css" height="601px" preserveAspectRatio="none" style="width:762px;height:601px;background:#FFFFFF;" version="1.1" viewBox="0 0 762 601" width="762px" zoomAndPan="magnify"><defs/><g><!--MD5=[02e4b9b7573f1156f41e60aa5b4e25a4]
class Company--><g id="elem_Company"><rect codeLine="4" fill="#F1F1F1" height="56.4883" id="Company" rx="2.5" ry="2.5" style="stroke:#181818;stroke-width:0.5;" width="101" x="153.8557" y="7"/><ellipse cx="170.6557" cy="23" fill="#ADD1B2" rx="11" ry="11" style="stroke:#181818;stroke-width:1.0;"/><path d="M173.6288,28.6431 Q173.0478,28.9419 172.4086,29.0913 Q171.7695,29.2407 171.0639,29.2407 Q168.5571,29.2407 167.2372,27.5889 Q165.9174,25.937 165.9174,22.8159 Q165.9174,19.6865 167.2372,18.0347 Q168.5571,16.3828 171.0639,16.3828 Q171.7695,16.3828 172.4169,16.5322 Q173.0644,16.6816 173.6288,16.9805 L173.6288,19.7031 Q172.998,19.1221 172.4045,18.8523 Q171.811,18.5825 171.1801,18.5825 Q169.8354,18.5825 169.1506,19.6492 Q168.4658,20.7158 168.4658,22.8159 Q168.4658,24.9077 169.1506,25.9744 Q169.8354,27.041 171.1801,27.041 Q171.811,27.041 172.4045,26.7712 Q172.998,26.5015 173.6288,25.9204 Z " fill="#000000"/><text fill="#000000" font-family="sans-serif" font-size="14" lengthAdjust="spacing" textLength="65" x="185.0557" y="28.291">Company</text><line style="stroke:#181818;stroke-width:0.5;" x1="154.8557" x2="253.8557" y1="39" y2="39"/><text fill="#000000" font-family="sans-serif" font-size="14" lengthAdjust="spacing" textLength="89" x="159.8557" y="56.5352">-designation</text></g><!--MD5=[7421f545a0d8420c5bec41e74b387d9c]
class Employee--><g id="elem_Employee"><rect codeLine="8" fill="#F1F1F1" height="138.9297" id="Employee" rx="2.5" ry="2.5" style="stroke:#181818;stroke-width:0.5;" width="153" x="146.8557" y="306"/><ellipse cx="186.6057" cy="322" fill="#ADD1B2" rx="11" ry="11" style="stroke:#181818;stroke-width:1.0;"/><path d="M189.5788,327.6431 Q188.9978,327.9419 188.3586,328.0913 Q187.7195,328.2407 187.0139,328.2407 Q184.5071,328.2407 183.1872,326.5889 Q181.8674,324.937 181.8674,321.8159 Q181.8674,318.6865 183.1872,317.0347 Q184.5071,315.3828 187.0139,315.3828 Q187.7195,315.3828 188.3669,315.5322 Q189.0144,315.6816 189.5788,315.9805 L189.5788,318.7031 Q188.948,318.1221 188.3545,317.8523 Q187.761,317.5825 187.1301,317.5825 Q185.7854,317.5825 185.1006,318.6492 Q184.4158,319.7158 184.4158,321.8159 Q184.4158,323.9077 185.1006,324.9744 Q185.7854,326.041 187.1301,326.041 Q187.761,326.041 188.3545,325.7712 Q188.948,325.5015 189.5788,324.9204 Z " fill="#000000"/><text fill="#000000" font-family="sans-serif" font-size="14" lengthAdjust="spacing" textLength="66" x="206.1057" y="327.291">Employee</text><line style="stroke:#181818;stroke-width:0.5;" x1="147.8557" x2="298.8557" y1="338" y2="338"/><text fill="#000000" font-family="sans-serif" font-size="14" lengthAdjust="spacing" textLength="21" x="152.8557" y="355.5352">-id</text><text fill="#000000" font-family="sans-serif" font-size="14" lengthAdjust="spacing" textLength="46" x="152.8557" y="372.0234">-name</text><text fill="#000000" font-family="sans-serif" font-size="14" lengthAdjust="spacing" textLength="45" x="152.8557" y="388.5117">-email</text><text fill="#000000" font-family="sans-serif" font-size="14" lengthAdjust="spacing" textLength="62" x="152.8557" y="405">-address</text><text fill="#000000" font-family="sans-serif" font-size="14" lengthAdjust="spacing" textLength="107" x="152.8557" y="421.4883">-phoneNumber</text><text fill="#000000" font-family="sans-serif" font-size="14" lengthAdjust="spacing" textLength="141" x="152.8557" y="437.9766">-citizenCardNumber</text></g><!--MD5=[45d42ff7800d812d5f83c7d3273eb427]
class UserRole--><g id="elem_UserRole"><rect codeLine="17" fill="#F1F1F1" height="72.9766" id="UserRole" rx="2.5" ry="2.5" style="stroke:#181818;stroke-width:0.5;" width="101" x="365.8557" y="522"/><ellipse cx="384.4557" cy="538" fill="#ADD1B2" rx="11" ry="11" style="stroke:#181818;stroke-width:1.0;"/><path d="M387.4288,543.6431 Q386.8478,543.9419 386.2086,544.0913 Q385.5695,544.2407 384.8639,544.2407 Q382.3571,544.2407 381.0372,542.5889 Q379.7174,540.937 379.7174,537.8159 Q379.7174,534.6865 381.0372,533.0347 Q382.3571,531.3828 384.8639,531.3828 Q385.5695,531.3828 386.2169,531.5322 Q386.8644,531.6816 387.4288,531.9805 L387.4288,534.7031 Q386.798,534.1221 386.2045,533.8523 Q385.611,533.5825 384.9801,533.5825 Q383.6354,533.5825 382.9506,534.6492 Q382.2658,535.7158 382.2658,537.8159 Q382.2658,539.9077 382.9506,540.9744 Q383.6354,542.041 384.9801,542.041 Q385.611,542.041 386.2045,541.7712 Q386.798,541.5015 387.4288,540.9204 Z " fill="#000000"/><text fill="#000000" font-family="sans-serif" font-size="14" lengthAdjust="spacing" textLength="61" x="399.2557" y="543.291">UserRole</text><line style="stroke:#181818;stroke-width:0.5;" x1="366.8557" x2="465.8557" y1="554" y2="554"/><text fill="#000000" font-family="sans-serif" font-size="14" lengthAdjust="spacing" textLength="21" x="371.8557" y="571.5352">-id</text><text fill="#000000" font-family="sans-serif" font-size="14" lengthAdjust="spacing" textLength="89" x="371.8557" y="588.0234">-designation</text></g><!--MD5=[3fd616f346a44cd59a91eb10b19e157c]
class User--><g id="elem_User"><rect codeLine="22" fill="#F1F1F1" height="89.4648" id="User" rx="2.5" ry="2.5" style="stroke:#181818;stroke-width:0.5;" width="86" x="90.3553" y="140"/><ellipse cx="115.7053" cy="156" fill="#ADD1B2" rx="11" ry="11" style="stroke:#181818;stroke-width:1.0;"/><path d="M118.6784,161.6431 Q118.0974,161.9419 117.4582,162.0913 Q116.8191,162.2407 116.1135,162.2407 Q113.6067,162.2407 112.2868,160.5889 Q110.967,158.937 110.967,155.8159 Q110.967,152.6865 112.2868,151.0347 Q113.6067,149.3828 116.1135,149.3828 Q116.8191,149.3828 117.4665,149.5322 Q118.114,149.6816 118.6784,149.9805 L118.6784,152.7031 Q118.0476,152.1221 117.4541,151.8523 Q116.8606,151.5825 116.2297,151.5825 Q114.885,151.5825 114.2002,152.6492 Q113.5154,153.7158 113.5154,155.8159 Q113.5154,157.9077 114.2002,158.9744 Q114.885,160.041 116.2297,160.041 Q116.8606,160.041 117.4541,159.7712 Q118.0476,159.5015 118.6784,158.9204 Z " fill="#000000"/><text fill="#000000" font-family="sans-serif" font-size="14" lengthAdjust="spacing" textLength="31" x="132.0053" y="161.291">User</text><line style="stroke:#181818;stroke-width:0.5;" x1="91.3553" x2="175.3553" y1="172" y2="172"/><text fill="#000000" font-family="sans-serif" font-size="14" lengthAdjust="spacing" textLength="46" x="96.3553" y="189.5352">-name</text><text fill="#000000" font-family="sans-serif" font-size="14" lengthAdjust="spacing" textLength="45" x="96.3553" y="206.0234">-email</text><text fill="#000000" font-family="sans-serif" font-size="14" lengthAdjust="spacing" textLength="74" x="96.3553" y="222.5117">-password</text></g><!--MD5=[2d935fd2dd068a13da1ae531f9857c4f]
class CenterCoordinator--><g id="elem_CenterCoordinator"><rect codeLine="28" fill="#F1F1F1" height="40" id="CenterCoordinator" rx="2.5" ry="2.5" style="stroke:#181818;stroke-width:0.5;" width="162" x="335.3557" y="355.5"/><ellipse cx="350.3557" cy="371.5" fill="#ADD1B2" rx="11" ry="11" style="stroke:#181818;stroke-width:1.0;"/><path d="M353.3288,377.1431 Q352.7478,377.4419 352.1086,377.5913 Q351.4695,377.7407 350.7639,377.7407 Q348.2571,377.7407 346.9372,376.0889 Q345.6174,374.437 345.6174,371.3159 Q345.6174,368.1865 346.9372,366.5347 Q348.2571,364.8828 350.7639,364.8828 Q351.4695,364.8828 352.1169,365.0322 Q352.7644,365.1816 353.3288,365.4805 L353.3288,368.2031 Q352.698,367.6221 352.1045,367.3523 Q351.511,367.0825 350.8801,367.0825 Q349.5354,367.0825 348.8506,368.1492 Q348.1658,369.2158 348.1658,371.3159 Q348.1658,373.4077 348.8506,374.4744 Q349.5354,375.541 350.8801,375.541 Q351.511,375.541 352.1045,375.2712 Q352.698,375.0015 353.3288,374.4204 Z " fill="#000000"/><text fill="#000000" font-family="sans-serif" font-size="14" lengthAdjust="spacing" textLength="130" x="364.3557" y="376.791">CenterCoordinator</text><line style="stroke:#181818;stroke-width:0.5;" x1="336.3557" x2="496.3557" y1="387.5" y2="387.5"/></g><!--MD5=[da547346deef918ea16944ba046651ef]
class Administrator--><g id="elem_Administrator"><rect codeLine="31" fill="#F1F1F1" height="40" id="Administrator" rx="2.5" ry="2.5" style="stroke:#181818;stroke-width:0.5;" width="127" x="211.8557" y="164.5"/><ellipse cx="226.8557" cy="180.5" fill="#ADD1B2" rx="11" ry="11" style="stroke:#181818;stroke-width:1.0;"/><path d="M229.8288,186.1431 Q229.2478,186.4419 228.6086,186.5913 Q227.9695,186.7407 227.2639,186.7407 Q224.7571,186.7407 223.4372,185.0889 Q222.1174,183.437 222.1174,180.3159 Q222.1174,177.1865 223.4372,175.5347 Q224.7571,173.8828 227.2639,173.8828 Q227.9695,173.8828 228.6169,174.0322 Q229.2644,174.1816 229.8288,174.4805 L229.8288,177.2031 Q229.198,176.6221 228.6045,176.3523 Q228.011,176.0825 227.3801,176.0825 Q226.0354,176.0825 225.3506,177.1492 Q224.6658,178.2158 224.6658,180.3159 Q224.6658,182.4077 225.3506,183.4744 Q226.0354,184.541 227.3801,184.541 Q228.011,184.541 228.6045,184.2712 Q229.198,184.0015 229.8288,183.4204 Z " fill="#000000"/><text fill="#000000" font-family="sans-serif" font-size="14" lengthAdjust="spacing" textLength="95" x="240.8557" y="185.791">Administrator</text><line style="stroke:#181818;stroke-width:0.5;" x1="212.8557" x2="337.8557" y1="196.5" y2="196.5"/></g><!--MD5=[03960189e81aa2c066c762ffabbee709]
class Receptionist--><g id="elem_Receptionist"><rect codeLine="35" fill="#F1F1F1" height="40" id="Receptionist" rx="2.5" ry="2.5" style="stroke:#181818;stroke-width:0.5;" width="116" x="532.3557" y="355.5"/><ellipse cx="547.3557" cy="371.5" fill="#ADD1B2" rx="11" ry="11" style="stroke:#181818;stroke-width:1.0;"/><path d="M550.3288,377.1431 Q549.7478,377.4419 549.1086,377.5913 Q548.4695,377.7407 547.7639,377.7407 Q545.2571,377.7407 543.9372,376.0889 Q542.6174,374.437 542.6174,371.3159 Q542.6174,368.1865 543.9372,366.5347 Q545.2571,364.8828 547.7639,364.8828 Q548.4695,364.8828 549.1169,365.0322 Q549.7644,365.1816 550.3288,365.4805 L550.3288,368.2031 Q549.698,367.6221 549.1045,367.3523 Q548.511,367.0825 547.8801,367.0825 Q546.5354,367.0825 545.8506,368.1492 Q545.1658,369.2158 545.1658,371.3159 Q545.1658,373.4077 545.8506,374.4744 Q546.5354,375.541 547.8801,375.541 Q548.511,375.541 549.1045,375.2712 Q549.698,375.0015 550.3288,374.4204 Z " fill="#000000"/><text fill="#000000" font-family="sans-serif" font-size="14" lengthAdjust="spacing" textLength="84" x="561.3557" y="376.791">Receptionist</text><line style="stroke:#181818;stroke-width:0.5;" x1="533.3557" x2="647.3557" y1="387.5" y2="387.5"/></g><!--MD5=[a059576e163b46f56762f12600c49258]
class Nurse--><g id="elem_Nurse"><rect codeLine="38" fill="#F1F1F1" height="40" id="Nurse" rx="2.5" ry="2.5" style="stroke:#181818;stroke-width:0.5;" width="72" x="683.3557" y="355.5"/><ellipse cx="698.3557" cy="371.5" fill="#ADD1B2" rx="11" ry="11" style="stroke:#181818;stroke-width:1.0;"/><path d="M701.3288,377.1431 Q700.7478,377.4419 700.1086,377.5913 Q699.4695,377.7407 698.7639,377.7407 Q696.2571,377.7407 694.9372,376.0889 Q693.6174,374.437 693.6174,371.3159 Q693.6174,368.1865 694.9372,366.5347 Q696.2571,364.8828 698.7639,364.8828 Q699.4695,364.8828 700.1169,365.0322 Q700.7644,365.1816 701.3288,365.4805 L701.3288,368.2031 Q700.698,367.6221 700.1045,367.3523 Q699.511,367.0825 698.8801,367.0825 Q697.5354,367.0825 696.8506,368.1492 Q696.1658,369.2158 696.1658,371.3159 Q696.1658,373.4077 696.8506,374.4744 Q697.5354,375.541 698.8801,375.541 Q699.511,375.541 700.1045,375.2712 Q700.698,375.0015 701.3288,374.4204 Z " fill="#000000"/><text fill="#000000" font-family="sans-serif" font-size="14" lengthAdjust="spacing" textLength="40" x="712.3557" y="376.791">Nurse</text><line style="stroke:#181818;stroke-width:0.5;" x1="684.3557" x2="754.3557" y1="387.5" y2="387.5"/></g><!--MD5=[09366576ee87d48d594df10cacc83f45]
link Company to Employee--><g id="link_Company_Employee"><path codeLine="42" d="M254.9607,55.436 C290.4087,72.04 335.0977,99.699 356.3557,140 C384.9557,194.222 370.3477,227.116 333.3557,276 C323.6097,288.878 311.9997,301.383 300.0317,312.919 " fill="none" id="Company-Employee" style="stroke:#181818;stroke-width:1.0;"/><polygon fill="#000000" points="378.2178,189.5804,379.5531,180.164,373.7633,181.1775,378.2178,189.5804" style="stroke:#000000;stroke-width:1.0;"/><text fill="#000000" font-family="sans-serif" font-size="13" lengthAdjust="spacing" textLength="46" x="386.3557" y="189.5684">employ</text><text fill="#000000" font-family="sans-serif" font-size="13" lengthAdjust="spacing" textLength="8" x="262.9808" y="54.8913">1</text><text fill="#000000" font-family="sans-serif" font-size="13" lengthAdjust="spacing" textLength="6" x="307.8748" y="303.6075">*</text></g><!--MD5=[4d2bf9651ec2cec1e10821c6121f5fe0]
link Company to UserRole--><g id="link_Company_UserRole"><path codeLine="43" d="M153.8287,62.208 C124.8794,80.048 90.7455,106.496 72.3553,140 C6,260.889 31.161,348.176 129.3553,445 C195.0907,509.8185 302.5487,538.3639 365.6537,550.0895 " fill="none" id="Company-UserRole" style="stroke:#181818;stroke-width:1.0;"/><polygon fill="#000000" points="43.3466,272.2416,42.4401,262.7744,37.0485,265.1153,43.3466,272.2416" style="stroke:#000000;stroke-width:1.0;"/><text fill="#000000" font-family="sans-serif" font-size="13" lengthAdjust="spacing" textLength="79" x="50.3553" y="272.5684">Compreends</text><text fill="#000000" font-family="sans-serif" font-size="13" lengthAdjust="spacing" textLength="8" x="137.82" y="62.6579">1</text><text fill="#000000" font-family="sans-serif" font-size="13" lengthAdjust="spacing" textLength="6" x="351.7662" y="545.3455">*</text></g><!--MD5=[edf9467fb81ecc5fe28608b9d8a617e0]
link Employee to UserRole--><g id="link_Employee_UserRole"><path codeLine="44" d="M284.1187,445.174 C299.0867,461.039 315.4087,477.505 331.3557,492 C342.5217,502.1501 355.1317,512.4345 367.1537,521.752 " fill="none" id="Employee-UserRole" style="stroke:#181818;stroke-width:1.0;"/><polygon fill="#000000" points="340.0313,487.045,335.3745,478.7525,331.3897,483.0734,340.0313,487.045" style="stroke:#000000;stroke-width:1.0;"/><text fill="#000000" font-family="sans-serif" font-size="13" lengthAdjust="spacing" textLength="62" x="345.3557" y="488.5684">has/plays</text></g><!--MD5=[48afc90033d240f0c7566c2ff402e39b]
link User to Employee--><g id="link_User_Employee"><path codeLine="45" d="M149.5007,229.234 C155.3667,244.231 162.2967,261.008 169.3557,276 C173.9657,285.792 179.1157,295.969 184.3537,305.902 " fill="none" id="User-Employee" style="stroke:#181818;stroke-width:1.0;"/><polygon fill="#000000" points="172.2865,263.1035,173.3543,272.554,178.7052,270.1215,172.2865,263.1035" style="stroke:#000000;stroke-width:1.0;"/><text fill="#000000" font-family="sans-serif" font-size="13" lengthAdjust="spacing" textLength="59" x="183.3557" y="272.5684">relates to</text><text fill="#000000" font-family="sans-serif" font-size="13" lengthAdjust="spacing" textLength="24" x="126.1617" y="250.1149">0..1</text><text fill="#000000" font-family="sans-serif" font-size="13" lengthAdjust="spacing" textLength="8" x="171.6504" y="295.0586">1</text></g><!--MD5=[3ea266e1f1a083dbb2328bdfa2f9d45f]
link CenterCoordinator to UserRole--><g id="link_CenterCoordinator_UserRole"><path codeLine="47" d="M416.3557,395.528 C416.3557,420.49 416.3557,465.37 416.3557,501.5671 " fill="none" id="CenterCoordinator-to-UserRole" style="stroke:#181818;stroke-width:1.0;"/><polygon fill="none" points="423.3557,501.66,416.3557,521.66,409.3557,501.6599,423.3557,501.66" style="stroke:#181818;stroke-width:1.0;"/><text fill="#000000" font-family="sans-serif" font-size="13" lengthAdjust="spacing" textLength="22" x="417.3557" y="488.5684">is a</text></g><!--MD5=[895fb06b143c3357adb3f195fd81aaae]
link Receptionist to UserRole--><g id="link_Receptionist_UserRole"><path codeLine="48" d="M572.0627,395.528 C546.8327,421.773 500.4367,470.036 464.8287,507.0762 " fill="none" id="Receptionist-to-UserRole" style="stroke:#181818;stroke-width:1.0;"/><polygon fill="none" points="469.7167,512.093,450.8097,521.66,459.6237,502.3905,469.7167,512.093" style="stroke:#181818;stroke-width:1.0;"/><text fill="#000000" font-family="sans-serif" font-size="13" lengthAdjust="spacing" textLength="22" x="493.3557" y="488.5684">is a</text></g><!--MD5=[97fbe99f86a1d0e5403166bd76416bea]
link Nurse to UserRole--><g id="link_Nurse_UserRole"><path codeLine="49" d="M708.1527,395.738 C698.6127,410.761 683.7137,431.316 666.3557,445 C612.3317,487.587 539.6197,517.9466 486.5427,536.3103 " fill="none" id="Nurse-to-UserRole" style="stroke:#181818;stroke-width:1.0;"/><polygon fill="none" points="488.4297,543.0603,467.2417,542.7615,483.9917,529.7824,488.4297,543.0603" style="stroke:#181818;stroke-width:1.0;"/><text fill="#000000" font-family="sans-serif" font-size="13" lengthAdjust="spacing" textLength="22" x="617.3557" y="488.5684">is a</text></g><!--MD5=[8f7dd94d56b58fc07b233ccd3dd98f8c]
link Administrator to Employee--><g id="link_Administrator_Employee"><path codeLine="51" d="M270.0827,204.662 C263.5767,228.312 252.1547,269.824 242.2327,305.887 " fill="none" id="Administrator-Employee" style="stroke:#181818;stroke-width:1.0;"/><polygon fill="#000000" points="258.0293,272.4761,263.2624,264.5347,257.5951,262.9755,258.0293,272.4761" style="stroke:#000000;stroke-width:1.0;"/><text fill="#000000" font-family="sans-serif" font-size="13" lengthAdjust="spacing" textLength="56" x="268.3557" y="272.5684">manages</text><text fill="#000000" font-family="sans-serif" font-size="13" lengthAdjust="spacing" textLength="8" x="259.4747" y="225.054">1</text><text fill="#000000" font-family="sans-serif" font-size="13" lengthAdjust="spacing" textLength="6" x="237.9692" y="295.042">*</text></g><!--MD5=[eaea43e34e45c5b9d20b595fc78f1f20]
link Company to Administrator--><g id="link_Company_Administrator"><path codeLine="53" d="M217.3777,63.054 C231.4697,92.329 253.5887,138.28 266.0367,164.141 " fill="none" id="Company-Administrator" style="stroke:#181818;stroke-width:1.0;"/><text fill="#000000" font-family="sans-serif" font-size="13" lengthAdjust="spacing" textLength="33" x="241.3557" y="106.5684">owns</text><text fill="#000000" font-family="sans-serif" font-size="13" lengthAdjust="spacing" textLength="8" x="211.5768" y="84.267">1</text><text fill="#000000" font-family="sans-serif" font-size="13" lengthAdjust="spacing" textLength="6" x="256.572" y="153.9177">*</text></g><!--MD5=[e6529539d61e4fceb49a82d3c9677c38]
link Company to User--><g id="link_Company_User"><path codeLine="54" d="M191.3327,63.054 C181.0047,84.511 166.3627,114.927 154.3787,139.825 " fill="none" id="Company-User" style="stroke:#181818;stroke-width:1.0;"/><text fill="#000000" font-family="sans-serif" font-size="13" lengthAdjust="spacing" textLength="33" x="176.3557" y="106.5684">owns</text><text fill="#000000" font-family="sans-serif" font-size="13" lengthAdjust="spacing" textLength="8" x="179.1833" y="84.267">1</text><text fill="#000000" font-family="sans-serif" font-size="13" lengthAdjust="spacing" textLength="6" x="151.1385" y="129.3922">*</text></g><!--MD5=[ce01c378a240ed8dbfc4dc74a71ac95a]
@startuml
skinparam classAttributeIconSize 0
hide methods

class Company{
 -designation
}

 class  Employee{
-id
- name
- email
- address
- phoneNumber
- citizenCardNumber
}

class UserRole{
- id
- designation
}

 class  User{
- name
- email
- password

}
class CenterCoordinator{
}

class Administrator {

}

class Receptionist{
}

class Nurse{
}


Company "1" - - "*" Employee : employ >
Company "1" - - "*" UserRole : Compreends >
Employee  - - UserRole : has/plays >
User "0..1"- - "1" Employee : relates to <

CenterCoordinator  - -|> UserRole : is a
Receptionist  - -|>  UserRole : is a
Nurse  - -|>  UserRole : is a

Administrator "1" - - "*" Employee : manages >

Company "1"  - - "*" Administrator : owns
Company "1"  - - "*" User : owns


@enduml

PlantUML version 1.2022.4(Sat Apr 09 14:29:17 WEST 2022)
(GPL source distribution)
Java Runtime: OpenJDK Runtime Environment
JVM: OpenJDK 64-Bit Server VM
Default Encoding: UTF-8
Language: pt
Country: PT
--></g></svg>