<?xml version="1.0" encoding="UTF-8" standalone="no"?><svg xmlns="http://www.w3.org/2000/svg" xmlns:xlink="http://www.w3.org/1999/xlink" contentStyleType="text/css" height="1361px" preserveAspectRatio="none" style="width:2893px;height:1361px;background:#FFFFFF;" version="1.1" viewBox="0 0 2893 1361" width="2893px" zoomAndPan="magnify"><defs/><g><rect fill="#FFFFFF" height="1179.8008" style="stroke:#181818;stroke-width:1.0;" width="10" x="50.5" y="91.4883"/><rect fill="#FFFFFF" height="29.3105" style="stroke:#181818;stroke-width:1.0;" width="10" x="532.5" y="112.7988"/><rect fill="#FFFFFF" height="188.8633" style="stroke:#181818;stroke-width:1.0;" width="10" x="532.5" y="171.4199"/><rect fill="#FFFFFF" height="423.3477" style="stroke:#181818;stroke-width:1.0;" width="10" x="532.5" y="389.5938"/><rect fill="#FFFFFF" height="429.0371" style="stroke:#181818;stroke-width:1.0;" width="10" x="532.5" y="842.252"/><rect fill="#FFFFFF" height="58.6211" style="stroke:#181818;stroke-width:1.0;" width="10" x="797.5" y="200.7305"/><rect fill="#FFFFFF" height="152.5527" style="stroke:#181818;stroke-width:1.0;" width="10" x="797.5" y="389.5938"/><rect fill="#FFFFFF" height="429.0371" style="stroke:#181818;stroke-width:1.0;" width="10" x="797.5" y="842.252"/><rect fill="#FFFFFF" height="58.6211" style="stroke:#181818;stroke-width:1.0;" width="10" x="1469.5" y="200.7305"/><rect fill="#FFFFFF" height="123.2422" style="stroke:#181818;stroke-width:1.0;" width="10" x="1469.5" y="418.9043"/><rect fill="#FFFFFF" height="87.9316" style="stroke:#181818;stroke-width:1.0;" width="10" x="1469.5" y="725.0098"/><rect fill="#FFFFFF" height="335.416" style="stroke:#181818;stroke-width:1.0;" width="10" x="1469.5" y="842.252"/><rect fill="#FFFFFF" height="35.3105" style="stroke:#181818;stroke-width:1.0;" width="10" x="1474.5" y="930.1836"/><rect fill="#FFFFFF" height="100.9316" style="stroke:#181818;stroke-width:1.0;" width="10" x="1784.5" y="259.3516"/><rect fill="#FFFFFF" height="29.3105" style="stroke:#181818;stroke-width:1.0;" width="10" x="1784.5" y="783.6309"/><rect fill="#FFFFFF" height="58.6211" style="stroke:#181818;stroke-width:1.0;" width="10" x="1784.5" y="1060.4258"/><rect fill="#FFFFFF" height="306.1055" style="stroke:#181818;stroke-width:1.0;" width="10" x="2029.5" y="418.9043"/><rect fill="#FFFFFF" height="71.6211" style="stroke:#181818;stroke-width:1.0;" width="10" x="2034.5" y="506.8359"/><rect fill="#FFFFFF" height="58.6211" style="stroke:#181818;stroke-width:1.0;" width="10" x="2029.5" y="754.3203"/><rect fill="#FFFFFF" height="93.6211" style="stroke:#181818;stroke-width:1.0;" width="10" x="2029.5" y="1177.668"/><rect fill="#FFFFFF" height="100.9316" style="stroke:#181818;stroke-width:1.0;" width="10" x="2305.5" y="259.3516"/><rect fill="#FFFFFF" height="180.8633" style="stroke:#181818;stroke-width:1.0;" width="10" x="2497" y="544.1465"/><rect fill="#FFFFFF" height="130.2422" style="stroke:#181818;stroke-width:1.0;" width="10" x="2497" y="930.1836"/><rect fill="#FFFFFF" height="58.6211" style="stroke:#181818;stroke-width:1.0;" width="10" x="2692.5" y="1031.1152"/><rect fill="#FFFFFF" height="58.6211" style="stroke:#181818;stroke-width:1.0;" width="10" x="2842.5" y="695.6992"/><line style="stroke:#181818;stroke-width:0.5;stroke-dasharray:5.0,5.0;" x1="55" x2="55" y1="81.4883" y2="1280.2891"/><line style="stroke:#181818;stroke-width:0.5;stroke-dasharray:5.0,5.0;" x1="537" x2="537" y1="81.4883" y2="1280.2891"/><line style="stroke:#181818;stroke-width:0.5;stroke-dasharray:5.0,5.0;" x1="802" x2="802" y1="81.4883" y2="1280.2891"/><line style="stroke:#181818;stroke-width:0.5;stroke-dasharray:5.0,5.0;" x1="1474" x2="1474" y1="81.4883" y2="1280.2891"/><line style="stroke:#181818;stroke-width:0.5;stroke-dasharray:5.0,5.0;" x1="1789" x2="1789" y1="81.4883" y2="1280.2891"/><line style="stroke:#181818;stroke-width:0.5;stroke-dasharray:5.0,5.0;" x1="2034" x2="2034" y1="81.4883" y2="1280.2891"/><line style="stroke:#181818;stroke-width:0.5;stroke-dasharray:5.0,5.0;" x1="2310.5" x2="2310.5" y1="81.4883" y2="1280.2891"/><line style="stroke:#181818;stroke-width:0.5;stroke-dasharray:5.0,5.0;" x1="2501.5" x2="2501.5" y1="81.4883" y2="1280.2891"/><line style="stroke:#181818;stroke-width:0.5;stroke-dasharray:5.0,5.0;" x1="2697.5" x2="2697.5" y1="81.4883" y2="1280.2891"/><line style="stroke:#181818;stroke-width:0.5;stroke-dasharray:5.0,5.0;" x1="2847.5" x2="2847.5" y1="81.4883" y2="1280.2891"/><text fill="#000000" font-family="sans-serif" font-size="14" lengthAdjust="spacing" textLength="95" x="5" y="78.5352">Administrator</text><ellipse cx="55.5" cy="13.5" fill="#E2E2F0" rx="8" ry="8" style="stroke:#181818;stroke-width:0.5;"/><path d="M55.5,21.5 L55.5,48.5 M42.5,29.5 L68.5,29.5 M55.5,48.5 L42.5,63.5 M55.5,48.5 L68.5,63.5 " fill="none" style="stroke:#181818;stroke-width:0.5;"/><text fill="#000000" font-family="sans-serif" font-size="14" lengthAdjust="spacing" textLength="95" x="5" y="1292.8242">Administrator</text><ellipse cx="55.5" cy="1304.2773" fill="#E2E2F0" rx="8" ry="8" style="stroke:#181818;stroke-width:0.5;"/><path d="M55.5,1312.2773 L55.5,1339.2773 M42.5,1320.2773 L68.5,1320.2773 M55.5,1339.2773 L42.5,1354.2773 M55.5,1339.2773 L68.5,1354.2773 " fill="none" style="stroke:#181818;stroke-width:0.5;"/><rect fill="#E2E2F0" height="30.4883" rx="2.5" ry="2.5" style="stroke:#181818;stroke-width:0.5;" width="183" x="446" y="50"/><text fill="#000000" font-family="sans-serif" font-size="14" lengthAdjust="spacing" textLength="169" x="453" y="70.5352">:RegisterNewEmployeeUI</text><rect fill="#E2E2F0" height="30.4883" rx="2.5" ry="2.5" style="stroke:#181818;stroke-width:0.5;" width="183" x="446" y="1279.2891"/><text fill="#000000" font-family="sans-serif" font-size="14" lengthAdjust="spacing" textLength="169" x="453" y="1299.8242">:RegisterNewEmployeeUI</text><rect fill="#E2E2F0" height="30.4883" rx="2.5" ry="2.5" style="stroke:#181818;stroke-width:0.5;" width="239" x="683" y="50"/><text fill="#000000" font-family="sans-serif" font-size="14" lengthAdjust="spacing" textLength="225" x="690" y="70.5352">:RegisterNewEmployeeController</text><rect fill="#E2E2F0" height="30.4883" rx="2.5" ry="2.5" style="stroke:#181818;stroke-width:0.5;" width="239" x="683" y="1279.2891"/><text fill="#000000" font-family="sans-serif" font-size="14" lengthAdjust="spacing" textLength="225" x="690" y="1299.8242">:RegisterNewEmployeeController</text><rect fill="#E2E2F0" height="30.4883" rx="2.5" ry="2.5" style="stroke:#181818;stroke-width:0.5;" width="79" x="1435" y="50"/><text fill="#000000" font-family="sans-serif" font-size="14" lengthAdjust="spacing" textLength="65" x="1442" y="70.5352">Company</text><rect fill="#E2E2F0" height="30.4883" rx="2.5" ry="2.5" style="stroke:#181818;stroke-width:0.5;" width="79" x="1435" y="1279.2891"/><text fill="#000000" font-family="sans-serif" font-size="14" lengthAdjust="spacing" textLength="65" x="1442" y="1299.8242">Company</text><rect fill="#E2E2F0" height="30.4883" rx="2.5" ry="2.5" style="stroke:#181818;stroke-width:0.5;" width="99" x="1740" y="50"/><text fill="#000000" font-family="sans-serif" font-size="14" lengthAdjust="spacing" textLength="85" x="1747" y="70.5352">:AuthFacade</text><rect fill="#E2E2F0" height="30.4883" rx="2.5" ry="2.5" style="stroke:#181818;stroke-width:0.5;" width="99" x="1740" y="1279.2891"/><text fill="#000000" font-family="sans-serif" font-size="14" lengthAdjust="spacing" textLength="85" x="1747" y="1299.8242">:AuthFacade</text><rect fill="#E2E2F0" height="30.4883" rx="2.5" ry="2.5" style="stroke:#181818;stroke-width:0.5;" width="229" x="1920" y="50"/><text fill="#000000" font-family="sans-serif" font-size="14" lengthAdjust="spacing" textLength="215" x="1927" y="70.5352">storeEmployee : EmployeeStore</text><rect fill="#E2E2F0" height="30.4883" rx="2.5" ry="2.5" style="stroke:#181818;stroke-width:0.5;" width="229" x="1920" y="1279.2891"/><text fill="#000000" font-family="sans-serif" font-size="14" lengthAdjust="spacing" textLength="215" x="1927" y="1299.8242">storeEmployee : EmployeeStore</text><rect fill="#E2E2F0" height="30.4883" rx="2.5" ry="2.5" style="stroke:#181818;stroke-width:0.5;" width="192" x="2214.5" y="50"/><text fill="#000000" font-family="sans-serif" font-size="14" lengthAdjust="spacing" textLength="178" x="2221.5" y="70.5352">mapper : UserRoleMapper</text><rect fill="#E2E2F0" height="30.4883" rx="2.5" ry="2.5" style="stroke:#181818;stroke-width:0.5;" width="192" x="2214.5" y="1279.2891"/><text fill="#000000" font-family="sans-serif" font-size="14" lengthAdjust="spacing" textLength="178" x="2221.5" y="1299.8242">mapper : UserRoleMapper</text><rect fill="#E2E2F0" height="30.4883" rx="2.5" ry="2.5" style="stroke:#181818;stroke-width:0.5;" width="171" x="2416.5" y="50"/><text fill="#000000" font-family="sans-serif" font-size="14" lengthAdjust="spacing" textLength="157" x="2423.5" y="70.5352">dtoEmp :EmployeeDTO</text><rect fill="#E2E2F0" height="30.4883" rx="2.5" ry="2.5" style="stroke:#181818;stroke-width:0.5;" width="171" x="2416.5" y="1279.2891"/><text fill="#000000" font-family="sans-serif" font-size="14" lengthAdjust="spacing" textLength="157" x="2423.5" y="1299.8242">dtoEmp :EmployeeDTO</text><rect fill="#E2E2F0" height="30.4883" rx="2.5" ry="2.5" style="stroke:#181818;stroke-width:0.5;" width="200" x="2597.5" y="50"/><text fill="#000000" font-family="sans-serif" font-size="14" lengthAdjust="spacing" textLength="186" x="2604.5" y="70.5352">userroleDTO: UserRoleDTO</text><rect fill="#E2E2F0" height="30.4883" rx="2.5" ry="2.5" style="stroke:#181818;stroke-width:0.5;" width="200" x="2597.5" y="1279.2891"/><text fill="#000000" font-family="sans-serif" font-size="14" lengthAdjust="spacing" textLength="186" x="2604.5" y="1299.8242">userroleDTO: UserRoleDTO</text><rect fill="#E2E2F0" height="30.4883" rx="2.5" ry="2.5" style="stroke:#181818;stroke-width:0.5;" width="80" x="2807.5" y="50"/><text fill="#000000" font-family="sans-serif" font-size="14" lengthAdjust="spacing" textLength="66" x="2814.5" y="70.5352">Employee</text><rect fill="#E2E2F0" height="30.4883" rx="2.5" ry="2.5" style="stroke:#181818;stroke-width:0.5;" width="80" x="2807.5" y="1279.2891"/><text fill="#000000" font-family="sans-serif" font-size="14" lengthAdjust="spacing" textLength="66" x="2814.5" y="1299.8242">Employee</text><rect fill="#FFFFFF" height="1179.8008" style="stroke:#181818;stroke-width:1.0;" width="10" x="50.5" y="91.4883"/><rect fill="#FFFFFF" height="29.3105" style="stroke:#181818;stroke-width:1.0;" width="10" x="532.5" y="112.7988"/><rect fill="#FFFFFF" height="188.8633" style="stroke:#181818;stroke-width:1.0;" width="10" x="532.5" y="171.4199"/><rect fill="#FFFFFF" height="423.3477" style="stroke:#181818;stroke-width:1.0;" width="10" x="532.5" y="389.5938"/><rect fill="#FFFFFF" height="429.0371" style="stroke:#181818;stroke-width:1.0;" width="10" x="532.5" y="842.252"/><rect fill="#FFFFFF" height="58.6211" style="stroke:#181818;stroke-width:1.0;" width="10" x="797.5" y="200.7305"/><rect fill="#FFFFFF" height="152.5527" style="stroke:#181818;stroke-width:1.0;" width="10" x="797.5" y="389.5938"/><rect fill="#FFFFFF" height="429.0371" style="stroke:#181818;stroke-width:1.0;" width="10" x="797.5" y="842.252"/><rect fill="#FFFFFF" height="58.6211" style="stroke:#181818;stroke-width:1.0;" width="10" x="1469.5" y="200.7305"/><rect fill="#FFFFFF" height="123.2422" style="stroke:#181818;stroke-width:1.0;" width="10" x="1469.5" y="418.9043"/><rect fill="#FFFFFF" height="87.9316" style="stroke:#181818;stroke-width:1.0;" width="10" x="1469.5" y="725.0098"/><rect fill="#FFFFFF" height="335.416" style="stroke:#181818;stroke-width:1.0;" width="10" x="1469.5" y="842.252"/><rect fill="#FFFFFF" height="35.3105" style="stroke:#181818;stroke-width:1.0;" width="10" x="1474.5" y="930.1836"/><rect fill="#FFFFFF" height="100.9316" style="stroke:#181818;stroke-width:1.0;" width="10" x="1784.5" y="259.3516"/><rect fill="#FFFFFF" height="29.3105" style="stroke:#181818;stroke-width:1.0;" width="10" x="1784.5" y="783.6309"/><rect fill="#FFFFFF" height="58.6211" style="stroke:#181818;stroke-width:1.0;" width="10" x="1784.5" y="1060.4258"/><rect fill="#FFFFFF" height="306.1055" style="stroke:#181818;stroke-width:1.0;" width="10" x="2029.5" y="418.9043"/><rect fill="#FFFFFF" height="71.6211" style="stroke:#181818;stroke-width:1.0;" width="10" x="2034.5" y="506.8359"/><rect fill="#FFFFFF" height="58.6211" style="stroke:#181818;stroke-width:1.0;" width="10" x="2029.5" y="754.3203"/><rect fill="#FFFFFF" height="93.6211" style="stroke:#181818;stroke-width:1.0;" width="10" x="2029.5" y="1177.668"/><rect fill="#FFFFFF" height="100.9316" style="stroke:#181818;stroke-width:1.0;" width="10" x="2305.5" y="259.3516"/><rect fill="#FFFFFF" height="180.8633" style="stroke:#181818;stroke-width:1.0;" width="10" x="2497" y="544.1465"/><rect fill="#FFFFFF" height="130.2422" style="stroke:#181818;stroke-width:1.0;" width="10" x="2497" y="930.1836"/><rect fill="#FFFFFF" height="58.6211" style="stroke:#181818;stroke-width:1.0;" width="10" x="2692.5" y="1031.1152"/><rect fill="#FFFFFF" height="58.6211" style="stroke:#181818;stroke-width:1.0;" width="10" x="2842.5" y="695.6992"/><polygon fill="#181818" points="520.5,108.7988,530.5,112.7988,520.5,116.7988,524.5,112.7988" style="stroke:#181818;stroke-width:1.0;"/><line style="stroke:#181818;stroke-width:1.0;" x1="60.5" x2="526.5" y1="112.7988" y2="112.7988"/><text fill="#000000" font-family="sans-serif" font-size="13" font-weight="bold" lengthAdjust="spacing" textLength="9" x="67.5" y="108.0566">1</text><text fill="#000000" font-family="sans-serif" font-size="13" lengthAdjust="spacing" textLength="194" x="80.5" y="108.0566">Asks to create a new employee</text><polygon fill="#181818" points="71.5,138.1094,61.5,142.1094,71.5,146.1094,67.5,142.1094" style="stroke:#181818;stroke-width:1.0;"/><line style="stroke:#181818;stroke-width:1.0;stroke-dasharray:2.0,2.0;" x1="65.5" x2="536.5" y1="142.1094" y2="142.1094"/><text fill="#000000" font-family="sans-serif" font-size="13" font-weight="bold" lengthAdjust="spacing" textLength="9" x="77.5" y="137.3672">2</text><text fill="#000000" font-family="sans-serif" font-size="13" lengthAdjust="spacing" textLength="435" x="90.5" y="137.3672">Requests data (name,adress,phoneNumber,email,citizenCardNumber)</text><polygon fill="#181818" points="520.5,167.4199,530.5,171.4199,520.5,175.4199,524.5,171.4199" style="stroke:#181818;stroke-width:1.0;"/><line style="stroke:#181818;stroke-width:1.0;" x1="60.5" x2="526.5" y1="171.4199" y2="171.4199"/><text fill="#000000" font-family="sans-serif" font-size="13" font-weight="bold" lengthAdjust="spacing" textLength="9" x="67.5" y="166.6777">3</text><text fill="#000000" font-family="sans-serif" font-size="13" lengthAdjust="spacing" textLength="131" x="80.5" y="166.6777">types requested data</text><polygon fill="#181818" points="785.5,196.7305,795.5,200.7305,785.5,204.7305,789.5,200.7305" style="stroke:#181818;stroke-width:1.0;"/><line style="stroke:#181818;stroke-width:1.0;" x1="542.5" x2="791.5" y1="200.7305" y2="200.7305"/><text fill="#000000" font-family="sans-serif" font-size="13" font-weight="bold" lengthAdjust="spacing" textLength="9" x="549.5" y="195.9883">4</text><text fill="#000000" font-family="sans-serif" font-size="13" lengthAdjust="spacing" textLength="154" x="562.5" y="195.9883">rolesList=getUserRoles()</text><polygon fill="#181818" points="1457.5,226.041,1467.5,230.041,1457.5,234.041,1461.5,230.041" style="stroke:#181818;stroke-width:1.0;"/><line style="stroke:#181818;stroke-width:1.0;" x1="807.5" x2="1463.5" y1="230.041" y2="230.041"/><text fill="#000000" font-family="sans-serif" font-size="13" font-weight="bold" lengthAdjust="spacing" textLength="9" x="814.5" y="225.2988">5</text><text fill="#000000" font-family="sans-serif" font-size="13" lengthAdjust="spacing" textLength="154" x="827.5" y="225.2988">rolesList=getUserRoles()</text><polygon fill="#181818" points="1772.5,255.3516,1782.5,259.3516,1772.5,263.3516,1776.5,259.3516" style="stroke:#181818;stroke-width:1.0;"/><line style="stroke:#181818;stroke-width:1.0;" x1="1474.5" x2="1778.5" y1="259.3516" y2="259.3516"/><text fill="#000000" font-family="sans-serif" font-size="13" font-weight="bold" lengthAdjust="spacing" textLength="9" x="1481.5" y="254.6094">6</text><text fill="#000000" font-family="sans-serif" font-size="13" lengthAdjust="spacing" textLength="154" x="1494.5" y="254.6094">rolesList=getUserRoles()</text><polygon fill="#181818" points="2293.5,284.6621,2303.5,288.6621,2293.5,292.6621,2297.5,288.6621" style="stroke:#181818;stroke-width:1.0;"/><line style="stroke:#181818;stroke-width:1.0;" x1="1794.5" x2="2299.5" y1="288.6621" y2="288.6621"/><text fill="#000000" font-family="sans-serif" font-size="13" font-weight="bold" lengthAdjust="spacing" textLength="9" x="1801.5" y="283.9199">7</text><text fill="#000000" font-family="sans-serif" font-size="13" lengthAdjust="spacing" textLength="111" x="1814.5" y="283.9199">mapper = create()</text><line style="stroke:#181818;stroke-width:1.0;" x1="1794.5" x2="1836.5" y1="317.9727" y2="317.9727"/><line style="stroke:#181818;stroke-width:1.0;" x1="1836.5" x2="1836.5" y1="317.9727" y2="330.9727"/><line style="stroke:#181818;stroke-width:1.0;" x1="1795.5" x2="1836.5" y1="330.9727" y2="330.9727"/><polygon fill="#181818" points="1805.5,326.9727,1795.5,330.9727,1805.5,334.9727,1801.5,330.9727" style="stroke:#181818;stroke-width:1.0;"/><text fill="#000000" font-family="sans-serif" font-size="13" font-weight="bold" lengthAdjust="spacing" textLength="9" x="1801.5" y="313.2305">8</text><text fill="#000000" font-family="sans-serif" font-size="13" lengthAdjust="spacing" textLength="208" x="1814.5" y="313.2305">mapper.toDTO(this.roles.getAll())</text><polygon fill="#181818" points="71.5,356.2832,61.5,360.2832,71.5,364.2832,67.5,360.2832" style="stroke:#181818;stroke-width:1.0;"/><line style="stroke:#181818;stroke-width:1.0;stroke-dasharray:2.0,2.0;" x1="65.5" x2="536.5" y1="360.2832" y2="360.2832"/><text fill="#000000" font-family="sans-serif" font-size="13" font-weight="bold" lengthAdjust="spacing" textLength="9" x="77.5" y="355.541">9</text><text fill="#000000" font-family="sans-serif" font-size="13" lengthAdjust="spacing" textLength="253" x="90.5" y="355.541">Shows a List Of Roles and asks to select</text><polygon fill="#181818" points="520.5,385.5938,530.5,389.5938,520.5,393.5938,524.5,389.5938" style="stroke:#181818;stroke-width:1.0;"/><line style="stroke:#181818;stroke-width:1.0;" x1="60.5" x2="526.5" y1="389.5938" y2="389.5938"/><text fill="#000000" font-family="sans-serif" font-size="13" font-weight="bold" lengthAdjust="spacing" textLength="18" x="67.5" y="384.8516">10</text><text fill="#000000" font-family="sans-serif" font-size="13" lengthAdjust="spacing" textLength="75" x="89.5" y="384.8516">Selects Role</text><polygon fill="#181818" points="785.5,414.9043,795.5,418.9043,785.5,422.9043,789.5,418.9043" style="stroke:#181818;stroke-width:1.0;"/><line style="stroke:#181818;stroke-width:1.0;" x1="542.5" x2="791.5" y1="418.9043" y2="418.9043"/><text fill="#000000" font-family="sans-serif" font-size="13" font-weight="bold" lengthAdjust="spacing" textLength="18" x="549.5" y="414.1621">11</text><text fill="#000000" font-family="sans-serif" font-size="13" lengthAdjust="spacing" textLength="154" x="571.5" y="414.1621">createEmployee(dtoEmp)</text><polygon fill="#181818" points="1457.5,444.2148,1467.5,448.2148,1457.5,452.2148,1461.5,448.2148" style="stroke:#181818;stroke-width:1.0;"/><line style="stroke:#181818;stroke-width:1.0;" x1="807.5" x2="1463.5" y1="448.2148" y2="448.2148"/><text fill="#000000" font-family="sans-serif" font-size="13" font-weight="bold" lengthAdjust="spacing" textLength="18" x="814.5" y="443.4727">12</text><text fill="#000000" font-family="sans-serif" font-size="13" lengthAdjust="spacing" textLength="154" x="836.5" y="443.4727">createEmployee(dtoEmp)</text><polygon fill="#181818" points="1457.5,473.5254,1467.5,477.5254,1457.5,481.5254,1461.5,477.5254" style="stroke:#181818;stroke-width:1.0;"/><line style="stroke:#181818;stroke-width:1.0;" x1="807.5" x2="1463.5" y1="477.5254" y2="477.5254"/><text fill="#000000" font-family="sans-serif" font-size="13" font-weight="bold" lengthAdjust="spacing" textLength="18" x="814.5" y="472.7832">13</text><text fill="#000000" font-family="sans-serif" font-size="13" lengthAdjust="spacing" textLength="230" x="836.5" y="472.7832">storeEmployee = getEmployeeStore()</text><polygon fill="#181818" points="2022.5,502.8359,2032.5,506.8359,2022.5,510.8359,2026.5,506.8359" style="stroke:#181818;stroke-width:1.0;"/><line style="stroke:#181818;stroke-width:1.0;" x1="1479.5" x2="2028.5" y1="506.8359" y2="506.8359"/><text fill="#000000" font-family="sans-serif" font-size="13" font-weight="bold" lengthAdjust="spacing" textLength="18" x="1486.5" y="502.0938">14</text><text fill="#000000" font-family="sans-serif" font-size="13" lengthAdjust="spacing" textLength="285" x="1508.5" y="502.0938">employeeCreation = createEmployee(dtoEmp)</text><line style="stroke:#181818;stroke-width:1.0;" x1="2049.5" x2="2091.5" y1="536.1465" y2="536.1465"/><line style="stroke:#181818;stroke-width:1.0;" x1="2091.5" x2="2091.5" y1="536.1465" y2="549.1465"/><line style="stroke:#181818;stroke-width:1.0;" x1="2050.5" x2="2091.5" y1="549.1465" y2="549.1465"/><polygon fill="#181818" points="2060.5,545.1465,2050.5,549.1465,2060.5,553.1465,2056.5,549.1465" style="stroke:#181818;stroke-width:1.0;"/><text fill="#000000" font-family="sans-serif" font-size="13" font-weight="bold" lengthAdjust="spacing" textLength="18" x="2056.5" y="531.4043">15</text><text fill="#000000" font-family="sans-serif" font-size="13" lengthAdjust="spacing" textLength="106" x="2078.5" y="531.4043">id = generateID()</text><polygon fill="#181818" points="2485,574.457,2495,578.457,2485,582.457,2489,578.457" style="stroke:#181818;stroke-width:1.0;"/><line style="stroke:#181818;stroke-width:1.0;" x1="2039.5" x2="2491" y1="578.457" y2="578.457"/><text fill="#000000" font-family="sans-serif" font-size="13" font-weight="bold" lengthAdjust="spacing" textLength="18" x="2046.5" y="573.7148">16</text><text fill="#000000" font-family="sans-serif" font-size="13" lengthAdjust="spacing" textLength="116" x="2068.5" y="573.7148">name = getName()</text><polygon fill="#181818" points="2485,603.7676,2495,607.7676,2485,611.7676,2489,607.7676" style="stroke:#181818;stroke-width:1.0;"/><line style="stroke:#181818;stroke-width:1.0;" x1="2039.5" x2="2491" y1="607.7676" y2="607.7676"/><text fill="#000000" font-family="sans-serif" font-size="13" font-weight="bold" lengthAdjust="spacing" textLength="18" x="2046.5" y="603.0254">17</text><text fill="#000000" font-family="sans-serif" font-size="13" lengthAdjust="spacing" textLength="130" x="2068.5" y="603.0254">adress = getAdress()</text><polygon fill="#181818" points="2485,633.0781,2495,637.0781,2485,641.0781,2489,637.0781" style="stroke:#181818;stroke-width:1.0;"/><line style="stroke:#181818;stroke-width:1.0;" x1="2039.5" x2="2491" y1="637.0781" y2="637.0781"/><text fill="#000000" font-family="sans-serif" font-size="13" font-weight="bold" lengthAdjust="spacing" textLength="18" x="2046.5" y="632.3359">18</text><text fill="#000000" font-family="sans-serif" font-size="13" lengthAdjust="spacing" textLength="223" x="2068.5" y="632.3359">phoneNumber = getPhoneNumber()</text><polygon fill="#181818" points="2485,662.3887,2495,666.3887,2485,670.3887,2489,666.3887" style="stroke:#181818;stroke-width:1.0;"/><line style="stroke:#181818;stroke-width:1.0;" x1="2039.5" x2="2491" y1="666.3887" y2="666.3887"/><text fill="#000000" font-family="sans-serif" font-size="13" font-weight="bold" lengthAdjust="spacing" textLength="18" x="2046.5" y="661.6465">19</text><text fill="#000000" font-family="sans-serif" font-size="13" lengthAdjust="spacing" textLength="288" x="2068.5" y="661.6465">citizenCardNumber = getcitizenCardNumber()</text><polygon fill="#181818" points="2485,691.6992,2495,695.6992,2485,699.6992,2489,695.6992" style="stroke:#181818;stroke-width:1.0;"/><line style="stroke:#181818;stroke-width:1.0;" x1="2039.5" x2="2491" y1="695.6992" y2="695.6992"/><text fill="#000000" font-family="sans-serif" font-size="13" font-weight="bold" lengthAdjust="spacing" textLength="18" x="2046.5" y="690.957">20</text><text fill="#000000" font-family="sans-serif" font-size="13" lengthAdjust="spacing" textLength="114" x="2068.5" y="690.957">email = getEmail()</text><polygon fill="#181818" points="2830.5,721.0098,2840.5,725.0098,2830.5,729.0098,2834.5,725.0098" style="stroke:#181818;stroke-width:1.0;"/><line style="stroke:#181818;stroke-width:1.0;" x1="2034.5" x2="2836.5" y1="725.0098" y2="725.0098"/><text fill="#000000" font-family="sans-serif" font-size="13" font-weight="bold" lengthAdjust="spacing" textLength="18" x="2041.5" y="720.2676">21</text><text fill="#000000" font-family="sans-serif" font-size="13" lengthAdjust="spacing" textLength="588" x="2063.5" y="720.2676">employeeCreation = createEmployee(id,name,adress,phoneNumber,email,citizenCardNumber)</text><polygon fill="#181818" points="2017.5,750.3203,2027.5,754.3203,2017.5,758.3203,2021.5,754.3203" style="stroke:#181818;stroke-width:1.0;"/><line style="stroke:#181818;stroke-width:1.0;" x1="1479.5" x2="2023.5" y1="754.3203" y2="754.3203"/><text fill="#000000" font-family="sans-serif" font-size="13" font-weight="bold" lengthAdjust="spacing" textLength="18" x="1486.5" y="749.5781">22</text><text fill="#000000" font-family="sans-serif" font-size="13" lengthAdjust="spacing" textLength="230" x="1508.5" y="749.5781">validateEmployee(employeeCreation)</text><polygon fill="#181818" points="1805.5,779.6309,1795.5,783.6309,1805.5,787.6309,1801.5,783.6309" style="stroke:#181818;stroke-width:1.0;"/><line style="stroke:#181818;stroke-width:1.0;" x1="1799.5" x2="2028.5" y1="783.6309" y2="783.6309"/><text fill="#000000" font-family="sans-serif" font-size="13" font-weight="bold" lengthAdjust="spacing" textLength="18" x="1811.5" y="778.8887">23</text><text fill="#000000" font-family="sans-serif" font-size="13" lengthAdjust="spacing" textLength="101" x="1833.5" y="778.8887">existUser(email)</text><polygon fill="#181818" points="71.5,808.9414,61.5,812.9414,71.5,816.9414,67.5,812.9414" style="stroke:#181818;stroke-width:1.0;"/><line style="stroke:#181818;stroke-width:1.0;" x1="65.5" x2="536.5" y1="812.9414" y2="812.9414"/><text fill="#000000" font-family="sans-serif" font-size="13" font-weight="bold" lengthAdjust="spacing" textLength="18" x="77.5" y="808.1992">24</text><text fill="#000000" font-family="sans-serif" font-size="13" lengthAdjust="spacing" textLength="241" x="99.5" y="808.1992">Shows data and requests confirmation</text><polygon fill="#181818" points="520.5,838.252,530.5,842.252,520.5,846.252,524.5,842.252" style="stroke:#181818;stroke-width:1.0;"/><line style="stroke:#181818;stroke-width:1.0;" x1="60.5" x2="526.5" y1="842.252" y2="842.252"/><text fill="#000000" font-family="sans-serif" font-size="13" font-weight="bold" lengthAdjust="spacing" textLength="18" x="67.5" y="837.5098">25</text><text fill="#000000" font-family="sans-serif" font-size="13" lengthAdjust="spacing" textLength="113" x="89.5" y="837.5098">Confirms the data</text><polygon fill="#181818" points="785.5,867.5625,795.5,871.5625,785.5,875.5625,789.5,871.5625" style="stroke:#181818;stroke-width:1.0;"/><line style="stroke:#181818;stroke-width:1.0;" x1="542.5" x2="791.5" y1="871.5625" y2="871.5625"/><text fill="#000000" font-family="sans-serif" font-size="13" font-weight="bold" lengthAdjust="spacing" textLength="18" x="549.5" y="866.8203">26</text><text fill="#000000" font-family="sans-serif" font-size="13" lengthAdjust="spacing" textLength="209" x="571.5" y="866.8203">saveEmployee(employeeCreation)</text><polygon fill="#181818" points="1457.5,896.873,1467.5,900.873,1457.5,904.873,1461.5,900.873" style="stroke:#181818;stroke-width:1.0;"/><line style="stroke:#181818;stroke-width:1.0;" x1="807.5" x2="1463.5" y1="900.873" y2="900.873"/><text fill="#000000" font-family="sans-serif" font-size="13" font-weight="bold" lengthAdjust="spacing" textLength="18" x="814.5" y="896.1309">27</text><text fill="#000000" font-family="sans-serif" font-size="13" lengthAdjust="spacing" textLength="172" x="836.5" y="896.1309">pass = generatePassword();</text><polygon fill="#181818" points="1462.5,926.1836,1472.5,930.1836,1462.5,934.1836,1466.5,930.1836" style="stroke:#181818;stroke-width:1.0;"/><line style="stroke:#181818;stroke-width:1.0;" x1="807.5" x2="1468.5" y1="930.1836" y2="930.1836"/><text fill="#000000" font-family="sans-serif" font-size="13" font-weight="bold" lengthAdjust="spacing" textLength="18" x="814.5" y="925.4414">28</text><text fill="#000000" font-family="sans-serif" font-size="13" lengthAdjust="spacing" textLength="616" x="836.5" y="925.4414">addUserWithRole(EmployeeDTO.getName(),EmployeeDTO.getEmail(),pass,UserRoleDTO.getroleId())</text><line style="stroke:#181818;stroke-width:1.0;" x1="1484.5" x2="1526.5" y1="964.4941" y2="964.4941"/><line style="stroke:#181818;stroke-width:1.0;" x1="1526.5" x2="1526.5" y1="964.4941" y2="977.4941"/><line style="stroke:#181818;stroke-width:1.0;" x1="1479.5" x2="1526.5" y1="977.4941" y2="977.4941"/><polygon fill="#181818" points="1489.5,973.4941,1479.5,977.4941,1489.5,981.4941,1485.5,977.4941" style="stroke:#181818;stroke-width:1.0;"/><text fill="#000000" font-family="sans-serif" font-size="13" font-weight="bold" lengthAdjust="spacing" textLength="18" x="1491.5" y="959.752">29</text><text fill="#000000" font-family="sans-serif" font-size="13" lengthAdjust="spacing" textLength="172" x="1513.5" y="959.752">pass = generatePassword();</text><polygon fill="#181818" points="2485,997.8047,2495,1001.8047,2485,1005.8047,2489,1001.8047" style="stroke:#181818;stroke-width:1.0;"/><line style="stroke:#181818;stroke-width:1.0;" x1="1479.5" x2="2491" y1="1001.8047" y2="1001.8047"/><text fill="#000000" font-family="sans-serif" font-size="13" font-weight="bold" lengthAdjust="spacing" textLength="18" x="1486.5" y="997.0625">30</text><text fill="#000000" font-family="sans-serif" font-size="13" lengthAdjust="spacing" textLength="116" x="1508.5" y="997.0625">name = getName()</text><polygon fill="#181818" points="2485,1027.1152,2495,1031.1152,2485,1035.1152,2489,1031.1152" style="stroke:#181818;stroke-width:1.0;"/><line style="stroke:#181818;stroke-width:1.0;" x1="1479.5" x2="2491" y1="1031.1152" y2="1031.1152"/><text fill="#000000" font-family="sans-serif" font-size="13" font-weight="bold" lengthAdjust="spacing" textLength="18" x="1486.5" y="1026.373">31</text><text fill="#000000" font-family="sans-serif" font-size="13" lengthAdjust="spacing" textLength="114" x="1508.5" y="1026.373">email = getEmail()</text><polygon fill="#181818" points="2680.5,1056.4258,2690.5,1060.4258,2680.5,1064.4258,2684.5,1060.4258" style="stroke:#181818;stroke-width:1.0;"/><line style="stroke:#181818;stroke-width:1.0;" x1="1479.5" x2="2686.5" y1="1060.4258" y2="1060.4258"/><text fill="#000000" font-family="sans-serif" font-size="13" font-weight="bold" lengthAdjust="spacing" textLength="18" x="1486.5" y="1055.6836">32</text><text fill="#000000" font-family="sans-serif" font-size="13" lengthAdjust="spacing" textLength="123" x="1508.5" y="1055.6836">roleId = getRoleID()</text><polygon fill="#181818" points="1772.5,1085.7363,1782.5,1089.7363,1772.5,1093.7363,1776.5,1089.7363" style="stroke:#181818;stroke-width:1.0;"/><line style="stroke:#181818;stroke-width:1.0;" x1="1479.5" x2="1778.5" y1="1089.7363" y2="1089.7363"/><text fill="#000000" font-family="sans-serif" font-size="13" font-weight="bold" lengthAdjust="spacing" textLength="18" x="1486.5" y="1084.9941">33</text><text fill="#000000" font-family="sans-serif" font-size="13" lengthAdjust="spacing" textLength="102" x="1508.5" y="1084.9941">existRole(roleId)</text><polygon fill="#181818" points="1777.5,1115.0469,1787.5,1119.0469,1777.5,1123.0469,1781.5,1119.0469" style="stroke:#181818;stroke-width:1.0;"/><line style="stroke:#181818;stroke-width:1.0;" x1="1479.5" x2="1783.5" y1="1119.0469" y2="1119.0469"/><text fill="#000000" font-family="sans-serif" font-size="13" font-weight="bold" lengthAdjust="spacing" textLength="18" x="1486.5" y="1114.3047">34</text><text fill="#000000" font-family="sans-serif" font-size="13" lengthAdjust="spacing" textLength="259" x="1508.5" y="1114.3047">addUserWithRole(name,email,pass,roleId)</text><polygon fill="#181818" points="1457.5,1144.3574,1467.5,1148.3574,1457.5,1152.3574,1461.5,1148.3574" style="stroke:#181818;stroke-width:1.0;"/><line style="stroke:#181818;stroke-width:1.0;" x1="807.5" x2="1463.5" y1="1148.3574" y2="1148.3574"/><text fill="#000000" font-family="sans-serif" font-size="13" font-weight="bold" lengthAdjust="spacing" textLength="18" x="814.5" y="1143.6152">35</text><text fill="#000000" font-family="sans-serif" font-size="13" lengthAdjust="spacing" textLength="209" x="836.5" y="1143.6152">saveEmployee(employeeCreation)</text><polygon fill="#181818" points="2017.5,1173.668,2027.5,1177.668,2017.5,1181.668,2021.5,1177.668" style="stroke:#181818;stroke-width:1.0;"/><line style="stroke:#181818;stroke-width:1.0;" x1="1474.5" x2="2023.5" y1="1177.668" y2="1177.668"/><text fill="#000000" font-family="sans-serif" font-size="13" font-weight="bold" lengthAdjust="spacing" textLength="18" x="1481.5" y="1172.9258">36</text><text fill="#000000" font-family="sans-serif" font-size="13" lengthAdjust="spacing" textLength="209" x="1503.5" y="1172.9258">saveEmployee(employeeCreation)</text><line style="stroke:#181818;stroke-width:1.0;" x1="2039.5" x2="2081.5" y1="1206.9785" y2="1206.9785"/><line style="stroke:#181818;stroke-width:1.0;" x1="2081.5" x2="2081.5" y1="1206.9785" y2="1219.9785"/><line style="stroke:#181818;stroke-width:1.0;" x1="2040.5" x2="2081.5" y1="1219.9785" y2="1219.9785"/><polygon fill="#181818" points="2050.5,1215.9785,2040.5,1219.9785,2050.5,1223.9785,2046.5,1219.9785" style="stroke:#181818;stroke-width:1.0;"/><text fill="#000000" font-family="sans-serif" font-size="13" font-weight="bold" lengthAdjust="spacing" textLength="18" x="2046.5" y="1202.2363">37</text><text fill="#000000" font-family="sans-serif" font-size="13" lengthAdjust="spacing" textLength="230" x="2068.5" y="1202.2363">validateEmployee(employeeCreation)</text><line style="stroke:#181818;stroke-width:1.0;" x1="2039.5" x2="2081.5" y1="1249.2891" y2="1249.2891"/><line style="stroke:#181818;stroke-width:1.0;" x1="2081.5" x2="2081.5" y1="1249.2891" y2="1262.2891"/><line style="stroke:#181818;stroke-width:1.0;" x1="2040.5" x2="2081.5" y1="1262.2891" y2="1262.2891"/><polygon fill="#181818" points="2050.5,1258.2891,2040.5,1262.2891,2050.5,1266.2891,2046.5,1262.2891" style="stroke:#181818;stroke-width:1.0;"/><text fill="#000000" font-family="sans-serif" font-size="13" font-weight="bold" lengthAdjust="spacing" textLength="18" x="2046.5" y="1244.5469">38</text><text fill="#000000" font-family="sans-serif" font-size="13" lengthAdjust="spacing" textLength="204" x="2068.5" y="1244.5469">addEmployee(employeeCreation)</text><!--MD5=[e646daafc6b53d3a66a7bb848e8782a7]
@startuml
autonumber
'hide footbox
actor "Administrator" as ADMIN

participant ":RegisterNewEmployeeUI" as UI
participant ":RegisterNewEmployeeController" as CONTROL
participant "Company" as COMP
participant ":AuthFacade" as AUTH
participant "storeEmployee : EmployeeStore" as EmployeeStore
participant "mapper : UserRoleMapper" as UserRoleMapper
participant "dtoEmp :EmployeeDTO" as EmployeeDTO
participant "userroleDTO: UserRoleDTO" as dtooo
activate ADMIN


ADMIN -> UI : Asks to create a new employee


activate UI


UI - -> ADMIN : Requests data (name,adress,phoneNumber,email,citizenCardNumber)


deactivate UI

ADMIN -> UI : types requested data


activate UI

UI -> CONTROL : rolesList=getUserRoles()


activate CONTROL
activate COMP


CONTROL -> COMP : rolesList=getUserRoles()
COMP -> AUTH : rolesList=getUserRoles()


deactivate COMP
deactivate CONTROL
activate AUTH
activate UserRoleMapper


AUTH -> UserRoleMapper : mapper = create()
AUTH -> AUTH :mapper.toDTO(this.roles.getAll())
ADMIN <- - UI : Shows a List Of Roles and asks to select


deactivate UserRoleMapper
deactivate AUTH
deactivate UI


ADMIN -> UI: Selects Role


activate UI
activate CONTROL


UI -> CONTROL : createEmployee(dtoEmp)


activate EmployeeStore
activate COMP


CONTROL -> COMP : createEmployee(dtoEmp)
CONTROL -> COMP : storeEmployee = getEmployeeStore()
COMP -> EmployeeStore : employeeCreation = createEmployee(dtoEmp)


activate EmployeeStore


EmployeeStore -> EmployeeStore : id = generateID()


deactivate COMP


deactivate CONTROL
activate EmployeeDTO


EmployeeStore -> EmployeeDTO :name = getName()


deactivate EmployeeStore


EmployeeStore -> EmployeeDTO :adress = getAdress()
EmployeeStore -> EmployeeDTO :phoneNumber = getPhoneNumber()
EmployeeStore -> EmployeeDTO :citizenCardNumber = getcitizenCardNumber()
EmployeeStore -> EmployeeDTO :email = getEmail()


activate Employee


EmployeeStore -> Employee :employeeCreation = createEmployee(id,name,adress,phoneNumber,email,citizenCardNumber)


deactivate EmployeeDTO
activate COMP
deactivate EmployeeStore


COMP -> EmployeeStore : validateEmployee(employeeCreation)


deactivate Employee
activate EmployeeStore

AUTH <- EmployeeStore : existUser(email)


activate AUTH


UI -> ADMIN : Shows data and requests confirmation


deactivate AUTH
deactivate EmployeeStore
deactivate COMP
deactivate UI


ADMIN -> UI : Confirms the data


activate UI
activate CONTROL
activate COMP


UI -> CONTROL : saveEmployee(employeeCreation)
CONTROL -> COMP : pass = generatePassword();
CONTROL -> COMP : addUserWithRole(EmployeeDTO.getName(),EmployeeDTO.getEmail(),pass,UserRoleDTO.getroleId())


activate EmployeeDTO
activate COMP
COMP -> COMP : pass = generatePassword();
deactivate COMP
COMP -> EmployeeDTO : name = getName()

COMP -> EmployeeDTO : email = getEmail()


activate dtooo


COMP -> dtooo : roleId = getRoleID()


deactivate EmployeeDTO
activate AUTH


COMP -> AUTH: existRole(roleId)


deactivate dtooo


COMP -> AUTH : addUserWithRole(name,email,pass,roleId)

deactivate AUTH

CONTROL -> COMP : saveEmployee(employeeCreation)
COMP -> EmployeeStore : saveEmployee(employeeCreation)


deactivate COMP
activate EmployeeStore


EmployeeStore -> EmployeeStore : validateEmployee(employeeCreation)
EmployeeStore -> EmployeeStore : addEmployee(employeeCreation)
@enduml

@startuml
autonumber
actor "Administrator" as ADMIN

participant ":RegisterNewEmployeeUI" as UI
participant ":RegisterNewEmployeeController" as CONTROL
participant "Company" as COMP
participant ":AuthFacade" as AUTH
participant "storeEmployee : EmployeeStore" as EmployeeStore
participant "mapper : UserRoleMapper" as UserRoleMapper
participant "dtoEmp :EmployeeDTO" as EmployeeDTO
participant "userroleDTO: UserRoleDTO" as dtooo
activate ADMIN


ADMIN -> UI : Asks to create a new employee


activate UI


UI - -> ADMIN : Requests data (name,adress,phoneNumber,email,citizenCardNumber)


deactivate UI

ADMIN -> UI : types requested data


activate UI

UI -> CONTROL : rolesList=getUserRoles()


activate CONTROL
activate COMP


CONTROL -> COMP : rolesList=getUserRoles()
COMP -> AUTH : rolesList=getUserRoles()


deactivate COMP
deactivate CONTROL
activate AUTH
activate UserRoleMapper


AUTH -> UserRoleMapper : mapper = create()
AUTH -> AUTH :mapper.toDTO(this.roles.getAll())
ADMIN <- - UI : Shows a List Of Roles and asks to select


deactivate UserRoleMapper
deactivate AUTH
deactivate UI


ADMIN -> UI: Selects Role


activate UI
activate CONTROL


UI -> CONTROL : createEmployee(dtoEmp)


activate EmployeeStore
activate COMP


CONTROL -> COMP : createEmployee(dtoEmp)
CONTROL -> COMP : storeEmployee = getEmployeeStore()
COMP -> EmployeeStore : employeeCreation = createEmployee(dtoEmp)


activate EmployeeStore


EmployeeStore -> EmployeeStore : id = generateID()


deactivate COMP


deactivate CONTROL
activate EmployeeDTO


EmployeeStore -> EmployeeDTO :name = getName()


deactivate EmployeeStore


EmployeeStore -> EmployeeDTO :adress = getAdress()
EmployeeStore -> EmployeeDTO :phoneNumber = getPhoneNumber()
EmployeeStore -> EmployeeDTO :citizenCardNumber = getcitizenCardNumber()
EmployeeStore -> EmployeeDTO :email = getEmail()


activate Employee


EmployeeStore -> Employee :employeeCreation = createEmployee(id,name,adress,phoneNumber,email,citizenCardNumber)


deactivate EmployeeDTO
activate COMP
deactivate EmployeeStore


COMP -> EmployeeStore : validateEmployee(employeeCreation)


deactivate Employee
activate EmployeeStore

AUTH <- EmployeeStore : existUser(email)


activate AUTH


UI -> ADMIN : Shows data and requests confirmation


deactivate AUTH
deactivate EmployeeStore
deactivate COMP
deactivate UI


ADMIN -> UI : Confirms the data


activate UI
activate CONTROL
activate COMP


UI -> CONTROL : saveEmployee(employeeCreation)
CONTROL -> COMP : pass = generatePassword();
CONTROL -> COMP : addUserWithRole(EmployeeDTO.getName(),EmployeeDTO.getEmail(),pass,UserRoleDTO.getroleId())


activate EmployeeDTO
activate COMP
COMP -> COMP : pass = generatePassword();
deactivate COMP
COMP -> EmployeeDTO : name = getName()

COMP -> EmployeeDTO : email = getEmail()


activate dtooo


COMP -> dtooo : roleId = getRoleID()


deactivate EmployeeDTO
activate AUTH


COMP -> AUTH: existRole(roleId)


deactivate dtooo


COMP -> AUTH : addUserWithRole(name,email,pass,roleId)

deactivate AUTH

CONTROL -> COMP : saveEmployee(employeeCreation)
COMP -> EmployeeStore : saveEmployee(employeeCreation)


deactivate COMP
activate EmployeeStore


EmployeeStore -> EmployeeStore : validateEmployee(employeeCreation)
EmployeeStore -> EmployeeStore : addEmployee(employeeCreation)
@enduml

PlantUML version 1.2022.4(Sat Apr 09 14:29:17 WEST 2022)
(GPL source distribution)
Java Runtime: OpenJDK Runtime Environment
JVM: OpenJDK 64-Bit Server VM
Default Encoding: UTF-8
Language: pt
Country: PT
--></g></svg>