<?xml version="1.0" encoding="UTF-8" standalone="no"?><svg xmlns="http://www.w3.org/2000/svg" xmlns:xlink="http://www.w3.org/1999/xlink" contentScriptType="application/ecmascript" contentStyleType="text/css" height="860px" preserveAspectRatio="none" style="width:1418px;height:860px;background:#FFFFFF;" version="1.1" viewBox="0 0 1418 860" width="1418px" zoomAndPan="magnify"><defs><filter height="300%" id="f1nsiskpzugkxh" width="300%" x="-1" y="-1"><feGaussianBlur result="blurOut" stdDeviation="2.0"/><feColorMatrix in="blurOut" result="blurOut2" type="matrix" values="0 0 0 0 0 0 0 0 0 0 0 0 0 0 0 0 0 0 .4 0"/><feOffset dx="4.0" dy="4.0" in="blurOut2" result="blurOut3"/><feBlend in="SourceGraphic" in2="blurOut3" mode="normal"/></filter></defs><g><!--MD5=[da547346deef918ea16944ba046651ef]
class Administrator--><rect codeLine="5" fill="#FEFECE" filter="url(#f1nsiskpzugkxh)" height="144.8516" id="Administrator" style="stroke:#A80036;stroke-width:1.5;" width="171" x="144.15" y="534"/><ellipse cx="188.9" cy="550" fill="#ADD1B2" rx="11" ry="11" style="stroke:#A80036;stroke-width:1.0;"/><path d="M190.9,546.5 Q191.1031,546 191.3375,545.75 Q191.5719,545.5 191.8375,545.5 Q192.3063,545.5 192.6031,545.7813 Q192.9,546.0625 192.9,546.7188 L192.9,548.2813 Q192.9,548.9375 192.6188,549.2188 Q192.3375,549.5 191.9,549.5 Q191.5094,549.5 191.2594,549.3281 Q191.0094,549.1563 190.9,548.7031 Q190.8531,548.3906 190.6813,548.2188 Q190.3688,547.8906 189.8063,547.7031 Q189.2438,547.5 188.6813,547.5 Q187.9781,547.5 187.3844,547.7813 Q186.8063,548.0625 186.3531,548.6875 Q185.9,549.3125 185.9,550.1719 L185.9,551.0938 Q185.9,552.125 186.7438,552.8125 Q187.5875,553.5 189.0875,553.5 Q189.9781,553.5 190.6031,553.2969 Q190.9625,553.1875 191.3688,552.8281 Q191.6344,552.625 191.775,552.5625 Q191.9156,552.5 192.0875,552.5 Q192.4156,552.5 192.65,552.7656 Q192.9,553.0156 192.9,553.375 Q192.9,553.7188 192.5563,554.125 Q192.0563,554.7188 191.2594,555.0469 Q190.2125,555.5 188.9313,555.5 Q187.4313,555.5 186.2281,554.9063 Q185.2594,554.4375 184.5719,553.4219 Q183.9,552.4063 183.9,551.2031 L183.9,550.1094 Q183.9,548.8594 184.4938,547.7656 Q185.1031,546.6719 186.15,546.0938 Q187.2125,545.5 188.4,545.5 Q189.1188,545.5 189.7438,545.75 Q190.3688,546 190.9,546.5 Z " fill="#000000"/><text fill="#000000" font-family="sans-serif" font-size="12" lengthAdjust="spacing" textLength="73" x="209.4" y="554.9102">Administrator</text><line style="stroke:#A80036;stroke-width:1.5;" x1="145.15" x2="314.15" y1="566" y2="566"/><text fill="#000000" font-family="sans-serif" font-size="11" lengthAdjust="spacing" textLength="29" x="150.15" y="581.4189">+getId</text><text fill="#000000" font-family="sans-serif" font-size="11" lengthAdjust="spacing" textLength="48" x="150.15" y="595.2549">+getName</text><text fill="#000000" font-family="sans-serif" font-size="11" lengthAdjust="spacing" textLength="101" x="150.15" y="609.0908">+getNumberOfDoses</text><text fill="#000000" font-family="sans-serif" font-size="11" lengthAdjust="spacing" textLength="114" x="150.15" y="622.9268">+getDosagePerVaccine</text><text fill="#000000" font-family="sans-serif" font-size="11" lengthAdjust="spacing" textLength="159" x="150.15" y="636.7627">+getAgeGroupToBeAdministered</text><text fill="#000000" font-family="sans-serif" font-size="11" lengthAdjust="spacing" textLength="118" x="150.15" y="650.5986">+getTimeBetweenDoses</text><line style="stroke:#A80036;stroke-width:1.5;" x1="145.15" x2="314.15" y1="657.0156" y2="657.0156"/><text fill="#000000" font-family="sans-serif" font-size="11" lengthAdjust="spacing" textLength="154" x="150.15" y="672.4346">+validateNewVaccine(Vaccine)</text><!--MD5=[0e501da62322464167c8ec4d233a6b7e]
class VaccineType--><rect codeLine="15" fill="#FEFECE" filter="url(#f1nsiskpzugkxh)" height="48" id="VaccineType" style="stroke:#A80036;stroke-width:1.5;" width="101" x="615.15" y="93"/><ellipse cx="630.15" cy="109" fill="#ADD1B2" rx="11" ry="11" style="stroke:#A80036;stroke-width:1.0;"/><path d="M632.15,105.5 Q632.3531,105 632.5875,104.75 Q632.8219,104.5 633.0875,104.5 Q633.5563,104.5 633.8531,104.7813 Q634.15,105.0625 634.15,105.7188 L634.15,107.2813 Q634.15,107.9375 633.8688,108.2188 Q633.5875,108.5 633.15,108.5 Q632.7594,108.5 632.5094,108.3281 Q632.2594,108.1563 632.15,107.7031 Q632.1031,107.3906 631.9313,107.2188 Q631.6188,106.8906 631.0563,106.7031 Q630.4938,106.5 629.9313,106.5 Q629.2281,106.5 628.6344,106.7813 Q628.0563,107.0625 627.6031,107.6875 Q627.15,108.3125 627.15,109.1719 L627.15,110.0938 Q627.15,111.125 627.9938,111.8125 Q628.8375,112.5 630.3375,112.5 Q631.2281,112.5 631.8531,112.2969 Q632.2125,112.1875 632.6188,111.8281 Q632.8844,111.625 633.025,111.5625 Q633.1656,111.5 633.3375,111.5 Q633.6656,111.5 633.9,111.7656 Q634.15,112.0156 634.15,112.375 Q634.15,112.7188 633.8063,113.125 Q633.3063,113.7188 632.5094,114.0469 Q631.4625,114.5 630.1813,114.5 Q628.6813,114.5 627.4781,113.9063 Q626.5094,113.4375 625.8219,112.4219 Q625.15,111.4063 625.15,110.2031 L625.15,109.1094 Q625.15,107.8594 625.7438,106.7656 Q626.3531,105.6719 627.4,105.0938 Q628.4625,104.5 629.65,104.5 Q630.3688,104.5 630.9938,104.75 Q631.6188,105 632.15,105.5 Z " fill="#000000"/><text fill="#000000" font-family="sans-serif" font-size="12" lengthAdjust="spacing" textLength="69" x="644.15" y="113.9102">VaccineType</text><line style="stroke:#A80036;stroke-width:1.5;" x1="616.15" x2="715.15" y1="125" y2="125"/><line style="stroke:#A80036;stroke-width:1.5;" x1="616.15" x2="715.15" y1="133" y2="133"/><!--MD5=[67a6be77d10fe53e61841f2027bd2539]
class AddNewVaccineController--><rect codeLine="19" fill="#FEFECE" filter="url(#f1nsiskpzugkxh)" height="117.1797" id="AddNewVaccineController" style="stroke:#A80036;stroke-width:1.5;" width="191" x="570.15" y="219"/><ellipse cx="592.35" cy="235" fill="#ADD1B2" rx="11" ry="11" style="stroke:#A80036;stroke-width:1.0;"/><path d="M594.35,231.5 Q594.5531,231 594.7875,230.75 Q595.0219,230.5 595.2875,230.5 Q595.7563,230.5 596.0531,230.7813 Q596.35,231.0625 596.35,231.7188 L596.35,233.2813 Q596.35,233.9375 596.0688,234.2188 Q595.7875,234.5 595.35,234.5 Q594.9594,234.5 594.7094,234.3281 Q594.4594,234.1563 594.35,233.7031 Q594.3031,233.3906 594.1313,233.2188 Q593.8188,232.8906 593.2563,232.7031 Q592.6938,232.5 592.1313,232.5 Q591.4281,232.5 590.8344,232.7813 Q590.2563,233.0625 589.8031,233.6875 Q589.35,234.3125 589.35,235.1719 L589.35,236.0938 Q589.35,237.125 590.1938,237.8125 Q591.0375,238.5 592.5375,238.5 Q593.4281,238.5 594.0531,238.2969 Q594.4125,238.1875 594.8188,237.8281 Q595.0844,237.625 595.225,237.5625 Q595.3656,237.5 595.5375,237.5 Q595.8656,237.5 596.1,237.7656 Q596.35,238.0156 596.35,238.375 Q596.35,238.7188 596.0063,239.125 Q595.5063,239.7188 594.7094,240.0469 Q593.6625,240.5 592.3813,240.5 Q590.8813,240.5 589.6781,239.9063 Q588.7094,239.4375 588.0219,238.4219 Q587.35,237.4063 587.35,236.2031 L587.35,235.1094 Q587.35,233.8594 587.9438,232.7656 Q588.5531,231.6719 589.6,231.0938 Q590.6625,230.5 591.85,230.5 Q592.5688,230.5 593.1938,230.75 Q593.8188,231 594.35,231.5 Z " fill="#000000"/><text fill="#000000" font-family="sans-serif" font-size="12" lengthAdjust="spacing" textLength="143" x="607.95" y="239.9102">AddNewVaccineController</text><line style="stroke:#A80036;stroke-width:1.5;" x1="571.15" x2="760.15" y1="251" y2="251"/><text fill="#000000" font-family="sans-serif" font-size="11" lengthAdjust="spacing" textLength="29" x="576.15" y="266.4189">+getId</text><text fill="#000000" font-family="sans-serif" font-size="11" lengthAdjust="spacing" textLength="45" x="576.15" y="280.2549">+getType</text><text fill="#000000" font-family="sans-serif" font-size="11" lengthAdjust="spacing" textLength="48" x="576.15" y="294.0908">+getName</text><line style="stroke:#A80036;stroke-width:1.5;" x1="571.15" x2="760.15" y1="300.5078" y2="300.5078"/><text fill="#000000" font-family="sans-serif" font-size="11" lengthAdjust="spacing" textLength="179" x="576.15" y="315.9268">+registerNewVaccine(Id,Type,Name)</text><text fill="#000000" font-family="sans-serif" font-size="11" lengthAdjust="spacing" textLength="102" x="576.15" y="329.7627">+SaveNewVaccine()</text><path d="M796.15,264.5 L796.15,273.5 L761.28,277.5 L796.15,281.5 L796.15,290.8516 A0,0 0 0 0 796.15,290.8516 L1093.15,290.8516 A0,0 0 0 0 1093.15,290.8516 L1093.15,274.5 L1083.15,264.5 L796.15,264.5 A0,0 0 0 0 796.15,264.5 " fill="#FBFB77" filter="url(#f1nsiskpzugkxh)" style="stroke:#A80036;stroke-width:1.0;"/><path d="M1083.15,264.5 L1083.15,274.5 L1093.15,274.5 L1083.15,264.5 " fill="#FBFB77" style="stroke:#A80036;stroke-width:1.0;"/><text fill="#000000" font-family="sans-serif" font-size="13" lengthAdjust="spacing" textLength="276" x="802.15" y="282.9951">Manages the specific criteria of the new vaccine</text><!--MD5=[ae6ee1762254e2c170c94585e2831c4e]
class AddNewVaccineAdministrationController--><rect codeLine="28" fill="#FEFECE" filter="url(#f1nsiskpzugkxh)" height="131.0156" id="AddNewVaccineAdministrationController" style="stroke:#A80036;stroke-width:1.5;" width="611" x="350.15" y="541"/><ellipse cx="540.4" cy="557" fill="#ADD1B2" rx="11" ry="11" style="stroke:#A80036;stroke-width:1.0;"/><path d="M542.4,553.5 Q542.6031,553 542.8375,552.75 Q543.0719,552.5 543.3375,552.5 Q543.8063,552.5 544.1031,552.7813 Q544.4,553.0625 544.4,553.7188 L544.4,555.2813 Q544.4,555.9375 544.1188,556.2188 Q543.8375,556.5 543.4,556.5 Q543.0094,556.5 542.7594,556.3281 Q542.5094,556.1563 542.4,555.7031 Q542.3531,555.3906 542.1813,555.2188 Q541.8688,554.8906 541.3063,554.7031 Q540.7438,554.5 540.1813,554.5 Q539.4781,554.5 538.8844,554.7813 Q538.3063,555.0625 537.8531,555.6875 Q537.4,556.3125 537.4,557.1719 L537.4,558.0938 Q537.4,559.125 538.2438,559.8125 Q539.0875,560.5 540.5875,560.5 Q541.4781,560.5 542.1031,560.2969 Q542.4625,560.1875 542.8688,559.8281 Q543.1344,559.625 543.275,559.5625 Q543.4156,559.5 543.5875,559.5 Q543.9156,559.5 544.15,559.7656 Q544.4,560.0156 544.4,560.375 Q544.4,560.7188 544.0563,561.125 Q543.5563,561.7188 542.7594,562.0469 Q541.7125,562.5 540.4313,562.5 Q538.9313,562.5 537.7281,561.9063 Q536.7594,561.4375 536.0719,560.4219 Q535.4,559.4063 535.4,558.2031 L535.4,557.1094 Q535.4,555.8594 535.9938,554.7656 Q536.6031,553.6719 537.65,553.0938 Q538.7125,552.5 539.9,552.5 Q540.6188,552.5 541.2438,552.75 Q541.8688,553 542.4,553.5 Z " fill="#000000"/><text fill="#000000" font-family="sans-serif" font-size="12" lengthAdjust="spacing" textLength="222" x="560.9" y="561.9102">AddNewVaccineAdministrationController</text><line style="stroke:#A80036;stroke-width:1.5;" x1="351.15" x2="960.15" y1="573" y2="573"/><text fill="#000000" font-family="sans-serif" font-size="11" lengthAdjust="spacing" textLength="114" x="356.15" y="588.4189">+getDosagePerVaccine</text><text fill="#000000" font-family="sans-serif" font-size="11" lengthAdjust="spacing" textLength="101" x="356.15" y="602.2549">+getNumberOfDoses</text><text fill="#000000" font-family="sans-serif" font-size="11" lengthAdjust="spacing" textLength="159" x="356.15" y="616.0908">+getAgeGroupToBeAdministered</text><text fill="#000000" font-family="sans-serif" font-size="11" lengthAdjust="spacing" textLength="118" x="356.15" y="629.9268">+getTimeBetweenDoses</text><line style="stroke:#A80036;stroke-width:1.5;" x1="351.15" x2="960.15" y1="636.3438" y2="636.3438"/><text fill="#000000" font-family="sans-serif" font-size="11" lengthAdjust="spacing" textLength="599" x="356.15" y="651.7627">+registerNewVaccineAdministration(DosagePerVaccine,NumberOfDoses,AgeGroupToBeAdministered,TimeBetweenDoses)</text><text fill="#000000" font-family="sans-serif" font-size="11" lengthAdjust="spacing" textLength="170" x="356.15" y="665.5986">+SaveNewVaccineAdministration()</text><path d="M996.65,593.5 L996.65,602.5 L961.16,606.5 L996.65,610.5 L996.65,619.8516 A0,0 0 0 0 996.65,619.8516 L1370.65,619.8516 A0,0 0 0 0 1370.65,619.8516 L1370.65,603.5 L1360.65,593.5 L996.65,593.5 A0,0 0 0 0 996.65,593.5 " fill="#FBFB77" filter="url(#f1nsiskpzugkxh)" style="stroke:#A80036;stroke-width:1.0;"/><path d="M1360.65,593.5 L1360.65,603.5 L1370.65,603.5 L1360.65,593.5 " fill="#FBFB77" style="stroke:#A80036;stroke-width:1.0;"/><text fill="#000000" font-family="sans-serif" font-size="13" lengthAdjust="spacing" textLength="353" x="1002.65" y="611.9951">Creates a specific administration process for the new vaccine</text><!--MD5=[4365c0478694673c2d1b597f72eed47a]
class RegisterNewVaccine--><rect codeLine="39" fill="#FEFECE" filter="url(#f1nsiskpzugkxh)" height="89.5078" id="RegisterNewVaccine" style="stroke:#A80036;stroke-width:1.5;" width="288" x="124.65" y="757"/><ellipse cx="206.9" cy="773" fill="#ADD1B2" rx="11" ry="11" style="stroke:#A80036;stroke-width:1.0;"/><path d="M208.9,769.5 Q209.1031,769 209.3375,768.75 Q209.5719,768.5 209.8375,768.5 Q210.3063,768.5 210.6031,768.7813 Q210.9,769.0625 210.9,769.7188 L210.9,771.2813 Q210.9,771.9375 210.6188,772.2188 Q210.3375,772.5 209.9,772.5 Q209.5094,772.5 209.2594,772.3281 Q209.0094,772.1563 208.9,771.7031 Q208.8531,771.3906 208.6813,771.2188 Q208.3688,770.8906 207.8063,770.7031 Q207.2438,770.5 206.6813,770.5 Q205.9781,770.5 205.3844,770.7813 Q204.8063,771.0625 204.3531,771.6875 Q203.9,772.3125 203.9,773.1719 L203.9,774.0938 Q203.9,775.125 204.7438,775.8125 Q205.5875,776.5 207.0875,776.5 Q207.9781,776.5 208.6031,776.2969 Q208.9625,776.1875 209.3688,775.8281 Q209.6344,775.625 209.775,775.5625 Q209.9156,775.5 210.0875,775.5 Q210.4156,775.5 210.65,775.7656 Q210.9,776.0156 210.9,776.375 Q210.9,776.7188 210.5563,777.125 Q210.0563,777.7188 209.2594,778.0469 Q208.2125,778.5 206.9313,778.5 Q205.4313,778.5 204.2281,777.9063 Q203.2594,777.4375 202.5719,776.4219 Q201.9,775.4063 201.9,774.2031 L201.9,773.1094 Q201.9,771.8594 202.4938,770.7656 Q203.1031,769.6719 204.15,769.0938 Q205.2125,768.5 206.4,768.5 Q207.1188,768.5 207.7438,768.75 Q208.3688,769 208.9,769.5 Z " fill="#000000"/><text fill="#000000" font-family="sans-serif" font-size="12" lengthAdjust="spacing" textLength="115" x="227.4" y="777.9102">RegisterNewVaccine</text><line style="stroke:#A80036;stroke-width:1.5;" x1="125.65" x2="411.65" y1="789" y2="789"/><text fill="#000000" font-family="sans-serif" font-size="11" lengthAdjust="spacing" textLength="84" x="130.65" y="804.4189">+getNewVaccine</text><text fill="#000000" font-family="sans-serif" font-size="11" lengthAdjust="spacing" textLength="152" x="130.65" y="818.2549">+getNewVaccineAdministration</text><line style="stroke:#A80036;stroke-width:1.5;" x1="125.65" x2="411.65" y1="824.6719" y2="824.6719"/><text fill="#000000" font-family="sans-serif" font-size="11" lengthAdjust="spacing" textLength="276" x="130.65" y="840.0908">+SaveVaccine(NewVaccine,NewVaccineAdministration)</text><path d="M447.65,789 L447.65,798 L412.85,802 L447.65,806 L447.65,815.3516 A0,0 0 0 0 447.65,815.3516 L1159.65,815.3516 A0,0 0 0 0 1159.65,815.3516 L1159.65,799 L1149.65,789 L447.65,789 A0,0 0 0 0 447.65,789 " fill="#FBFB77" filter="url(#f1nsiskpzugkxh)" style="stroke:#A80036;stroke-width:1.0;"/><path d="M1149.65,789 L1149.65,799 L1159.65,799 L1149.65,789 " fill="#FBFB77" style="stroke:#A80036;stroke-width:1.0;"/><text fill="#000000" font-family="sans-serif" font-size="13" lengthAdjust="spacing" textLength="691" x="453.65" y="807.4951">After a new vaccine gets it's attributes and administration method it gets saved and registered in the system to be used.</text><!--MD5=[842ea2ed71dc4a0f889c557ee2f28fd8]
class RegisterNewVaccineUI--><rect codeLine="46" fill="#FEFECE" filter="url(#f1nsiskpzugkxh)" height="48" id="RegisterNewVaccineUI" style="stroke:#A80036;stroke-width:1.5;" width="159" x="323.15" y="93"/><ellipse cx="338.15" cy="109" fill="#ADD1B2" rx="11" ry="11" style="stroke:#A80036;stroke-width:1.0;"/><path d="M340.15,105.5 Q340.3531,105 340.5875,104.75 Q340.8219,104.5 341.0875,104.5 Q341.5563,104.5 341.8531,104.7813 Q342.15,105.0625 342.15,105.7188 L342.15,107.2813 Q342.15,107.9375 341.8688,108.2188 Q341.5875,108.5 341.15,108.5 Q340.7594,108.5 340.5094,108.3281 Q340.2594,108.1563 340.15,107.7031 Q340.1031,107.3906 339.9313,107.2188 Q339.6188,106.8906 339.0563,106.7031 Q338.4938,106.5 337.9313,106.5 Q337.2281,106.5 336.6344,106.7813 Q336.0563,107.0625 335.6031,107.6875 Q335.15,108.3125 335.15,109.1719 L335.15,110.0938 Q335.15,111.125 335.9938,111.8125 Q336.8375,112.5 338.3375,112.5 Q339.2281,112.5 339.8531,112.2969 Q340.2125,112.1875 340.6188,111.8281 Q340.8844,111.625 341.025,111.5625 Q341.1656,111.5 341.3375,111.5 Q341.6656,111.5 341.9,111.7656 Q342.15,112.0156 342.15,112.375 Q342.15,112.7188 341.8063,113.125 Q341.3063,113.7188 340.5094,114.0469 Q339.4625,114.5 338.1813,114.5 Q336.6813,114.5 335.4781,113.9063 Q334.5094,113.4375 333.8219,112.4219 Q333.15,111.4063 333.15,110.2031 L333.15,109.1094 Q333.15,107.8594 333.7438,106.7656 Q334.3531,105.6719 335.4,105.0938 Q336.4625,104.5 337.65,104.5 Q338.3688,104.5 338.9938,104.75 Q339.6188,105 340.15,105.5 Z " fill="#000000"/><text fill="#000000" font-family="sans-serif" font-size="12" lengthAdjust="spacing" textLength="127" x="352.15" y="113.9102">RegisterNewVaccineUI</text><line style="stroke:#A80036;stroke-width:1.5;" x1="324.15" x2="481.15" y1="125" y2="125"/><line style="stroke:#A80036;stroke-width:1.5;" x1="324.15" x2="481.15" y1="133" y2="133"/><path d="M592.15,6 L592.15,32.3516 A0,0 0 0 0 592.15,32.3516 L661.65,32.3516 L665.65,92.95 L669.65,32.3516 L739.15,32.3516 A0,0 0 0 0 739.15,32.3516 L739.15,16 L729.15,6 L592.15,6 A0,0 0 0 0 592.15,6 " fill="#FBFB77" filter="url(#f1nsiskpzugkxh)" style="stroke:#A80036;stroke-width:1.0;"/><path d="M729.15,6 L729.15,16 L739.15,16 L729.15,6 " fill="#FBFB77" style="stroke:#A80036;stroke-width:1.0;"/><text fill="#000000" font-family="sans-serif" font-size="13" lengthAdjust="spacing" textLength="126" x="598.15" y="24.4951">Dependency on US12</text><path d="M124.65,414 L124.65,473.0547 L740.65,473.0547 L740.65,424 L730.65,414 L124.65,414 " fill="#FBFB77" filter="url(#f1nsiskpzugkxh)" style="stroke:#A80036;stroke-width:1.0;"/><path d="M730.65,414 L730.65,424 L740.65,424 L730.65,414 " fill="#FBFB77" style="stroke:#A80036;stroke-width:1.0;"/><text fill="#000000" font-family="sans-serif" font-size="13" lengthAdjust="spacing" textLength="342" x="130.65" y="432.4951">The process of registering a new vaccine was split into two.</text><text fill="#000000" font-family="sans-serif" font-size="13" lengthAdjust="spacing" textLength="406" x="134.65" y="448.8467">If ,in the future, a specific vaccine administration method gets changed</text><text fill="#000000" font-family="sans-serif" font-size="13" lengthAdjust="spacing" textLength="591" x="134.65" y="465.1982">you just need change it on the administration class, without making any changes to the actual vaccine</text><path d="M776.15,414 L776.15,473.0547 L1251.15,473.0547 L1251.15,424 L1241.15,414 L776.15,414 " fill="#FBFB77" filter="url(#f1nsiskpzugkxh)" style="stroke:#A80036;stroke-width:1.0;"/><path d="M1241.15,414 L1241.15,424 L1251.15,424 L1241.15,414 " fill="#FBFB77" style="stroke:#A80036;stroke-width:1.0;"/><text fill="#000000" font-family="sans-serif" font-size="13" lengthAdjust="spacing" textLength="435" x="782.15" y="432.4951">We used composition because if the AddNewVaccine class gets destroyed</text><text fill="#000000" font-family="sans-serif" font-size="13" lengthAdjust="spacing" textLength="296" x="786.15" y="448.8467">then there will be no vaccine to administer therefore</text><text fill="#000000" font-family="sans-serif" font-size="13" lengthAdjust="spacing" textLength="450" x="786.15" y="465.1982">there will also not be a administration method for a vaccine that does not exist</text><!--MD5=[a6318ed3dda95c7321ff70943b9d7135]
link AddNewVaccineController to Note1--><path codeLine="53" d="M583.83,336.09 C546.46,362.39 503.85,392.39 473.41,413.81 " fill="none" id="AddNewVaccineController-Note1" style="stroke:#A80036;stroke-width:1.0;stroke-dasharray:7.0,7.0;"/><!--MD5=[f3b6994b15b2b8f3f5beb0ff13a61ae5]
link VaccineType to AddNewVaccineController--><path codeLine="54" d="M665.65,141.05 C665.65,160.12 665.65,188.15 665.65,213.77 " fill="none" id="VaccineType-to-AddNewVaccineController" style="stroke:#A80036;stroke-width:1.0;stroke-dasharray:7.0,7.0;"/><polygon fill="#A80036" points="665.65,218.86,669.65,209.86,665.65,213.86,661.65,209.86,665.65,218.86" style="stroke:#A80036;stroke-width:1.0;"/><text fill="#000000" font-family="sans-serif" font-size="13" lengthAdjust="spacing" textLength="7" x="657.7969" y="162.4002">1</text><text fill="#000000" font-family="sans-serif" font-size="13" lengthAdjust="spacing" textLength="32" x="631.7" y="208.2438">many</text><!--MD5=[020302860ea09b4a8aa4c50d4d292319]
link Note1 to AddNewVaccineAdministrationController--><path codeLine="55" d="M472.26,473.1 C498.29,491.89 533.44,517.27 566,540.78 " fill="none" id="Note1-AddNewVaccineAdministrationController" style="stroke:#A80036;stroke-width:1.0;stroke-dasharray:7.0,7.0;"/><!--MD5=[35972ed9af8a7e1a30d68c07b20381f0]
link RegisterNewVaccineUI to AddNewVaccineController--><path codeLine="56" d="M440.89,141.05 C473.54,160.72 521.98,189.91 565.54,216.16 " fill="none" id="RegisterNewVaccineUI-to-AddNewVaccineController" style="stroke:#A80036;stroke-width:1.0;stroke-dasharray:7.0,7.0;"/><polygon fill="#A80036" points="570.01,218.86,564.3703,210.7857,565.7288,216.277,560.2375,217.6356,570.01,218.86" style="stroke:#A80036;stroke-width:1.0;"/><text fill="#000000" font-family="sans-serif" font-size="13" lengthAdjust="spacing" textLength="43" x="519.65" y="185.4951">creates</text><!--MD5=[a2b19f2bb3867f27674080dd605b17e7]
link RegisterNewVaccineUI to AddNewVaccineAdministrationController--><path codeLine="57" d="M356.49,141.1 C250.45,197.15 6,345.17 106.65,473 C111.29,478.89 237.05,509.45 367.02,539.74 " fill="none" id="RegisterNewVaccineUI-to-AddNewVaccineAdministrationController" style="stroke:#A80036;stroke-width:1.0;stroke-dasharray:7.0,7.0;"/><polygon fill="#A80036" points="372.04,540.91,364.175,534.982,367.169,539.7815,362.3694,542.7755,372.04,540.91" style="stroke:#A80036;stroke-width:1.0;"/><text fill="#000000" font-family="sans-serif" font-size="13" lengthAdjust="spacing" textLength="43" x="92.65" y="380.4951">creates</text><!--MD5=[246a661e4cc7827cd9a3786742b056c0]
reverse link AddNewVaccineController to AddNewVaccineAdministrationController--><path codeLine="58" d="M773.51,334.27 C775.23,334.87 776.94,335.44 778.65,336 C993.7,405.9 1411.08,297.37 1268.65,473 C1185.96,574.96 1107.97,506.3 979.65,534 C969.09,536.28 958.34,538.61 947.49,540.97 " fill="none" id="AddNewVaccineController-backto-AddNewVaccineAdministrationController" style="stroke:#A80036;stroke-width:1.0;stroke-dasharray:7.0,7.0;"/><polygon fill="#A80036" points="761.26,329.68,765.4765,335.5299,772.4981,333.8877,768.2816,328.0378,761.26,329.68" style="stroke:#A80036;stroke-width:1.0;"/><!--MD5=[d89d8791f4d4b09019e91b6f57f63633]
link AddNewVaccineController to Note2--><path codeLine="60" d="M761.37,327.58 C767.2,330.46 773,333.28 778.65,336 C835.57,363.36 901.08,392.89 948.45,413.9 " fill="none" id="AddNewVaccineController-Note2" style="stroke:#A80036;stroke-width:1.0;stroke-dasharray:7.0,7.0;"/><!--MD5=[f5462079dd79f710dc11b93e78ae6876]
link Note2 to AddNewVaccineAdministrationController--><path codeLine="61" d="M950.06,473.1 C908.17,491.94 851.57,517.39 799.19,540.95 " fill="none" id="Note2-AddNewVaccineAdministrationController" style="stroke:#A80036;stroke-width:1.0;"/><!--MD5=[303f95f073a1f050eb8894d0827b4b4c]
link AddNewVaccineAdministrationController to RegisterNewVaccine--><path codeLine="62" d="M526.52,672.07 C472.54,699.06 411.01,729.82 361.6,754.52 " fill="none" id="AddNewVaccineAdministrationController-to-RegisterNewVaccine" style="stroke:#A80036;stroke-width:1.0;stroke-dasharray:7.0,7.0;"/><polygon fill="#A80036" points="356.86,756.89,366.6981,756.4302,361.3293,754.6482,363.1113,749.2794,356.86,756.89" style="stroke:#A80036;stroke-width:1.0;"/><!--MD5=[afe527e18acb293be7a3331024c86523]
link Administrator to RegisterNewVaccine--><path codeLine="63" d="M244.06,679 C248.94,703.22 254.28,729.72 258.74,751.8 " fill="none" id="Administrator-to-RegisterNewVaccine" style="stroke:#A80036;stroke-width:1.0;stroke-dasharray:7.0,7.0;"/><polygon fill="#A80036" points="259.73,756.74,261.8765,747.1279,258.7439,751.8382,254.0336,748.7056,259.73,756.74" style="stroke:#A80036;stroke-width:1.0;"/><text fill="#000000" font-family="sans-serif" font-size="13" lengthAdjust="spacing" textLength="53" x="253.65" y="723.4951">manages</text><!--MD5=[9e02581693bd6b088ac2c2cd9571828a]
@startuml
skinparam classAttributeIconSize 0



class Administrator {
   +getId
   +getName
   +getNumberOfDoses
   +getDosagePerVaccine
   +getAgeGroupToBeAdministered
   +getTimeBetweenDoses
   +validateNewVaccine(Vaccine)
}

class VaccineType
{
}

class AddNewVaccineController    {
  +getId
  +getType
  +getName
  +registerNewVaccine(Id,Type,Name)
  +SaveNewVaccine()
}
note right: Manages the specific criteria of the new vaccine

class AddNewVaccineAdministrationController    {
 +getDosagePerVaccine
 +getNumberOfDoses
 +getAgeGroupToBeAdministered
 +getTimeBetweenDoses
 +registerNewVaccineAdministration(DosagePerVaccine,NumberOfDoses,AgeGroupToBeAdministered,TimeBetweenDoses)
 +SaveNewVaccineAdministration()
}
note right: Creates a specific administration process for the new vaccine


class RegisterNewVaccine  {
+getNewVaccine
+getNewVaccineAdministration
+SaveVaccine(NewVaccine,NewVaccineAdministration)
}
note right: After a new vaccine gets it's attributes and administration method it gets saved and registered in the system to be used.

class RegisterNewVaccineUI  {
}



note top of VaccineType : Dependency on US12
note "The process of registering a new vaccine was split into two. \n If ,in the future, a specific vaccine administration method gets changed \n you just need change it on the administration class, without making any changes to the actual vaccine" as Note1
AddNewVaccineController .. Note1
VaccineType "1" ..> "many" AddNewVaccineController
Note1 .. AddNewVaccineAdministrationController
RegisterNewVaccineUI ..> AddNewVaccineController : creates
RegisterNewVaccineUI ..> AddNewVaccineAdministrationController: creates
AddNewVaccineController *.. AddNewVaccineAdministrationController
note "We used composition because if the AddNewVaccine class gets destroyed \n then there will be no vaccine to administer therefore \n there will also not be a administration method for a vaccine that does not exist" as Note2
AddNewVaccineController .. Note2
Note2 - - AddNewVaccineAdministrationController
AddNewVaccineAdministrationController ..> RegisterNewVaccine
Administrator ..> RegisterNewVaccine : manages



@enduml

PlantUML version 1.2022.1(Tue Feb 01 18:19:58 GMT 2022)
(GPL source distribution)
Java Runtime: OpenJDK Runtime Environment
JVM: OpenJDK 64-Bit Server VM
Default Encoding: Cp1252
Language: pt
Country: PT
--></g></svg>