<?xml version="1.0" encoding="UTF-8" standalone="no"?><svg xmlns="http://www.w3.org/2000/svg" xmlns:xlink="http://www.w3.org/1999/xlink" contentStyleType="text/css" height="491px" preserveAspectRatio="none" style="width:834px;height:491px;background:#FFFFFF;" version="1.1" viewBox="0 0 834 491" width="834px" zoomAndPan="magnify"><defs/><g><!--MD5=[02e4b9b7573f1156f41e60aa5b4e25a4]
class Company--><g id="elem_Company"><rect codeLine="4" fill="#F1F1F1" height="65.6094" id="Company" rx="2.5" ry="2.5" style="stroke:#181818;stroke-width:0.5;" width="144" x="342" y="419"/><ellipse cx="380.4" cy="435" fill="#ADD1B2" rx="11" ry="11" style="stroke:#181818;stroke-width:1.0;"/><path d="M382.4,431.5 Q382.6031,431 382.8375,430.75 Q383.0719,430.5 383.3375,430.5 Q383.8063,430.5 384.1031,430.7813 Q384.4,431.0625 384.4,431.7188 L384.4,433.2813 Q384.4,433.9375 384.1188,434.2188 Q383.8375,434.5 383.4,434.5 Q383.0094,434.5 382.7594,434.3281 Q382.5094,434.1563 382.4,433.7031 Q382.3531,433.3906 382.1813,433.2188 Q381.8688,432.8906 381.3063,432.7031 Q380.7438,432.5 380.1813,432.5 Q379.4781,432.5 378.8844,432.7813 Q378.3063,433.0625 377.8531,433.6875 Q377.4,434.3125 377.4,435.1719 L377.4,436.0938 Q377.4,437.125 378.2438,437.8125 Q379.0875,438.5 380.5875,438.5 Q381.4781,438.5 382.1031,438.2969 Q382.4625,438.1875 382.8688,437.8281 Q383.1344,437.625 383.275,437.5625 Q383.4156,437.5 383.5875,437.5 Q383.9156,437.5 384.15,437.7656 Q384.4,438.0156 384.4,438.375 Q384.4,438.7188 384.0563,439.125 Q383.5563,439.7188 382.7594,440.0469 Q381.7125,440.5 380.4313,440.5 Q378.9313,440.5 377.7281,439.9063 Q376.7594,439.4375 376.0719,438.4219 Q375.4,437.4063 375.4,436.2031 L375.4,435.1094 Q375.4,433.8594 375.9938,432.7656 Q376.6031,431.6719 377.65,431.0938 Q378.7125,430.5 379.9,430.5 Q380.6188,430.5 381.2438,430.75 Q381.8688,431 382.4,431.5 Z " fill="#000000"/><text fill="#000000" font-family="sans-serif" font-size="14" lengthAdjust="spacing" textLength="60" x="399.6" y="440.7285">Company</text><line style="stroke:#181818;stroke-width:0.5;" x1="343" x2="485" y1="451" y2="451"/><line style="stroke:#181818;stroke-width:0.5;" x1="343" x2="485" y1="459" y2="459"/><text fill="#000000" font-family="sans-serif" font-size="14" lengthAdjust="spacing" textLength="132" x="348" y="477.5332">+getListOfVaccines()</text></g><!--MD5=[da547346deef918ea16944ba046651ef]
class Administrator--><g id="elem_Administrator"><rect codeLine="7" fill="#F1F1F1" height="48" id="Administrator" rx="2.5" ry="2.5" style="stroke:#181818;stroke-width:0.5;" width="115" x="709.5" y="7"/><ellipse cx="724.5" cy="23" fill="#ADD1B2" rx="11" ry="11" style="stroke:#181818;stroke-width:1.0;"/><path d="M726.5,19.5 Q726.7031,19 726.9375,18.75 Q727.1719,18.5 727.4375,18.5 Q727.9063,18.5 728.2031,18.7813 Q728.5,19.0625 728.5,19.7188 L728.5,21.2813 Q728.5,21.9375 728.2188,22.2188 Q727.9375,22.5 727.5,22.5 Q727.1094,22.5 726.8594,22.3281 Q726.6094,22.1563 726.5,21.7031 Q726.4531,21.3906 726.2813,21.2188 Q725.9688,20.8906 725.4063,20.7031 Q724.8438,20.5 724.2813,20.5 Q723.5781,20.5 722.9844,20.7813 Q722.4063,21.0625 721.9531,21.6875 Q721.5,22.3125 721.5,23.1719 L721.5,24.0938 Q721.5,25.125 722.3438,25.8125 Q723.1875,26.5 724.6875,26.5 Q725.5781,26.5 726.2031,26.2969 Q726.5625,26.1875 726.9688,25.8281 Q727.2344,25.625 727.375,25.5625 Q727.5156,25.5 727.6875,25.5 Q728.0156,25.5 728.25,25.7656 Q728.5,26.0156 728.5,26.375 Q728.5,26.7188 728.1563,27.125 Q727.6563,27.7188 726.8594,28.0469 Q725.8125,28.5 724.5313,28.5 Q723.0313,28.5 721.8281,27.9063 Q720.8594,27.4375 720.1719,26.4219 Q719.5,25.4063 719.5,24.2031 L719.5,23.1094 Q719.5,21.8594 720.0938,20.7656 Q720.7031,19.6719 721.75,19.0938 Q722.8125,18.5 724,18.5 Q724.7188,18.5 725.3438,18.75 Q725.9688,19 726.5,19.5 Z " fill="#000000"/><text fill="#000000" font-family="sans-serif" font-size="14" lengthAdjust="spacing" textLength="83" x="738.5" y="28.7285">Administrator</text><line style="stroke:#181818;stroke-width:0.5;" x1="710.5" x2="823.5" y1="39" y2="39"/><line style="stroke:#181818;stroke-width:0.5;" x1="710.5" x2="823.5" y1="47" y2="47"/></g><!--MD5=[0e501da62322464167c8ec4d233a6b7e]
class VaccineType--><g id="elem_VaccineType"><rect codeLine="11" fill="#F1F1F1" height="48" id="VaccineType" rx="2.5" ry="2.5" style="stroke:#181818;stroke-width:0.5;" width="114" x="7" y="132.5"/><ellipse cx="22" cy="148.5" fill="#ADD1B2" rx="11" ry="11" style="stroke:#181818;stroke-width:1.0;"/><path d="M24,145 Q24.2031,144.5 24.4375,144.25 Q24.6719,144 24.9375,144 Q25.4063,144 25.7031,144.2813 Q26,144.5625 26,145.2188 L26,146.7813 Q26,147.4375 25.7188,147.7188 Q25.4375,148 25,148 Q24.6094,148 24.3594,147.8281 Q24.1094,147.6563 24,147.2031 Q23.9531,146.8906 23.7813,146.7188 Q23.4688,146.3906 22.9063,146.2031 Q22.3438,146 21.7813,146 Q21.0781,146 20.4844,146.2813 Q19.9063,146.5625 19.4531,147.1875 Q19,147.8125 19,148.6719 L19,149.5938 Q19,150.625 19.8438,151.3125 Q20.6875,152 22.1875,152 Q23.0781,152 23.7031,151.7969 Q24.0625,151.6875 24.4688,151.3281 Q24.7344,151.125 24.875,151.0625 Q25.0156,151 25.1875,151 Q25.5156,151 25.75,151.2656 Q26,151.5156 26,151.875 Q26,152.2188 25.6563,152.625 Q25.1563,153.2188 24.3594,153.5469 Q23.3125,154 22.0313,154 Q20.5313,154 19.3281,153.4063 Q18.3594,152.9375 17.6719,151.9219 Q17,150.9063 17,149.7031 L17,148.6094 Q17,147.3594 17.5938,146.2656 Q18.2031,145.1719 19.25,144.5938 Q20.3125,144 21.5,144 Q22.2188,144 22.8438,144.25 Q23.4688,144.5 24,145 Z " fill="#000000"/><text fill="#000000" font-family="sans-serif" font-size="14" lengthAdjust="spacing" textLength="82" x="36" y="154.2285">VaccineType</text><line style="stroke:#181818;stroke-width:0.5;" x1="8" x2="120" y1="164.5" y2="164.5"/><line style="stroke:#181818;stroke-width:0.5;" x1="8" x2="120" y1="172.5" y2="172.5"/></g><!--MD5=[67a6be77d10fe53e61841f2027bd2539]
class AddNewVaccineController--><g id="elem_AddNewVaccineController"><rect codeLine="15" fill="#F1F1F1" height="100.8281" id="AddNewVaccineController" rx="2.5" ry="2.5" style="stroke:#181818;stroke-width:0.5;" width="242" x="293" y="258"/><ellipse cx="329.15" cy="274" fill="#ADD1B2" rx="11" ry="11" style="stroke:#181818;stroke-width:1.0;"/><path d="M331.15,270.5 Q331.3531,270 331.5875,269.75 Q331.8219,269.5 332.0875,269.5 Q332.5563,269.5 332.8531,269.7813 Q333.15,270.0625 333.15,270.7188 L333.15,272.2813 Q333.15,272.9375 332.8688,273.2188 Q332.5875,273.5 332.15,273.5 Q331.7594,273.5 331.5094,273.3281 Q331.2594,273.1563 331.15,272.7031 Q331.1031,272.3906 330.9313,272.2188 Q330.6188,271.8906 330.0563,271.7031 Q329.4938,271.5 328.9313,271.5 Q328.2281,271.5 327.6344,271.7813 Q327.0563,272.0625 326.6031,272.6875 Q326.15,273.3125 326.15,274.1719 L326.15,275.0938 Q326.15,276.125 326.9938,276.8125 Q327.8375,277.5 329.3375,277.5 Q330.2281,277.5 330.8531,277.2969 Q331.2125,277.1875 331.6188,276.8281 Q331.8844,276.625 332.025,276.5625 Q332.1656,276.5 332.3375,276.5 Q332.6656,276.5 332.9,276.7656 Q333.15,277.0156 333.15,277.375 Q333.15,277.7188 332.8063,278.125 Q332.3063,278.7188 331.5094,279.0469 Q330.4625,279.5 329.1813,279.5 Q327.6813,279.5 326.4781,278.9063 Q325.5094,278.4375 324.8219,277.4219 Q324.15,276.4063 324.15,275.2031 L324.15,274.1094 Q324.15,272.8594 324.7438,271.7656 Q325.3531,270.6719 326.4,270.0938 Q327.4625,269.5 328.65,269.5 Q329.3688,269.5 329.9938,269.75 Q330.6188,270 331.15,270.5 Z " fill="#000000"/><text fill="#000000" font-family="sans-serif" font-size="14" lengthAdjust="spacing" textLength="163" x="347.85" y="279.7285">AddNewVaccineController</text><line style="stroke:#181818;stroke-width:0.5;" x1="294" x2="534" y1="290" y2="290"/><line style="stroke:#181818;stroke-width:0.5;" x1="294" x2="534" y1="298" y2="298"/><text fill="#000000" font-family="sans-serif" font-size="14" lengthAdjust="spacing" textLength="181" x="299" y="316.5332">+AddNewVaccineController()</text><text fill="#000000" font-family="sans-serif" font-size="14" lengthAdjust="spacing" textLength="210" x="299" y="334.1426">+createVaccine(Vaccine vaccine)</text><text fill="#000000" font-family="sans-serif" font-size="14" lengthAdjust="spacing" textLength="230" x="299" y="351.752">+vaccineValidation(Vaccine vaccine)</text></g><!--MD5=[ae6ee1762254e2c170c94585e2831c4e]
class AddNewVaccineAdministrationController--><g id="elem_AddNewVaccineAdministrationController"><rect codeLine="22" fill="#F1F1F1" height="83.2188" id="AddNewVaccineAdministrationController" rx="2.5" ry="2.5" style="stroke:#181818;stroke-width:0.5;" width="515" x="156.5" y="115"/><ellipse cx="283.75" cy="131" fill="#ADD1B2" rx="11" ry="11" style="stroke:#181818;stroke-width:1.0;"/><path d="M285.75,127.5 Q285.9531,127 286.1875,126.75 Q286.4219,126.5 286.6875,126.5 Q287.1563,126.5 287.4531,126.7813 Q287.75,127.0625 287.75,127.7188 L287.75,129.2813 Q287.75,129.9375 287.4688,130.2188 Q287.1875,130.5 286.75,130.5 Q286.3594,130.5 286.1094,130.3281 Q285.8594,130.1563 285.75,129.7031 Q285.7031,129.3906 285.5313,129.2188 Q285.2188,128.8906 284.6563,128.7031 Q284.0938,128.5 283.5313,128.5 Q282.8281,128.5 282.2344,128.7813 Q281.6563,129.0625 281.2031,129.6875 Q280.75,130.3125 280.75,131.1719 L280.75,132.0938 Q280.75,133.125 281.5938,133.8125 Q282.4375,134.5 283.9375,134.5 Q284.8281,134.5 285.4531,134.2969 Q285.8125,134.1875 286.2188,133.8281 Q286.4844,133.625 286.625,133.5625 Q286.7656,133.5 286.9375,133.5 Q287.2656,133.5 287.5,133.7656 Q287.75,134.0156 287.75,134.375 Q287.75,134.7188 287.4063,135.125 Q286.9063,135.7188 286.1094,136.0469 Q285.0625,136.5 283.7813,136.5 Q282.2813,136.5 281.0781,135.9063 Q280.1094,135.4375 279.4219,134.4219 Q278.75,133.4063 278.75,132.2031 L278.75,131.1094 Q278.75,129.8594 279.3438,128.7656 Q279.9531,127.6719 281,127.0938 Q282.0625,126.5 283.25,126.5 Q283.9688,126.5 284.5938,126.75 Q285.2188,127 285.75,127.5 Z " fill="#000000"/><text fill="#000000" font-family="sans-serif" font-size="14" lengthAdjust="spacing" textLength="252" x="304.25" y="136.7285">AddNewVaccineAdministrationController</text><line style="stroke:#181818;stroke-width:0.5;" x1="157.5" x2="670.5" y1="147" y2="147"/><line style="stroke:#181818;stroke-width:0.5;" x1="157.5" x2="670.5" y1="155" y2="155"/><text fill="#000000" font-family="sans-serif" font-size="14" lengthAdjust="spacing" textLength="481" x="162.5" y="173.5332">+createAdministrationProcess(AdministrationProcess administrationProcess)</text><text fill="#000000" font-family="sans-serif" font-size="14" lengthAdjust="spacing" textLength="503" x="162.5" y="191.1426">+AdministrationProcessValidation(AdministrationProcess administrationProcess)</text></g><!--MD5=[f569afd9272271957300b6d3f7825f41]
class NewVaccineUI--><g id="elem_NewVaccineUI"><rect codeLine="31" fill="#F1F1F1" height="48" id="NewVaccineUI" rx="2.5" ry="2.5" style="stroke:#181818;stroke-width:0.5;" width="120" x="707" y="132.5"/><ellipse cx="722" cy="148.5" fill="#ADD1B2" rx="11" ry="11" style="stroke:#181818;stroke-width:1.0;"/><path d="M724,145 Q724.2031,144.5 724.4375,144.25 Q724.6719,144 724.9375,144 Q725.4063,144 725.7031,144.2813 Q726,144.5625 726,145.2188 L726,146.7813 Q726,147.4375 725.7188,147.7188 Q725.4375,148 725,148 Q724.6094,148 724.3594,147.8281 Q724.1094,147.6563 724,147.2031 Q723.9531,146.8906 723.7813,146.7188 Q723.4688,146.3906 722.9063,146.2031 Q722.3438,146 721.7813,146 Q721.0781,146 720.4844,146.2813 Q719.9063,146.5625 719.4531,147.1875 Q719,147.8125 719,148.6719 L719,149.5938 Q719,150.625 719.8438,151.3125 Q720.6875,152 722.1875,152 Q723.0781,152 723.7031,151.7969 Q724.0625,151.6875 724.4688,151.3281 Q724.7344,151.125 724.875,151.0625 Q725.0156,151 725.1875,151 Q725.5156,151 725.75,151.2656 Q726,151.5156 726,151.875 Q726,152.2188 725.6563,152.625 Q725.1563,153.2188 724.3594,153.5469 Q723.3125,154 722.0313,154 Q720.5313,154 719.3281,153.4063 Q718.3594,152.9375 717.6719,151.9219 Q717,150.9063 717,149.7031 L717,148.6094 Q717,147.3594 717.5938,146.2656 Q718.2031,145.1719 719.25,144.5938 Q720.3125,144 721.5,144 Q722.2188,144 722.8438,144.25 Q723.4688,144.5 724,145 Z " fill="#000000"/><text fill="#000000" font-family="sans-serif" font-size="14" lengthAdjust="spacing" textLength="88" x="736" y="154.2285">NewVaccineUI</text><line style="stroke:#181818;stroke-width:0.5;" x1="708" x2="826" y1="164.5" y2="164.5"/><line style="stroke:#181818;stroke-width:0.5;" x1="708" x2="826" y1="172.5" y2="172.5"/></g><!--MD5=[f3b6994b15b2b8f3f5beb0ff13a61ae5]
link VaccineType to AddNewVaccineController--><g id="link_VaccineType_AddNewVaccineController"><path codeLine="38" d="M104.82,180.66 C115.79,186.57 127.74,192.74 139,198 C186.94,220.4 240.8,242.49 288.07,260.9 " fill="none" id="VaccineType-to-AddNewVaccineController" style="stroke:#181818;stroke-width:1.0;stroke-dasharray:7.0,7.0;"/><polygon fill="#181818" points="292.91,262.79,285.9759,255.7959,288.2511,260.975,283.0719,263.2502,292.91,262.79" style="stroke:#181818;stroke-width:1.0;"/><text fill="#000000" font-family="sans-serif" font-size="13" lengthAdjust="spacing" textLength="7" x="106.9168" y="202.037">1</text><text fill="#000000" font-family="sans-serif" font-size="13" lengthAdjust="spacing" textLength="32" x="252.9845" y="257.1951">many</text></g><!--MD5=[754c064962573fa43cc989d9b872d3d1]
link NewVaccineUI to AddNewVaccineController--><g id="link_NewVaccineUI_AddNewVaccineController"><path codeLine="39" d="M724.47,180.56 C713.06,186.48 700.66,192.67 689,198 C640.99,219.95 587.24,241.92 540.07,260.35 " fill="none" id="NewVaccineUI-to-AddNewVaccineController" style="stroke:#181818;stroke-width:1.0;stroke-dasharray:7.0,7.0;"/><polygon fill="#181818" points="535.24,262.24,545.0781,262.7002,539.8989,260.425,542.1741,255.2459,535.24,262.24" style="stroke:#181818;stroke-width:1.0;"/></g><!--MD5=[7e0aef12032c55dc5f8311f625143262]
link AddNewVaccineAdministrationController to AddNewVaccineController--><g id="link_AddNewVaccineAdministrationController_AddNewVaccineController"><path codeLine="40" d="M414,198.09 C414,214.91 414,234.66 414,252.73 " fill="none" id="AddNewVaccineAdministrationController-to-AddNewVaccineController" style="stroke:#181818;stroke-width:1.0;stroke-dasharray:7.0,7.0;"/><polygon fill="#181818" points="414,257.78,418,248.78,414,252.78,410,248.78,414,257.78" style="stroke:#181818;stroke-width:1.0;"/></g><!--MD5=[f4ef1e2e587e272a3cadb14acea53856]
link AddNewVaccineController to Company--><g id="link_AddNewVaccineController_Company"><path codeLine="41" d="M414,359.39 C414,377.27 414,397.11 414,413.73 " fill="none" id="AddNewVaccineController-to-Company" style="stroke:#181818;stroke-width:1.0;stroke-dasharray:7.0,7.0;"/><polygon fill="#181818" points="414,418.79,418,409.79,414,413.79,410,409.79,414,418.79" style="stroke:#181818;stroke-width:1.0;"/></g><!--MD5=[9236a660d2dcefeec1be506b1e5fb5a6]
link Administrator to NewVaccineUI--><g id="link_Administrator_NewVaccineUI"><path codeLine="43" d="M767,55.23 C767,75.67 767,105.49 767,127.29 " fill="none" id="Administrator-to-NewVaccineUI" style="stroke:#181818;stroke-width:1.0;stroke-dasharray:7.0,7.0;"/><polygon fill="#181818" points="767,132.37,771,123.37,767,127.37,763,123.37,767,132.37" style="stroke:#181818;stroke-width:1.0;"/></g><!--MD5=[992c3d0f8c4c95ca2e6541223a7930eb]
@startuml
skinparam classAttributeIconSize 0


class Company{
+ getListOfVaccines()
}
class Administrator {

}

class VaccineType
{
}

class AddNewVaccineController    {
  + AddNewVaccineController()
  + createVaccine(Vaccine vaccine)
  + vaccineValidation(Vaccine vaccine)
}


class AddNewVaccineAdministrationController    {
 + createAdministrationProcess(AdministrationProcess administrationProcess)
 + AdministrationProcessValidation(AdministrationProcess administrationProcess)

}




class NewVaccineUI  {
}





VaccineType "1" ..> "many" AddNewVaccineController
NewVaccineUI ..> AddNewVaccineController
AddNewVaccineAdministrationController ..> AddNewVaccineController
AddNewVaccineController ..>   Company

Administrator ..> NewVaccineUI







@enduml

PlantUML version 1.2022.4(Sat Apr 09 14:29:17 BST 2022)
(GPL source distribution)
Java Runtime: OpenJDK Runtime Environment
JVM: OpenJDK 64-Bit Server VM
Default Encoding: Cp1252
Language: pt
Country: PT
--></g></svg>