<?xml version="1.0" encoding="UTF-8" standalone="no"?><svg xmlns="http://www.w3.org/2000/svg" xmlns:xlink="http://www.w3.org/1999/xlink" contentStyleType="text/css" height="1366px" preserveAspectRatio="none" style="width:2165px;height:1366px;background:#FFFFFF;" version="1.1" viewBox="0 0 2165 1366" width="2165px" zoomAndPan="magnify"><defs/><g><!--MD5=[02e4b9b7573f1156f41e60aa5b4e25a4]
class Company--><g id="elem_Company"><rect codeLine="6" fill="#F1F1F1" height="57.6094" id="Company" rx="2.5" ry="2.5" style="stroke:#181818;stroke-width:0.5;" width="99" x="7" y="269.3564"/><ellipse cx="25.15" cy="285.3564" fill="#ADD1B2" rx="11" ry="11" style="stroke:#181818;stroke-width:1.0;"/><path d="M27.15,281.8564 Q27.3531,281.3564 27.5875,281.1064 Q27.8219,280.8564 28.0875,280.8564 Q28.5563,280.8564 28.8531,281.1377 Q29.15,281.4189 29.15,282.0752 L29.15,283.6377 Q29.15,284.2939 28.8688,284.5752 Q28.5875,284.8564 28.15,284.8564 Q27.7594,284.8564 27.5094,284.6846 Q27.2594,284.5127 27.15,284.0596 Q27.1031,283.7471 26.9313,283.5752 Q26.6188,283.2471 26.0563,283.0596 Q25.4938,282.8564 24.9313,282.8564 Q24.2281,282.8564 23.6344,283.1377 Q23.0563,283.4189 22.6031,284.0439 Q22.15,284.6689 22.15,285.5283 L22.15,286.4502 Q22.15,287.4814 22.9938,288.1689 Q23.8375,288.8564 25.3375,288.8564 Q26.2281,288.8564 26.8531,288.6533 Q27.2125,288.5439 27.6188,288.1846 Q27.8844,287.9814 28.025,287.9189 Q28.1656,287.8564 28.3375,287.8564 Q28.6656,287.8564 28.9,288.1221 Q29.15,288.3721 29.15,288.7314 Q29.15,289.0752 28.8063,289.4814 Q28.3063,290.0752 27.5094,290.4033 Q26.4625,290.8564 25.1813,290.8564 Q23.6813,290.8564 22.4781,290.2627 Q21.5094,289.7939 20.8219,288.7783 Q20.15,287.7627 20.15,286.5596 L20.15,285.4658 Q20.15,284.2158 20.7438,283.1221 Q21.3531,282.0283 22.4,281.4502 Q23.4625,280.8564 24.65,280.8564 Q25.3688,280.8564 25.9938,281.1064 Q26.6188,281.3564 27.15,281.8564 Z " fill="#000000"/><text fill="#000000" font-family="sans-serif" font-size="14" lengthAdjust="spacing" textLength="60" x="39.85" y="291.085">Company</text><line style="stroke:#181818;stroke-width:0.5;" x1="8" x2="105" y1="301.3564" y2="301.3564"/><text fill="#000000" font-family="sans-serif" font-size="14" lengthAdjust="spacing" textLength="73" x="27" y="319.8896">designation</text></g><!--MD5=[1db03e903fe0a044a2ca0dcbef10799a]
class HealthCareCenter--><g id="elem_HealthCareCenter"><rect codeLine="10" fill="#F1F1F1" height="40" id="HealthCareCenter" rx="2.5" ry="2.5" style="stroke:#181818;stroke-width:0.5;" width="146" x="1161.5" y="1171.3564"/><ellipse cx="1176.5" cy="1187.3564" fill="#ADD1B2" rx="11" ry="11" style="stroke:#181818;stroke-width:1.0;"/><path d="M1178.5,1183.8564 Q1178.7031,1183.3564 1178.9375,1183.1064 Q1179.1719,1182.8564 1179.4375,1182.8564 Q1179.9063,1182.8564 1180.2031,1183.1377 Q1180.5,1183.4189 1180.5,1184.0752 L1180.5,1185.6377 Q1180.5,1186.2939 1180.2188,1186.5752 Q1179.9375,1186.8564 1179.5,1186.8564 Q1179.1094,1186.8564 1178.8594,1186.6846 Q1178.6094,1186.5127 1178.5,1186.0596 Q1178.4531,1185.7471 1178.2813,1185.5752 Q1177.9688,1185.2471 1177.4063,1185.0596 Q1176.8438,1184.8564 1176.2813,1184.8564 Q1175.5781,1184.8564 1174.9844,1185.1377 Q1174.4063,1185.4189 1173.9531,1186.0439 Q1173.5,1186.6689 1173.5,1187.5283 L1173.5,1188.4502 Q1173.5,1189.4814 1174.3438,1190.1689 Q1175.1875,1190.8564 1176.6875,1190.8564 Q1177.5781,1190.8564 1178.2031,1190.6533 Q1178.5625,1190.5439 1178.9688,1190.1846 Q1179.2344,1189.9814 1179.375,1189.9189 Q1179.5156,1189.8564 1179.6875,1189.8564 Q1180.0156,1189.8564 1180.25,1190.1221 Q1180.5,1190.3721 1180.5,1190.7314 Q1180.5,1191.0752 1180.1563,1191.4814 Q1179.6563,1192.0752 1178.8594,1192.4033 Q1177.8125,1192.8564 1176.5313,1192.8564 Q1175.0313,1192.8564 1173.8281,1192.2627 Q1172.8594,1191.7939 1172.1719,1190.7783 Q1171.5,1189.7627 1171.5,1188.5596 L1171.5,1187.4658 Q1171.5,1186.2158 1172.0938,1185.1221 Q1172.7031,1184.0283 1173.75,1183.4502 Q1174.8125,1182.8564 1176,1182.8564 Q1176.7188,1182.8564 1177.3438,1183.1064 Q1177.9688,1183.3564 1178.5,1183.8564 Z " fill="#000000"/><text fill="#000000" font-family="sans-serif" font-size="14" lengthAdjust="spacing" textLength="114" x="1190.5" y="1193.085">HealthCareCenter</text><line style="stroke:#181818;stroke-width:0.5;" x1="1162.5" x2="1306.5" y1="1203.3564" y2="1203.3564"/></g><!--MD5=[56872536300a053cf9fd13853ad6ab1e]
class CommunityMassVaccinationCenter--><g id="elem_CommunityMassVaccinationCenter"><rect codeLine="13" fill="#F1F1F1" height="40" id="CommunityMassVaccinationCenter" rx="2.5" ry="2.5" style="stroke:#181818;stroke-width:0.5;" width="251" x="1109" y="1075.3564"/><ellipse cx="1124" cy="1091.3564" fill="#ADD1B2" rx="11" ry="11" style="stroke:#181818;stroke-width:1.0;"/><path d="M1126,1087.8564 Q1126.2031,1087.3564 1126.4375,1087.1064 Q1126.6719,1086.8564 1126.9375,1086.8564 Q1127.4063,1086.8564 1127.7031,1087.1377 Q1128,1087.4189 1128,1088.0752 L1128,1089.6377 Q1128,1090.2939 1127.7188,1090.5752 Q1127.4375,1090.8564 1127,1090.8564 Q1126.6094,1090.8564 1126.3594,1090.6846 Q1126.1094,1090.5127 1126,1090.0596 Q1125.9531,1089.7471 1125.7813,1089.5752 Q1125.4688,1089.2471 1124.9063,1089.0596 Q1124.3438,1088.8564 1123.7813,1088.8564 Q1123.0781,1088.8564 1122.4844,1089.1377 Q1121.9063,1089.4189 1121.4531,1090.0439 Q1121,1090.6689 1121,1091.5283 L1121,1092.4502 Q1121,1093.4814 1121.8438,1094.1689 Q1122.6875,1094.8564 1124.1875,1094.8564 Q1125.0781,1094.8564 1125.7031,1094.6533 Q1126.0625,1094.5439 1126.4688,1094.1846 Q1126.7344,1093.9814 1126.875,1093.9189 Q1127.0156,1093.8564 1127.1875,1093.8564 Q1127.5156,1093.8564 1127.75,1094.1221 Q1128,1094.3721 1128,1094.7314 Q1128,1095.0752 1127.6563,1095.4814 Q1127.1563,1096.0752 1126.3594,1096.4033 Q1125.3125,1096.8564 1124.0313,1096.8564 Q1122.5313,1096.8564 1121.3281,1096.2627 Q1120.3594,1095.7939 1119.6719,1094.7783 Q1119,1093.7627 1119,1092.5596 L1119,1091.4658 Q1119,1090.2158 1119.5938,1089.1221 Q1120.2031,1088.0283 1121.25,1087.4502 Q1122.3125,1086.8564 1123.5,1086.8564 Q1124.2188,1086.8564 1124.8438,1087.1064 Q1125.4688,1087.3564 1126,1087.8564 Z " fill="#000000"/><text fill="#000000" font-family="sans-serif" font-size="14" lengthAdjust="spacing" textLength="219" x="1138" y="1097.085">CommunityMassVaccinationCenter</text><line style="stroke:#181818;stroke-width:0.5;" x1="1110" x2="1359" y1="1107.3564" y2="1107.3564"/></g><!--MD5=[3d99830c51f2312653ffa5f597e45238]
class AGES--><g id="elem_AGES"><rect codeLine="16" fill="#F1F1F1" height="40" id="AGES" rx="2.5" ry="2.5" style="stroke:#181818;stroke-width:0.5;" width="70" x="823.5" y="1173.3564"/><ellipse cx="838.5" cy="1189.3564" fill="#ADD1B2" rx="11" ry="11" style="stroke:#181818;stroke-width:1.0;"/><path d="M840.5,1185.8564 Q840.7031,1185.3564 840.9375,1185.1064 Q841.1719,1184.8564 841.4375,1184.8564 Q841.9063,1184.8564 842.2031,1185.1377 Q842.5,1185.4189 842.5,1186.0752 L842.5,1187.6377 Q842.5,1188.2939 842.2188,1188.5752 Q841.9375,1188.8564 841.5,1188.8564 Q841.1094,1188.8564 840.8594,1188.6846 Q840.6094,1188.5127 840.5,1188.0596 Q840.4531,1187.7471 840.2813,1187.5752 Q839.9688,1187.2471 839.4063,1187.0596 Q838.8438,1186.8564 838.2813,1186.8564 Q837.5781,1186.8564 836.9844,1187.1377 Q836.4063,1187.4189 835.9531,1188.0439 Q835.5,1188.6689 835.5,1189.5283 L835.5,1190.4502 Q835.5,1191.4814 836.3438,1192.1689 Q837.1875,1192.8564 838.6875,1192.8564 Q839.5781,1192.8564 840.2031,1192.6533 Q840.5625,1192.5439 840.9688,1192.1846 Q841.2344,1191.9814 841.375,1191.9189 Q841.5156,1191.8564 841.6875,1191.8564 Q842.0156,1191.8564 842.25,1192.1221 Q842.5,1192.3721 842.5,1192.7314 Q842.5,1193.0752 842.1563,1193.4814 Q841.6563,1194.0752 840.8594,1194.4033 Q839.8125,1194.8564 838.5313,1194.8564 Q837.0313,1194.8564 835.8281,1194.2627 Q834.8594,1193.7939 834.1719,1192.7783 Q833.5,1191.7627 833.5,1190.5596 L833.5,1189.4658 Q833.5,1188.2158 834.0938,1187.1221 Q834.7031,1186.0283 835.75,1185.4502 Q836.8125,1184.8564 838,1184.8564 Q838.7188,1184.8564 839.3438,1185.1064 Q839.9688,1185.3564 840.5,1185.8564 Z " fill="#000000"/><text fill="#000000" font-family="sans-serif" font-size="14" lengthAdjust="spacing" textLength="38" x="852.5" y="1195.085">AGES</text><line style="stroke:#181818;stroke-width:0.5;" x1="824.5" x2="892.5" y1="1205.3564" y2="1205.3564"/></g><!--MD5=[f44bde12c85835f4e3e4c64f18a8c09c]
class ARS--><g id="elem_ARS"><rect codeLine="19" fill="#F1F1F1" height="40" id="ARS" rx="2.5" ry="2.5" style="stroke:#181818;stroke-width:0.5;" width="60" x="828.5" y="1098.3564"/><ellipse cx="843.5" cy="1114.3564" fill="#ADD1B2" rx="11" ry="11" style="stroke:#181818;stroke-width:1.0;"/><path d="M845.5,1110.8564 Q845.7031,1110.3564 845.9375,1110.1064 Q846.1719,1109.8564 846.4375,1109.8564 Q846.9063,1109.8564 847.2031,1110.1377 Q847.5,1110.4189 847.5,1111.0752 L847.5,1112.6377 Q847.5,1113.2939 847.2188,1113.5752 Q846.9375,1113.8564 846.5,1113.8564 Q846.1094,1113.8564 845.8594,1113.6846 Q845.6094,1113.5127 845.5,1113.0596 Q845.4531,1112.7471 845.2813,1112.5752 Q844.9688,1112.2471 844.4063,1112.0596 Q843.8438,1111.8564 843.2813,1111.8564 Q842.5781,1111.8564 841.9844,1112.1377 Q841.4063,1112.4189 840.9531,1113.0439 Q840.5,1113.6689 840.5,1114.5283 L840.5,1115.4502 Q840.5,1116.4814 841.3438,1117.1689 Q842.1875,1117.8564 843.6875,1117.8564 Q844.5781,1117.8564 845.2031,1117.6533 Q845.5625,1117.5439 845.9688,1117.1846 Q846.2344,1116.9814 846.375,1116.9189 Q846.5156,1116.8564 846.6875,1116.8564 Q847.0156,1116.8564 847.25,1117.1221 Q847.5,1117.3721 847.5,1117.7314 Q847.5,1118.0752 847.1563,1118.4814 Q846.6563,1119.0752 845.8594,1119.4033 Q844.8125,1119.8564 843.5313,1119.8564 Q842.0313,1119.8564 840.8281,1119.2627 Q839.8594,1118.7939 839.1719,1117.7783 Q838.5,1116.7627 838.5,1115.5596 L838.5,1114.4658 Q838.5,1113.2158 839.0938,1112.1221 Q839.7031,1111.0283 840.75,1110.4502 Q841.8125,1109.8564 843,1109.8564 Q843.7188,1109.8564 844.3438,1110.1064 Q844.9688,1110.3564 845.5,1110.8564 Z " fill="#000000"/><text fill="#000000" font-family="sans-serif" font-size="14" lengthAdjust="spacing" textLength="28" x="857.5" y="1120.085">ARS</text><line style="stroke:#181818;stroke-width:0.5;" x1="829.5" x2="887.5" y1="1130.3564" y2="1130.3564"/></g><!--MD5=[7421f545a0d8420c5bec41e74b387d9c]
class Employee--><g id="elem_Employee"><rect codeLine="22" fill="#F1F1F1" height="145.6563" id="Employee" rx="2.5" ry="2.5" style="stroke:#181818;stroke-width:0.5;" width="145" x="461" y="77.3564"/><ellipse cx="498.95" cy="93.3564" fill="#ADD1B2" rx="11" ry="11" style="stroke:#181818;stroke-width:1.0;"/><path d="M500.95,89.8564 Q501.1531,89.3564 501.3875,89.1064 Q501.6219,88.8564 501.8875,88.8564 Q502.3563,88.8564 502.6531,89.1377 Q502.95,89.4189 502.95,90.0752 L502.95,91.6377 Q502.95,92.2939 502.6688,92.5752 Q502.3875,92.8564 501.95,92.8564 Q501.5594,92.8564 501.3094,92.6846 Q501.0594,92.5127 500.95,92.0596 Q500.9031,91.7471 500.7313,91.5752 Q500.4188,91.2471 499.8563,91.0596 Q499.2938,90.8564 498.7313,90.8564 Q498.0281,90.8564 497.4344,91.1377 Q496.8563,91.4189 496.4031,92.0439 Q495.95,92.6689 495.95,93.5283 L495.95,94.4502 Q495.95,95.4814 496.7938,96.1689 Q497.6375,96.8564 499.1375,96.8564 Q500.0281,96.8564 500.6531,96.6533 Q501.0125,96.5439 501.4188,96.1846 Q501.6844,95.9814 501.825,95.9189 Q501.9656,95.8564 502.1375,95.8564 Q502.4656,95.8564 502.7,96.1221 Q502.95,96.3721 502.95,96.7314 Q502.95,97.0752 502.6063,97.4814 Q502.1063,98.0752 501.3094,98.4033 Q500.2625,98.8564 498.9813,98.8564 Q497.4813,98.8564 496.2781,98.2627 Q495.3094,97.7939 494.6219,96.7783 Q493.95,95.7627 493.95,94.5596 L493.95,93.4658 Q493.95,92.2158 494.5438,91.1221 Q495.1531,90.0283 496.2,89.4502 Q497.2625,88.8564 498.45,88.8564 Q499.1688,88.8564 499.7938,89.1064 Q500.4188,89.3564 500.95,89.8564 Z " fill="#000000"/><text fill="#000000" font-family="sans-serif" font-size="14" lengthAdjust="spacing" textLength="62" x="518.05" y="99.085">Employee</text><line style="stroke:#181818;stroke-width:0.5;" x1="462" x2="605" y1="109.3564" y2="109.3564"/><text fill="#000000" font-family="sans-serif" font-size="14" lengthAdjust="spacing" textLength="11" x="481" y="127.8896">id</text><text fill="#000000" font-family="sans-serif" font-size="14" lengthAdjust="spacing" textLength="35" x="481" y="145.499">name</text><text fill="#000000" font-family="sans-serif" font-size="14" lengthAdjust="spacing" textLength="33" x="481" y="163.1084">email</text><text fill="#000000" font-family="sans-serif" font-size="14" lengthAdjust="spacing" textLength="51" x="481" y="180.7178">address</text><text fill="#000000" font-family="sans-serif" font-size="14" lengthAdjust="spacing" textLength="89" x="481" y="198.3271">phoneNumber</text><text fill="#000000" font-family="sans-serif" font-size="14" lengthAdjust="spacing" textLength="119" x="481" y="215.9365">citizenCardNumber</text></g><!--MD5=[45d42ff7800d812d5f83c7d3273eb427]
class UserRole--><g id="elem_UserRole"><rect codeLine="31" fill="#F1F1F1" height="75.2188" id="UserRole" rx="2.5" ry="2.5" style="stroke:#181818;stroke-width:0.5;" width="99" x="2059" y="238.8564"/><ellipse cx="2078.05" cy="254.8564" fill="#ADD1B2" rx="11" ry="11" style="stroke:#181818;stroke-width:1.0;"/><path d="M2080.05,251.3564 Q2080.2531,250.8564 2080.4875,250.6064 Q2080.7219,250.3564 2080.9875,250.3564 Q2081.4563,250.3564 2081.7531,250.6377 Q2082.05,250.9189 2082.05,251.5752 L2082.05,253.1377 Q2082.05,253.7939 2081.7688,254.0752 Q2081.4875,254.3564 2081.05,254.3564 Q2080.6594,254.3564 2080.4094,254.1846 Q2080.1594,254.0127 2080.05,253.5596 Q2080.0031,253.2471 2079.8313,253.0752 Q2079.5188,252.7471 2078.9563,252.5596 Q2078.3938,252.3564 2077.8313,252.3564 Q2077.1281,252.3564 2076.5344,252.6377 Q2075.9563,252.9189 2075.5031,253.5439 Q2075.05,254.1689 2075.05,255.0283 L2075.05,255.9502 Q2075.05,256.9814 2075.8938,257.6689 Q2076.7375,258.3564 2078.2375,258.3564 Q2079.1281,258.3564 2079.7531,258.1533 Q2080.1125,258.0439 2080.5188,257.6846 Q2080.7844,257.4814 2080.925,257.4189 Q2081.0656,257.3564 2081.2375,257.3564 Q2081.5656,257.3564 2081.8,257.6221 Q2082.05,257.8721 2082.05,258.2314 Q2082.05,258.5752 2081.7063,258.9814 Q2081.2063,259.5752 2080.4094,259.9033 Q2079.3625,260.3564 2078.0813,260.3564 Q2076.5813,260.3564 2075.3781,259.7627 Q2074.4094,259.2939 2073.7219,258.2783 Q2073.05,257.2627 2073.05,256.0596 L2073.05,254.9658 Q2073.05,253.7158 2073.6438,252.6221 Q2074.2531,251.5283 2075.3,250.9502 Q2076.3625,250.3564 2077.55,250.3564 Q2078.2688,250.3564 2078.8938,250.6064 Q2079.5188,250.8564 2080.05,251.3564 Z " fill="#000000"/><text fill="#000000" font-family="sans-serif" font-size="14" lengthAdjust="spacing" textLength="58" x="2092.95" y="260.585">UserRole</text><line style="stroke:#181818;stroke-width:0.5;" x1="2060" x2="2157" y1="270.8564" y2="270.8564"/><text fill="#000000" font-family="sans-serif" font-size="14" lengthAdjust="spacing" textLength="11" x="2079" y="289.3896">id</text><text fill="#000000" font-family="sans-serif" font-size="14" lengthAdjust="spacing" textLength="73" x="2079" y="306.999">designation</text></g><!--MD5=[3fd616f346a44cd59a91eb10b19e157c]
class User--><g id="elem_User"><rect codeLine="36" fill="#F1F1F1" height="92.8281" id="User" rx="2.5" ry="2.5" style="stroke:#181818;stroke-width:0.5;" width="86" x="219.5" y="251.8564"/><ellipse cx="245.75" cy="267.8564" fill="#ADD1B2" rx="11" ry="11" style="stroke:#181818;stroke-width:1.0;"/><path d="M247.75,264.3564 Q247.9531,263.8564 248.1875,263.6064 Q248.4219,263.3564 248.6875,263.3564 Q249.1563,263.3564 249.4531,263.6377 Q249.75,263.9189 249.75,264.5752 L249.75,266.1377 Q249.75,266.7939 249.4688,267.0752 Q249.1875,267.3564 248.75,267.3564 Q248.3594,267.3564 248.1094,267.1846 Q247.8594,267.0127 247.75,266.5596 Q247.7031,266.2471 247.5313,266.0752 Q247.2188,265.7471 246.6563,265.5596 Q246.0938,265.3564 245.5313,265.3564 Q244.8281,265.3564 244.2344,265.6377 Q243.6563,265.9189 243.2031,266.5439 Q242.75,267.1689 242.75,268.0283 L242.75,268.9502 Q242.75,269.9814 243.5938,270.6689 Q244.4375,271.3564 245.9375,271.3564 Q246.8281,271.3564 247.4531,271.1533 Q247.8125,271.0439 248.2188,270.6846 Q248.4844,270.4814 248.625,270.4189 Q248.7656,270.3564 248.9375,270.3564 Q249.2656,270.3564 249.5,270.6221 Q249.75,270.8721 249.75,271.2314 Q249.75,271.5752 249.4063,271.9814 Q248.9063,272.5752 248.1094,272.9033 Q247.0625,273.3564 245.7813,273.3564 Q244.2813,273.3564 243.0781,272.7627 Q242.1094,272.2939 241.4219,271.2783 Q240.75,270.2627 240.75,269.0596 L240.75,267.9658 Q240.75,266.7158 241.3438,265.6221 Q241.9531,264.5283 243,263.9502 Q244.0625,263.3564 245.25,263.3564 Q245.9688,263.3564 246.5938,263.6064 Q247.2188,263.8564 247.75,264.3564 Z " fill="#000000"/><text fill="#000000" font-family="sans-serif" font-size="14" lengthAdjust="spacing" textLength="29" x="262.25" y="273.585">User</text><line style="stroke:#181818;stroke-width:0.5;" x1="220.5" x2="304.5" y1="283.8564" y2="283.8564"/><text fill="#000000" font-family="sans-serif" font-size="14" lengthAdjust="spacing" textLength="35" x="239.5" y="302.3896">name</text><text fill="#000000" font-family="sans-serif" font-size="14" lengthAdjust="spacing" textLength="33" x="239.5" y="319.999">email</text><text fill="#000000" font-family="sans-serif" font-size="14" lengthAdjust="spacing" textLength="60" x="239.5" y="337.6084">password</text></g><!--MD5=[2d935fd2dd068a13da1ae531f9857c4f]
class CenterCoordinator--><g id="elem_CenterCoordinator"><rect codeLine="41" fill="#F1F1F1" height="40" id="CenterCoordinator" rx="2.5" ry="2.5" style="stroke:#181818;stroke-width:0.5;" width="150" x="1502" y="652.3564"/><ellipse cx="1517" cy="668.3564" fill="#ADD1B2" rx="11" ry="11" style="stroke:#181818;stroke-width:1.0;"/><path d="M1519,664.8564 Q1519.2031,664.3564 1519.4375,664.1064 Q1519.6719,663.8564 1519.9375,663.8564 Q1520.4063,663.8564 1520.7031,664.1377 Q1521,664.4189 1521,665.0752 L1521,666.6377 Q1521,667.2939 1520.7188,667.5752 Q1520.4375,667.8564 1520,667.8564 Q1519.6094,667.8564 1519.3594,667.6846 Q1519.1094,667.5127 1519,667.0596 Q1518.9531,666.7471 1518.7813,666.5752 Q1518.4688,666.2471 1517.9063,666.0596 Q1517.3438,665.8564 1516.7813,665.8564 Q1516.0781,665.8564 1515.4844,666.1377 Q1514.9063,666.4189 1514.4531,667.0439 Q1514,667.6689 1514,668.5283 L1514,669.4502 Q1514,670.4814 1514.8438,671.1689 Q1515.6875,671.8564 1517.1875,671.8564 Q1518.0781,671.8564 1518.7031,671.6533 Q1519.0625,671.5439 1519.4688,671.1846 Q1519.7344,670.9814 1519.875,670.9189 Q1520.0156,670.8564 1520.1875,670.8564 Q1520.5156,670.8564 1520.75,671.1221 Q1521,671.3721 1521,671.7314 Q1521,672.0752 1520.6563,672.4814 Q1520.1563,673.0752 1519.3594,673.4033 Q1518.3125,673.8564 1517.0313,673.8564 Q1515.5313,673.8564 1514.3281,673.2627 Q1513.3594,672.7939 1512.6719,671.7783 Q1512,670.7627 1512,669.5596 L1512,668.4658 Q1512,667.2158 1512.5938,666.1221 Q1513.2031,665.0283 1514.25,664.4502 Q1515.3125,663.8564 1516.5,663.8564 Q1517.2188,663.8564 1517.8438,664.1064 Q1518.4688,664.3564 1519,664.8564 Z " fill="#000000"/><text fill="#000000" font-family="sans-serif" font-size="14" lengthAdjust="spacing" textLength="118" x="1531" y="674.085">CenterCoordinator</text><line style="stroke:#181818;stroke-width:0.5;" x1="1503" x2="1651" y1="684.3564" y2="684.3564"/></g><!--MD5=[da547346deef918ea16944ba046651ef]
class Administrator--><g id="elem_Administrator"><rect codeLine="44" fill="#F1F1F1" height="40" id="Administrator" rx="2.5" ry="2.5" style="stroke:#181818;stroke-width:0.5;" width="115" x="205" y="884.3564"/><ellipse cx="220" cy="900.3564" fill="#ADD1B2" rx="11" ry="11" style="stroke:#181818;stroke-width:1.0;"/><path d="M222,896.8564 Q222.2031,896.3564 222.4375,896.1064 Q222.6719,895.8564 222.9375,895.8564 Q223.4063,895.8564 223.7031,896.1377 Q224,896.4189 224,897.0752 L224,898.6377 Q224,899.2939 223.7188,899.5752 Q223.4375,899.8564 223,899.8564 Q222.6094,899.8564 222.3594,899.6846 Q222.1094,899.5127 222,899.0596 Q221.9531,898.7471 221.7813,898.5752 Q221.4688,898.2471 220.9063,898.0596 Q220.3438,897.8564 219.7813,897.8564 Q219.0781,897.8564 218.4844,898.1377 Q217.9063,898.4189 217.4531,899.0439 Q217,899.6689 217,900.5283 L217,901.4502 Q217,902.4814 217.8438,903.1689 Q218.6875,903.8564 220.1875,903.8564 Q221.0781,903.8564 221.7031,903.6533 Q222.0625,903.5439 222.4688,903.1846 Q222.7344,902.9814 222.875,902.9189 Q223.0156,902.8564 223.1875,902.8564 Q223.5156,902.8564 223.75,903.1221 Q224,903.3721 224,903.7314 Q224,904.0752 223.6563,904.4814 Q223.1563,905.0752 222.3594,905.4033 Q221.3125,905.8564 220.0313,905.8564 Q218.5313,905.8564 217.3281,905.2627 Q216.3594,904.7939 215.6719,903.7783 Q215,902.7627 215,901.5596 L215,900.4658 Q215,899.2158 215.5938,898.1221 Q216.2031,897.0283 217.25,896.4502 Q218.3125,895.8564 219.5,895.8564 Q220.2188,895.8564 220.8438,896.1064 Q221.4688,896.3564 222,896.8564 Z " fill="#000000"/><text fill="#000000" font-family="sans-serif" font-size="14" lengthAdjust="spacing" textLength="83" x="234" y="906.085">Administrator</text><line style="stroke:#181818;stroke-width:0.5;" x1="206" x2="319" y1="916.3564" y2="916.3564"/></g><!--MD5=[03960189e81aa2c066c762ffabbee709]
class Receptionist--><g id="elem_Receptionist"><rect codeLine="47" fill="#F1F1F1" height="40" id="Receptionist" rx="2.5" ry="2.5" style="stroke:#181818;stroke-width:0.5;" width="110" x="1522" y="556.3564"/><ellipse cx="1537" cy="572.3564" fill="#ADD1B2" rx="11" ry="11" style="stroke:#181818;stroke-width:1.0;"/><path d="M1539,568.8564 Q1539.2031,568.3564 1539.4375,568.1064 Q1539.6719,567.8564 1539.9375,567.8564 Q1540.4063,567.8564 1540.7031,568.1377 Q1541,568.4189 1541,569.0752 L1541,570.6377 Q1541,571.2939 1540.7188,571.5752 Q1540.4375,571.8564 1540,571.8564 Q1539.6094,571.8564 1539.3594,571.6846 Q1539.1094,571.5127 1539,571.0596 Q1538.9531,570.7471 1538.7813,570.5752 Q1538.4688,570.2471 1537.9063,570.0596 Q1537.3438,569.8564 1536.7813,569.8564 Q1536.0781,569.8564 1535.4844,570.1377 Q1534.9063,570.4189 1534.4531,571.0439 Q1534,571.6689 1534,572.5283 L1534,573.4502 Q1534,574.4814 1534.8438,575.1689 Q1535.6875,575.8564 1537.1875,575.8564 Q1538.0781,575.8564 1538.7031,575.6533 Q1539.0625,575.5439 1539.4688,575.1846 Q1539.7344,574.9814 1539.875,574.9189 Q1540.0156,574.8564 1540.1875,574.8564 Q1540.5156,574.8564 1540.75,575.1221 Q1541,575.3721 1541,575.7314 Q1541,576.0752 1540.6563,576.4814 Q1540.1563,577.0752 1539.3594,577.4033 Q1538.3125,577.8564 1537.0313,577.8564 Q1535.5313,577.8564 1534.3281,577.2627 Q1533.3594,576.7939 1532.6719,575.7783 Q1532,574.7627 1532,573.5596 L1532,572.4658 Q1532,571.2158 1532.5938,570.1221 Q1533.2031,569.0283 1534.25,568.4502 Q1535.3125,567.8564 1536.5,567.8564 Q1537.2188,567.8564 1537.8438,568.1064 Q1538.4688,568.3564 1539,568.8564 Z " fill="#000000"/><text fill="#000000" font-family="sans-serif" font-size="14" lengthAdjust="spacing" textLength="78" x="1551" y="578.085">Receptionist</text><line style="stroke:#181818;stroke-width:0.5;" x1="1523" x2="1631" y1="588.3564" y2="588.3564"/></g><!--MD5=[a059576e163b46f56762f12600c49258]
class Nurse--><g id="elem_Nurse"><rect codeLine="50" fill="#F1F1F1" height="40" id="Nurse" rx="2.5" ry="2.5" style="stroke:#181818;stroke-width:0.5;" width="69" x="228" y="652.3564"/><ellipse cx="243" cy="668.3564" fill="#ADD1B2" rx="11" ry="11" style="stroke:#181818;stroke-width:1.0;"/><path d="M245,664.8564 Q245.2031,664.3564 245.4375,664.1064 Q245.6719,663.8564 245.9375,663.8564 Q246.4063,663.8564 246.7031,664.1377 Q247,664.4189 247,665.0752 L247,666.6377 Q247,667.2939 246.7188,667.5752 Q246.4375,667.8564 246,667.8564 Q245.6094,667.8564 245.3594,667.6846 Q245.1094,667.5127 245,667.0596 Q244.9531,666.7471 244.7813,666.5752 Q244.4688,666.2471 243.9063,666.0596 Q243.3438,665.8564 242.7813,665.8564 Q242.0781,665.8564 241.4844,666.1377 Q240.9063,666.4189 240.4531,667.0439 Q240,667.6689 240,668.5283 L240,669.4502 Q240,670.4814 240.8438,671.1689 Q241.6875,671.8564 243.1875,671.8564 Q244.0781,671.8564 244.7031,671.6533 Q245.0625,671.5439 245.4688,671.1846 Q245.7344,670.9814 245.875,670.9189 Q246.0156,670.8564 246.1875,670.8564 Q246.5156,670.8564 246.75,671.1221 Q247,671.3721 247,671.7314 Q247,672.0752 246.6563,672.4814 Q246.1563,673.0752 245.3594,673.4033 Q244.3125,673.8564 243.0313,673.8564 Q241.5313,673.8564 240.3281,673.2627 Q239.3594,672.7939 238.6719,671.7783 Q238,670.7627 238,669.5596 L238,668.4658 Q238,667.2158 238.5938,666.1221 Q239.2031,665.0283 240.25,664.4502 Q241.3125,663.8564 242.5,663.8564 Q243.2188,663.8564 243.8438,664.1064 Q244.4688,664.3564 245,664.8564 Z " fill="#000000"/><text fill="#000000" font-family="sans-serif" font-size="14" lengthAdjust="spacing" textLength="37" x="257" y="674.085">Nurse</text><line style="stroke:#181818;stroke-width:0.5;" x1="229" x2="296" y1="684.3564" y2="684.3564"/></g><!--MD5=[f082b347be438956eae752ed2dcedd8d]
class VaccinationCertificate--><g id="elem_VaccinationCertificate"><rect codeLine="53" fill="#F1F1F1" height="40" id="VaccinationCertificate" rx="2.5" ry="2.5" style="stroke:#181818;stroke-width:0.5;" width="169" x="774" y="402.3564"/><ellipse cx="789" cy="418.3564" fill="#ADD1B2" rx="11" ry="11" style="stroke:#181818;stroke-width:1.0;"/><path d="M791,414.8564 Q791.2031,414.3564 791.4375,414.1064 Q791.6719,413.8564 791.9375,413.8564 Q792.4063,413.8564 792.7031,414.1377 Q793,414.4189 793,415.0752 L793,416.6377 Q793,417.2939 792.7188,417.5752 Q792.4375,417.8564 792,417.8564 Q791.6094,417.8564 791.3594,417.6846 Q791.1094,417.5127 791,417.0596 Q790.9531,416.7471 790.7813,416.5752 Q790.4688,416.2471 789.9063,416.0596 Q789.3438,415.8564 788.7813,415.8564 Q788.0781,415.8564 787.4844,416.1377 Q786.9063,416.4189 786.4531,417.0439 Q786,417.6689 786,418.5283 L786,419.4502 Q786,420.4814 786.8438,421.1689 Q787.6875,421.8564 789.1875,421.8564 Q790.0781,421.8564 790.7031,421.6533 Q791.0625,421.5439 791.4688,421.1846 Q791.7344,420.9814 791.875,420.9189 Q792.0156,420.8564 792.1875,420.8564 Q792.5156,420.8564 792.75,421.1221 Q793,421.3721 793,421.7314 Q793,422.0752 792.6563,422.4814 Q792.1563,423.0752 791.3594,423.4033 Q790.3125,423.8564 789.0313,423.8564 Q787.5313,423.8564 786.3281,423.2627 Q785.3594,422.7939 784.6719,421.7783 Q784,420.7627 784,419.5596 L784,418.4658 Q784,417.2158 784.5938,416.1221 Q785.2031,415.0283 786.25,414.4502 Q787.3125,413.8564 788.5,413.8564 Q789.2188,413.8564 789.8438,414.1064 Q790.4688,414.3564 791,414.8564 Z " fill="#000000"/><text fill="#000000" font-family="sans-serif" font-size="14" lengthAdjust="spacing" textLength="137" x="803" y="424.085">VaccinationCertificate</text><line style="stroke:#181818;stroke-width:0.5;" x1="775" x2="942" y1="434.3564" y2="434.3564"/></g><!--MD5=[b2c24ec9159ea4e2d3ba0ba902be6e34]
class EntryRecord--><g id="elem_EntryRecord"><rect codeLine="56" fill="#F1F1F1" height="40" id="EntryRecord" rx="2.5" ry="2.5" style="stroke:#181818;stroke-width:0.5;" width="111" x="1812.5" y="457.3564"/><ellipse cx="1827.5" cy="473.3564" fill="#ADD1B2" rx="11" ry="11" style="stroke:#181818;stroke-width:1.0;"/><path d="M1829.5,469.8564 Q1829.7031,469.3564 1829.9375,469.1064 Q1830.1719,468.8564 1830.4375,468.8564 Q1830.9063,468.8564 1831.2031,469.1377 Q1831.5,469.4189 1831.5,470.0752 L1831.5,471.6377 Q1831.5,472.2939 1831.2188,472.5752 Q1830.9375,472.8564 1830.5,472.8564 Q1830.1094,472.8564 1829.8594,472.6846 Q1829.6094,472.5127 1829.5,472.0596 Q1829.4531,471.7471 1829.2813,471.5752 Q1828.9688,471.2471 1828.4063,471.0596 Q1827.8438,470.8564 1827.2813,470.8564 Q1826.5781,470.8564 1825.9844,471.1377 Q1825.4063,471.4189 1824.9531,472.0439 Q1824.5,472.6689 1824.5,473.5283 L1824.5,474.4502 Q1824.5,475.4814 1825.3438,476.1689 Q1826.1875,476.8564 1827.6875,476.8564 Q1828.5781,476.8564 1829.2031,476.6533 Q1829.5625,476.5439 1829.9688,476.1846 Q1830.2344,475.9814 1830.375,475.9189 Q1830.5156,475.8564 1830.6875,475.8564 Q1831.0156,475.8564 1831.25,476.1221 Q1831.5,476.3721 1831.5,476.7314 Q1831.5,477.0752 1831.1563,477.4814 Q1830.6563,478.0752 1829.8594,478.4033 Q1828.8125,478.8564 1827.5313,478.8564 Q1826.0313,478.8564 1824.8281,478.2627 Q1823.8594,477.7939 1823.1719,476.7783 Q1822.5,475.7627 1822.5,474.5596 L1822.5,473.4658 Q1822.5,472.2158 1823.0938,471.1221 Q1823.7031,470.0283 1824.75,469.4502 Q1825.8125,468.8564 1827,468.8564 Q1827.7188,468.8564 1828.3438,469.1064 Q1828.9688,469.3564 1829.5,469.8564 Z " fill="#000000"/><text fill="#000000" font-family="sans-serif" font-size="14" lengthAdjust="spacing" textLength="79" x="1841.5" y="479.085">EntryRecord</text><line style="stroke:#181818;stroke-width:0.5;" x1="1813.5" x2="1922.5" y1="489.3564" y2="489.3564"/></g><!--MD5=[398751f7e656f95dd79c8ac62d74ce9a]
class VaccineAdverseReaction--><g id="elem_VaccineAdverseReaction"><rect codeLine="58" fill="#F1F1F1" height="40" id="VaccineAdverseReaction" rx="2.5" ry="2.5" style="stroke:#181818;stroke-width:0.5;" width="190" x="1139.5" y="697.3564"/><ellipse cx="1154.5" cy="713.3564" fill="#ADD1B2" rx="11" ry="11" style="stroke:#181818;stroke-width:1.0;"/><path d="M1156.5,709.8564 Q1156.7031,709.3564 1156.9375,709.1064 Q1157.1719,708.8564 1157.4375,708.8564 Q1157.9063,708.8564 1158.2031,709.1377 Q1158.5,709.4189 1158.5,710.0752 L1158.5,711.6377 Q1158.5,712.2939 1158.2188,712.5752 Q1157.9375,712.8564 1157.5,712.8564 Q1157.1094,712.8564 1156.8594,712.6846 Q1156.6094,712.5127 1156.5,712.0596 Q1156.4531,711.7471 1156.2813,711.5752 Q1155.9688,711.2471 1155.4063,711.0596 Q1154.8438,710.8564 1154.2813,710.8564 Q1153.5781,710.8564 1152.9844,711.1377 Q1152.4063,711.4189 1151.9531,712.0439 Q1151.5,712.6689 1151.5,713.5283 L1151.5,714.4502 Q1151.5,715.4814 1152.3438,716.1689 Q1153.1875,716.8564 1154.6875,716.8564 Q1155.5781,716.8564 1156.2031,716.6533 Q1156.5625,716.5439 1156.9688,716.1846 Q1157.2344,715.9814 1157.375,715.9189 Q1157.5156,715.8564 1157.6875,715.8564 Q1158.0156,715.8564 1158.25,716.1221 Q1158.5,716.3721 1158.5,716.7314 Q1158.5,717.0752 1158.1563,717.4814 Q1157.6563,718.0752 1156.8594,718.4033 Q1155.8125,718.8564 1154.5313,718.8564 Q1153.0313,718.8564 1151.8281,718.2627 Q1150.8594,717.7939 1150.1719,716.7783 Q1149.5,715.7627 1149.5,714.5596 L1149.5,713.4658 Q1149.5,712.2158 1150.0938,711.1221 Q1150.7031,710.0283 1151.75,709.4502 Q1152.8125,708.8564 1154,708.8564 Q1154.7188,708.8564 1155.3438,709.1064 Q1155.9688,709.3564 1156.5,709.8564 Z " fill="#000000"/><text fill="#000000" font-family="sans-serif" font-size="14" lengthAdjust="spacing" textLength="158" x="1168.5" y="719.085">VaccineAdverseReaction</text><line style="stroke:#181818;stroke-width:0.5;" x1="1140.5" x2="1328.5" y1="729.3564" y2="729.3564"/></g><!--MD5=[f24502e7c9b1056c4d1f73c3d80dda4c]
class RecoveryRoom--><g id="elem_RecoveryRoom"><rect codeLine="61" fill="#F1F1F1" height="57.6094" id="RecoveryRoom" rx="2.5" ry="2.5" style="stroke:#181818;stroke-width:0.5;" width="129" x="198" y="486.3564"/><ellipse cx="213" cy="502.3564" fill="#ADD1B2" rx="11" ry="11" style="stroke:#181818;stroke-width:1.0;"/><path d="M215,498.8564 Q215.2031,498.3564 215.4375,498.1064 Q215.6719,497.8564 215.9375,497.8564 Q216.4063,497.8564 216.7031,498.1377 Q217,498.4189 217,499.0752 L217,500.6377 Q217,501.2939 216.7188,501.5752 Q216.4375,501.8564 216,501.8564 Q215.6094,501.8564 215.3594,501.6846 Q215.1094,501.5127 215,501.0596 Q214.9531,500.7471 214.7813,500.5752 Q214.4688,500.2471 213.9063,500.0596 Q213.3438,499.8564 212.7813,499.8564 Q212.0781,499.8564 211.4844,500.1377 Q210.9063,500.4189 210.4531,501.0439 Q210,501.6689 210,502.5283 L210,503.4502 Q210,504.4814 210.8438,505.1689 Q211.6875,505.8564 213.1875,505.8564 Q214.0781,505.8564 214.7031,505.6533 Q215.0625,505.5439 215.4688,505.1846 Q215.7344,504.9814 215.875,504.9189 Q216.0156,504.8564 216.1875,504.8564 Q216.5156,504.8564 216.75,505.1221 Q217,505.3721 217,505.7314 Q217,506.0752 216.6563,506.4814 Q216.1563,507.0752 215.3594,507.4033 Q214.3125,507.8564 213.0313,507.8564 Q211.5313,507.8564 210.3281,507.2627 Q209.3594,506.7939 208.6719,505.7783 Q208,504.7627 208,503.5596 L208,502.4658 Q208,501.2158 208.5938,500.1221 Q209.2031,499.0283 210.25,498.4502 Q211.3125,497.8564 212.5,497.8564 Q213.2188,497.8564 213.8438,498.1064 Q214.4688,498.3564 215,498.8564 Z " fill="#000000"/><text fill="#000000" font-family="sans-serif" font-size="14" lengthAdjust="spacing" textLength="97" x="227" y="508.085">RecoveryRoom</text><line style="stroke:#181818;stroke-width:0.5;" x1="199" x2="326" y1="518.3564" y2="518.3564"/><text fill="#000000" font-family="sans-serif" font-size="14" lengthAdjust="spacing" textLength="86" x="218" y="536.8896">recoveryTime</text></g><!--MD5=[107cfa23aa516ff83d0cf17a6f9fe7ba]
class VaccineAdministration--><g id="elem_VaccineAdministration"><rect codeLine="65" fill="#F1F1F1" height="57.6094" id="VaccineAdministration" rx="2.5" ry="2.5" style="stroke:#181818;stroke-width:0.5;" width="171" x="773" y="707.3564"/><ellipse cx="788" cy="723.3564" fill="#ADD1B2" rx="11" ry="11" style="stroke:#181818;stroke-width:1.0;"/><path d="M790,719.8564 Q790.2031,719.3564 790.4375,719.1064 Q790.6719,718.8564 790.9375,718.8564 Q791.4063,718.8564 791.7031,719.1377 Q792,719.4189 792,720.0752 L792,721.6377 Q792,722.2939 791.7188,722.5752 Q791.4375,722.8564 791,722.8564 Q790.6094,722.8564 790.3594,722.6846 Q790.1094,722.5127 790,722.0596 Q789.9531,721.7471 789.7813,721.5752 Q789.4688,721.2471 788.9063,721.0596 Q788.3438,720.8564 787.7813,720.8564 Q787.0781,720.8564 786.4844,721.1377 Q785.9063,721.4189 785.4531,722.0439 Q785,722.6689 785,723.5283 L785,724.4502 Q785,725.4814 785.8438,726.1689 Q786.6875,726.8564 788.1875,726.8564 Q789.0781,726.8564 789.7031,726.6533 Q790.0625,726.5439 790.4688,726.1846 Q790.7344,725.9814 790.875,725.9189 Q791.0156,725.8564 791.1875,725.8564 Q791.5156,725.8564 791.75,726.1221 Q792,726.3721 792,726.7314 Q792,727.0752 791.6563,727.4814 Q791.1563,728.0752 790.3594,728.4033 Q789.3125,728.8564 788.0313,728.8564 Q786.5313,728.8564 785.3281,728.2627 Q784.3594,727.7939 783.6719,726.7783 Q783,725.7627 783,724.5596 L783,723.4658 Q783,722.2158 783.5938,721.1221 Q784.2031,720.0283 785.25,719.4502 Q786.3125,718.8564 787.5,718.8564 Q788.2188,718.8564 788.8438,719.1064 Q789.4688,719.3564 790,719.8564 Z " fill="#000000"/><text fill="#000000" font-family="sans-serif" font-size="14" lengthAdjust="spacing" textLength="139" x="802" y="729.085">VaccineAdministration</text><line style="stroke:#181818;stroke-width:0.5;" x1="774" x2="943" y1="739.3564" y2="739.3564"/><text fill="#000000" font-family="sans-serif" font-size="14" lengthAdjust="spacing" textLength="80" x="793" y="757.8896">codeNumber</text></g><!--MD5=[cd4ce1c0d44638ff9f42448de30e6b92]
class VaccineSchedule--><g id="elem_VaccineSchedule"><rect codeLine="69" fill="#F1F1F1" height="57.6094" id="VaccineSchedule" rx="2.5" ry="2.5" style="stroke:#181818;stroke-width:0.5;" width="141" x="1164" y="604.3564"/><ellipse cx="1179" cy="620.3564" fill="#ADD1B2" rx="11" ry="11" style="stroke:#181818;stroke-width:1.0;"/><path d="M1181,616.8564 Q1181.2031,616.3564 1181.4375,616.1064 Q1181.6719,615.8564 1181.9375,615.8564 Q1182.4063,615.8564 1182.7031,616.1377 Q1183,616.4189 1183,617.0752 L1183,618.6377 Q1183,619.2939 1182.7188,619.5752 Q1182.4375,619.8564 1182,619.8564 Q1181.6094,619.8564 1181.3594,619.6846 Q1181.1094,619.5127 1181,619.0596 Q1180.9531,618.7471 1180.7813,618.5752 Q1180.4688,618.2471 1179.9063,618.0596 Q1179.3438,617.8564 1178.7813,617.8564 Q1178.0781,617.8564 1177.4844,618.1377 Q1176.9063,618.4189 1176.4531,619.0439 Q1176,619.6689 1176,620.5283 L1176,621.4502 Q1176,622.4814 1176.8438,623.1689 Q1177.6875,623.8564 1179.1875,623.8564 Q1180.0781,623.8564 1180.7031,623.6533 Q1181.0625,623.5439 1181.4688,623.1846 Q1181.7344,622.9814 1181.875,622.9189 Q1182.0156,622.8564 1182.1875,622.8564 Q1182.5156,622.8564 1182.75,623.1221 Q1183,623.3721 1183,623.7314 Q1183,624.0752 1182.6563,624.4814 Q1182.1563,625.0752 1181.3594,625.4033 Q1180.3125,625.8564 1179.0313,625.8564 Q1177.5313,625.8564 1176.3281,625.2627 Q1175.3594,624.7939 1174.6719,623.7783 Q1174,622.7627 1174,621.5596 L1174,620.4658 Q1174,619.2158 1174.5938,618.1221 Q1175.2031,617.0283 1176.25,616.4502 Q1177.3125,615.8564 1178.5,615.8564 Q1179.2188,615.8564 1179.8438,616.1064 Q1180.4688,616.3564 1181,616.8564 Z " fill="#000000"/><text fill="#000000" font-family="sans-serif" font-size="14" lengthAdjust="spacing" textLength="109" x="1193" y="626.085">VaccineSchedule</text><line style="stroke:#181818;stroke-width:0.5;" x1="1165" x2="1304" y1="636.3564" y2="636.3564"/><text fill="#000000" font-family="sans-serif" font-size="14" lengthAdjust="spacing" textLength="59" x="1184" y="654.8896">dateTime</text></g><!--MD5=[72be06cc7ae02ccc98efe28a50e62246]
class SNSUser--><g id="elem_SNSUser"><rect codeLine="73" fill="#F1F1F1" height="128.0469" id="SNSUser" rx="2.5" ry="2.5" style="stroke:#181818;stroke-width:0.5;" width="115" x="476" y="492.3564"/><ellipse cx="503.15" cy="508.3564" fill="#ADD1B2" rx="11" ry="11" style="stroke:#181818;stroke-width:1.0;"/><path d="M505.15,504.8564 Q505.3531,504.3564 505.5875,504.1064 Q505.8219,503.8564 506.0875,503.8564 Q506.5563,503.8564 506.8531,504.1377 Q507.15,504.4189 507.15,505.0752 L507.15,506.6377 Q507.15,507.2939 506.8688,507.5752 Q506.5875,507.8564 506.15,507.8564 Q505.7594,507.8564 505.5094,507.6846 Q505.2594,507.5127 505.15,507.0596 Q505.1031,506.7471 504.9313,506.5752 Q504.6188,506.2471 504.0563,506.0596 Q503.4938,505.8564 502.9313,505.8564 Q502.2281,505.8564 501.6344,506.1377 Q501.0563,506.4189 500.6031,507.0439 Q500.15,507.6689 500.15,508.5283 L500.15,509.4502 Q500.15,510.4814 500.9938,511.1689 Q501.8375,511.8564 503.3375,511.8564 Q504.2281,511.8564 504.8531,511.6533 Q505.2125,511.5439 505.6188,511.1846 Q505.8844,510.9814 506.025,510.9189 Q506.1656,510.8564 506.3375,510.8564 Q506.6656,510.8564 506.9,511.1221 Q507.15,511.3721 507.15,511.7314 Q507.15,512.0752 506.8063,512.4814 Q506.3063,513.0752 505.5094,513.4033 Q504.4625,513.8564 503.1813,513.8564 Q501.6813,513.8564 500.4781,513.2627 Q499.5094,512.7939 498.8219,511.7783 Q498.15,510.7627 498.15,509.5596 L498.15,508.4658 Q498.15,507.2158 498.7438,506.1221 Q499.3531,505.0283 500.4,504.4502 Q501.4625,503.8564 502.65,503.8564 Q503.3688,503.8564 503.9938,504.1064 Q504.6188,504.3564 505.15,504.8564 Z " fill="#000000"/><text fill="#000000" font-family="sans-serif" font-size="14" lengthAdjust="spacing" textLength="56" x="519.85" y="514.085">SNSUser</text><line style="stroke:#181818;stroke-width:0.5;" x1="477" x2="590" y1="524.3564" y2="524.3564"/><text fill="#000000" font-family="sans-serif" font-size="14" lengthAdjust="spacing" textLength="35" x="496" y="542.8896">name</text><text fill="#000000" font-family="sans-serif" font-size="14" lengthAdjust="spacing" textLength="76" x="496" y="560.499">SNSNumber</text><text fill="#000000" font-family="sans-serif" font-size="14" lengthAdjust="spacing" textLength="33" x="496" y="578.1084">email</text><text fill="#000000" font-family="sans-serif" font-size="14" lengthAdjust="spacing" textLength="89" x="496" y="595.7178">phoneNumber</text><text fill="#000000" font-family="sans-serif" font-size="14" lengthAdjust="spacing" textLength="58" x="496" y="613.3271">birthDate</text></g><!--MD5=[de60e6d4f424ae4d0522096f76a59010]
class VaccinationCenter--><g id="elem_VaccinationCenter"><rect codeLine="81" fill="#F1F1F1" height="216.0938" id="VaccinationCenter" rx="2.5" ry="2.5" style="stroke:#181818;stroke-width:0.5;" width="148" x="1794" y="755.3564"/><ellipse cx="1809" cy="771.3564" fill="#ADD1B2" rx="11" ry="11" style="stroke:#181818;stroke-width:1.0;"/><path d="M1811,767.8564 Q1811.2031,767.3564 1811.4375,767.1064 Q1811.6719,766.8564 1811.9375,766.8564 Q1812.4063,766.8564 1812.7031,767.1377 Q1813,767.4189 1813,768.0752 L1813,769.6377 Q1813,770.2939 1812.7188,770.5752 Q1812.4375,770.8564 1812,770.8564 Q1811.6094,770.8564 1811.3594,770.6846 Q1811.1094,770.5127 1811,770.0596 Q1810.9531,769.7471 1810.7813,769.5752 Q1810.4688,769.2471 1809.9063,769.0596 Q1809.3438,768.8564 1808.7813,768.8564 Q1808.0781,768.8564 1807.4844,769.1377 Q1806.9063,769.4189 1806.4531,770.0439 Q1806,770.6689 1806,771.5283 L1806,772.4502 Q1806,773.4814 1806.8438,774.1689 Q1807.6875,774.8564 1809.1875,774.8564 Q1810.0781,774.8564 1810.7031,774.6533 Q1811.0625,774.5439 1811.4688,774.1846 Q1811.7344,773.9814 1811.875,773.9189 Q1812.0156,773.8564 1812.1875,773.8564 Q1812.5156,773.8564 1812.75,774.1221 Q1813,774.3721 1813,774.7314 Q1813,775.0752 1812.6563,775.4814 Q1812.1563,776.0752 1811.3594,776.4033 Q1810.3125,776.8564 1809.0313,776.8564 Q1807.5313,776.8564 1806.3281,776.2627 Q1805.3594,775.7939 1804.6719,774.7783 Q1804,773.7627 1804,772.5596 L1804,771.4658 Q1804,770.2158 1804.5938,769.1221 Q1805.2031,768.0283 1806.25,767.4502 Q1807.3125,766.8564 1808.5,766.8564 Q1809.2188,766.8564 1809.8438,767.1064 Q1810.4688,767.3564 1811,767.8564 Z " fill="#000000"/><text fill="#000000" font-family="sans-serif" font-size="14" lengthAdjust="spacing" textLength="116" x="1823" y="777.085">VaccinationCenter</text><line style="stroke:#181818;stroke-width:0.5;" x1="1795" x2="1941" y1="787.3564" y2="787.3564"/><text fill="#000000" font-family="sans-serif" font-size="14" lengthAdjust="spacing" textLength="35" x="1814" y="805.8896">name</text><text fill="#000000" font-family="sans-serif" font-size="14" lengthAdjust="spacing" textLength="89" x="1814" y="823.499">phoneNumber</text><text fill="#000000" font-family="sans-serif" font-size="14" lengthAdjust="spacing" textLength="33" x="1814" y="841.1084">email</text><text fill="#000000" font-family="sans-serif" font-size="14" lengthAdjust="spacing" textLength="67" x="1814" y="858.7178">faxNumber</text><text fill="#000000" font-family="sans-serif" font-size="14" lengthAdjust="spacing" textLength="99" x="1814" y="876.3271">websiteAddress</text><text fill="#000000" font-family="sans-serif" font-size="14" lengthAdjust="spacing" textLength="62" x="1814" y="893.9365">openHour</text><text fill="#000000" font-family="sans-serif" font-size="14" lengthAdjust="spacing" textLength="63" x="1814" y="911.5459">closeHour</text><text fill="#000000" font-family="sans-serif" font-size="14" lengthAdjust="spacing" textLength="76" x="1814" y="929.1553">slotDuration</text><text fill="#000000" font-family="sans-serif" font-size="14" lengthAdjust="spacing" textLength="73" x="1814" y="946.7646">fullCapacity</text><text fill="#000000" font-family="sans-serif" font-size="14" lengthAdjust="spacing" textLength="121" x="1814" y="964.374">maxVaccinePerSlot</text></g><!--MD5=[ad32b904b2f122cc39e054e9c13e36ab]
class TypeOfVaccine--><g id="elem_TypeOfVaccine"><rect codeLine="93" fill="#F1F1F1" height="75.2188" id="TypeOfVaccine" rx="2.5" ry="2.5" style="stroke:#181818;stroke-width:0.5;" width="129" x="1512.5" y="1230.8564"/><ellipse cx="1527.5" cy="1246.8564" fill="#ADD1B2" rx="11" ry="11" style="stroke:#181818;stroke-width:1.0;"/><path d="M1529.5,1243.3564 Q1529.7031,1242.8564 1529.9375,1242.6064 Q1530.1719,1242.3564 1530.4375,1242.3564 Q1530.9063,1242.3564 1531.2031,1242.6377 Q1531.5,1242.9189 1531.5,1243.5752 L1531.5,1245.1377 Q1531.5,1245.7939 1531.2188,1246.0752 Q1530.9375,1246.3564 1530.5,1246.3564 Q1530.1094,1246.3564 1529.8594,1246.1846 Q1529.6094,1246.0127 1529.5,1245.5596 Q1529.4531,1245.2471 1529.2813,1245.0752 Q1528.9688,1244.7471 1528.4063,1244.5596 Q1527.8438,1244.3564 1527.2813,1244.3564 Q1526.5781,1244.3564 1525.9844,1244.6377 Q1525.4063,1244.9189 1524.9531,1245.5439 Q1524.5,1246.1689 1524.5,1247.0283 L1524.5,1247.9502 Q1524.5,1248.9814 1525.3438,1249.6689 Q1526.1875,1250.3564 1527.6875,1250.3564 Q1528.5781,1250.3564 1529.2031,1250.1533 Q1529.5625,1250.0439 1529.9688,1249.6846 Q1530.2344,1249.4814 1530.375,1249.4189 Q1530.5156,1249.3564 1530.6875,1249.3564 Q1531.0156,1249.3564 1531.25,1249.6221 Q1531.5,1249.8721 1531.5,1250.2314 Q1531.5,1250.5752 1531.1563,1250.9814 Q1530.6563,1251.5752 1529.8594,1251.9033 Q1528.8125,1252.3564 1527.5313,1252.3564 Q1526.0313,1252.3564 1524.8281,1251.7627 Q1523.8594,1251.2939 1523.1719,1250.2783 Q1522.5,1249.2627 1522.5,1248.0596 L1522.5,1246.9658 Q1522.5,1245.7158 1523.0938,1244.6221 Q1523.7031,1243.5283 1524.75,1242.9502 Q1525.8125,1242.3564 1527,1242.3564 Q1527.7188,1242.3564 1528.3438,1242.6064 Q1528.9688,1242.8564 1529.5,1243.3564 Z " fill="#000000"/><text fill="#000000" font-family="sans-serif" font-size="14" lengthAdjust="spacing" textLength="97" x="1541.5" y="1252.585">TypeOfVaccine</text><line style="stroke:#181818;stroke-width:0.5;" x1="1513.5" x2="1640.5" y1="1262.8564" y2="1262.8564"/><text fill="#000000" font-family="sans-serif" font-size="14" lengthAdjust="spacing" textLength="31" x="1532.5" y="1281.3896">code</text><text fill="#000000" font-family="sans-serif" font-size="14" lengthAdjust="spacing" textLength="73" x="1532.5" y="1298.999">designation</text></g><!--MD5=[bde476362be781128b100750047ae6b5]
class GroupAge--><g id="elem_GroupAge"><rect codeLine="98" fill="#F1F1F1" height="40" id="GroupAge" rx="2.5" ry="2.5" style="stroke:#181818;stroke-width:0.5;" width="97" x="2060" y="1035.3564"/><ellipse cx="2075" cy="1051.3564" fill="#ADD1B2" rx="11" ry="11" style="stroke:#181818;stroke-width:1.0;"/><path d="M2077,1047.8564 Q2077.2031,1047.3564 2077.4375,1047.1064 Q2077.6719,1046.8564 2077.9375,1046.8564 Q2078.4063,1046.8564 2078.7031,1047.1377 Q2079,1047.4189 2079,1048.0752 L2079,1049.6377 Q2079,1050.2939 2078.7188,1050.5752 Q2078.4375,1050.8564 2078,1050.8564 Q2077.6094,1050.8564 2077.3594,1050.6846 Q2077.1094,1050.5127 2077,1050.0596 Q2076.9531,1049.7471 2076.7813,1049.5752 Q2076.4688,1049.2471 2075.9063,1049.0596 Q2075.3438,1048.8564 2074.7813,1048.8564 Q2074.0781,1048.8564 2073.4844,1049.1377 Q2072.9063,1049.4189 2072.4531,1050.0439 Q2072,1050.6689 2072,1051.5283 L2072,1052.4502 Q2072,1053.4814 2072.8438,1054.1689 Q2073.6875,1054.8564 2075.1875,1054.8564 Q2076.0781,1054.8564 2076.7031,1054.6533 Q2077.0625,1054.5439 2077.4688,1054.1846 Q2077.7344,1053.9814 2077.875,1053.9189 Q2078.0156,1053.8564 2078.1875,1053.8564 Q2078.5156,1053.8564 2078.75,1054.1221 Q2079,1054.3721 2079,1054.7314 Q2079,1055.0752 2078.6563,1055.4814 Q2078.1563,1056.0752 2077.3594,1056.4033 Q2076.3125,1056.8564 2075.0313,1056.8564 Q2073.5313,1056.8564 2072.3281,1056.2627 Q2071.3594,1055.7939 2070.6719,1054.7783 Q2070,1053.7627 2070,1052.5596 L2070,1051.4658 Q2070,1050.2158 2070.5938,1049.1221 Q2071.2031,1048.0283 2072.25,1047.4502 Q2073.3125,1046.8564 2074.5,1046.8564 Q2075.2188,1046.8564 2075.8438,1047.1064 Q2076.4688,1047.3564 2077,1047.8564 Z " fill="#000000"/><text fill="#000000" font-family="sans-serif" font-size="14" lengthAdjust="spacing" textLength="65" x="2089" y="1057.085">GroupAge</text><line style="stroke:#181818;stroke-width:0.5;" x1="2061" x2="2156" y1="1067.3564" y2="1067.3564"/></g><!--MD5=[b3411a3750bc281802b6652af7ee7751]
class Dosage--><g id="elem_Dosage"><rect codeLine="101" fill="#F1F1F1" height="40" id="Dosage" rx="2.5" ry="2.5" style="stroke:#181818;stroke-width:0.5;" width="81" x="2068" y="1110.3564"/><ellipse cx="2083" cy="1126.3564" fill="#ADD1B2" rx="11" ry="11" style="stroke:#181818;stroke-width:1.0;"/><path d="M2085,1122.8564 Q2085.2031,1122.3564 2085.4375,1122.1064 Q2085.6719,1121.8564 2085.9375,1121.8564 Q2086.4063,1121.8564 2086.7031,1122.1377 Q2087,1122.4189 2087,1123.0752 L2087,1124.6377 Q2087,1125.2939 2086.7188,1125.5752 Q2086.4375,1125.8564 2086,1125.8564 Q2085.6094,1125.8564 2085.3594,1125.6846 Q2085.1094,1125.5127 2085,1125.0596 Q2084.9531,1124.7471 2084.7813,1124.5752 Q2084.4688,1124.2471 2083.9063,1124.0596 Q2083.3438,1123.8564 2082.7813,1123.8564 Q2082.0781,1123.8564 2081.4844,1124.1377 Q2080.9063,1124.4189 2080.4531,1125.0439 Q2080,1125.6689 2080,1126.5283 L2080,1127.4502 Q2080,1128.4814 2080.8438,1129.1689 Q2081.6875,1129.8564 2083.1875,1129.8564 Q2084.0781,1129.8564 2084.7031,1129.6533 Q2085.0625,1129.5439 2085.4688,1129.1846 Q2085.7344,1128.9814 2085.875,1128.9189 Q2086.0156,1128.8564 2086.1875,1128.8564 Q2086.5156,1128.8564 2086.75,1129.1221 Q2087,1129.3721 2087,1129.7314 Q2087,1130.0752 2086.6563,1130.4814 Q2086.1563,1131.0752 2085.3594,1131.4033 Q2084.3125,1131.8564 2083.0313,1131.8564 Q2081.5313,1131.8564 2080.3281,1131.2627 Q2079.3594,1130.7939 2078.6719,1129.7783 Q2078,1128.7627 2078,1127.5596 L2078,1126.4658 Q2078,1125.2158 2078.5938,1124.1221 Q2079.2031,1123.0283 2080.25,1122.4502 Q2081.3125,1121.8564 2082.5,1121.8564 Q2083.2188,1121.8564 2083.8438,1122.1064 Q2084.4688,1122.3564 2085,1122.8564 Z " fill="#000000"/><text fill="#000000" font-family="sans-serif" font-size="14" lengthAdjust="spacing" textLength="49" x="2097" y="1132.085">Dosage</text><line style="stroke:#181818;stroke-width:0.5;" x1="2069" x2="2148" y1="1142.3564" y2="1142.3564"/></g><!--MD5=[19e445fc4d3b48519cbe33da05496394]
class Vaccine--><g id="elem_Vaccine"><rect codeLine="104" fill="#F1F1F1" height="92.8281" id="Vaccine" rx="2.5" ry="2.5" style="stroke:#181818;stroke-width:0.5;" width="146" x="1795" y="1046.8564"/><ellipse cx="1838.8" cy="1062.8564" fill="#ADD1B2" rx="11" ry="11" style="stroke:#181818;stroke-width:1.0;"/><path d="M1840.8,1059.3564 Q1841.0031,1058.8564 1841.2375,1058.6064 Q1841.4719,1058.3564 1841.7375,1058.3564 Q1842.2063,1058.3564 1842.5031,1058.6377 Q1842.8,1058.9189 1842.8,1059.5752 L1842.8,1061.1377 Q1842.8,1061.7939 1842.5188,1062.0752 Q1842.2375,1062.3564 1841.8,1062.3564 Q1841.4094,1062.3564 1841.1594,1062.1846 Q1840.9094,1062.0127 1840.8,1061.5596 Q1840.7531,1061.2471 1840.5813,1061.0752 Q1840.2688,1060.7471 1839.7063,1060.5596 Q1839.1438,1060.3564 1838.5813,1060.3564 Q1837.8781,1060.3564 1837.2844,1060.6377 Q1836.7063,1060.9189 1836.2531,1061.5439 Q1835.8,1062.1689 1835.8,1063.0283 L1835.8,1063.9502 Q1835.8,1064.9814 1836.6438,1065.6689 Q1837.4875,1066.3564 1838.9875,1066.3564 Q1839.8781,1066.3564 1840.5031,1066.1533 Q1840.8625,1066.0439 1841.2688,1065.6846 Q1841.5344,1065.4814 1841.675,1065.4189 Q1841.8156,1065.3564 1841.9875,1065.3564 Q1842.3156,1065.3564 1842.55,1065.6221 Q1842.8,1065.8721 1842.8,1066.2314 Q1842.8,1066.5752 1842.4563,1066.9814 Q1841.9563,1067.5752 1841.1594,1067.9033 Q1840.1125,1068.3564 1838.8313,1068.3564 Q1837.3313,1068.3564 1836.1281,1067.7627 Q1835.1594,1067.2939 1834.4719,1066.2783 Q1833.8,1065.2627 1833.8,1064.0596 L1833.8,1062.9658 Q1833.8,1061.7158 1834.3938,1060.6221 Q1835.0031,1059.5283 1836.05,1058.9502 Q1837.1125,1058.3564 1838.3,1058.3564 Q1839.0188,1058.3564 1839.6438,1058.6064 Q1840.2688,1058.8564 1840.8,1059.3564 Z " fill="#000000"/><text fill="#000000" font-family="sans-serif" font-size="14" lengthAdjust="spacing" textLength="50" x="1859.2" y="1068.585">Vaccine</text><line style="stroke:#181818;stroke-width:0.5;" x1="1796" x2="1940" y1="1078.8564" y2="1078.8564"/><text fill="#000000" font-family="sans-serif" font-size="14" lengthAdjust="spacing" textLength="73" x="1815" y="1097.3896">nameBrand</text><text fill="#000000" font-family="sans-serif" font-size="14" lengthAdjust="spacing" textLength="120" x="1815" y="1114.999">numberOfVaccines</text><text fill="#000000" font-family="sans-serif" font-size="14" lengthAdjust="spacing" textLength="120" x="1815" y="1132.6084">timeBetweenDoses</text></g><!--MD5=[0f39e4cb6f03951afbf6d14bd2505654]
class Address--><g id="elem_Address"><rect fill="#F1F1F1" height="40" id="Address" rx="2.5" ry="2.5" style="stroke:#181818;stroke-width:0.5;" width="84" x="2066.5" y="843.3564"/><ellipse cx="2081.5" cy="859.3564" fill="#ADD1B2" rx="11" ry="11" style="stroke:#181818;stroke-width:1.0;"/><path d="M2083.5,855.8564 Q2083.7031,855.3564 2083.9375,855.1064 Q2084.1719,854.8564 2084.4375,854.8564 Q2084.9063,854.8564 2085.2031,855.1377 Q2085.5,855.4189 2085.5,856.0752 L2085.5,857.6377 Q2085.5,858.2939 2085.2188,858.5752 Q2084.9375,858.8564 2084.5,858.8564 Q2084.1094,858.8564 2083.8594,858.6846 Q2083.6094,858.5127 2083.5,858.0596 Q2083.4531,857.7471 2083.2813,857.5752 Q2082.9688,857.2471 2082.4063,857.0596 Q2081.8438,856.8564 2081.2813,856.8564 Q2080.5781,856.8564 2079.9844,857.1377 Q2079.4063,857.4189 2078.9531,858.0439 Q2078.5,858.6689 2078.5,859.5283 L2078.5,860.4502 Q2078.5,861.4814 2079.3438,862.1689 Q2080.1875,862.8564 2081.6875,862.8564 Q2082.5781,862.8564 2083.2031,862.6533 Q2083.5625,862.5439 2083.9688,862.1846 Q2084.2344,861.9814 2084.375,861.9189 Q2084.5156,861.8564 2084.6875,861.8564 Q2085.0156,861.8564 2085.25,862.1221 Q2085.5,862.3721 2085.5,862.7314 Q2085.5,863.0752 2085.1563,863.4814 Q2084.6563,864.0752 2083.8594,864.4033 Q2082.8125,864.8564 2081.5313,864.8564 Q2080.0313,864.8564 2078.8281,864.2627 Q2077.8594,863.7939 2077.1719,862.7783 Q2076.5,861.7627 2076.5,860.5596 L2076.5,859.4658 Q2076.5,858.2158 2077.0938,857.1221 Q2077.7031,856.0283 2078.75,855.4502 Q2079.8125,854.8564 2081,854.8564 Q2081.7188,854.8564 2082.3438,855.1064 Q2082.9688,855.3564 2083.5,855.8564 Z " fill="#000000"/><text fill="#000000" font-family="sans-serif" font-size="14" lengthAdjust="spacing" textLength="52" x="2095.5" y="865.085">Address</text><line style="stroke:#181818;stroke-width:0.5;" x1="2067.5" x2="2149.5" y1="875.3564" y2="875.3564"/></g><!--MD5=[dd9ff7caaca0f048844225eaee538a02]
link Vaccine to GroupAge--><g id="link_Vaccine_GroupAge"><path codeLine="110" d="M1941.21,1081.8564 C1979.59,1075.7364 2025.73,1068.3864 2059.66,1062.9764 " fill="none" id="Vaccine-GroupAge" style="stroke:#181818;stroke-width:1.0;"/><polygon fill="#000000" points="1981.9377,1059.7452,1972.5427,1058.2667,1973.4679,1064.0712,1981.9377,1059.7452" style="stroke:#000000;stroke-width:1.0;"/><text fill="#000000" font-family="sans-serif" font-size="13" lengthAdjust="spacing" textLength="42" x="1986" y="1065.8516">checks</text><text fill="#000000" font-family="sans-serif" font-size="13" lengthAdjust="spacing" textLength="7" x="1949.1207" y="1095.0176">1</text><text fill="#000000" font-family="sans-serif" font-size="13" lengthAdjust="spacing" textLength="5" x="2047.1194" y="1078.7916">*</text></g><!--MD5=[0026e2caddc4ad7d2f890d63204af1d5]
link Vaccine to Dosage--><g id="link_Vaccine_Dosage"><path codeLine="111" d="M1941.11,1110.5764 C1951.44,1112.7164 1961.96,1114.7264 1972,1116.3564 C2004.1,1121.5764 2040.8,1125.2264 2067.91,1127.4964 " fill="none" id="Vaccine-Dosage" style="stroke:#181818;stroke-width:1.0;"/><polygon fill="#000000" points="1981.9561,1108.1936,1973.3792,1104.0841,1972.6017,1109.9103,1981.9561,1108.1936" style="stroke:#000000;stroke-width:1.0;"/><text fill="#000000" font-family="sans-serif" font-size="13" lengthAdjust="spacing" textLength="42" x="1986" y="1112.8516">checks</text><text fill="#000000" font-family="sans-serif" font-size="13" lengthAdjust="spacing" textLength="7" x="1949.0104" y="1126.6994">1</text><text fill="#000000" font-family="sans-serif" font-size="13" lengthAdjust="spacing" textLength="5" x="2054.9653" y="1141.9717">*</text></g><!--MD5=[233a09a91aa8c3856d31bdcfa7c5bcf8]
link VaccinationCenter to Address--><g id="link_VaccinationCenter_Address"><path codeLine="113" d="M1942.18,863.3564 C1982.98,863.3564 2032.29,863.3564 2066.38,863.3564 " fill="none" id="VaccinationCenter-Address" style="stroke:#181818;stroke-width:1.0;"/><polygon fill="#000000" points="1992.5,854.5322,1983.4549,851.5933,1983.4549,857.4712,1992.5,854.5322" style="stroke:#000000;stroke-width:1.0;"/><text fill="#000000" font-family="sans-serif" font-size="13" lengthAdjust="spacing" textLength="21" x="1996.5" y="859.8516">has</text></g><!--MD5=[3ea266e1f1a083dbb2328bdfa2f9d45f]
link CenterCoordinator to UserRole--><g id="link_CenterCoordinator_UserRole"><path codeLine="115" d="M1652.15,664.6064 C1743.61,654.1164 1893,633.6364 1942,607.3564 C2043.22,553.0664 2083.78,413.1864 2099.04,333.7264 " fill="none" id="CenterCoordinator-to-UserRole" style="stroke:#181818;stroke-width:1.0;"/><polygon fill="none" points="2092.16,332.4464,2102.55,313.9764,2105.94,334.8964,2092.16,332.4464" style="stroke:#181818;stroke-width:1.0;"/><text fill="#000000" font-family="sans-serif" font-size="13" lengthAdjust="spacing" textLength="21" x="1857.5" y="603.8516">is a</text></g><!--MD5=[eaea43e34e45c5b9d20b595fc78f1f20]
link Company to Administrator--><g id="link_Company_Administrator"><path codeLine="116" d="M67.34,327.5864 C102.96,433.3864 224.64,794.8464 254.73,884.2364 " fill="none" id="Company-Administrator" style="stroke:#181818;stroke-width:1.0;"/><text fill="#000000" font-family="sans-serif" font-size="13" lengthAdjust="spacing" textLength="30" x="137" y="543.8516">owns</text><text fill="#000000" font-family="sans-serif" font-size="13" lengthAdjust="spacing" textLength="7" x="61.7851" y="348.4843">1</text><text fill="#000000" font-family="sans-serif" font-size="13" lengthAdjust="spacing" textLength="5" x="246.7132" y="873.5229">*</text></g><!--MD5=[895fb06b143c3357adb3f195fd81aaae]
link Receptionist to UserRole--><g id="link_Receptionist_UserRole"><path codeLine="117" d="M1632.05,583.3564 C1707.52,590.2964 1846,592.5364 1942,532.3564 C2016.09,485.9164 2063.48,392.7864 2087.78,332.5764 " fill="none" id="Receptionist-to-UserRole" style="stroke:#181818;stroke-width:1.0;"/><polygon fill="none" points="2081.25,330.0364,2095,313.9164,2094.31,335.0864,2081.25,330.0364" style="stroke:#181818;stroke-width:1.0;"/><text fill="#000000" font-family="sans-serif" font-size="13" lengthAdjust="spacing" textLength="21" x="1857.5" y="528.8516">is a</text></g><!--MD5=[97fbe99f86a1d0e5403166bd76416bea]
link Nurse to UserRole--><g id="link_Nurse_UserRole"><path codeLine="118" d="M278.34,652.2664 C293.3,630.8864 315.73,595.5164 327,561.3564 C344.8,507.3764 317.98,348.6764 357,307.3564 C411.38,249.7664 453.29,276.3564 532.5,276.3564 C532.5,276.3564 532.5,276.3564 1869,276.3564 C1926.04,276.3564 1990.76,276.3564 2038.37,276.3564 " fill="none" id="Nurse-to-UserRole" style="stroke:#181818;stroke-width:1.0;"/><polygon fill="none" points="2038.63,269.3564,2058.63,276.3564,2038.63,283.3564,2038.63,269.3564" style="stroke:#181818;stroke-width:1.0;"/><text fill="#000000" font-family="sans-serif" font-size="13" lengthAdjust="spacing" textLength="21" x="1224" y="272.8516">is a</text></g><!--MD5=[8f7dd94d56b58fc07b233ccd3dd98f8c]
link Administrator to Employee--><g id="link_Administrator_Employee"><path codeLine="120" d="M271.33,884.1864 C284.65,849.1464 311.74,774.5264 327,709.3564 C348,619.6964 317.55,587.5564 357,504.3564 C377.89,460.2964 405.59,464.9764 431,423.3564 C469.4,360.4564 496.98,280.6864 513.61,223.6464 " fill="none" id="Administrator-Employee" style="stroke:#181818;stroke-width:1.0;"/><polygon fill="#000000" points="366.7218,409.838,360.8479,417.3179,366.3662,419.3419,366.7218,409.838" style="stroke:#000000;stroke-width:1.0;"/><text fill="#000000" font-family="sans-serif" font-size="13" lengthAdjust="spacing" textLength="53" x="374" y="419.8516">manages</text><text fill="#000000" font-family="sans-serif" font-size="13" lengthAdjust="spacing" textLength="7" x="265.8957" y="873.4583">1</text><text fill="#000000" font-family="sans-serif" font-size="13" lengthAdjust="spacing" textLength="5" x="506.6159" y="244.4124">*</text></g><!--MD5=[7f9978634a3e54d4fc1d9d7be02f04e9]
link Administrator to TypeOfVaccine--><g id="link_Administrator_TypeOfVaccine"><path codeLine="121" d="M267.79,924.5564 C285.38,1001.2864 359.41,1270.3564 532.5,1270.3564 C532.5,1270.3564 532.5,1270.3564 1235.5,1270.3564 C1332.01,1270.3564 1443.9,1269.5464 1512.3,1268.9564 " fill="none" id="Administrator-TypeOfVaccine" style="stroke:#181818;stroke-width:1.0;"/><polygon fill="#000000" points="834.3189,1262.8658,826.3853,1257.6209,824.8176,1263.2858,834.3189,1262.8658" style="stroke:#000000;stroke-width:1.0;"/><text fill="#000000" font-family="sans-serif" font-size="13" lengthAdjust="spacing" textLength="53" x="838.5" y="1266.8516">manages</text><text fill="#000000" font-family="sans-serif" font-size="13" lengthAdjust="spacing" textLength="7" x="261.2711" y="945.6776">1</text><text fill="#000000" font-family="sans-serif" font-size="13" lengthAdjust="spacing" textLength="5" x="1499.53" y="1283.4536">*</text></g><!--MD5=[0e439f75a3d966f965fe5f237a1bacbe]
link Administrator to Vaccine--><g id="link_Administrator_Vaccine"><path codeLine="122" d="M264.41,924.5064 C267.85,979.9164 283.86,1137.2564 357,1239.3564 C412.03,1316.1664 438.01,1359.3564 532.5,1359.3564 C532.5,1359.3564 532.5,1359.3564 1578,1359.3564 C1706.03,1359.3564 1801.71,1216.2864 1843.63,1139.9964 " fill="none" id="Administrator-Vaccine" style="stroke:#181818;stroke-width:1.0;"/><polygon fill="#000000" points="1002.4541,1351.2082,993.8894,1347.0734,993.0947,1352.8973,1002.4541,1351.2082" style="stroke:#000000;stroke-width:1.0;"/><text fill="#000000" font-family="sans-serif" font-size="13" lengthAdjust="spacing" textLength="53" x="1006.5" y="1355.8516">manages</text><text fill="#000000" font-family="sans-serif" font-size="13" lengthAdjust="spacing" textLength="7" x="265.9316" y="945.9682">1</text><text fill="#000000" font-family="sans-serif" font-size="13" lengthAdjust="spacing" textLength="5" x="1834.8514" y="1161.2121">*</text></g><!--MD5=[d497e8607f1e7b3d570c70d67196006d]
link Administrator to VaccinationCenter--><g id="link_Administrator_VaccinationCenter"><path codeLine="123" d="M293.59,924.5564 C311.41,935.7964 334.78,949.2964 357,958.3564 C431.56,988.7764 451.98,1003.3564 532.5,1003.3564 C532.5,1003.3564 532.5,1003.3564 1027.5,1003.3564 C1314.34,1003.3564 1648.89,922.8564 1793.85,883.9364 " fill="none" id="Administrator-VaccinationCenter" style="stroke:#181818;stroke-width:1.0;"/><polygon fill="#000000" points="1002.4982,994.3969,993.3769,991.7039,993.5359,997.5796,1002.4982,994.3969" style="stroke:#000000;stroke-width:1.0;"/><text fill="#000000" font-family="sans-serif" font-size="13" lengthAdjust="spacing" textLength="53" x="1006.5" y="999.8516">manages</text><text fill="#000000" font-family="sans-serif" font-size="13" lengthAdjust="spacing" textLength="7" x="294.0048" y="945.6776">1</text><text fill="#000000" font-family="sans-serif" font-size="13" lengthAdjust="spacing" textLength="5" x="1780.9455" y="900.3922">*</text></g><!--MD5=[2b5fc2dce8eec1aafb1a3721aa50d3a4]
link Administrator to SNSUser--><g id="link_Administrator_SNSUser"><path codeLine="124" d="M279.13,884.1464 C318.09,833.7364 420.88,700.7564 482.91,620.5164 " fill="none" id="Administrator-SNSUser" style="stroke:#181818;stroke-width:1.0;"/><polygon fill="#000000" points="373.0579,676.5763,365.2009,681.9353,369.8514,685.53,373.0579,676.5763" style="stroke:#000000;stroke-width:1.0;"/><text fill="#000000" font-family="sans-serif" font-size="13" lengthAdjust="spacing" textLength="43" x="379" y="685.8516">creates</text><text fill="#000000" font-family="sans-serif" font-size="13" lengthAdjust="spacing" textLength="7" x="275.9869" y="873.4065">1</text><text fill="#000000" font-family="sans-serif" font-size="13" lengthAdjust="spacing" textLength="5" x="472.1033" y="641.9207">*</text></g><!--MD5=[1a8aa2b864b87f860d28abceaa28b7a5]
link Company to SNSUser--><g id="link_Company_SNSUser"><path codeLine="126" d="M100.15,327.5564 C127.19,344.9564 163.46,366.3164 198,380.3564 C296.86,420.5464 343.42,377.3864 431,438.3564 C450.42,451.8764 446.06,464.0064 461,482.3564 C465.62,488.0364 470.6,493.7964 475.7,499.4664 " fill="none" id="Company-SNSUser" style="stroke:#181818;stroke-width:1.0;"/><polygon fill="#000000" points="249.5463,373.6133,242.5452,367.1763,240.0987,372.5208,249.5463,373.6133" style="stroke:#000000;stroke-width:1.0;"/><text fill="#000000" font-family="sans-serif" font-size="13" lengthAdjust="spacing" textLength="30" x="254" y="376.8516">owns</text><text fill="#000000" font-family="sans-serif" font-size="13" lengthAdjust="spacing" textLength="7" x="101.0545" y="348.4484">1</text><text fill="#000000" font-family="sans-serif" font-size="13" lengthAdjust="spacing" textLength="5" x="462.9741" y="506.7171">*</text></g><!--MD5=[e6529539d61e4fceb49a82d3c9677c38]
link Company to User--><g id="link_Company_User"><path codeLine="127" d="M106.1,298.3564 C140.63,298.3564 186.53,298.3564 219.48,298.3564 " fill="none" id="Company-User" style="stroke:#181818;stroke-width:1.0;"/><text fill="#000000" font-family="sans-serif" font-size="13" lengthAdjust="spacing" textLength="30" x="137" y="294.8516">owns</text><text fill="#000000" font-family="sans-serif" font-size="13" lengthAdjust="spacing" textLength="7" x="113.8991" y="313.0811">1</text><text fill="#000000" font-family="sans-serif" font-size="13" lengthAdjust="spacing" textLength="5" x="206.3718" y="313.3232">*</text></g><!--MD5=[09366576ee87d48d594df10cacc83f45]
link Company to Employee--><g id="link_Company_Employee"><path codeLine="129" d="M106.26,274.2764 C133,261.5464 166.93,246.1664 198,234.3564 C267.12,208.0864 285.31,203.4964 357,185.3564 C390.88,176.7764 428.88,168.9864 460.83,162.9364 " fill="none" id="Company-Employee" style="stroke:#181818;stroke-width:1.0;"/><polygon fill="#000000" points="243.7703,184.0343,234.2602,183.9402,236.0212,189.548,243.7703,184.0343" style="stroke:#000000;stroke-width:1.0;"/><text fill="#000000" font-family="sans-serif" font-size="13" lengthAdjust="spacing" textLength="42" x="248" y="190.8516">employ</text><text fill="#000000" font-family="sans-serif" font-size="13" lengthAdjust="spacing" textLength="7" x="114.0826" y="285.4643">1</text><text fill="#000000" font-family="sans-serif" font-size="13" lengthAdjust="spacing" textLength="5" x="448.0781" y="178.5897">*</text></g><!--MD5=[4d2bf9651ec2cec1e10821c6121f5fe0]
link Company to UserRole--><g id="link_Company_UserRole"><path codeLine="130" d="M64.29,269.2964 C82.67,198.7764 140.37,24.3564 261.5,24.3564 C261.5,24.3564 261.5,24.3564 1869,24.3564 C1985.56,24.3564 2062.17,168.3264 2092.64,238.6264 " fill="none" id="Company-UserRole" style="stroke:#181818;stroke-width:1.0;"/><polygon fill="#000000" points="992.4994,15.4566,983.4109,12.6548,983.4998,18.532,992.4994,15.4566" style="stroke:#000000;stroke-width:1.0;"/><text fill="#000000" font-family="sans-serif" font-size="13" lengthAdjust="spacing" textLength="73" x="996.5" y="20.8516">Compreends</text><text fill="#000000" font-family="sans-serif" font-size="13" lengthAdjust="spacing" textLength="7" x="58.2821" y="258.3073">1</text><text fill="#000000" font-family="sans-serif" font-size="13" lengthAdjust="spacing" textLength="5" x="2084.3696" y="227.9877">*</text></g><!--MD5=[edf9467fb81ecc5fe28608b9d8a617e0]
link Employee to UserRole--><g id="link_Employee_UserRole"><path codeLine="131" d="M606.19,160.1464 C671.54,168.2264 770.82,178.3564 857.5,178.3564 C857.5,178.3564 857.5,178.3564 1869,178.3564 C1938.83,178.3564 2012.12,214.7464 2058.72,243.1764 " fill="none" id="Employee-UserRole" style="stroke:#181818;stroke-width:1.0;"/><polygon fill="#000000" points="1405.4919,169.8176,1396.6292,166.3672,1396.2938,172.2355,1405.4919,169.8176" style="stroke:#000000;stroke-width:1.0;"/><text fill="#000000" font-family="sans-serif" font-size="13" lengthAdjust="spacing" textLength="56" x="1409.5" y="174.8516">has/plays</text></g><!--MD5=[48afc90033d240f0c7566c2ff402e39b]
link User to Employee--><g id="link_User_Employee"><path codeLine="132" d="M305.58,275.7064 C339.51,257.3964 388.42,230.8764 431,207.3564 C440.64,202.0264 450.78,196.3864 460.76,190.8064 " fill="none" id="User-Employee" style="stroke:#181818;stroke-width:1.0;"/><polygon fill="#000000" points="360.1136,200.9321,369.4593,199.169,366.6381,194.0124,360.1136,200.9321" style="stroke:#000000;stroke-width:1.0;"/><text fill="#000000" font-family="sans-serif" font-size="13" lengthAdjust="spacing" textLength="54" x="373.5" y="203.8516">relates to</text><text fill="#000000" font-family="sans-serif" font-size="13" lengthAdjust="spacing" textLength="22" x="313.523" y="287.0883">0..1</text><text fill="#000000" font-family="sans-serif" font-size="13" lengthAdjust="spacing" textLength="7" x="445.8978" y="209.3338">1</text></g><!--MD5=[05dfe93199f32218e2a8e80246c79db0]
link User to SNSUser--><g id="link_User_SNSUser"><path codeLine="133" d="M305.63,314.4564 C342.86,330.5364 396.46,358.4664 431,397.3564 C452.94,422.0564 444,437.0364 461,465.3564 C466.38,474.3164 472.52,483.3864 478.9,492.1564 " fill="none" id="User-SNSUser" style="stroke:#181818;stroke-width:1.0;"/><polygon fill="#000000" points="361.0094,329.9524,365.2198,338.4801,369.4282,334.3767,361.0094,329.9524" style="stroke:#000000;stroke-width:1.0;"/><text fill="#000000" font-family="sans-serif" font-size="13" lengthAdjust="spacing" textLength="54" x="373.5" y="338.8516">relates to</text><text fill="#000000" font-family="sans-serif" font-size="13" lengthAdjust="spacing" textLength="22" x="313.5803" y="331.5297">0..1</text><text fill="#000000" font-family="sans-serif" font-size="13" lengthAdjust="spacing" textLength="7" x="465.1822" y="481.3211">1</text></g><!--MD5=[d5cf03d886352995267197dc535618ec]
link CenterCoordinator to VaccinationCenter--><g id="link_CenterCoordinator_VaccinationCenter"><path codeLine="135" d="M1603.1,692.4364 C1623.58,708.2664 1653.67,730.2864 1682,746.3564 C1716.62,765.9964 1729.86,761.8864 1764,782.3564 C1773.95,788.3264 1784.02,795.1264 1793.78,802.1964 " fill="none" id="CenterCoordinator-VaccinationCenter" style="stroke:#181818;stroke-width:1.0;"/><polygon fill="#000000" points="1698.3334,740.0266,1691.9604,732.9671,1689.0281,738.0613,1698.3334,740.0266" style="stroke:#000000;stroke-width:1.0;"/><text fill="#000000" font-family="sans-serif" font-size="13" lengthAdjust="spacing" textLength="53" x="1703" y="742.8516">manages</text><text fill="#000000" font-family="sans-serif" font-size="13" lengthAdjust="spacing" textLength="7" x="1602.4563" y="713.8785">1</text><text fill="#000000" font-family="sans-serif" font-size="13" lengthAdjust="spacing" textLength="7" x="1778.7651" y="810.2227">1</text></g><!--MD5=[6fb9c307c226612db233ac819f91f621]
link ARS to HealthCareCenter--><g id="link_ARS_HealthCareCenter"><path codeLine="138" d="M888.54,1124.0264 C946.55,1135.3464 1078.3,1161.0664 1161.16,1177.2364 " fill="none" id="ARS-HealthCareCenter" style="stroke:#181818;stroke-width:1.0;"/><polygon fill="#000000" points="983.9074,1133.4901,975.5928,1128.8728,974.4668,1134.6418,983.9074,1133.4901" style="stroke:#000000;stroke-width:1.0;"/><text fill="#000000" font-family="sans-serif" font-size="13" lengthAdjust="spacing" textLength="90" x="988" y="1137.8516">associated with</text><text fill="#000000" font-family="sans-serif" font-size="13" lengthAdjust="spacing" textLength="7" x="896.2961" y="1140.7234">1</text><text fill="#000000" font-family="sans-serif" font-size="13" lengthAdjust="spacing" textLength="5" x="1148.339" y="1172.4686">*</text></g><!--MD5=[56f8839b0b4096ea816144e77c5d4812]
link AGES to HealthCareCenter--><g id="link_AGES_HealthCareCenter"><path codeLine="139" d="M893.68,1193.1764 C954.09,1192.8464 1080.93,1192.1764 1161.4,1191.7464 " fill="none" id="AGES-HealthCareCenter" style="stroke:#181818;stroke-width:1.0;"/><polygon fill="#000000" points="983.9999,1182.5055,974.9393,1179.6149,974.9707,1185.4927,983.9999,1182.5055" style="stroke:#000000;stroke-width:1.0;"/><text fill="#000000" font-family="sans-serif" font-size="13" lengthAdjust="spacing" textLength="90" x="988" y="1187.8516">associated with</text><text fill="#000000" font-family="sans-serif" font-size="13" lengthAdjust="spacing" textLength="7" x="901.6578" y="1208.3207">1</text><text fill="#000000" font-family="sans-serif" font-size="13" lengthAdjust="spacing" textLength="5" x="1148.6038" y="1206.1249">*</text></g><!--MD5=[98987725eaf233391716763c4133cca1]
link HealthCareCenter to VaccinationCenter--><g id="link_HealthCareCenter_VaccinationCenter"><path codeLine="141" d="M1307.53,1183.4364 C1354.99,1177.0464 1418.08,1166.2664 1472,1149.3564 C1616.37,1104.0764 1653.84,1078.0664 1764,974.3564 C1769.13,969.5264 1774.32,964.4864 1779.49,959.3364 " fill="none" id="HealthCareCenter-to-VaccinationCenter" style="stroke:#181818;stroke-width:1.0;"/><polygon fill="none" points="1774.96,953.9664,1793.99,944.6264,1784.94,963.7864,1774.96,953.9664" style="stroke:#181818;stroke-width:1.0;"/><text fill="#000000" font-family="sans-serif" font-size="13" lengthAdjust="spacing" textLength="21" x="1566.5" y="1068.8516">is a</text></g><!--MD5=[24decf725344aa661a172bb43c769772]
link HealthCareCenter to TypeOfVaccine--><g id="link_HealthCareCenter_TypeOfVaccine"><path codeLine="142" d="M1307.71,1207.6864 C1368.42,1221.4164 1454.37,1240.8464 1512.49,1253.9964 " fill="none" id="HealthCareCenter-TypeOfVaccine" style="stroke:#181818;stroke-width:1.0;"/><polygon fill="#000000" points="1399.8768,1219.6351,1391.7028,1214.7734,1390.4063,1220.5065,1399.8768,1219.6351" style="stroke:#000000;stroke-width:1.0;"/><text fill="#000000" font-family="sans-serif" font-size="13" lengthAdjust="spacing" textLength="67" x="1404" y="1223.8516">administers</text><text fill="#000000" font-family="sans-serif" font-size="13" lengthAdjust="spacing" textLength="5" x="1315.5176" y="1223.7087">*</text><text fill="#000000" font-family="sans-serif" font-size="13" lengthAdjust="spacing" textLength="5" x="1499.3232" y="1248.7745">*</text></g><!--MD5=[258c15824c0150256fa2247652ea79b5]
link CommunityMassVaccinationCenter to TypeOfVaccine--><g id="link_CommunityMassVaccinationCenter_TypeOfVaccine"><path codeLine="144" d="M1285.93,1115.3564 C1334.54,1135.2364 1409.7,1167.5764 1472,1201.3564 C1488.33,1210.2164 1505.5,1220.7364 1521.08,1230.7864 " fill="none" id="CommunityMassVaccinationCenter-TypeOfVaccine" style="stroke:#181818;stroke-width:1.0;"/><polygon fill="#000000" points="1399.4884,1155.7355,1392.6639,1149.1115,1390.0738,1154.388,1399.4884,1155.7355" style="stroke:#000000;stroke-width:1.0;"/><text fill="#000000" font-family="sans-serif" font-size="13" lengthAdjust="spacing" textLength="67" x="1404" y="1158.8516">administers</text><text fill="#000000" font-family="sans-serif" font-size="13" lengthAdjust="spacing" textLength="5" x="1294.6916" y="1136.776">*</text><text fill="#000000" font-family="sans-serif" font-size="13" lengthAdjust="spacing" textLength="7" x="1503.1244" y="1219.8918">1</text></g><!--MD5=[8333063a69905134c8a7f249aa9d629e]
link CommunityMassVaccinationCenter to VaccinationCenter--><g id="link_CommunityMassVaccinationCenter_VaccinationCenter"><path codeLine="145" d="M1360.06,1076.7564 C1396.52,1069.9464 1436.2,1061.1864 1472,1050.3564 C1607.46,1009.3764 1638.3,988.3764 1764,923.3564 C1767.96,921.3064 1771.98,919.1864 1776.02,917.0064 " fill="none" id="CommunityMassVaccinationCenter-to-VaccinationCenter" style="stroke:#181818;stroke-width:1.0;"/><polygon fill="none" points="1772.9,910.7264,1793.79,907.1964,1779.66,922.9864,1772.9,910.7264" style="stroke:#181818;stroke-width:1.0;"/><text fill="#000000" font-family="sans-serif" font-size="13" lengthAdjust="spacing" textLength="21" x="1566.5" y="978.8516">is a</text></g><!--MD5=[2de32f8dee38664ec07413075ed961c1]
link TypeOfVaccine to Vaccine--><g id="link_TypeOfVaccine_Vaccine"><path codeLine="148" d="M1641.78,1254.7064 C1679.41,1244.7064 1726.79,1228.5764 1764,1204.3564 C1790.22,1187.2864 1814.32,1162.1064 1832.6,1140.0364 " fill="none" id="TypeOfVaccine-Vaccine" style="stroke:#181818;stroke-width:1.0;"/><polygon fill="#000000" points="1691.2857,1192.9568,1682.019,1195.0967,1685.0466,1200.1349,1691.2857,1192.9568" style="stroke:#000000;stroke-width:1.0;"/><text fill="#000000" font-family="sans-serif" font-size="13" lengthAdjust="spacing" textLength="67" x="1696" y="1200.8516">categorizes</text><text fill="#000000" font-family="sans-serif" font-size="13" lengthAdjust="spacing" textLength="7" x="1649.6749" y="1267.556">1</text><text fill="#000000" font-family="sans-serif" font-size="13" lengthAdjust="spacing" textLength="5" x="1822.2703" y="1161.2577">*</text></g><!--MD5=[b0c09337cbb77d2135bc8d5854e16cf8]
link VaccineSchedule to TypeOfVaccine--><g id="link_VaccineSchedule_TypeOfVaccine"><path codeLine="150" d="M1305.12,644.7264 C1325.71,651.4764 1346.37,662.2264 1360,679.3564 C1392.65,720.3764 1377.13,862.5364 1390,913.3564 C1394.24,930.0964 1492.12,1189.1964 1502,1203.3564 C1508.85,1213.1764 1517.49,1222.4764 1526.42,1230.8264 " fill="none" id="VaccineSchedule-TypeOfVaccine" style="stroke:#181818;stroke-width:1.0;"/><polygon fill="#000000" points="1414.2662,909.2099,1413.8206,899.7098,1408.3217,901.7861,1414.2662,909.2099" style="stroke:#000000;stroke-width:1.0;"/><text fill="#000000" font-family="sans-serif" font-size="13" lengthAdjust="spacing" textLength="32" x="1421.5" y="909.8516">takes</text><text fill="#000000" font-family="sans-serif" font-size="13" lengthAdjust="spacing" textLength="5" x="1313.1175" y="642.6307">*</text><text fill="#000000" font-family="sans-serif" font-size="13" lengthAdjust="spacing" textLength="7" x="1517.7396" y="1219.9392">1</text></g><!--MD5=[b50e805441a2e23b26400b5687923e53]
link VaccineSchedule to Receptionist--><g id="link_VaccineSchedule_Receptionist"><path codeLine="151" d="M1305.06,644.5864 C1352.86,649.8864 1417.31,652.2064 1472,637.3564 C1501.09,629.4564 1530.36,611.1464 1550.4,596.6264 " fill="none" id="VaccineSchedule-Receptionist" style="stroke:#181818;stroke-width:1.0;"/><polygon fill="#000000" points="1412.4071,627.573,1402.9662,626.424,1404.0939,632.1926,1412.4071,627.573" style="stroke:#000000;stroke-width:1.0;"/><text fill="#000000" font-family="sans-serif" font-size="13" lengthAdjust="spacing" textLength="42" x="1416.5" y="633.8516">checks</text><text fill="#000000" font-family="sans-serif" font-size="13" lengthAdjust="spacing" textLength="5" x="1313.0509" y="660.2254">*</text><text fill="#000000" font-family="sans-serif" font-size="13" lengthAdjust="spacing" textLength="7" x="1535.3106" y="617.7664">1</text></g><!--MD5=[4b1cbd5f2b82fe473c8138e32680fa60]
link Receptionist to VaccineSchedule--><g id="link_Receptionist_VaccineSchedule"><path codeLine="175" d="M1521.75,585.4364 C1463.07,595.2564 1369.34,610.9564 1305.23,621.6864 " fill="none" id="Receptionist-VaccineSchedule" style="stroke:#181818;stroke-width:1.0;"/><polygon fill="#000000" points="1402.5686,587.3578,1411.9748,588.7629,1411.0043,582.9657,1402.5686,587.3578" style="stroke:#000000;stroke-width:1.0;"/><text fill="#000000" font-family="sans-serif" font-size="13" lengthAdjust="spacing" textLength="42" x="1416.5" y="591.8516">checks</text><text fill="#000000" font-family="sans-serif" font-size="13" lengthAdjust="spacing" textLength="7" x="1506.8555" y="601.2503">1</text><text fill="#000000" font-family="sans-serif" font-size="13" lengthAdjust="spacing" textLength="5" x="1312.7818" y="634.8414">*</text></g><!--MD5=[f341c74790804bee0da500ddf7df4722]
link RecoveryRoom to SNSUser--><g id="link_RecoveryRoom_SNSUser"><path codeLine="153" d="M327.25,525.0764 C372.31,531.9364 432.17,541.0664 475.61,547.6864 " fill="none" id="RecoveryRoom-SNSUser" style="stroke:#181818;stroke-width:1.0;"/><polygon fill="#000000" points="364.5571,520.7789,373.0561,525.047,373.9417,519.2363,364.5571,520.7789" style="stroke:#000000;stroke-width:1.0;"/><text fill="#000000" font-family="sans-serif" font-size="13" lengthAdjust="spacing" textLength="44" x="378.5" y="526.8516">waits in</text><text fill="#000000" font-family="sans-serif" font-size="13" lengthAdjust="spacing" textLength="7" x="335.1414" y="540.6633">1</text><text fill="#000000" font-family="sans-serif" font-size="13" lengthAdjust="spacing" textLength="5" x="462.8725" y="561.1152">*</text></g><!--MD5=[f679ad9e35f121d64a89f220fbe4f292]
link EntryRecord to SNSUser--><g id="link_EntryRecord_SNSUser"><path codeLine="154" d="M1812.29,478.8464 C1639.42,483.8764 1089.47,502.2164 636,543.3564 C621.4,544.6764 605.67,546.5064 591.06,548.3564 " fill="none" id="EntryRecord-SNSUser" style="stroke:#181818;stroke-width:1.0;"/><polygon fill="#000000" points="1184.9919,487.2481,1175.7944,484.8279,1176.1285,490.6963,1184.9919,487.2481" style="stroke:#000000;stroke-width:1.0;"/><text fill="#000000" font-family="sans-serif" font-size="13" lengthAdjust="spacing" textLength="104" x="1189" y="492.8516">gets registered on</text><text fill="#000000" font-family="sans-serif" font-size="13" lengthAdjust="spacing" textLength="7" x="1797.3337" y="493.6404">1</text><text fill="#000000" font-family="sans-serif" font-size="13" lengthAdjust="spacing" textLength="5" x="599.1306" y="561.872">*</text></g><!--MD5=[195cd4b2065cc6507c3064f693e1e4c8]
link Nurse to VaccineAdministration--><g id="link_Nurse_VaccineAdministration"><path codeLine="156" d="M280.37,692.6364 C297.44,711.4364 325.73,738.1364 357,749.3564 C495.88,799.1864 670.64,777.2164 772.64,756.7564 " fill="none" id="Nurse-VaccineAdministration" style="stroke:#181818;stroke-width:1.0;"/><text fill="#000000" font-family="sans-serif" font-size="13" lengthAdjust="spacing" textLength="58" x="504.5" y="771.8516">registers&gt;</text><text fill="#000000" font-family="sans-serif" font-size="13" lengthAdjust="spacing" textLength="7" x="277.2319" y="713.7791">1</text><text fill="#000000" font-family="sans-serif" font-size="13" lengthAdjust="spacing" textLength="5" x="760.0466" y="772.7241">*</text></g><!--MD5=[50c2eeab0d1113c6943bbe37a01cb5e2]
link Nurse to EntryRecord--><g id="link_Nurse_EntryRecord"><path codeLine="157" d="M278.22,652.2264 C293.09,630.8164 315.45,595.4164 327,561.3564 C342.99,514.2164 319.52,372.1164 357,339.3564 C426.78,278.3664 1596.5,432.0064 1764,456.3564 C1779.8,458.6564 1796.84,461.8364 1812.41,465.0264 " fill="none" id="Nurse-EntryRecord" style="stroke:#181818;stroke-width:1.0;"/><polygon fill="#000000" points="1007.9632,351.9266,998.6287,350.1049,999.3407,355.9395,1007.9632,351.9266" style="stroke:#000000;stroke-width:1.0;"/><text fill="#000000" font-family="sans-serif" font-size="13" lengthAdjust="spacing" textLength="42" x="1012" y="357.8516">checks</text><text fill="#000000" font-family="sans-serif" font-size="13" lengthAdjust="spacing" textLength="7" x="274.8096" y="641.51">1</text><text fill="#000000" font-family="sans-serif" font-size="13" lengthAdjust="spacing" textLength="5" x="1799.6042" y="459.8133">*</text></g><!--MD5=[44ce67b9ae4b4a4a3bd0ed01886d6243]
link Nurse to SNSUser--><g id="link_Nurse_SNSUser"><path codeLine="158" d="M297.07,663.7264 C331.49,654.3264 386.19,637.8664 431,617.3564 C445.96,610.5164 461.48,601.9864 475.75,593.5064 " fill="none" id="Nurse-SNSUser" style="stroke:#181818;stroke-width:1.0;"/><polygon fill="#000000" points="366.6535,606.7034,357.1603,607.2765,359.3102,612.747,366.6535,606.7034" style="stroke:#000000;stroke-width:1.0;"/><text fill="#000000" font-family="sans-serif" font-size="13" lengthAdjust="spacing" textLength="59" x="371" y="613.8516">knows the</text><text fill="#000000" font-family="sans-serif" font-size="13" lengthAdjust="spacing" textLength="7" x="304.9219" y="677.1279">1</text><text fill="#000000" font-family="sans-serif" font-size="13" lengthAdjust="spacing" textLength="5" x="463.0305" y="612.8059">*</text></g><!--MD5=[4ee3600f30bf794b1900aac0b5d5d435]
link Nurse to VaccinationCertificate--><g id="link_Nurse_VaccinationCertificate"><path codeLine="159" d="M286.26,652.1664 C304.79,636.0964 331.89,613.3764 357,595.3564 C388.46,572.7764 406.12,579.0364 431,549.3564 C454.06,521.8464 433.09,496.9364 461,474.3564 C549.13,403.0864 686.1,401.5664 773.78,409.8264 " fill="none" id="Nurse-VaccinationCertificate" style="stroke:#181818;stroke-width:1.0;"/><polygon fill="#000000" points="516.4773,404.3066,507.0696,405.7011,509.6859,410.9645,516.4773,404.3066" style="stroke:#000000;stroke-width:1.0;"/><text fill="#000000" font-family="sans-serif" font-size="13" lengthAdjust="spacing" textLength="38" x="521" y="411.8516">issues</text><text fill="#000000" font-family="sans-serif" font-size="13" lengthAdjust="spacing" textLength="7" x="285.2114" y="641.4324">1</text><text fill="#000000" font-family="sans-serif" font-size="13" lengthAdjust="spacing" textLength="5" x="761.012" y="422.9338">*</text></g><!--MD5=[49bdc4f43c0486f86f6744f0a65b0571]
link Nurse to Vaccine--><g id="link_Nurse_Vaccine"><path codeLine="160" d="M270.58,692.6064 C283.28,726.4564 312.8,795.0864 357,838.3564 C420.23,900.2564 444.02,932.3564 532.5,932.3564 C532.5,932.3564 532.5,932.3564 1235.5,932.3564 C1341.06,932.3564 1368.88,931.7764 1472,954.3564 C1587.93,979.7464 1716.64,1029.2764 1794.68,1061.8364 " fill="none" id="Nurse-Vaccine" style="stroke:#181818;stroke-width:1.0;"/><polygon fill="#000000" points="995.3594,924.7095,987.2606,919.7235,985.8767,925.4361,995.3594,924.7095" style="stroke:#000000;stroke-width:1.0;"/><text fill="#000000" font-family="sans-serif" font-size="13" lengthAdjust="spacing" textLength="67" x="999.5" y="928.8516">administers</text><text fill="#000000" font-family="sans-serif" font-size="13" lengthAdjust="spacing" textLength="7" x="264.8109" y="713.741">1</text><text fill="#000000" font-family="sans-serif" font-size="13" lengthAdjust="spacing" textLength="5" x="1781.8611" y="1072.9331">*</text></g><!--MD5=[03efd8c9f90c050219bacdb83332548b]
link Nurse to VaccinationCenter--><g id="link_Nurse_VaccinationCenter"><path codeLine="161" d="M277.88,692.5864 C314.38,741.3364 416.06,861.3564 532.5,861.3564 C532.5,861.3564 532.5,861.3564 1027.5,861.3564 C1225.54,861.3564 1274.14,822.1064 1472,830.3564 C1584.59,835.0464 1714.76,847.2464 1793.95,855.4164 " fill="none" id="Nurse-VaccinationCenter" style="stroke:#181818;stroke-width:1.0;"/><polygon fill="#000000" points="1002.9714,853.0662,994.2919,849.1781,993.6642,855.0224,1002.9714,853.0662" style="stroke:#000000;stroke-width:1.0;"/><text fill="#000000" font-family="sans-serif" font-size="13" lengthAdjust="spacing" textLength="52" x="1007" y="857.8516">works on</text><text fill="#000000" font-family="sans-serif" font-size="13" lengthAdjust="spacing" textLength="7" x="282.954" y="713.7156">1</text><text fill="#000000" font-family="sans-serif" font-size="13" lengthAdjust="spacing" textLength="5" x="1781.0558" y="868.931">*</text></g><!--MD5=[ffb46667f034132d7d74d4bd9e2f7e25]
link Nurse to VaccineAdverseReaction--><g id="link_Nurse_VaccineAdverseReaction"><path codeLine="162" d="M297.25,688.8164 C314.65,696.3964 336.48,704.5464 357,708.3564 C389.34,714.3664 398.15,709.8964 431,708.3564 C719.57,694.8364 804.45,567.4764 1079,657.3564 C1094.71,662.4964 1094.22,671.9464 1109,679.3564 C1122.94,686.3464 1138.41,692.3264 1153.57,697.3364 " fill="none" id="Nurse-VaccineAdverseReaction" style="stroke:#181818;stroke-width:1.0;"/><polygon fill="#000000" points="670.4998,641.582,661.4844,638.5532,661.4259,644.4308,670.4998,641.582" style="stroke:#000000;stroke-width:1.0;"/><text fill="#000000" font-family="sans-serif" font-size="13" lengthAdjust="spacing" textLength="43" x="674.5" y="646.8516">register</text><text fill="#000000" font-family="sans-serif" font-size="13" lengthAdjust="spacing" textLength="7" x="305.1391" y="707.3927">1</text><text fill="#000000" font-family="sans-serif" font-size="13" lengthAdjust="spacing" textLength="5" x="1126.1482" y="687.3484">*</text></g><!--MD5=[e22cf17bb6175b302fa456bd72295241]
link SNSUser to VaccineAdministration--><g id="link_SNSUser_VaccineAdministration"><path codeLine="166" d="M558.68,620.7164 C575.08,655.0564 600.34,694.5964 636,716.3564 C676.46,741.0364 729.05,746.6464 772.83,745.8064 " fill="none" id="SNSUser-VaccineAdministration" style="stroke:#181818;stroke-width:1.0;"/><polygon fill="#000000" points="636.6826,705.0103,643.0105,712.1102,645.9752,707.0348,636.6826,705.0103" style="stroke:#000000;stroke-width:1.0;"/><text fill="#000000" font-family="sans-serif" font-size="13" lengthAdjust="spacing" textLength="92" x="650" y="712.8516">administered on</text><text fill="#000000" font-family="sans-serif" font-size="13" lengthAdjust="spacing" textLength="7" x="553.9157" y="641.6894">1</text><text fill="#000000" font-family="sans-serif" font-size="13" lengthAdjust="spacing" textLength="5" x="759.9774" y="743.4638">*</text></g><!--MD5=[4bf92790d4930e6927233f0345ffcb5c]
link SNSUser to VaccineSchedule--><g id="link_SNSUser_VaccineSchedule"><path codeLine="167" d="M591.06,560.7864 C690.11,568.7964 901.38,586.9364 1079,609.3564 C1106.74,612.8564 1137.17,617.4264 1163.63,621.6364 " fill="none" id="SNSUser-VaccineSchedule" style="stroke:#181818;stroke-width:1.0;"/><polygon fill="#000000" points="829.528,568.0038,838.2118,571.8822,838.833,566.0372,829.528,568.0038" style="stroke:#000000;stroke-width:1.0;"/><text fill="#000000" font-family="sans-serif" font-size="13" lengthAdjust="spacing" textLength="43" x="843.5" y="573.8516">created</text><text fill="#000000" font-family="sans-serif" font-size="13" lengthAdjust="spacing" textLength="7" x="598.8833" y="575.8937">1</text><text fill="#000000" font-family="sans-serif" font-size="13" lengthAdjust="spacing" textLength="5" x="1151.0637" y="634.7862">*</text></g><!--MD5=[4199e571ecf4f955a781f82efeea42b0]
link SNSUser to VaccinationCertificate--><g id="link_SNSUser_VaccinationCertificate"><path codeLine="168" d="M591.13,524.1164 C605.54,516.5064 621.15,508.7564 636,502.3564 C682.08,482.5064 695.79,483.3564 743,466.3564 C763.94,458.8164 786.86,450.0964 806.66,442.4264 " fill="none" id="SNSUser-VaccinationCertificate" style="stroke:#181818;stroke-width:1.0;"/><polygon fill="#000000" points="666.6754,455.7601,657.1759,456.2177,659.2591,461.714,666.6754,455.7601" style="stroke:#000000;stroke-width:1.0;"/><text fill="#000000" font-family="sans-serif" font-size="13" lengthAdjust="spacing" textLength="50" x="671" y="462.8516">requests</text><text fill="#000000" font-family="sans-serif" font-size="13" lengthAdjust="spacing" textLength="7" x="598.9623" y="534.5253">1</text><text fill="#000000" font-family="sans-serif" font-size="13" lengthAdjust="spacing" textLength="5" x="786.3769" y="463.8657">*</text></g><!--MD5=[26d93bb3364bc68050d04ccdf39ce109]
link VaccineAdministration to VaccineSchedule--><g id="link_VaccineAdministration_VaccineSchedule"><path codeLine="170" d="M944.37,712.9864 C1010.75,694.7064 1101.89,669.5964 1163.99,652.4964 " fill="none" id="VaccineAdministration-VaccineSchedule" style="stroke:#181818;stroke-width:1.0;"/><polygon fill="#000000" points="1014.3205,669.2045,1004.8197,668.773,1006.3805,674.4398,1014.3205,669.2045" style="stroke:#000000;stroke-width:1.0;"/><text fill="#000000" font-family="sans-serif" font-size="13" lengthAdjust="spacing" textLength="29" x="1018.5" y="675.8516">fulfils</text><text fill="#000000" font-family="sans-serif" font-size="13" lengthAdjust="spacing" textLength="7" x="952.0502" y="725.1926">1</text><text fill="#000000" font-family="sans-serif" font-size="13" lengthAdjust="spacing" textLength="5" x="1151.0045" y="669.0006">*</text></g><!--MD5=[d96ee281cdb1021d3c4ed227c45512e2]
link VaccineAdministration to Vaccine--><g id="link_VaccineAdministration_Vaccine"><path codeLine="171" d="M944.19,749.0164 C1110.31,776.5264 1486.83,852.2264 1764,1008.3564 C1782.79,1018.9364 1801.52,1033.0464 1817.75,1046.7264 " fill="none" id="VaccineAdministration-Vaccine" style="stroke:#181818;stroke-width:1.0;"/><polygon fill="#000000" points="1428.2327,849.1451,1420.6192,843.4455,1418.7231,849.0092,1428.2327,849.1451" style="stroke:#000000;stroke-width:1.0;"/><text fill="#000000" font-family="sans-serif" font-size="13" lengthAdjust="spacing" textLength="10" x="1432.5" y="852.8516">of</text><text fill="#000000" font-family="sans-serif" font-size="13" lengthAdjust="spacing" textLength="7" x="952.1335" y="764.3846">1</text><text fill="#000000" font-family="sans-serif" font-size="13" lengthAdjust="spacing" textLength="5" x="1804.6727" y="1035.8964">*</text></g><!--MD5=[7865fe9679bdc99593066344a783e6a8]
link VaccineAdministration to VaccineAdverseReaction--><g id="link_VaccineAdministration_VaccineAdverseReaction"><path codeLine="172" d="M944.23,737.1764 C954.26,737.2564 964.36,737.3164 974,737.3564 C1020.67,737.5564 1032.43,740.3564 1079,737.3564 C1098.57,736.0964 1119.44,733.9464 1139.32,731.5064 " fill="none" id="VaccineAdministration-VaccineAdverseReaction" style="stroke:#181818;stroke-width:1.0;"/><polygon fill="#000000" points="1023.9979,728.387,1014.8712,725.7121,1015.042,731.5874,1023.9979,728.387" style="stroke:#000000;stroke-width:1.0;"/><text fill="#000000" font-family="sans-serif" font-size="13" lengthAdjust="spacing" textLength="10" x="1028" y="733.8516">of</text><text fill="#000000" font-family="sans-serif" font-size="13" lengthAdjust="spacing" textLength="7" x="951.8982" y="751.4614">1</text><text fill="#000000" font-family="sans-serif" font-size="13" lengthAdjust="spacing" textLength="5" x="1126.5361" y="746.7806">*</text></g><!--MD5=[2bde3c2658e9820e0f62920496486001]
link Receptionist to VaccinationCenter--><g id="link_Receptionist_VaccinationCenter"><path codeLine="174" d="M1603.75,596.4164 C1618,607.5464 1636.02,621.6764 1652,634.3564 C1702.02,674.0564 1719.74,678.3264 1764,724.3564 C1774.2,734.9664 1784.27,746.6064 1793.88,758.4964 " fill="none" id="Receptionist-VaccinationCenter" style="stroke:#181818;stroke-width:1.0;"/><polygon fill="#000000" points="1698.3051,652.7759,1693.3282,644.6715,1689.515,649.1446,1698.3051,652.7759" style="stroke:#000000;stroke-width:1.0;"/><text fill="#000000" font-family="sans-serif" font-size="13" lengthAdjust="spacing" textLength="52" x="1703.5" y="654.8516">works on</text><text fill="#000000" font-family="sans-serif" font-size="13" lengthAdjust="spacing" textLength="7" x="1603.2891" y="617.8529">1</text><text fill="#000000" font-family="sans-serif" font-size="13" lengthAdjust="spacing" textLength="5" x="1780.9786" y="762.0162">*</text></g><!--MD5=[0315d3fe5090b2fa87bae9083d28af1b]
link Receptionist to EntryRecord--><g id="link_Receptionist_EntryRecord"><path codeLine="176" d="M1632.26,562.1064 C1669.64,551.8564 1720.28,537.0964 1764,521.3564 C1783.67,514.2764 1804.98,505.3864 1823.09,497.4464 " fill="none" id="Receptionist-EntryRecord" style="stroke:#181818;stroke-width:1.0;"/><polygon fill="#000000" points="1698.7355,510.9277,1689.2257,511.0469,1691.112,516.6138,1698.7355,510.9277" style="stroke:#000000;stroke-width:1.0;"/><text fill="#000000" font-family="sans-serif" font-size="13" lengthAdjust="spacing" textLength="53" x="1703" y="517.8516">manages</text><text fill="#000000" font-family="sans-serif" font-size="13" lengthAdjust="spacing" textLength="7" x="1640.1559" y="574.7853">1</text><text fill="#000000" font-family="sans-serif" font-size="13" lengthAdjust="spacing" textLength="5" x="1804.7559" y="518.8913">*</text></g><!--MD5=[a24567c3510e3ad6f6267313b511c941]
@startuml
hide methods

left to right direction
skinparam classAttributeIconSize 1

class Company{
 -designation
}

class HealthCareCenter{
}

class CommunityMassVaccinationCenter {
}

class AGES{
}

class ARS{
}

class Employee{
-id
-name
-email
-address
-phoneNumber
-citizenCardNumber
}

class UserRole{
-id
-designation
}

class User{
-name
-email
-password
}
class CenterCoordinator{
}

class Administrator {
}

class Receptionist{
}

class Nurse{
}

class VaccinationCertificate{
}

class EntryRecord{
}
class VaccineAdverseReaction{
}

class RecoveryRoom{
 -recoveryTime
}

class VaccineAdministration{
 -codeNumber

}
class VaccineSchedule{
 -dateTime
}

class SNSUser {
  -name
  -SNSNumber
  -email
  -phoneNumber
  -birthDate
}

class VaccinationCenter {
  -name
  -phoneNumber
  -email
  -faxNumber
  -websiteAddress
  -openHour
  -closeHour
  -slotDuration
  -fullCapacity
  -maxVaccinePerSlot
}
class TypeOfVaccine{
 -code
 -designation
}

class GroupAge{

}
class Dosage{

}
class Vaccine{
 -nameBrand
 -numberOfVaccines
 -timeBetweenDoses
}

Vaccine "1" - - "*" GroupAge : checks >
Vaccine "1" - - "*" Dosage : checks >

VaccinationCenter  - -  "Address" : has >

CenterCoordinator  - - -|>  UserRole : is a
Company "1"  - - "*" Administrator : owns
Receptionist  - - -|>  UserRole : is a
Nurse  - - -|>  UserRole  : is a

Administrator "1" - - "*" Employee : manages >
Administrator "1" - - "*" TypeOfVaccine : manages >
Administrator "1" - - "*" Vaccine : manages >
Administrator "1" - - "*" VaccinationCenter : manages >
Administrator "1" - - "*" SNSUser : creates >

Company "1" - - "*" SNSUser : owns >
Company "1"  - - "*" User : owns

Company "1" - - "*" Employee : employ >
Company "1" - - "*" UserRole : Compreends >
Employee  - - UserRole : has/plays >
User "0..1"- - "1" Employee : relates to <
User "0..1"- - "1" SNSUser: relates to <

CenterCoordinator "1" - - "1" VaccinationCenter : manages >


ARS "1" - - "*" HealthCareCenter : associated with >
AGES "1" - - "*" HealthCareCenter : associated with >

HealthCareCenter  - -|>  VaccinationCenter : is a
HealthCareCenter "*" - - "*" TypeOfVaccine : administers >

CommunityMassVaccinationCenter "*" - - "1" TypeOfVaccine : administers >
CommunityMassVaccinationCenter  - -|>  VaccinationCenter : is a


TypeOfVaccine "1" - - "*" Vaccine : categorizes >

VaccineSchedule "*" - - "1" TypeOfVaccine : takes >
VaccineSchedule "*" - - "1" Receptionist : checks >

RecoveryRoom "1" - - "*" SNSUser : waits in <
EntryRecord "1" - - "*" SNSUser : gets registered on <

Nurse "1" - - "*" VaccineAdministration: registers>
Nurse "1" - - "*" EntryRecord : checks >
Nurse "1" - - "*" SNSUser : knows the >
Nurse "1" - - "*" VaccinationCertificate : issues >
Nurse "1" - - "*" Vaccine : administers >
Nurse "1" - - "*" VaccinationCenter : works on  >
Nurse "1" - - "*" VaccineAdverseReaction : register >



SNSUser "1" - - "*" VaccineAdministration: administered on <
SNSUser "1" - - "*" VaccineSchedule : created <
SNSUser "1" - - "*" VaccinationCertificate : requests   >

VaccineAdministration "1" - - "*" VaccineSchedule : fulfils >
VaccineAdministration "1" - - "*" Vaccine: of >
VaccineAdministration "1" - - "*" VaccineAdverseReaction : of >

Receptionist "1" - - "*" VaccinationCenter : works on >
Receptionist "1" - - "*" VaccineSchedule : checks  >
Receptionist "1" - - "*" EntryRecord : manages  >


@enduml

PlantUML version 1.2022.4(Sat Apr 09 14:29:17 BST 2022)
(GPL source distribution)
Java Runtime: OpenJDK Runtime Environment
JVM: OpenJDK 64-Bit Server VM
Default Encoding: Cp1252
Language: pt
Country: PT
--></g></svg>