<?xml version="1.0" encoding="UTF-8" standalone="no"?><svg xmlns="http://www.w3.org/2000/svg" xmlns:xlink="http://www.w3.org/1999/xlink" contentStyleType="text/css" height="861px" preserveAspectRatio="none" style="width:389px;height:861px;background:#FFFFFF;" version="1.1" viewBox="0 0 389 861" width="389px" zoomAndPan="magnify"><defs/><g><!--MD5=[72be06cc7ae02ccc98efe28a50e62246]
class SNSUser--><g id="elem_SNSUser"><rect codeLine="5" fill="#F1F1F1" height="128.0469" id="SNSUser" rx="2.5" ry="2.5" style="stroke:#181818;stroke-width:0.5;" width="106" x="46.5" y="7"/><ellipse cx="69.6" cy="23" fill="#ADD1B2" rx="11" ry="11" style="stroke:#181818;stroke-width:1.0;"/><path d="M71.6,19.5 Q71.8031,19 72.0375,18.75 Q72.2719,18.5 72.5375,18.5 Q73.0063,18.5 73.3031,18.7813 Q73.6,19.0625 73.6,19.7188 L73.6,21.2813 Q73.6,21.9375 73.3188,22.2188 Q73.0375,22.5 72.6,22.5 Q72.2094,22.5 71.9594,22.3281 Q71.7094,22.1563 71.6,21.7031 Q71.5531,21.3906 71.3813,21.2188 Q71.0688,20.8906 70.5063,20.7031 Q69.9438,20.5 69.3813,20.5 Q68.6781,20.5 68.0844,20.7813 Q67.5063,21.0625 67.0531,21.6875 Q66.6,22.3125 66.6,23.1719 L66.6,24.0938 Q66.6,25.125 67.4438,25.8125 Q68.2875,26.5 69.7875,26.5 Q70.6781,26.5 71.3031,26.2969 Q71.6625,26.1875 72.0688,25.8281 Q72.3344,25.625 72.475,25.5625 Q72.6156,25.5 72.7875,25.5 Q73.1156,25.5 73.35,25.7656 Q73.6,26.0156 73.6,26.375 Q73.6,26.7188 73.2563,27.125 Q72.7563,27.7188 71.9594,28.0469 Q70.9125,28.5 69.6313,28.5 Q68.1313,28.5 66.9281,27.9063 Q65.9594,27.4375 65.2719,26.4219 Q64.6,25.4063 64.6,24.2031 L64.6,23.1094 Q64.6,21.8594 65.1938,20.7656 Q65.8031,19.6719 66.85,19.0938 Q67.9125,18.5 69.1,18.5 Q69.8188,18.5 70.4438,18.75 Q71.0688,19 71.6,19.5 Z " fill="#000000"/><text fill="#000000" font-family="sans-serif" font-size="14" lengthAdjust="spacing" textLength="56" x="85.4" y="28.7285">SNSUser</text><line style="stroke:#181818;stroke-width:0.5;" x1="47.5" x2="151.5" y1="39" y2="39"/><text fill="#000000" font-family="sans-serif" font-size="14" lengthAdjust="spacing" textLength="40" x="52.5" y="57.5332">-name</text><text fill="#000000" font-family="sans-serif" font-size="14" lengthAdjust="spacing" textLength="81" x="52.5" y="75.1426">-SNSNumber</text><text fill="#000000" font-family="sans-serif" font-size="14" lengthAdjust="spacing" textLength="38" x="52.5" y="92.752">-email</text><text fill="#000000" font-family="sans-serif" font-size="14" lengthAdjust="spacing" textLength="94" x="52.5" y="110.3613">-phoneNumber</text><text fill="#000000" font-family="sans-serif" font-size="14" lengthAdjust="spacing" textLength="63" x="52.5" y="127.9707">-birthDate</text></g><!--MD5=[cd4ce1c0d44638ff9f42448de30e6b92]
class VaccineSchedule--><g id="elem_VaccineSchedule"><rect codeLine="13" fill="#F1F1F1" height="57.6094" id="VaccineSchedule" rx="2.5" ry="2.5" style="stroke:#181818;stroke-width:0.5;" width="141" x="29" y="213"/><ellipse cx="44" cy="229" fill="#ADD1B2" rx="11" ry="11" style="stroke:#181818;stroke-width:1.0;"/><path d="M46,225.5 Q46.2031,225 46.4375,224.75 Q46.6719,224.5 46.9375,224.5 Q47.4063,224.5 47.7031,224.7813 Q48,225.0625 48,225.7188 L48,227.2813 Q48,227.9375 47.7188,228.2188 Q47.4375,228.5 47,228.5 Q46.6094,228.5 46.3594,228.3281 Q46.1094,228.1563 46,227.7031 Q45.9531,227.3906 45.7813,227.2188 Q45.4688,226.8906 44.9063,226.7031 Q44.3438,226.5 43.7813,226.5 Q43.0781,226.5 42.4844,226.7813 Q41.9063,227.0625 41.4531,227.6875 Q41,228.3125 41,229.1719 L41,230.0938 Q41,231.125 41.8438,231.8125 Q42.6875,232.5 44.1875,232.5 Q45.0781,232.5 45.7031,232.2969 Q46.0625,232.1875 46.4688,231.8281 Q46.7344,231.625 46.875,231.5625 Q47.0156,231.5 47.1875,231.5 Q47.5156,231.5 47.75,231.7656 Q48,232.0156 48,232.375 Q48,232.7188 47.6563,233.125 Q47.1563,233.7188 46.3594,234.0469 Q45.3125,234.5 44.0313,234.5 Q42.5313,234.5 41.3281,233.9063 Q40.3594,233.4375 39.6719,232.4219 Q39,231.4063 39,230.2031 L39,229.1094 Q39,227.8594 39.5938,226.7656 Q40.2031,225.6719 41.25,225.0938 Q42.3125,224.5 43.5,224.5 Q44.2188,224.5 44.8438,224.75 Q45.4688,225 46,225.5 Z " fill="#000000"/><text fill="#000000" font-family="sans-serif" font-size="14" lengthAdjust="spacing" textLength="109" x="58" y="234.7285">VaccineSchedule</text><line style="stroke:#181818;stroke-width:0.5;" x1="30" x2="169" y1="245" y2="245"/><text fill="#000000" font-family="sans-serif" font-size="14" lengthAdjust="spacing" textLength="64" x="35" y="263.5332">-dateTime</text></g><!--MD5=[ad32b904b2f122cc39e054e9c13e36ab]
class TypeOfVaccine--><g id="elem_TypeOfVaccine"><rect codeLine="17" fill="#F1F1F1" height="75.2188" id="TypeOfVaccine" rx="2.5" ry="2.5" style="stroke:#181818;stroke-width:0.5;" width="129" x="53" y="419.5"/><ellipse cx="68" cy="435.5" fill="#ADD1B2" rx="11" ry="11" style="stroke:#181818;stroke-width:1.0;"/><path d="M70,432 Q70.2031,431.5 70.4375,431.25 Q70.6719,431 70.9375,431 Q71.4063,431 71.7031,431.2813 Q72,431.5625 72,432.2188 L72,433.7813 Q72,434.4375 71.7188,434.7188 Q71.4375,435 71,435 Q70.6094,435 70.3594,434.8281 Q70.1094,434.6563 70,434.2031 Q69.9531,433.8906 69.7813,433.7188 Q69.4688,433.3906 68.9063,433.2031 Q68.3438,433 67.7813,433 Q67.0781,433 66.4844,433.2813 Q65.9063,433.5625 65.4531,434.1875 Q65,434.8125 65,435.6719 L65,436.5938 Q65,437.625 65.8438,438.3125 Q66.6875,439 68.1875,439 Q69.0781,439 69.7031,438.7969 Q70.0625,438.6875 70.4688,438.3281 Q70.7344,438.125 70.875,438.0625 Q71.0156,438 71.1875,438 Q71.5156,438 71.75,438.2656 Q72,438.5156 72,438.875 Q72,439.2188 71.6563,439.625 Q71.1563,440.2188 70.3594,440.5469 Q69.3125,441 68.0313,441 Q66.5313,441 65.3281,440.4063 Q64.3594,439.9375 63.6719,438.9219 Q63,437.9063 63,436.7031 L63,435.6094 Q63,434.3594 63.5938,433.2656 Q64.2031,432.1719 65.25,431.5938 Q66.3125,431 67.5,431 Q68.2188,431 68.8438,431.25 Q69.4688,431.5 70,432 Z " fill="#000000"/><text fill="#000000" font-family="sans-serif" font-size="14" lengthAdjust="spacing" textLength="97" x="82" y="441.2285">TypeOfVaccine</text><line style="stroke:#181818;stroke-width:0.5;" x1="54" x2="181" y1="451.5" y2="451.5"/><text fill="#000000" font-family="sans-serif" font-size="14" lengthAdjust="spacing" textLength="36" x="59" y="470.0332">-code</text><text fill="#000000" font-family="sans-serif" font-size="14" lengthAdjust="spacing" textLength="78" x="59" y="487.6426">-designation</text></g><!--MD5=[19e445fc4d3b48519cbe33da05496394]
class Vaccine--><g id="elem_Vaccine"><rect codeLine="22" fill="#F1F1F1" height="92.8281" id="Vaccine" rx="2.5" ry="2.5" style="stroke:#181818;stroke-width:0.5;" width="137" x="49" y="643"/><ellipse cx="88.75" cy="659" fill="#ADD1B2" rx="11" ry="11" style="stroke:#181818;stroke-width:1.0;"/><path d="M90.75,655.5 Q90.9531,655 91.1875,654.75 Q91.4219,654.5 91.6875,654.5 Q92.1563,654.5 92.4531,654.7813 Q92.75,655.0625 92.75,655.7188 L92.75,657.2813 Q92.75,657.9375 92.4688,658.2188 Q92.1875,658.5 91.75,658.5 Q91.3594,658.5 91.1094,658.3281 Q90.8594,658.1563 90.75,657.7031 Q90.7031,657.3906 90.5313,657.2188 Q90.2188,656.8906 89.6563,656.7031 Q89.0938,656.5 88.5313,656.5 Q87.8281,656.5 87.2344,656.7813 Q86.6563,657.0625 86.2031,657.6875 Q85.75,658.3125 85.75,659.1719 L85.75,660.0938 Q85.75,661.125 86.5938,661.8125 Q87.4375,662.5 88.9375,662.5 Q89.8281,662.5 90.4531,662.2969 Q90.8125,662.1875 91.2188,661.8281 Q91.4844,661.625 91.625,661.5625 Q91.7656,661.5 91.9375,661.5 Q92.2656,661.5 92.5,661.7656 Q92.75,662.0156 92.75,662.375 Q92.75,662.7188 92.4063,663.125 Q91.9063,663.7188 91.1094,664.0469 Q90.0625,664.5 88.7813,664.5 Q87.2813,664.5 86.0781,663.9063 Q85.1094,663.4375 84.4219,662.4219 Q83.75,661.4063 83.75,660.2031 L83.75,659.1094 Q83.75,657.8594 84.3438,656.7656 Q84.9531,655.6719 86,655.0938 Q87.0625,654.5 88.25,654.5 Q88.9688,654.5 89.5938,654.75 Q90.2188,655 90.75,655.5 Z " fill="#000000"/><text fill="#000000" font-family="sans-serif" font-size="14" lengthAdjust="spacing" textLength="50" x="108.25" y="664.7285">Vaccine</text><line style="stroke:#181818;stroke-width:0.5;" x1="50" x2="185" y1="675" y2="675"/><text fill="#000000" font-family="sans-serif" font-size="14" lengthAdjust="spacing" textLength="78" x="55" y="693.5332">-nameBrand</text><text fill="#000000" font-family="sans-serif" font-size="14" lengthAdjust="spacing" textLength="125" x="55" y="711.1426">-numberOfVaccines</text><text fill="#000000" font-family="sans-serif" font-size="14" lengthAdjust="spacing" textLength="125" x="55" y="728.752">-timeBetweenDoses</text></g><!--MD5=[de60e6d4f424ae4d0522096f76a59010]
class VaccinationCenter--><g id="elem_VaccinationCenter"><rect codeLine="28" fill="#F1F1F1" height="216.0938" id="VaccinationCenter" rx="2.5" ry="2.5" style="stroke:#181818;stroke-width:0.5;" width="148" x="234.5" y="349"/><ellipse cx="249.5" cy="365" fill="#ADD1B2" rx="11" ry="11" style="stroke:#181818;stroke-width:1.0;"/><path d="M251.5,361.5 Q251.7031,361 251.9375,360.75 Q252.1719,360.5 252.4375,360.5 Q252.9063,360.5 253.2031,360.7813 Q253.5,361.0625 253.5,361.7188 L253.5,363.2813 Q253.5,363.9375 253.2188,364.2188 Q252.9375,364.5 252.5,364.5 Q252.1094,364.5 251.8594,364.3281 Q251.6094,364.1563 251.5,363.7031 Q251.4531,363.3906 251.2813,363.2188 Q250.9688,362.8906 250.4063,362.7031 Q249.8438,362.5 249.2813,362.5 Q248.5781,362.5 247.9844,362.7813 Q247.4063,363.0625 246.9531,363.6875 Q246.5,364.3125 246.5,365.1719 L246.5,366.0938 Q246.5,367.125 247.3438,367.8125 Q248.1875,368.5 249.6875,368.5 Q250.5781,368.5 251.2031,368.2969 Q251.5625,368.1875 251.9688,367.8281 Q252.2344,367.625 252.375,367.5625 Q252.5156,367.5 252.6875,367.5 Q253.0156,367.5 253.25,367.7656 Q253.5,368.0156 253.5,368.375 Q253.5,368.7188 253.1563,369.125 Q252.6563,369.7188 251.8594,370.0469 Q250.8125,370.5 249.5313,370.5 Q248.0313,370.5 246.8281,369.9063 Q245.8594,369.4375 245.1719,368.4219 Q244.5,367.4063 244.5,366.2031 L244.5,365.1094 Q244.5,363.8594 245.0938,362.7656 Q245.7031,361.6719 246.75,361.0938 Q247.8125,360.5 249,360.5 Q249.7188,360.5 250.3438,360.75 Q250.9688,361 251.5,361.5 Z " fill="#000000"/><text fill="#000000" font-family="sans-serif" font-size="14" lengthAdjust="spacing" textLength="116" x="263.5" y="370.7285">VaccinationCenter</text><line style="stroke:#181818;stroke-width:0.5;" x1="235.5" x2="381.5" y1="381" y2="381"/><text fill="#000000" font-family="sans-serif" font-size="14" lengthAdjust="spacing" textLength="40" x="240.5" y="399.5332">-name</text><text fill="#000000" font-family="sans-serif" font-size="14" lengthAdjust="spacing" textLength="94" x="240.5" y="417.1426">-phoneNumber</text><text fill="#000000" font-family="sans-serif" font-size="14" lengthAdjust="spacing" textLength="38" x="240.5" y="434.752">-email</text><text fill="#000000" font-family="sans-serif" font-size="14" lengthAdjust="spacing" textLength="72" x="240.5" y="452.3613">-faxNumber</text><text fill="#000000" font-family="sans-serif" font-size="14" lengthAdjust="spacing" textLength="104" x="240.5" y="469.9707">-websiteAddress</text><text fill="#000000" font-family="sans-serif" font-size="14" lengthAdjust="spacing" textLength="67" x="240.5" y="487.5801">-openHour</text><text fill="#000000" font-family="sans-serif" font-size="14" lengthAdjust="spacing" textLength="68" x="240.5" y="505.1895">-closeHour</text><text fill="#000000" font-family="sans-serif" font-size="14" lengthAdjust="spacing" textLength="81" x="240.5" y="522.7988">-slotDuration</text><text fill="#000000" font-family="sans-serif" font-size="14" lengthAdjust="spacing" textLength="78" x="240.5" y="540.4082">-fullCapacity</text><text fill="#000000" font-family="sans-serif" font-size="14" lengthAdjust="spacing" textLength="126" x="240.5" y="558.0176">-maxVaccinePerSlot</text></g><!--MD5=[1db03e903fe0a044a2ca0dcbef10799a]
class HealthCareCenter--><g id="elem_HealthCareCenter"><rect codeLine="41" fill="#F1F1F1" height="40" id="HealthCareCenter" rx="2.5" ry="2.5" style="stroke:#181818;stroke-width:0.5;" width="146" x="220.5" y="222"/><ellipse cx="235.5" cy="238" fill="#ADD1B2" rx="11" ry="11" style="stroke:#181818;stroke-width:1.0;"/><path d="M237.5,234.5 Q237.7031,234 237.9375,233.75 Q238.1719,233.5 238.4375,233.5 Q238.9063,233.5 239.2031,233.7813 Q239.5,234.0625 239.5,234.7188 L239.5,236.2813 Q239.5,236.9375 239.2188,237.2188 Q238.9375,237.5 238.5,237.5 Q238.1094,237.5 237.8594,237.3281 Q237.6094,237.1563 237.5,236.7031 Q237.4531,236.3906 237.2813,236.2188 Q236.9688,235.8906 236.4063,235.7031 Q235.8438,235.5 235.2813,235.5 Q234.5781,235.5 233.9844,235.7813 Q233.4063,236.0625 232.9531,236.6875 Q232.5,237.3125 232.5,238.1719 L232.5,239.0938 Q232.5,240.125 233.3438,240.8125 Q234.1875,241.5 235.6875,241.5 Q236.5781,241.5 237.2031,241.2969 Q237.5625,241.1875 237.9688,240.8281 Q238.2344,240.625 238.375,240.5625 Q238.5156,240.5 238.6875,240.5 Q239.0156,240.5 239.25,240.7656 Q239.5,241.0156 239.5,241.375 Q239.5,241.7188 239.1563,242.125 Q238.6563,242.7188 237.8594,243.0469 Q236.8125,243.5 235.5313,243.5 Q234.0313,243.5 232.8281,242.9063 Q231.8594,242.4375 231.1719,241.4219 Q230.5,240.4063 230.5,239.2031 L230.5,238.1094 Q230.5,236.8594 231.0938,235.7656 Q231.7031,234.6719 232.75,234.0938 Q233.8125,233.5 235,233.5 Q235.7188,233.5 236.3438,233.75 Q236.9688,234 237.5,234.5 Z " fill="#000000"/><text fill="#000000" font-family="sans-serif" font-size="14" lengthAdjust="spacing" textLength="114" x="249.5" y="243.7285">HealthCareCenter</text><line style="stroke:#181818;stroke-width:0.5;" x1="221.5" x2="365.5" y1="254" y2="254"/></g><!--MD5=[bde476362be781128b100750047ae6b5]
class GroupAge--><g id="elem_GroupAge"><rect fill="#F1F1F1" height="40" id="GroupAge" rx="2.5" ry="2.5" style="stroke:#181818;stroke-width:0.5;" width="97" x="7" y="814"/><ellipse cx="22" cy="830" fill="#ADD1B2" rx="11" ry="11" style="stroke:#181818;stroke-width:1.0;"/><path d="M24,826.5 Q24.2031,826 24.4375,825.75 Q24.6719,825.5 24.9375,825.5 Q25.4063,825.5 25.7031,825.7813 Q26,826.0625 26,826.7188 L26,828.2813 Q26,828.9375 25.7188,829.2188 Q25.4375,829.5 25,829.5 Q24.6094,829.5 24.3594,829.3281 Q24.1094,829.1563 24,828.7031 Q23.9531,828.3906 23.7813,828.2188 Q23.4688,827.8906 22.9063,827.7031 Q22.3438,827.5 21.7813,827.5 Q21.0781,827.5 20.4844,827.7813 Q19.9063,828.0625 19.4531,828.6875 Q19,829.3125 19,830.1719 L19,831.0938 Q19,832.125 19.8438,832.8125 Q20.6875,833.5 22.1875,833.5 Q23.0781,833.5 23.7031,833.2969 Q24.0625,833.1875 24.4688,832.8281 Q24.7344,832.625 24.875,832.5625 Q25.0156,832.5 25.1875,832.5 Q25.5156,832.5 25.75,832.7656 Q26,833.0156 26,833.375 Q26,833.7188 25.6563,834.125 Q25.1563,834.7188 24.3594,835.0469 Q23.3125,835.5 22.0313,835.5 Q20.5313,835.5 19.3281,834.9063 Q18.3594,834.4375 17.6719,833.4219 Q17,832.4063 17,831.2031 L17,830.1094 Q17,828.8594 17.5938,827.7656 Q18.2031,826.6719 19.25,826.0938 Q20.3125,825.5 21.5,825.5 Q22.2188,825.5 22.8438,825.75 Q23.4688,826 24,826.5 Z " fill="#000000"/><text fill="#000000" font-family="sans-serif" font-size="14" lengthAdjust="spacing" textLength="65" x="36" y="835.7285">GroupAge</text><line style="stroke:#181818;stroke-width:0.5;" x1="8" x2="103" y1="846" y2="846"/></g><!--MD5=[b3411a3750bc281802b6652af7ee7751]
class Dosage--><g id="elem_Dosage"><rect fill="#F1F1F1" height="40" id="Dosage" rx="2.5" ry="2.5" style="stroke:#181818;stroke-width:0.5;" width="81" x="139" y="814"/><ellipse cx="154" cy="830" fill="#ADD1B2" rx="11" ry="11" style="stroke:#181818;stroke-width:1.0;"/><path d="M156,826.5 Q156.2031,826 156.4375,825.75 Q156.6719,825.5 156.9375,825.5 Q157.4063,825.5 157.7031,825.7813 Q158,826.0625 158,826.7188 L158,828.2813 Q158,828.9375 157.7188,829.2188 Q157.4375,829.5 157,829.5 Q156.6094,829.5 156.3594,829.3281 Q156.1094,829.1563 156,828.7031 Q155.9531,828.3906 155.7813,828.2188 Q155.4688,827.8906 154.9063,827.7031 Q154.3438,827.5 153.7813,827.5 Q153.0781,827.5 152.4844,827.7813 Q151.9063,828.0625 151.4531,828.6875 Q151,829.3125 151,830.1719 L151,831.0938 Q151,832.125 151.8438,832.8125 Q152.6875,833.5 154.1875,833.5 Q155.0781,833.5 155.7031,833.2969 Q156.0625,833.1875 156.4688,832.8281 Q156.7344,832.625 156.875,832.5625 Q157.0156,832.5 157.1875,832.5 Q157.5156,832.5 157.75,832.7656 Q158,833.0156 158,833.375 Q158,833.7188 157.6563,834.125 Q157.1563,834.7188 156.3594,835.0469 Q155.3125,835.5 154.0313,835.5 Q152.5313,835.5 151.3281,834.9063 Q150.3594,834.4375 149.6719,833.4219 Q149,832.4063 149,831.2031 L149,830.1094 Q149,828.8594 149.5938,827.7656 Q150.2031,826.6719 151.25,826.0938 Q152.3125,825.5 153.5,825.5 Q154.2188,825.5 154.8438,825.75 Q155.4688,826 156,826.5 Z " fill="#000000"/><text fill="#000000" font-family="sans-serif" font-size="14" lengthAdjust="spacing" textLength="49" x="168" y="835.7285">Dosage</text><line style="stroke:#181818;stroke-width:0.5;" x1="140" x2="219" y1="846" y2="846"/></g><!--MD5=[dd9ff7caaca0f048844225eaee538a02]
link Vaccine to GroupAge--><g id="link_Vaccine_GroupAge"><path codeLine="44" d="M93.28,736.39 C88.49,746.07 83.66,756.29 79.5,766 C72.68,781.9 66.14,800.45 61.62,813.99 " fill="none" id="Vaccine-GroupAge" style="stroke:#181818;stroke-width:1.0;"/><polygon fill="#000000" points="82.6112,779.8053,88.7492,772.5406,83.3069,770.3202,82.6112,779.8053" style="stroke:#000000;stroke-width:1.0;"/><text fill="#000000" font-family="sans-serif" font-size="13" lengthAdjust="spacing" textLength="42" x="93.5" y="780.4951">checks</text><text fill="#000000" font-family="sans-serif" font-size="13" lengthAdjust="spacing" textLength="7" x="82.5551" y="757.2961">1</text><text fill="#000000" font-family="sans-serif" font-size="13" lengthAdjust="spacing" textLength="5" x="57.6834" y="803.3088">*</text></g><!--MD5=[0026e2caddc4ad7d2f890d63204af1d5]
link Vaccine to Dosage--><g id="link_Vaccine_Dosage"><path codeLine="45" d="M137.46,736.37 C148.86,762.57 162.55,794.03 171.14,813.78 " fill="none" id="Vaccine-Dosage" style="stroke:#181818;stroke-width:1.0;"/><text fill="#000000" font-family="sans-serif" font-size="13" lengthAdjust="spacing" textLength="42" x="159.5" y="780.4951">checks</text><text fill="#000000" font-family="sans-serif" font-size="13" lengthAdjust="spacing" textLength="7" x="132.6718" y="757.2734">1</text><text fill="#000000" font-family="sans-serif" font-size="13" lengthAdjust="spacing" textLength="5" x="162.9499" y="803.0371">*</text></g><!--MD5=[4bf92790d4930e6927233f0345ffcb5c]
link SNSUser to VaccineSchedule--><g id="link_SNSUser_VaccineSchedule"><path codeLine="46" d="M99.5,135.41 C99.5,162.01 99.5,191.59 99.5,212.66 " fill="none" id="SNSUser-VaccineSchedule" style="stroke:#181818;stroke-width:1.0;"/><polygon fill="#000000" points="104.5,169.1758,101.5611,178.2209,107.4389,178.2209,104.5,169.1758" style="stroke:#000000;stroke-width:1.0;"/><text fill="#000000" font-family="sans-serif" font-size="13" lengthAdjust="spacing" textLength="43" x="113.5" y="179.4951">created</text><text fill="#000000" font-family="sans-serif" font-size="13" lengthAdjust="spacing" textLength="7" x="92.1391" y="156.3881">1</text><text fill="#000000" font-family="sans-serif" font-size="13" lengthAdjust="spacing" textLength="5" x="93.9531" y="202.0682">*</text></g><!--MD5=[b0c09337cbb77d2135bc8d5854e16cf8]
link VaccineSchedule to TypeOfVaccine--><g id="link_VaccineSchedule_TypeOfVaccine"><path codeLine="47" d="M97.76,271.01 C97.24,280.53 96.75,291.22 96.5,301 C96.29,309 95.89,311.02 96.5,319 C99.11,353.19 105.32,391.77 110.31,419.25 " fill="none" id="VaccineSchedule-TypeOfVaccine" style="stroke:#181818;stroke-width:1.0;"/><polygon fill="#000000" points="101.9218,315.158,104.0872,305.8972,98.2303,306.393,101.9218,315.158" style="stroke:#000000;stroke-width:1.0;"/><text fill="#000000" font-family="sans-serif" font-size="13" lengthAdjust="spacing" textLength="32" x="110.5" y="315.4951">takes</text><text fill="#000000" font-family="sans-serif" font-size="13" lengthAdjust="spacing" textLength="5" x="91.8855" y="292.215">*</text><text fill="#000000" font-family="sans-serif" font-size="13" lengthAdjust="spacing" textLength="7" x="101.4058" y="408.6077">1</text></g><!--MD5=[2de32f8dee38664ec07413075ed961c1]
link TypeOfVaccine to Vaccine--><g id="link_TypeOfVaccine_Vaccine"><path codeLine="48" d="M117.5,494.52 C117.5,534.64 117.5,599.13 117.5,642.62 " fill="none" id="TypeOfVaccine-Vaccine" style="stroke:#181818;stroke-width:1.0;"/><polygon fill="#000000" points="122.5,609.1758,125.4389,600.1307,119.5611,600.1307,122.5,609.1758" style="stroke:#000000;stroke-width:1.0;"/><text fill="#000000" font-family="sans-serif" font-size="13" lengthAdjust="spacing" textLength="67" x="131.5" y="609.4951">categorizes</text><text fill="#000000" font-family="sans-serif" font-size="13" lengthAdjust="spacing" textLength="7" x="109.8766" y="516.1352">1</text><text fill="#000000" font-family="sans-serif" font-size="13" lengthAdjust="spacing" textLength="5" x="112.1328" y="632.0931">*</text></g><!--MD5=[24decf725344aa661a172bb43c769772]
link HealthCareCenter to TypeOfVaccine--><g id="link_HealthCareCenter_TypeOfVaccine"><path codeLine="49" d="M258.16,262.22 C241.75,272.3 222.77,285.73 208.5,301 C175.37,336.46 148.91,386.03 133.25,419.48 " fill="none" id="HealthCareCenter-TypeOfVaccine" style="stroke:#181818;stroke-width:1.0;"/><polygon fill="#000000" points="210.3902,314.091,218.3172,308.8362,213.7146,305.1804,210.3902,314.091" style="stroke:#000000;stroke-width:1.0;"/><text fill="#000000" font-family="sans-serif" font-size="13" lengthAdjust="spacing" textLength="67" x="222.5" y="315.4951">administers</text><text fill="#000000" font-family="sans-serif" font-size="13" lengthAdjust="spacing" textLength="5" x="242.9905" y="283.3465">*</text><text fill="#000000" font-family="sans-serif" font-size="13" lengthAdjust="spacing" textLength="5" x="130.693" y="408.5946">*</text></g><!--MD5=[98987725eaf233391716763c4133cca1]
link HealthCareCenter to VaccinationCenter--><g id="link_HealthCareCenter_VaccinationCenter"><path codeLine="50" d="M294.86,262.28 C295.99,278.31 297.7,302.66 299.54,328.73 " fill="none" id="HealthCareCenter-to-VaccinationCenter" style="stroke:#181818;stroke-width:1.0;"/><polygon fill="none" points="306.54,328.46,300.96,348.9,292.57,329.44,306.54,328.46" style="stroke:#181818;stroke-width:1.0;"/><text fill="#000000" font-family="sans-serif" font-size="13" lengthAdjust="spacing" textLength="21" x="300.5" y="315.4951">is a</text></g><!--MD5=[e0869edbc1eacf1373a762093cf61c9a]
@startuml
hide methods
skinparam classAttributeIconSize 0


class SNSUser {
  -name
  -SNSNumber
  -email
  -phoneNumber
  -birthDate
}

class VaccineSchedule{
 -dateTime
}

class TypeOfVaccine{
 -code
 -designation
}

class Vaccine{
 -nameBrand
 -numberOfVaccines
 -timeBetweenDoses
}

class VaccinationCenter {
  -name
  -phoneNumber
  -email
  -faxNumber
  -websiteAddress
  -openHour
  -closeHour
  -slotDuration
  -fullCapacity
  -maxVaccinePerSlot
}

class HealthCareCenter{
}

Vaccine "1" - - "*" GroupAge : checks >
Vaccine "1" - - "*" Dosage : checks
SNSUser "1" - - "*" VaccineSchedule : created <
VaccineSchedule "*" - - "1" TypeOfVaccine : takes >
TypeOfVaccine "1" - - "*" Vaccine : categorizes >
HealthCareCenter "*" - - "*" TypeOfVaccine : administers >
HealthCareCenter  - -|>  VaccinationCenter : is a




@enduml

PlantUML version 1.2022.4(Sat Apr 09 14:29:17 BST 2022)
(GPL source distribution)
Java Runtime: OpenJDK Runtime Environment
JVM: OpenJDK 64-Bit Server VM
Default Encoding: Cp1252
Language: pt
Country: PT
--></g></svg>