<?xml version="1.0" encoding="UTF-8" standalone="no"?><svg xmlns="http://www.w3.org/2000/svg" xmlns:xlink="http://www.w3.org/1999/xlink" contentStyleType="text/css" height="1243px" preserveAspectRatio="none" style="width:1700px;height:1243px;background:#FFFFFF;" version="1.1" viewBox="0 0 1700 1243" width="1700px" zoomAndPan="magnify"><defs/><g><rect fill="#FFFFFF" height="1051.0859" style="stroke:#181818;stroke-width:1.0;" width="10" x="42" y="92.6094"/><rect fill="#FFFFFF" height="30.3516" style="stroke:#181818;stroke-width:1.0;" width="10" x="730" y="114.9609"/><rect fill="#FFFFFF" height="502.5156" style="stroke:#181818;stroke-width:1.0;" width="10" x="730" y="175.6641"/><rect fill="#FFFFFF" height="435.1641" style="stroke:#181818;stroke-width:1.0;" width="10" x="730" y="708.5313"/><rect fill="#FFFFFF" height="247.7578" style="stroke:#181818;stroke-width:1.0;" width="10" x="936" y="206.0156"/><rect fill="#FFFFFF" height="367.4609" style="stroke:#181818;stroke-width:1.0;" width="10" x="936" y="738.8828"/><rect fill="#FFFFFF" height="60.3516" style="stroke:#181818;stroke-width:1.0;" width="10" x="1198" y="236.3672"/><rect fill="#FFFFFF" height="728.9219" style="stroke:#181818;stroke-width:1.0;" width="10" x="1198" y="423.7734"/><rect fill="#FFFFFF" height="28" style="stroke:#181818;stroke-width:1.0;" width="10" x="1203" y="612.8281"/><rect fill="#FFFFFF" height="337.1094" style="stroke:#181818;stroke-width:1.0;" width="10" x="1203" y="769.2344"/><rect fill="#FFFFFF" height="28" style="stroke:#181818;stroke-width:1.0;" width="10" x="1208" y="807.5859"/><rect fill="#FFFFFF" height="28" style="stroke:#181818;stroke-width:1.0;" width="10" x="1208" y="1078.3438"/><rect fill="#FFFFFF" height="90.3516" style="stroke:#181818;stroke-width:1.0;" width="10" x="1398" y="266.7188"/><rect fill="#FFFFFF" height="30" style="stroke:#181818;stroke-width:1.0;" width="10" x="1398" y="484.125"/><rect fill="#FFFFFF" height="30" style="stroke:#181818;stroke-width:1.0;" width="10" x="1398" y="872.9375"/><rect fill="#FFFFFF" height="30" style="stroke:#181818;stroke-width:1.0;" width="10" x="1398" y="933.2891"/><rect fill="#FFFFFF" height="30" style="stroke:#181818;stroke-width:1.0;" width="10" x="1538" y="327.0703"/><rect fill="#FFFFFF" height="30" style="stroke:#181818;stroke-width:1.0;" width="10" x="1643.5" y="544.4766"/><rect fill="#FFFFFF" height="30" style="stroke:#181818;stroke-width:1.0;" width="10" x="1643.5" y="1009.9922"/><line style="stroke:#181818;stroke-width:0.5;stroke-dasharray:5.0,5.0;" x1="47" x2="47" y1="82.6094" y2="1161.6953"/><line style="stroke:#181818;stroke-width:0.5;stroke-dasharray:5.0,5.0;" x1="734.5" x2="734.5" y1="82.6094" y2="1161.6953"/><line style="stroke:#181818;stroke-width:0.5;stroke-dasharray:5.0,5.0;" x1="940.5" x2="940.5" y1="82.6094" y2="1161.6953"/><line style="stroke:#181818;stroke-width:0.5;stroke-dasharray:5.0,5.0;" x1="1203" x2="1203" y1="82.6094" y2="1161.6953"/><line style="stroke:#181818;stroke-width:0.5;stroke-dasharray:5.0,5.0;" x1="1403" x2="1403" y1="82.6094" y2="1161.6953"/><line style="stroke:#181818;stroke-width:0.5;stroke-dasharray:5.0,5.0;" x1="1543" x2="1543" y1="82.6094" y2="1161.6953"/><line style="stroke:#181818;stroke-width:0.5;stroke-dasharray:5.0,5.0;" x1="1648" x2="1648" y1="82.6094" y2="1161.6953"/><text fill="#000000" font-family="sans-serif" font-size="14" lengthAdjust="spacing" textLength="78" x="5" y="79.5332">Receptionist</text><ellipse cx="47" cy="13.5" fill="#E2E2F0" rx="8" ry="8" style="stroke:#181818;stroke-width:0.5;"/><path d="M47,21.5 L47,48.5 M34,29.5 L60,29.5 M47,48.5 L34,63.5 M47,48.5 L60,63.5 " fill="none" style="stroke:#181818;stroke-width:0.5;"/><text fill="#000000" font-family="sans-serif" font-size="14" lengthAdjust="spacing" textLength="78" x="5" y="1175.2285">Receptionist</text><ellipse cx="47" cy="1186.8047" fill="#E2E2F0" rx="8" ry="8" style="stroke:#181818;stroke-width:0.5;"/><path d="M47,1194.8047 L47,1221.8047 M34,1202.8047 L60,1202.8047 M47,1221.8047 L34,1236.8047 M47,1221.8047 L60,1236.8047 " fill="none" style="stroke:#181818;stroke-width:0.5;"/><rect fill="#E2E2F0" height="49.2188" rx="2.5" ry="2.5" style="stroke:#181818;stroke-width:0.5;" width="135" x="667.5" y="32.3906"/><text fill="#000000" font-family="sans-serif" font-size="14" lengthAdjust="spacing" textLength="4" x="733" y="53.9238">:</text><text fill="#000000" font-family="sans-serif" font-size="14" lengthAdjust="spacing" textLength="121" x="674.5" y="71.5332">RegisterSNSUserUI</text><rect fill="#E2E2F0" height="49.2188" rx="2.5" ry="2.5" style="stroke:#181818;stroke-width:0.5;" width="135" x="667.5" y="1160.6953"/><text fill="#000000" font-family="sans-serif" font-size="14" lengthAdjust="spacing" textLength="4" x="733" y="1182.2285">:</text><text fill="#000000" font-family="sans-serif" font-size="14" lengthAdjust="spacing" textLength="121" x="674.5" y="1199.8379">RegisterSNSUserUI</text><rect fill="#E2E2F0" height="49.2188" rx="2.5" ry="2.5" style="stroke:#181818;stroke-width:0.5;" width="185" x="848.5" y="32.3906"/><text fill="#000000" font-family="sans-serif" font-size="14" lengthAdjust="spacing" textLength="4" x="939" y="53.9238">:</text><text fill="#000000" font-family="sans-serif" font-size="14" lengthAdjust="spacing" textLength="171" x="855.5" y="71.5332">RegisterSNSUserController</text><rect fill="#E2E2F0" height="49.2188" rx="2.5" ry="2.5" style="stroke:#181818;stroke-width:0.5;" width="185" x="848.5" y="1160.6953"/><text fill="#000000" font-family="sans-serif" font-size="14" lengthAdjust="spacing" textLength="4" x="939" y="1182.2285">:</text><text fill="#000000" font-family="sans-serif" font-size="14" lengthAdjust="spacing" textLength="171" x="855.5" y="1199.8379">RegisterSNSUserController</text><rect fill="#E2E2F0" height="49.2188" rx="2.5" ry="2.5" style="stroke:#181818;stroke-width:0.5;" width="74" x="1166" y="32.3906"/><text fill="#000000" font-family="sans-serif" font-size="14" lengthAdjust="spacing" textLength="4" x="1201" y="53.9238">:</text><text fill="#000000" font-family="sans-serif" font-size="14" lengthAdjust="spacing" textLength="60" x="1173" y="71.5332">Company</text><rect fill="#E2E2F0" height="49.2188" rx="2.5" ry="2.5" style="stroke:#181818;stroke-width:0.5;" width="74" x="1166" y="1160.6953"/><text fill="#000000" font-family="sans-serif" font-size="14" lengthAdjust="spacing" textLength="4" x="1201" y="1182.2285">:</text><text fill="#000000" font-family="sans-serif" font-size="14" lengthAdjust="spacing" textLength="60" x="1173" y="1199.8379">Company</text><rect fill="#E2E2F0" height="49.2188" rx="2.5" ry="2.5" style="stroke:#181818;stroke-width:0.5;" width="70" x="1368" y="32.3906"/><text fill="#000000" font-family="sans-serif" font-size="14" lengthAdjust="spacing" textLength="55" x="1375.5" y="53.9238">snsUser:</text><text fill="#000000" font-family="sans-serif" font-size="14" lengthAdjust="spacing" textLength="56" x="1375" y="71.5332">SNSUser</text><rect fill="#E2E2F0" height="49.2188" rx="2.5" ry="2.5" style="stroke:#181818;stroke-width:0.5;" width="70" x="1368" y="1160.6953"/><text fill="#000000" font-family="sans-serif" font-size="14" lengthAdjust="spacing" textLength="55" x="1375.5" y="1182.2285">snsUser:</text><text fill="#000000" font-family="sans-serif" font-size="14" lengthAdjust="spacing" textLength="56" x="1375" y="1199.8379">SNSUser</text><rect fill="#E2E2F0" height="49.2188" rx="2.5" ry="2.5" style="stroke:#181818;stroke-width:0.5;" width="100" x="1493" y="32.3906"/><text fill="#000000" font-family="sans-serif" font-size="14" lengthAdjust="spacing" textLength="77" x="1504.5" y="53.9238">snsUserDto:</text><text fill="#000000" font-family="sans-serif" font-size="14" lengthAdjust="spacing" textLength="86" x="1500" y="71.5332">SNSUserDTO</text><rect fill="#E2E2F0" height="49.2188" rx="2.5" ry="2.5" style="stroke:#181818;stroke-width:0.5;" width="100" x="1493" y="1160.6953"/><text fill="#000000" font-family="sans-serif" font-size="14" lengthAdjust="spacing" textLength="77" x="1504.5" y="1182.2285">snsUserDto:</text><text fill="#000000" font-family="sans-serif" font-size="14" lengthAdjust="spacing" textLength="86" x="1500" y="1199.8379">SNSUserDTO</text><rect fill="#E2E2F0" height="49.2188" rx="2.5" ry="2.5" style="stroke:#181818;stroke-width:0.5;" width="91" x="1603" y="32.3906"/><text fill="#000000" font-family="sans-serif" font-size="14" lengthAdjust="spacing" textLength="4" x="1646.5" y="53.9238">:</text><text fill="#000000" font-family="sans-serif" font-size="14" lengthAdjust="spacing" textLength="77" x="1610" y="71.5332">AuthFacade</text><rect fill="#E2E2F0" height="49.2188" rx="2.5" ry="2.5" style="stroke:#181818;stroke-width:0.5;" width="91" x="1603" y="1160.6953"/><text fill="#000000" font-family="sans-serif" font-size="14" lengthAdjust="spacing" textLength="4" x="1646.5" y="1182.2285">:</text><text fill="#000000" font-family="sans-serif" font-size="14" lengthAdjust="spacing" textLength="77" x="1610" y="1199.8379">AuthFacade</text><rect fill="#FFFFFF" height="1051.0859" style="stroke:#181818;stroke-width:1.0;" width="10" x="42" y="92.6094"/><rect fill="#FFFFFF" height="30.3516" style="stroke:#181818;stroke-width:1.0;" width="10" x="730" y="114.9609"/><rect fill="#FFFFFF" height="502.5156" style="stroke:#181818;stroke-width:1.0;" width="10" x="730" y="175.6641"/><rect fill="#FFFFFF" height="435.1641" style="stroke:#181818;stroke-width:1.0;" width="10" x="730" y="708.5313"/><rect fill="#FFFFFF" height="247.7578" style="stroke:#181818;stroke-width:1.0;" width="10" x="936" y="206.0156"/><rect fill="#FFFFFF" height="367.4609" style="stroke:#181818;stroke-width:1.0;" width="10" x="936" y="738.8828"/><rect fill="#FFFFFF" height="60.3516" style="stroke:#181818;stroke-width:1.0;" width="10" x="1198" y="236.3672"/><rect fill="#FFFFFF" height="728.9219" style="stroke:#181818;stroke-width:1.0;" width="10" x="1198" y="423.7734"/><rect fill="#FFFFFF" height="28" style="stroke:#181818;stroke-width:1.0;" width="10" x="1203" y="612.8281"/><rect fill="#FFFFFF" height="337.1094" style="stroke:#181818;stroke-width:1.0;" width="10" x="1203" y="769.2344"/><rect fill="#FFFFFF" height="28" style="stroke:#181818;stroke-width:1.0;" width="10" x="1208" y="807.5859"/><rect fill="#FFFFFF" height="28" style="stroke:#181818;stroke-width:1.0;" width="10" x="1208" y="1078.3438"/><rect fill="#FFFFFF" height="90.3516" style="stroke:#181818;stroke-width:1.0;" width="10" x="1398" y="266.7188"/><rect fill="#FFFFFF" height="30" style="stroke:#181818;stroke-width:1.0;" width="10" x="1398" y="484.125"/><rect fill="#FFFFFF" height="30" style="stroke:#181818;stroke-width:1.0;" width="10" x="1398" y="872.9375"/><rect fill="#FFFFFF" height="30" style="stroke:#181818;stroke-width:1.0;" width="10" x="1398" y="933.2891"/><rect fill="#FFFFFF" height="30" style="stroke:#181818;stroke-width:1.0;" width="10" x="1538" y="327.0703"/><rect fill="#FFFFFF" height="30" style="stroke:#181818;stroke-width:1.0;" width="10" x="1643.5" y="544.4766"/><rect fill="#FFFFFF" height="30" style="stroke:#181818;stroke-width:1.0;" width="10" x="1643.5" y="1009.9922"/><polygon fill="#181818" points="718,110.9609,728,114.9609,718,118.9609,722,114.9609" style="stroke:#181818;stroke-width:1.0;"/><line style="stroke:#181818;stroke-width:1.0;" x1="52" x2="724" y1="114.9609" y2="114.9609"/><text fill="#000000" font-family="sans-serif" font-size="13" font-weight="bold" lengthAdjust="spacing" textLength="7" x="59" y="110.1045">1</text><text fill="#000000" font-family="sans-serif" font-size="13" lengthAdjust="spacing" textLength="159" x="70" y="110.1045">asks to register a SNSUser</text><polygon fill="#181818" points="63,141.3125,53,145.3125,63,149.3125,59,145.3125" style="stroke:#181818;stroke-width:1.0;"/><line style="stroke:#181818;stroke-width:1.0;stroke-dasharray:2.0,2.0;" x1="57" x2="734" y1="145.3125" y2="145.3125"/><text fill="#000000" font-family="sans-serif" font-size="13" font-weight="bold" lengthAdjust="spacing" textLength="7" x="69" y="140.4561">2</text><text fill="#000000" font-family="sans-serif" font-size="13" lengthAdjust="spacing" textLength="643" x="80" y="140.4561">requests data(name, sex, birthDate, phoneNumber, email, address, SNSUserNumber, citizenCardNumber, role)</text><polygon fill="#181818" points="718,171.6641,728,175.6641,718,179.6641,722,175.6641" style="stroke:#181818;stroke-width:1.0;"/><line style="stroke:#181818;stroke-width:1.0;" x1="52" x2="724" y1="175.6641" y2="175.6641"/><text fill="#000000" font-family="sans-serif" font-size="13" font-weight="bold" lengthAdjust="spacing" textLength="7" x="59" y="170.8076">3</text><text fill="#000000" font-family="sans-serif" font-size="13" lengthAdjust="spacing" textLength="122" x="70" y="170.8076">types requested data</text><polygon fill="#181818" points="924,202.0156,934,206.0156,924,210.0156,928,206.0156" style="stroke:#181818;stroke-width:1.0;"/><line style="stroke:#181818;stroke-width:1.0;" x1="740" x2="930" y1="206.0156" y2="206.0156"/><text fill="#000000" font-family="sans-serif" font-size="13" font-weight="bold" lengthAdjust="spacing" textLength="7" x="747" y="201.1592">4</text><text fill="#000000" font-family="sans-serif" font-size="13" lengthAdjust="spacing" textLength="166" x="758" y="201.1592">createSNSUser(snsUserDto)</text><polygon fill="#181818" points="1186,232.3672,1196,236.3672,1186,240.3672,1190,236.3672" style="stroke:#181818;stroke-width:1.0;"/><line style="stroke:#181818;stroke-width:1.0;" x1="946" x2="1192" y1="236.3672" y2="236.3672"/><text fill="#000000" font-family="sans-serif" font-size="13" font-weight="bold" lengthAdjust="spacing" textLength="7" x="953" y="231.5107">5</text><text fill="#000000" font-family="sans-serif" font-size="13" lengthAdjust="spacing" textLength="222" x="964" y="231.5107">snsUser=createSNSUser(snsUserDto)</text><polygon fill="#181818" points="1386,262.7188,1396,266.7188,1386,270.7188,1390,266.7188" style="stroke:#181818;stroke-width:1.0;"/><line style="stroke:#181818;stroke-width:1.0;" x1="1208" x2="1392" y1="266.7188" y2="266.7188"/><text fill="#000000" font-family="sans-serif" font-size="13" font-weight="bold" lengthAdjust="spacing" textLength="7" x="1215" y="261.8623">6</text><text fill="#000000" font-family="sans-serif" font-size="13" lengthAdjust="spacing" textLength="112" x="1226" y="261.8623">create(snsUserDto)</text><polygon fill="#181818" points="1526,323.0703,1536,327.0703,1526,331.0703,1530,327.0703" style="stroke:#181818;stroke-width:1.0;"/><line style="stroke:#181818;stroke-width:1.0;" x1="1408" x2="1532" y1="327.0703" y2="327.0703"/><text fill="#000000" font-family="sans-serif" font-size="13" font-weight="bold" lengthAdjust="spacing" textLength="7" x="1415" y="322.2139">7</text><text fill="#000000" font-family="sans-serif" font-size="13" lengthAdjust="spacing" textLength="100" x="1426" y="322.2139">name=getName()</text><path d="M1407,370.0703 L1407,396.0703 L1679,396.0703 L1679,380.0703 L1669,370.0703 L1407,370.0703 " fill="#FEFFDD" style="stroke:#181818;stroke-width:0.5;"/><path d="M1669,370.0703 L1669,380.0703 L1679,380.0703 L1669,370.0703 " fill="#FEFFDD" style="stroke:#181818;stroke-width:0.5;"/><text fill="#000000" font-family="sans-serif" font-size="13" lengthAdjust="spacing" textLength="251" x="1413" y="388.5654">several interaction to extract data from DTO</text><polygon fill="#181818" points="1186,419.7734,1196,423.7734,1186,427.7734,1190,423.7734" style="stroke:#181818;stroke-width:1.0;"/><line style="stroke:#181818;stroke-width:1.0;" x1="946" x2="1192" y1="423.7734" y2="423.7734"/><text fill="#000000" font-family="sans-serif" font-size="13" font-weight="bold" lengthAdjust="spacing" textLength="7" x="953" y="418.917">8</text><text fill="#000000" font-family="sans-serif" font-size="13" lengthAdjust="spacing" textLength="153" x="964" y="418.917">validateSNSUser(snsUser)</text><polygon fill="#181818" points="1386,480.125,1396,484.125,1386,488.125,1390,484.125" style="stroke:#181818;stroke-width:1.0;"/><line style="stroke:#181818;stroke-width:1.0;" x1="1208" x2="1392" y1="484.125" y2="484.125"/><text fill="#000000" font-family="sans-serif" font-size="13" font-weight="bold" lengthAdjust="spacing" textLength="7" x="1215" y="479.2686">9</text><text fill="#000000" font-family="sans-serif" font-size="13" lengthAdjust="spacing" textLength="98" x="1226" y="479.2686">email=getEmail()</text><polygon fill="#181818" points="1631.5,540.4766,1641.5,544.4766,1631.5,548.4766,1635.5,544.4766" style="stroke:#181818;stroke-width:1.0;"/><line style="stroke:#181818;stroke-width:1.0;" x1="1208" x2="1637.5" y1="544.4766" y2="544.4766"/><text fill="#000000" font-family="sans-serif" font-size="13" font-weight="bold" lengthAdjust="spacing" textLength="14" x="1215" y="539.6201">10</text><text fill="#000000" font-family="sans-serif" font-size="13" lengthAdjust="spacing" textLength="169" x="1233" y="539.6201">verification=existsUser(email)</text><line style="stroke:#181818;stroke-width:1.0;" x1="1213" x2="1255" y1="604.8281" y2="604.8281"/><line style="stroke:#181818;stroke-width:1.0;" x1="1255" x2="1255" y1="604.8281" y2="617.8281"/><line style="stroke:#181818;stroke-width:1.0;" x1="1214" x2="1255" y1="617.8281" y2="617.8281"/><polygon fill="#181818" points="1224,613.8281,1214,617.8281,1224,621.8281,1220,617.8281" style="stroke:#181818;stroke-width:1.0;"/><text fill="#000000" font-family="sans-serif" font-size="13" font-weight="bold" lengthAdjust="spacing" textLength="14" x="1220" y="599.9717">11</text><text fill="#000000" font-family="sans-serif" font-size="13" lengthAdjust="spacing" textLength="152" x="1238" y="599.9717">checkDuplicates(snsUser)</text><polygon fill="#181818" points="63,674.1797,53,678.1797,63,682.1797,59,678.1797" style="stroke:#181818;stroke-width:1.0;"/><line style="stroke:#181818;stroke-width:1.0;stroke-dasharray:2.0,2.0;" x1="57" x2="734" y1="678.1797" y2="678.1797"/><text fill="#000000" font-family="sans-serif" font-size="13" font-weight="bold" lengthAdjust="spacing" textLength="14" x="69" y="673.3232">12</text><text fill="#000000" font-family="sans-serif" font-size="13" lengthAdjust="spacing" textLength="241" x="87" y="673.3232">shows the data and requests confirmation</text><polygon fill="#181818" points="718,704.5313,728,708.5313,718,712.5313,722,708.5313" style="stroke:#181818;stroke-width:1.0;"/><line style="stroke:#181818;stroke-width:1.0;" x1="52" x2="724" y1="708.5313" y2="708.5313"/><text fill="#000000" font-family="sans-serif" font-size="13" font-weight="bold" lengthAdjust="spacing" textLength="14" x="59" y="703.6748">13</text><text fill="#000000" font-family="sans-serif" font-size="13" lengthAdjust="spacing" textLength="100" x="77" y="703.6748">confirms the data</text><polygon fill="#181818" points="924,734.8828,934,738.8828,924,742.8828,928,738.8828" style="stroke:#181818;stroke-width:1.0;"/><line style="stroke:#181818;stroke-width:1.0;" x1="740" x2="930" y1="738.8828" y2="738.8828"/><text fill="#000000" font-family="sans-serif" font-size="13" font-weight="bold" lengthAdjust="spacing" textLength="14" x="747" y="734.0264">14</text><text fill="#000000" font-family="sans-serif" font-size="13" lengthAdjust="spacing" textLength="88" x="765" y="734.0264">saveSNSUser()</text><polygon fill="#181818" points="1191,765.2344,1201,769.2344,1191,773.2344,1195,769.2344" style="stroke:#181818;stroke-width:1.0;"/><line style="stroke:#181818;stroke-width:1.0;" x1="946" x2="1197" y1="769.2344" y2="769.2344"/><text fill="#000000" font-family="sans-serif" font-size="13" font-weight="bold" lengthAdjust="spacing" textLength="14" x="953" y="764.3779">15</text><text fill="#000000" font-family="sans-serif" font-size="13" lengthAdjust="spacing" textLength="136" x="971" y="764.3779">saveSNSUser(snsUser)</text><line style="stroke:#181818;stroke-width:1.0;" x1="1218" x2="1260" y1="799.5859" y2="799.5859"/><line style="stroke:#181818;stroke-width:1.0;" x1="1260" x2="1260" y1="799.5859" y2="812.5859"/><line style="stroke:#181818;stroke-width:1.0;" x1="1219" x2="1260" y1="812.5859" y2="812.5859"/><polygon fill="#181818" points="1229,808.5859,1219,812.5859,1229,816.5859,1225,812.5859" style="stroke:#181818;stroke-width:1.0;"/><text fill="#000000" font-family="sans-serif" font-size="13" font-weight="bold" lengthAdjust="spacing" textLength="14" x="1225" y="794.7295">16</text><text fill="#000000" font-family="sans-serif" font-size="13" lengthAdjust="spacing" textLength="153" x="1243" y="794.7295">validateSNSUser(snsUser)</text><polygon fill="#181818" points="1386,868.9375,1396,872.9375,1386,876.9375,1390,872.9375" style="stroke:#181818;stroke-width:1.0;"/><line style="stroke:#181818;stroke-width:1.0;" x1="1213" x2="1392" y1="872.9375" y2="872.9375"/><text fill="#000000" font-family="sans-serif" font-size="13" font-weight="bold" lengthAdjust="spacing" textLength="14" x="1220" y="868.0811">17</text><text fill="#000000" font-family="sans-serif" font-size="13" lengthAdjust="spacing" textLength="98" x="1238" y="868.0811">email=getEmail()</text><polygon fill="#181818" points="1386,929.2891,1396,933.2891,1386,937.2891,1390,933.2891" style="stroke:#181818;stroke-width:1.0;"/><line style="stroke:#181818;stroke-width:1.0;" x1="1213" x2="1392" y1="933.2891" y2="933.2891"/><text fill="#000000" font-family="sans-serif" font-size="13" font-weight="bold" lengthAdjust="spacing" textLength="14" x="1220" y="928.4326">18</text><text fill="#000000" font-family="sans-serif" font-size="13" lengthAdjust="spacing" textLength="100" x="1238" y="928.4326">name=getName()</text><polygon fill="#181818" points="1631.5,1005.9922,1641.5,1009.9922,1631.5,1013.9922,1635.5,1009.9922" style="stroke:#181818;stroke-width:1.0;"/><line style="stroke:#181818;stroke-width:1.0;" x1="1213" x2="1637.5" y1="1009.9922" y2="1009.9922"/><text fill="#000000" font-family="sans-serif" font-size="13" font-weight="bold" lengthAdjust="spacing" textLength="14" x="1220" y="996.96">19</text><text fill="#000000" font-family="sans-serif" font-size="13" lengthAdjust="spacing" textLength="312" x="1238" y="988.7842">addUserWithRole(name, address, sex, phoneNumber,</text><text fill="#000000" font-family="sans-serif" font-size="13" lengthAdjust="spacing" textLength="349" x="1242" y="1005.1357">e-mail, birthDate, SNSUserNumber, citizenCardNumber,role)</text><line style="stroke:#181818;stroke-width:1.0;" x1="1218" x2="1260" y1="1070.3438" y2="1070.3438"/><line style="stroke:#181818;stroke-width:1.0;" x1="1260" x2="1260" y1="1070.3438" y2="1083.3438"/><line style="stroke:#181818;stroke-width:1.0;" x1="1219" x2="1260" y1="1083.3438" y2="1083.3438"/><polygon fill="#181818" points="1229,1079.3438,1219,1083.3438,1229,1087.3438,1225,1083.3438" style="stroke:#181818;stroke-width:1.0;"/><text fill="#000000" font-family="sans-serif" font-size="13" font-weight="bold" lengthAdjust="spacing" textLength="14" x="1225" y="1065.4873">20</text><text fill="#000000" font-family="sans-serif" font-size="13" lengthAdjust="spacing" textLength="131" x="1243" y="1065.4873">addSNSUser(snsUser)</text><polygon fill="#181818" points="58,1139.6953,48,1143.6953,58,1147.6953,54,1143.6953" style="stroke:#181818;stroke-width:1.0;"/><line style="stroke:#181818;stroke-width:1.0;stroke-dasharray:2.0,2.0;" x1="52" x2="734" y1="1143.6953" y2="1143.6953"/><text fill="#000000" font-family="sans-serif" font-size="13" font-weight="bold" lengthAdjust="spacing" textLength="14" x="64" y="1138.8389">21</text><text fill="#000000" font-family="sans-serif" font-size="13" lengthAdjust="spacing" textLength="152" x="82" y="1138.8389">informs operation success</text><!--MD5=[5017edd1d761d912073ae0451b912ecb]
@startuml
autonumber
'hide footbox

actor "Receptionist" as RP
participant ":\nRegisterSNSUserUI" as UI
participant ":\nRegisterSNSUserController" as CTRL
participant ":\nCompany" as CP
participant "snsUser:\nSNSUser" as SU
participant "snsUserDto:\nSNSUserDTO" as DTO
participant ":\nAuthFacade" as AUTH


activate RP
RP -> UI : asks to register a SNSUser
activate UI
UI - -> RP : requests data(name, sex, birthDate, phoneNumber, email, address, SNSUserNumber, citizenCardNumber, role)
deactivate UI

RP -> UI : types requested data
activate UI


UI -> CTRL : createSNSUser(snsUserDto)
activate CTRL

CTRL -> CP : snsUser=createSNSUser(snsUserDto)
activate CP

CP -> SU : create(snsUserDto)
activate SU
deactivate CP

SU -> DTO : name=getName()
activate DTO
deactivate SU
deactivate DTO
note over DTO: several interaction to extract data from DTO

CTRL -> CP : validateSNSUser(snsUser)
activate CP
deactivate CTRL

CP -> SU : email=getEmail()
activate SU
deactivate SU

CP -> AUTH : verification=existsUser(email)
activate AUTH
deactivate AUTH

CP -> CP : checkDuplicates(snsUser)
activate CP
deactivate CP



UI - -> RP : shows the data and requests confirmation
deactivate UI

RP -> UI : confirms the data
activate UI

UI -> CTRL : saveSNSUser()
activate CTRL

CTRL -> CP : saveSNSUser(snsUser)
activate CP


CP -> CP : validateSNSUser(snsUser)
activate CP
deactivate CP

CP -> SU : email=getEmail()
activate SU
deactivate SU

CP -> SU : name=getName()
activate SU
deactivate SU

CP -> AUTH : addUserWithRole(name, address, sex, phoneNumber, \n e-mail, birthDate, SNSUserNumber, citizenCardNumber,role)
activate AUTH
deactivate AUTH

CP -> CP : addSNSUser(snsUser)
activate CP
deactivate CP
deactivate CP
deactivate CTRL

UI - -> RP : informs operation success
deactivate UI
deactivate RP




@enduml

@startuml
autonumber

actor "Receptionist" as RP
participant ":\nRegisterSNSUserUI" as UI
participant ":\nRegisterSNSUserController" as CTRL
participant ":\nCompany" as CP
participant "snsUser:\nSNSUser" as SU
participant "snsUserDto:\nSNSUserDTO" as DTO
participant ":\nAuthFacade" as AUTH


activate RP
RP -> UI : asks to register a SNSUser
activate UI
UI - -> RP : requests data(name, sex, birthDate, phoneNumber, email, address, SNSUserNumber, citizenCardNumber, role)
deactivate UI

RP -> UI : types requested data
activate UI


UI -> CTRL : createSNSUser(snsUserDto)
activate CTRL

CTRL -> CP : snsUser=createSNSUser(snsUserDto)
activate CP

CP -> SU : create(snsUserDto)
activate SU
deactivate CP

SU -> DTO : name=getName()
activate DTO
deactivate SU
deactivate DTO
note over DTO: several interaction to extract data from DTO

CTRL -> CP : validateSNSUser(snsUser)
activate CP
deactivate CTRL

CP -> SU : email=getEmail()
activate SU
deactivate SU

CP -> AUTH : verification=existsUser(email)
activate AUTH
deactivate AUTH

CP -> CP : checkDuplicates(snsUser)
activate CP
deactivate CP



UI - -> RP : shows the data and requests confirmation
deactivate UI

RP -> UI : confirms the data
activate UI

UI -> CTRL : saveSNSUser()
activate CTRL

CTRL -> CP : saveSNSUser(snsUser)
activate CP


CP -> CP : validateSNSUser(snsUser)
activate CP
deactivate CP

CP -> SU : email=getEmail()
activate SU
deactivate SU

CP -> SU : name=getName()
activate SU
deactivate SU

CP -> AUTH : addUserWithRole(name, address, sex, phoneNumber, \n e-mail, birthDate, SNSUserNumber, citizenCardNumber,role)
activate AUTH
deactivate AUTH

CP -> CP : addSNSUser(snsUser)
activate CP
deactivate CP
deactivate CP
deactivate CTRL

UI - -> RP : informs operation success
deactivate UI
deactivate RP




@enduml

PlantUML version 1.2022.4(Sat Apr 09 14:29:17 BST 2022)
(GPL source distribution)
Java Runtime: OpenJDK Runtime Environment
JVM: OpenJDK 64-Bit Server VM
Default Encoding: Cp1252
Language: pt
Country: PT
--></g></svg>