<?xml version="1.0" encoding="UTF-8" standalone="no"?><svg xmlns="http://www.w3.org/2000/svg" xmlns:xlink="http://www.w3.org/1999/xlink" contentScriptType="application/ecmascript" contentStyleType="text/css" height="445.2px" preserveAspectRatio="none" style="width:418px;height:445px;background:#FFFFFF;" version="1.1" viewBox="0 0 418 445" width="418.6px" zoomAndPan="magnify"><defs><filter height="300%" id="f16zp99rw7s1gh" width="300%" x="-1" y="-1"><feGaussianBlur result="blurOut" stdDeviation="1.3999999999999997"/><feColorMatrix in="blurOut" result="blurOut2" type="matrix" values="0 0 0 0 0 0 0 0 0 0 0 0 0 0 0 0 0 0 .4 0"/><feOffset dx="2.7999999999999994" dy="2.7999999999999994" in="blurOut2" result="blurOut3"/><feBlend in="SourceGraphic" in2="blurOut3" mode="normal"/></filter></defs><g><!--MD5=[02e4b9b7573f1156f41e60aa5b4e25a4]
class Company--><rect codeLine="5" fill="#FEFECE" filter="url(#f16zp99rw7s1gh)" height="37.6852" id="Company" style="stroke:#A80036;stroke-width:1.0499999999999998;" width="59.5" x="4.9" y="4.9"/><ellipse cx="15.4" cy="16.1" fill="#ADD1B2" rx="7.7" ry="7.7" style="stroke:#A80036;stroke-width:0.6999999999999998;"/><path d="M16.8,13.65 Q16.9422,13.3 17.1062,13.125 Q17.2703,12.95 17.4562,12.95 Q17.7844,12.95 17.9922,13.1469 Q18.2,13.3437 18.2,13.8031 L18.2,14.8969 Q18.2,15.3562 18.0031,15.5531 Q17.8062,15.75 17.5,15.75 Q17.2266,15.75 17.0516,15.6297 Q16.8766,15.5094 16.8,15.1922 Q16.7672,14.9734 16.6469,14.8531 Q16.4281,14.6234 16.0344,14.4922 Q15.6406,14.35 15.2469,14.35 Q14.7547,14.35 14.3391,14.5469 Q13.9344,14.7437 13.6172,15.1812 Q13.3,15.6187 13.3,16.2203 L13.3,16.8656 Q13.3,17.5875 13.8906,18.0687 Q14.4812,18.55 15.5312,18.55 Q16.1547,18.55 16.5922,18.4078 Q16.8437,18.3312 17.1281,18.0797 Q17.3141,17.9375 17.4125,17.8937 Q17.5109,17.85 17.6312,17.85 Q17.8609,17.85 18.025,18.0359 Q18.2,18.2109 18.2,18.4625 Q18.2,18.7031 17.9594,18.9875 Q17.6094,19.4031 17.0516,19.6328 Q16.3187,19.95 15.4219,19.95 Q14.3719,19.95 13.5297,19.5344 Q12.8516,19.2062 12.3703,18.4953 Q11.9,17.7844 11.9,16.9422 L11.9,16.1766 Q11.9,15.3016 12.3156,14.5359 Q12.7422,13.7703 13.475,13.3656 Q14.2187,12.95 15.05,12.95 Q15.5531,12.95 15.9906,13.125 Q16.4281,13.3 16.8,13.65 Z " fill="#000000"/><text fill="#000000" font-family="sans-serif" font-size="8.4" lengthAdjust="spacing" textLength="37.1" x="25.2" y="19.5371">Company</text><line style="stroke:#A80036;stroke-width:1.0499999999999998;" x1="5.6" x2="63.7" y1="27.3" y2="27.3"/><text fill="#000000" font-family="sans-serif" font-size="7.7" lengthAdjust="spacing" textLength="41.3" x="9.1" y="38.0933">-designation</text><!--MD5=[7421f545a0d8420c5bec41e74b387d9c]
class Employee--><rect codeLine="9" fill="#FEFECE" filter="url(#f16zp99rw7s1gh)" height="66.7406" id="Employee" style="stroke:#A80036;stroke-width:1.0499999999999998;" width="74.9" x="7" y="126.35"/><ellipse cx="23.8" cy="137.55" fill="#ADD1B2" rx="7.7" ry="7.7" style="stroke:#A80036;stroke-width:0.6999999999999998;"/><path d="M25.2,135.1 Q25.3422,134.75 25.5062,134.575 Q25.6703,134.4 25.8562,134.4 Q26.1844,134.4 26.3922,134.5969 Q26.6,134.7937 26.6,135.2531 L26.6,136.3469 Q26.6,136.8062 26.4031,137.0031 Q26.2062,137.2 25.9,137.2 Q25.6266,137.2 25.4516,137.0797 Q25.2766,136.9594 25.2,136.6422 Q25.1672,136.4234 25.0469,136.3031 Q24.8281,136.0734 24.4344,135.9422 Q24.0406,135.8 23.6469,135.8 Q23.1547,135.8 22.7391,135.9969 Q22.3344,136.1937 22.0172,136.6312 Q21.7,137.0687 21.7,137.6703 L21.7,138.3156 Q21.7,139.0375 22.2906,139.5187 Q22.8812,140 23.9312,140 Q24.5547,140 24.9922,139.8578 Q25.2437,139.7812 25.5281,139.5297 Q25.7141,139.3875 25.8125,139.3437 Q25.9109,139.3 26.0312,139.3 Q26.2609,139.3 26.425,139.4859 Q26.6,139.6609 26.6,139.9125 Q26.6,140.1531 26.3594,140.4375 Q26.0094,140.8531 25.4516,141.0828 Q24.7187,141.4 23.8219,141.4 Q22.7719,141.4 21.9297,140.9844 Q21.2516,140.6562 20.7703,139.9453 Q20.3,139.2344 20.3,138.3922 L20.3,137.6266 Q20.3,136.7516 20.7156,135.9859 Q21.1422,135.2203 21.875,134.8156 Q22.6187,134.4 23.45,134.4 Q23.9531,134.4 24.3906,134.575 Q24.8281,134.75 25.2,135.1 Z " fill="#000000"/><text fill="#000000" font-family="sans-serif" font-size="8.4" lengthAdjust="spacing" textLength="38.5" x="35" y="140.9871">Employee</text><line style="stroke:#A80036;stroke-width:1.0499999999999998;" x1="7.7" x2="81.2" y1="148.75" y2="148.75"/><text fill="#000000" font-family="sans-serif" font-size="7.7" lengthAdjust="spacing" textLength="8.4" x="11.2" y="159.5433">-id</text><text fill="#000000" font-family="sans-serif" font-size="7.7" lengthAdjust="spacing" textLength="30.8" x="11.2" y="169.2284">-address</text><text fill="#000000" font-family="sans-serif" font-size="7.7" lengthAdjust="spacing" textLength="49.7" x="11.2" y="178.9136">-phoneNumber</text><text fill="#000000" font-family="sans-serif" font-size="7.7" lengthAdjust="spacing" textLength="66.5" x="11.2" y="188.5987">-citizenCardNumber</text><!--MD5=[de60e6d4f424ae4d0522096f76a59010]
class VaccinationCenter--><rect codeLine="16" fill="#FEFECE" filter="url(#f16zp99rw7s1gh)" height="124.8516" id="VaccinationCenter" style="stroke:#A80036;stroke-width:1.0499999999999998;" width="92.4" x="115.85" y="97.3"/><ellipse cx="126.35" cy="108.5" fill="#ADD1B2" rx="7.7" ry="7.7" style="stroke:#A80036;stroke-width:0.6999999999999998;"/><path d="M127.75,106.05 Q127.8922,105.7 128.0562,105.525 Q128.2203,105.35 128.4062,105.35 Q128.7344,105.35 128.9422,105.5469 Q129.15,105.7437 129.15,106.2031 L129.15,107.2969 Q129.15,107.7562 128.9531,107.9531 Q128.7562,108.15 128.45,108.15 Q128.1766,108.15 128.0016,108.0297 Q127.8266,107.9094 127.75,107.5922 Q127.7172,107.3734 127.5969,107.2531 Q127.3781,107.0234 126.9844,106.8922 Q126.5906,106.75 126.1969,106.75 Q125.7047,106.75 125.2891,106.9469 Q124.8844,107.1437 124.5672,107.5812 Q124.25,108.0187 124.25,108.6203 L124.25,109.2656 Q124.25,109.9875 124.8406,110.4687 Q125.4312,110.95 126.4812,110.95 Q127.1047,110.95 127.5422,110.8078 Q127.7937,110.7312 128.0781,110.4797 Q128.2641,110.3375 128.3625,110.2937 Q128.4609,110.25 128.5812,110.25 Q128.8109,110.25 128.975,110.4359 Q129.15,110.6109 129.15,110.8625 Q129.15,111.1031 128.9094,111.3875 Q128.5594,111.8031 128.0016,112.0328 Q127.2687,112.35 126.3719,112.35 Q125.3219,112.35 124.4797,111.9344 Q123.8016,111.6062 123.3203,110.8953 Q122.85,110.1844 122.85,109.3422 L122.85,108.5766 Q122.85,107.7016 123.2656,106.9359 Q123.6922,106.1703 124.425,105.7656 Q125.1687,105.35 126,105.35 Q126.5031,105.35 126.9406,105.525 Q127.3781,105.7 127.75,106.05 Z " fill="#000000"/><text fill="#000000" font-family="sans-serif" font-size="8.4" lengthAdjust="spacing" textLength="70" x="136.15" y="111.9371">VaccinationCenter</text><line style="stroke:#A80036;stroke-width:1.0499999999999998;" x1="116.55" x2="207.55" y1="119.7" y2="119.7"/><text fill="#000000" font-family="sans-serif" font-size="7.7" lengthAdjust="spacing" textLength="21" x="120.05" y="130.4933">-name</text><text fill="#000000" font-family="sans-serif" font-size="7.7" lengthAdjust="spacing" textLength="49.7" x="120.05" y="140.1784">-phoneNumber</text><text fill="#000000" font-family="sans-serif" font-size="7.7" lengthAdjust="spacing" textLength="19.6" x="120.05" y="149.8636">-email</text><text fill="#000000" font-family="sans-serif" font-size="7.7" lengthAdjust="spacing" textLength="39.9" x="120.05" y="159.5487">-faxNumber</text><text fill="#000000" font-family="sans-serif" font-size="7.7" lengthAdjust="spacing" textLength="59.5" x="120.05" y="169.2339">-websiteAddress</text><text fill="#000000" font-family="sans-serif" font-size="7.7" lengthAdjust="spacing" textLength="35.7" x="120.05" y="178.919">-openHour</text><text fill="#000000" font-family="sans-serif" font-size="7.7" lengthAdjust="spacing" textLength="37.1" x="120.05" y="188.6042">-closeHour</text><text fill="#000000" font-family="sans-serif" font-size="7.7" lengthAdjust="spacing" textLength="42.7" x="120.05" y="198.2894">-slotDuration</text><text fill="#000000" font-family="sans-serif" font-size="7.7" lengthAdjust="spacing" textLength="42" x="120.05" y="207.9745">-fullCapacity</text><text fill="#000000" font-family="sans-serif" font-size="7.7" lengthAdjust="spacing" textLength="68.6" x="120.05" y="217.6597">-maxVaccinePerSlot</text><!--MD5=[da547346deef918ea16944ba046651ef]
class Administrator--><rect codeLine="29" fill="#FEFECE" filter="url(#f16zp99rw7s1gh)" height="28" id="Administrator" style="stroke:#A80036;stroke-width:1.0499999999999998;" width="73.5" x="180.6" y="9.8"/><ellipse cx="191.1" cy="21" fill="#ADD1B2" rx="7.7" ry="7.7" style="stroke:#A80036;stroke-width:0.6999999999999998;"/><path d="M192.5,18.55 Q192.6422,18.2 192.8062,18.025 Q192.9703,17.85 193.1562,17.85 Q193.4844,17.85 193.6922,18.0469 Q193.9,18.2437 193.9,18.7031 L193.9,19.7969 Q193.9,20.2562 193.7031,20.4531 Q193.5062,20.65 193.2,20.65 Q192.9266,20.65 192.7516,20.5297 Q192.5766,20.4094 192.5,20.0922 Q192.4672,19.8734 192.3469,19.7531 Q192.1281,19.5234 191.7344,19.3922 Q191.3406,19.25 190.9469,19.25 Q190.4547,19.25 190.0391,19.4469 Q189.6344,19.6437 189.3172,20.0812 Q189,20.5187 189,21.1203 L189,21.7656 Q189,22.4875 189.5906,22.9687 Q190.1812,23.45 191.2312,23.45 Q191.8547,23.45 192.2922,23.3078 Q192.5437,23.2312 192.8281,22.9797 Q193.0141,22.8375 193.1125,22.7937 Q193.2109,22.75 193.3312,22.75 Q193.5609,22.75 193.725,22.9359 Q193.9,23.1109 193.9,23.3625 Q193.9,23.6031 193.6594,23.8875 Q193.3094,24.3031 192.7516,24.5328 Q192.0187,24.85 191.1219,24.85 Q190.0719,24.85 189.2297,24.4344 Q188.5516,24.1062 188.0703,23.3953 Q187.6,22.6844 187.6,21.8422 L187.6,21.0766 Q187.6,20.2016 188.0156,19.4359 Q188.4422,18.6703 189.175,18.2656 Q189.9187,17.85 190.75,17.85 Q191.2531,17.85 191.6906,18.025 Q192.1281,18.2 192.5,18.55 Z " fill="#000000"/><text fill="#000000" font-family="sans-serif" font-size="8.4" lengthAdjust="spacing" textLength="51.1" x="200.9" y="24.4371">Administrator</text><line style="stroke:#A80036;stroke-width:1.0499999999999998;" x1="181.3" x2="253.4" y1="32.2" y2="32.2"/><!--MD5=[19e445fc4d3b48519cbe33da05496394]
class Vaccine--><rect codeLine="33" fill="#FEFECE" filter="url(#f16zp99rw7s1gh)" height="76.4258" id="Vaccine" style="stroke:#A80036;stroke-width:1.0499999999999998;" width="77" x="239.05" y="276.5"/><ellipse cx="260.575" cy="287.7" fill="#ADD1B2" rx="7.7" ry="7.7" style="stroke:#A80036;stroke-width:0.6999999999999998;"/><path d="M261.975,285.25 Q262.1172,284.9 262.2812,284.725 Q262.4453,284.55 262.6312,284.55 Q262.9594,284.55 263.1672,284.7469 Q263.375,284.9437 263.375,285.4031 L263.375,286.4969 Q263.375,286.9562 263.1781,287.1531 Q262.9812,287.35 262.675,287.35 Q262.4016,287.35 262.2266,287.2297 Q262.0516,287.1094 261.975,286.7922 Q261.9422,286.5734 261.8219,286.4531 Q261.6031,286.2234 261.2094,286.0922 Q260.8156,285.95 260.4219,285.95 Q259.9297,285.95 259.5141,286.1469 Q259.1094,286.3437 258.7922,286.7812 Q258.475,287.2187 258.475,287.8203 L258.475,288.4656 Q258.475,289.1875 259.0656,289.6687 Q259.6562,290.15 260.7062,290.15 Q261.3297,290.15 261.7672,290.0078 Q262.0187,289.9312 262.3031,289.6797 Q262.4891,289.5375 262.5875,289.4937 Q262.6859,289.45 262.8062,289.45 Q263.0359,289.45 263.2,289.6359 Q263.375,289.8109 263.375,290.0625 Q263.375,290.3031 263.1344,290.5875 Q262.7844,291.0031 262.2266,291.2328 Q261.4937,291.55 260.5969,291.55 Q259.5469,291.55 258.7047,291.1344 Q258.0266,290.8062 257.5453,290.0953 Q257.075,289.3844 257.075,288.5422 L257.075,287.7766 Q257.075,286.9016 257.4906,286.1359 Q257.9172,285.3703 258.65,284.9656 Q259.3937,284.55 260.225,284.55 Q260.7281,284.55 261.1656,284.725 Q261.6031,284.9 261.975,285.25 Z " fill="#000000"/><text fill="#000000" font-family="sans-serif" font-size="8.4" lengthAdjust="spacing" textLength="30.1" x="272.825" y="291.1371">Vaccine</text><line style="stroke:#A80036;stroke-width:1.0499999999999998;" x1="239.75" x2="315.35" y1="298.9" y2="298.9"/><text fill="#000000" font-family="sans-serif" font-size="7.7" lengthAdjust="spacing" textLength="41.3" x="243.25" y="309.6933">-nameBrand</text><text fill="#000000" font-family="sans-serif" font-size="7.7" lengthAdjust="spacing" textLength="36.4" x="243.25" y="319.3784">-groupAge</text><text fill="#000000" font-family="sans-serif" font-size="7.7" lengthAdjust="spacing" textLength="68.6" x="243.25" y="329.0636">-numberOfVaccines</text><text fill="#000000" font-family="sans-serif" font-size="7.7" lengthAdjust="spacing" textLength="28" x="243.25" y="338.7487">-dosage</text><text fill="#000000" font-family="sans-serif" font-size="7.7" lengthAdjust="spacing" textLength="68.6" x="243.25" y="348.4339">-timeBetweenDoses</text><!--MD5=[ad32b904b2f122cc39e054e9c13e36ab]
class TypeOfVaccine--><rect codeLine="42" fill="#FEFECE" filter="url(#f16zp99rw7s1gh)" height="47.3703" id="TypeOfVaccine" style="stroke:#A80036;stroke-width:1.0499999999999998;" width="79.1" x="329.7" y="135.8"/><ellipse cx="340.2" cy="147" fill="#ADD1B2" rx="7.7" ry="7.7" style="stroke:#A80036;stroke-width:0.6999999999999998;"/><path d="M341.6,144.55 Q341.7422,144.2 341.9062,144.025 Q342.0703,143.85 342.2562,143.85 Q342.5844,143.85 342.7922,144.0469 Q343,144.2437 343,144.7031 L343,145.7969 Q343,146.2562 342.8031,146.4531 Q342.6062,146.65 342.3,146.65 Q342.0266,146.65 341.8516,146.5297 Q341.6766,146.4094 341.6,146.0922 Q341.5672,145.8734 341.4469,145.7531 Q341.2281,145.5234 340.8344,145.3922 Q340.4406,145.25 340.0469,145.25 Q339.5547,145.25 339.1391,145.4469 Q338.7344,145.6437 338.4172,146.0812 Q338.1,146.5187 338.1,147.1203 L338.1,147.7656 Q338.1,148.4875 338.6906,148.9687 Q339.2812,149.45 340.3312,149.45 Q340.9547,149.45 341.3922,149.3078 Q341.6437,149.2312 341.9281,148.9797 Q342.1141,148.8375 342.2125,148.7937 Q342.3109,148.75 342.4312,148.75 Q342.6609,148.75 342.825,148.9359 Q343,149.1109 343,149.3625 Q343,149.6031 342.7594,149.8875 Q342.4094,150.3031 341.8516,150.5328 Q341.1187,150.85 340.2219,150.85 Q339.1719,150.85 338.3297,150.4344 Q337.6516,150.1062 337.1703,149.3953 Q336.7,148.6844 336.7,147.8422 L336.7,147.0766 Q336.7,146.2016 337.1156,145.4359 Q337.5422,144.6703 338.275,144.2656 Q339.0187,143.85 339.85,143.85 Q340.3531,143.85 340.7906,144.025 Q341.2281,144.2 341.6,144.55 Z " fill="#000000"/><text fill="#000000" font-family="sans-serif" font-size="8.4" lengthAdjust="spacing" textLength="56.7" x="350" y="150.4371">TypeOfVaccine</text><line style="stroke:#A80036;stroke-width:1.0499999999999998;" x1="330.4" x2="408.1" y1="158.2" y2="158.2"/><text fill="#000000" font-family="sans-serif" font-size="7.7" lengthAdjust="spacing" textLength="41.3" x="333.9" y="168.9933">-String code</text><text fill="#000000" font-family="sans-serif" font-size="7.7" lengthAdjust="spacing" textLength="63" x="333.9" y="178.6784">-String designation</text><!--MD5=[bde476362be781128b100750047ae6b5]
class GroupAge--><rect codeLine="47" fill="#FEFECE" filter="url(#f16zp99rw7s1gh)" height="28" id="GroupAge" style="stroke:#A80036;stroke-width:1.0499999999999998;" width="60.9" x="206.5" y="407.4"/><ellipse cx="217" cy="418.6" fill="#ADD1B2" rx="7.7" ry="7.7" style="stroke:#A80036;stroke-width:0.6999999999999998;"/><path d="M218.4,416.15 Q218.5422,415.8 218.7062,415.625 Q218.8703,415.45 219.0562,415.45 Q219.3844,415.45 219.5922,415.6469 Q219.8,415.8437 219.8,416.3031 L219.8,417.3969 Q219.8,417.8562 219.6031,418.0531 Q219.4062,418.25 219.1,418.25 Q218.8266,418.25 218.6516,418.1297 Q218.4766,418.0094 218.4,417.6922 Q218.3672,417.4734 218.2469,417.3531 Q218.0281,417.1234 217.6344,416.9922 Q217.2406,416.85 216.8469,416.85 Q216.3547,416.85 215.9391,417.0469 Q215.5344,417.2437 215.2172,417.6812 Q214.9,418.1187 214.9,418.7203 L214.9,419.3656 Q214.9,420.0875 215.4906,420.5687 Q216.0812,421.05 217.1312,421.05 Q217.7547,421.05 218.1922,420.9078 Q218.4437,420.8312 218.7281,420.5797 Q218.9141,420.4375 219.0125,420.3937 Q219.1109,420.35 219.2312,420.35 Q219.4609,420.35 219.625,420.5359 Q219.8,420.7109 219.8,420.9625 Q219.8,421.2031 219.5594,421.4875 Q219.2094,421.9031 218.6516,422.1328 Q217.9187,422.45 217.0219,422.45 Q215.9719,422.45 215.1297,422.0344 Q214.4516,421.7062 213.9703,420.9953 Q213.5,420.2844 213.5,419.4422 L213.5,418.6766 Q213.5,417.8016 213.9156,417.0359 Q214.3422,416.2703 215.075,415.8656 Q215.8187,415.45 216.65,415.45 Q217.1531,415.45 217.5906,415.625 Q218.0281,415.8 218.4,416.15 Z " fill="#000000"/><text fill="#000000" font-family="sans-serif" font-size="8.4" lengthAdjust="spacing" textLength="38.5" x="226.8" y="422.0371">GroupAge</text><line style="stroke:#A80036;stroke-width:1.0499999999999998;" x1="207.2" x2="266.7" y1="429.8" y2="429.8"/><!--MD5=[b3411a3750bc281802b6652af7ee7751]
class Dosage--><rect codeLine="50" fill="#FEFECE" filter="url(#f16zp99rw7s1gh)" height="28" id="Dosage" style="stroke:#A80036;stroke-width:1.0499999999999998;" width="53.2" x="292.25" y="407.4"/><ellipse cx="302.75" cy="418.6" fill="#ADD1B2" rx="7.7" ry="7.7" style="stroke:#A80036;stroke-width:0.6999999999999998;"/><path d="M304.15,416.15 Q304.2922,415.8 304.4562,415.625 Q304.6203,415.45 304.8062,415.45 Q305.1344,415.45 305.3422,415.6469 Q305.55,415.8437 305.55,416.3031 L305.55,417.3969 Q305.55,417.8562 305.3531,418.0531 Q305.1562,418.25 304.85,418.25 Q304.5766,418.25 304.4016,418.1297 Q304.2266,418.0094 304.15,417.6922 Q304.1172,417.4734 303.9969,417.3531 Q303.7781,417.1234 303.3844,416.9922 Q302.9906,416.85 302.5969,416.85 Q302.1047,416.85 301.6891,417.0469 Q301.2844,417.2437 300.9672,417.6812 Q300.65,418.1187 300.65,418.7203 L300.65,419.3656 Q300.65,420.0875 301.2406,420.5687 Q301.8312,421.05 302.8812,421.05 Q303.5047,421.05 303.9422,420.9078 Q304.1937,420.8312 304.4781,420.5797 Q304.6641,420.4375 304.7625,420.3937 Q304.8609,420.35 304.9812,420.35 Q305.2109,420.35 305.375,420.5359 Q305.55,420.7109 305.55,420.9625 Q305.55,421.2031 305.3094,421.4875 Q304.9594,421.9031 304.4016,422.1328 Q303.6687,422.45 302.7719,422.45 Q301.7219,422.45 300.8797,422.0344 Q300.2016,421.7062 299.7203,420.9953 Q299.25,420.2844 299.25,419.4422 L299.25,418.6766 Q299.25,417.8016 299.6656,417.0359 Q300.0922,416.2703 300.825,415.8656 Q301.5687,415.45 302.4,415.45 Q302.9031,415.45 303.3406,415.625 Q303.7781,415.8 304.15,416.15 Z " fill="#000000"/><text fill="#000000" font-family="sans-serif" font-size="8.4" lengthAdjust="spacing" textLength="30.8" x="312.55" y="422.0371">Dosage</text><line style="stroke:#A80036;stroke-width:1.0499999999999998;" x1="292.95" x2="344.75" y1="429.8" y2="429.8"/><!--MD5=[8f7dd94d56b58fc07b233ccd3dd98f8c]
link Administrator to Employee--><path codeLine="54" d="M180.943,37.877 C165.515,44.436 147.805,53.2 133.35,63.7 C109.011,81.375 85.967,106.379 69.44,126.329 " fill="none" id="Administrator-Employee" style="stroke:#A80036;stroke-width:0.6999999999999998;"/><polygon fill="#000000" points="134.108,72.2982,140.3469,69.975,137.7898,66.7516,134.108,72.2982" style="stroke:#000000;stroke-width:0.6999999999999998;"/><text fill="#000000" font-family="sans-serif" font-size="9.1" lengthAdjust="spacing" textLength="37.1" x="143.15" y="73.8466">manages</text><text fill="#000000" font-family="sans-serif" font-size="9.1" lengthAdjust="spacing" textLength="4.9" x="170.093" y="37.4405">1</text><text fill="#000000" font-family="sans-serif" font-size="9.1" lengthAdjust="spacing" textLength="3.5" x="69.3534" y="118.8668">*</text><!--MD5=[09366576ee87d48d594df10cacc83f45]
link Company to Employee--><path codeLine="55" d="M33.467,42.84 C33.096,49.413 32.732,56.889 32.55,63.7 C32.403,69.3 32.151,70.714 32.55,76.3 C33.733,92.848 36.239,111.118 38.647,126.259 " fill="none" id="Company-Employee" style="stroke:#A80036;stroke-width:0.6999999999999998;"/><polygon fill="#000000" points="36.2669,73.6163,37.9278,67.1694,33.8212,67.4244,36.2669,73.6163" style="stroke:#000000;stroke-width:0.6999999999999998;"/><text fill="#000000" font-family="sans-serif" font-size="9.1" lengthAdjust="spacing" textLength="29.4" x="42.35" y="73.8466">employ</text><text fill="#000000" font-family="sans-serif" font-size="9.1" lengthAdjust="spacing" textLength="4.9" x="27.7723" y="57.7161">1</text><text fill="#000000" font-family="sans-serif" font-size="9.1" lengthAdjust="spacing" textLength="3.5" x="34.0377" y="118.7865">*</text><!--MD5=[d497e8607f1e7b3d570c70d67196006d]
link Administrator to VaccinationCenter--><path codeLine="56" d="M207.116,37.905 C201.887,45.227 195.741,54.628 191.45,63.7 C186.459,74.256 182.056,85.862 178.276,97.237 " fill="none" id="Administrator-VaccinationCenter" style="stroke:#A80036;stroke-width:0.6999999999999998;"/><polygon fill="#000000" points="193.4199,73.2709,198.0381,68.4758,194.3376,66.677,193.4199,73.2709" style="stroke:#000000;stroke-width:0.6999999999999998;"/><text fill="#000000" font-family="sans-serif" font-size="9.1" lengthAdjust="spacing" textLength="37.1" x="201.25" y="73.8466">manages</text><text fill="#000000" font-family="sans-serif" font-size="9.1" lengthAdjust="spacing" textLength="4.9" x="198.6486" y="52.9282">1</text><text fill="#000000" font-family="sans-serif" font-size="9.1" lengthAdjust="spacing" textLength="3.5" x="176.02" y="89.6428">*</text><!--MD5=[0e439f75a3d966f965fe5f237a1bacbe]
link Administrator to Vaccine--><path codeLine="57" d="M227.703,37.919 C232.771,45.171 238.49,54.502 241.85,63.7 C255.829,101.983 268.317,216.461 274.12,276.409 " fill="none" id="Administrator-Vaccine" style="stroke:#A80036;stroke-width:0.6999999999999998;"/><polygon fill="#000000" points="272.6187,163.1586,273.4284,156.5506,269.3897,157.3367,272.6187,163.1586" style="stroke:#000000;stroke-width:0.6999999999999998;"/><text fill="#000000" font-family="sans-serif" font-size="9.1" lengthAdjust="spacing" textLength="37.1" x="278.25" y="163.4466">manages</text><text fill="#000000" font-family="sans-serif" font-size="9.1" lengthAdjust="spacing" textLength="4.9" x="225.0257" y="52.9462">1</text><text fill="#000000" font-family="sans-serif" font-size="9.1" lengthAdjust="spacing" textLength="3.5" x="269.9239" y="268.7725">*</text><!--MD5=[7f9978634a3e54d4fc1d9d7be02f04e9]
link Administrator to TypeOfVaccine--><path codeLine="58" d="M238.945,37.814 C250.166,45.031 263.9,54.376 275.45,63.7 C302.981,85.932 330.995,115.458 349.153,135.702 " fill="none" id="Administrator-TypeOfVaccine" style="stroke:#A80036;stroke-width:0.6999999999999998;"/><polygon fill="#000000" points="295.5668,72.4473,292.1991,66.7045,289.4668,69.7808,295.5668,72.4473" style="stroke:#000000;stroke-width:0.6999999999999998;"/><text fill="#000000" font-family="sans-serif" font-size="9.1" lengthAdjust="spacing" textLength="37.1" x="299.25" y="73.8466">manages</text><text fill="#000000" font-family="sans-serif" font-size="9.1" lengthAdjust="spacing" textLength="4.9" x="239.4295" y="52.8116">1</text><text fill="#000000" font-family="sans-serif" font-size="9.1" lengthAdjust="spacing" textLength="3.5" x="341.3519" y="128.188">*</text><!--MD5=[2de32f8dee38664ec07413075ed961c1]
link TypeOfVaccine to Vaccine--><path codeLine="59" d="M355.32,183.638 C340.641,208.236 317.296,247.352 300.006,276.318 " fill="none" id="TypeOfVaccine-Vaccine" style="stroke:#A80036;stroke-width:0.6999999999999998;"/><polygon fill="#000000" points="319.8563,252.3285,324.8677,247.9459,321.3346,245.8373,319.8563,252.3285" style="stroke:#000000;stroke-width:0.6999999999999998;"/><text fill="#000000" font-family="sans-serif" font-size="9.1" lengthAdjust="spacing" textLength="46.9" x="327.95" y="253.0466">categorizes</text><text fill="#000000" font-family="sans-serif" font-size="9.1" lengthAdjust="spacing" textLength="4.9" x="347.6047" y="198.2195">1</text><text fill="#000000" font-family="sans-serif" font-size="9.1" lengthAdjust="spacing" textLength="3.5" x="299.159" y="268.9435">*</text><!--MD5=[dd9ff7caaca0f048844225eaee538a02]
link Vaccine to GroupAge--><path codeLine="60" d="M257.698,352.891 C254.485,359.744 251.384,366.905 248.85,373.8 C244.79,384.839 241.612,397.831 239.568,407.337 " fill="none" id="Vaccine-GroupAge" style="stroke:#A80036;stroke-width:0.6999999999999998;"/><polygon fill="#000000" points="251.2442,383.5438,255.1965,378.1865,251.2927,376.8866,251.2442,383.5438" style="stroke:#000000;stroke-width:0.6999999999999998;"/><text fill="#000000" font-family="sans-serif" font-size="9.1" lengthAdjust="spacing" textLength="29.4" x="258.65" y="383.9466">checks</text><text fill="#000000" font-family="sans-serif" font-size="9.1" lengthAdjust="spacing" textLength="4.9" x="249.9406" y="367.9624">1</text><text fill="#000000" font-family="sans-serif" font-size="9.1" lengthAdjust="spacing" textLength="3.5" x="236.323" y="399.8437">*</text><!--MD5=[0026e2caddc4ad7d2f890d63204af1d5]
link Vaccine to Dosage--><path codeLine="61" d="M292.341,353.087 C299.747,371.98 308.252,393.666 313.586,407.274 " fill="none" id="Vaccine-Dosage" style="stroke:#A80036;stroke-width:0.6999999999999998;"/><polygon fill="#000000" points="309.6276,383.4816,309.2317,376.8359,305.4011,378.3378,309.6276,383.4816" style="stroke:#000000;stroke-width:0.6999999999999998;"/><text fill="#000000" font-family="sans-serif" font-size="9.1" lengthAdjust="spacing" textLength="29.4" x="314.65" y="383.9466">checks</text><text fill="#000000" font-family="sans-serif" font-size="9.1" lengthAdjust="spacing" textLength="4.9" x="288.9451" y="367.9079">1</text><text fill="#000000" font-family="sans-serif" font-size="9.1" lengthAdjust="spacing" textLength="3.5" x="308.0256" y="399.7622">*</text><!--MD5=[4ab7284feb61b0f7ab84b90fded47ac3]
@startuml
hide methods

skinparam classAttributeIconSize 0

class Company{
 -designation
}

class Employee{
-id
-address
-phoneNumber
-citizenCardNumber
}

class VaccinationCenter {
  -name
  -phoneNumber
  -email
  -faxNumber
  -websiteAddress
  -openHour
  -closeHour
  -slotDuration
  -fullCapacity
  -maxVaccinePerSlot
}

class Administrator{

}

class Vaccine {
-nameBrand
 -groupAge
 -numberOfVaccines
 -dosage
 -timeBetweenDoses

}

class TypeOfVaccine{
-String code
-String designation
}

class GroupAge{

}
class Dosage{

}

Administrator "1" - - "*" Employee : manages >
Company "1" - - "*" Employee : employ >
Administrator "1" - - "*" VaccinationCenter : manages >
Administrator "1" - - "*" Vaccine : manages >
Administrator "1" - - "*" TypeOfVaccine : manages >
TypeOfVaccine "1" - - "*" Vaccine : categorizes >
Vaccine "1" - - "*" GroupAge : checks >
Vaccine "1" - - "*" Dosage : checks >




@enduml

PlantUML version 1.2022.1(Tue Feb 01 18:19:58 GMT 2022)
(GPL source distribution)
Java Runtime: OpenJDK Runtime Environment
JVM: OpenJDK 64-Bit Server VM
Default Encoding: Cp1252
Language: pt
Country: PT
--></g></svg>