<?xml version="1.0" encoding="UTF-8" standalone="no"?><svg xmlns="http://www.w3.org/2000/svg" xmlns:xlink="http://www.w3.org/1999/xlink" contentStyleType="text/css" height="396px" preserveAspectRatio="none" style="width:230px;height:396px;background:#FFFFFF;" version="1.1" viewBox="0 0 230 396" width="230px" zoomAndPan="magnify"><defs/><g><!--MD5=[72be06cc7ae02ccc98efe28a50e62246]
class SNSUser--><g id="elem_SNSUser"><rect codeLine="4" fill="#F1F1F1" height="128.0469" id="SNSUser" rx="2.5" ry="2.5" style="stroke:#181818;stroke-width:0.5;" width="115" x="19" y="261"/><ellipse cx="46.15" cy="277" fill="#ADD1B2" rx="11" ry="11" style="stroke:#181818;stroke-width:1.0;"/><path d="M48.15,273.5 Q48.3531,273 48.5875,272.75 Q48.8219,272.5 49.0875,272.5 Q49.5563,272.5 49.8531,272.7813 Q50.15,273.0625 50.15,273.7188 L50.15,275.2813 Q50.15,275.9375 49.8688,276.2188 Q49.5875,276.5 49.15,276.5 Q48.7594,276.5 48.5094,276.3281 Q48.2594,276.1563 48.15,275.7031 Q48.1031,275.3906 47.9313,275.2188 Q47.6188,274.8906 47.0563,274.7031 Q46.4938,274.5 45.9313,274.5 Q45.2281,274.5 44.6344,274.7813 Q44.0563,275.0625 43.6031,275.6875 Q43.15,276.3125 43.15,277.1719 L43.15,278.0938 Q43.15,279.125 43.9938,279.8125 Q44.8375,280.5 46.3375,280.5 Q47.2281,280.5 47.8531,280.2969 Q48.2125,280.1875 48.6188,279.8281 Q48.8844,279.625 49.025,279.5625 Q49.1656,279.5 49.3375,279.5 Q49.6656,279.5 49.9,279.7656 Q50.15,280.0156 50.15,280.375 Q50.15,280.7188 49.8063,281.125 Q49.3063,281.7188 48.5094,282.0469 Q47.4625,282.5 46.1813,282.5 Q44.6813,282.5 43.4781,281.9063 Q42.5094,281.4375 41.8219,280.4219 Q41.15,279.4063 41.15,278.2031 L41.15,277.1094 Q41.15,275.8594 41.7438,274.7656 Q42.3531,273.6719 43.4,273.0938 Q44.4625,272.5 45.65,272.5 Q46.3688,272.5 46.9938,272.75 Q47.6188,273 48.15,273.5 Z " fill="#000000"/><text fill="#000000" font-family="sans-serif" font-size="14" lengthAdjust="spacing" textLength="56" x="62.85" y="282.7285">SNSUser</text><line style="stroke:#181818;stroke-width:0.5;" x1="20" x2="133" y1="293" y2="293"/><rect fill="none" height="6" style="stroke:#C82930;stroke-width:1.0;" width="6" x="27" y="301"/><text fill="#000000" font-family="sans-serif" font-size="14" lengthAdjust="spacing" textLength="35" x="39" y="311.5332">name</text><rect fill="none" height="6" style="stroke:#C82930;stroke-width:1.0;" width="6" x="27" y="318.6094"/><text fill="#000000" font-family="sans-serif" font-size="14" lengthAdjust="spacing" textLength="76" x="39" y="329.1426">SNSNumber</text><rect fill="none" height="6" style="stroke:#C82930;stroke-width:1.0;" width="6" x="27" y="336.2188"/><text fill="#000000" font-family="sans-serif" font-size="14" lengthAdjust="spacing" textLength="33" x="39" y="346.752">email</text><rect fill="none" height="6" style="stroke:#C82930;stroke-width:1.0;" width="6" x="27" y="353.8281"/><text fill="#000000" font-family="sans-serif" font-size="14" lengthAdjust="spacing" textLength="89" x="39" y="364.3613">phoneNumber</text><rect fill="none" height="6" style="stroke:#C82930;stroke-width:1.0;" width="6" x="27" y="371.4375"/><text fill="#000000" font-family="sans-serif" font-size="14" lengthAdjust="spacing" textLength="58" x="39" y="381.9707">birthDate</text></g><!--MD5=[da547346deef918ea16944ba046651ef]
class Administrator--><g id="elem_Administrator"><rect codeLine="14" fill="#F1F1F1" height="40" id="Administrator" rx="2.5" ry="2.5" style="stroke:#181818;stroke-width:0.5;" width="115" x="108" y="143"/><ellipse cx="123" cy="159" fill="#ADD1B2" rx="11" ry="11" style="stroke:#181818;stroke-width:1.0;"/><path d="M125,155.5 Q125.2031,155 125.4375,154.75 Q125.6719,154.5 125.9375,154.5 Q126.4063,154.5 126.7031,154.7813 Q127,155.0625 127,155.7188 L127,157.2813 Q127,157.9375 126.7188,158.2188 Q126.4375,158.5 126,158.5 Q125.6094,158.5 125.3594,158.3281 Q125.1094,158.1563 125,157.7031 Q124.9531,157.3906 124.7813,157.2188 Q124.4688,156.8906 123.9063,156.7031 Q123.3438,156.5 122.7813,156.5 Q122.0781,156.5 121.4844,156.7813 Q120.9063,157.0625 120.4531,157.6875 Q120,158.3125 120,159.1719 L120,160.0938 Q120,161.125 120.8438,161.8125 Q121.6875,162.5 123.1875,162.5 Q124.0781,162.5 124.7031,162.2969 Q125.0625,162.1875 125.4688,161.8281 Q125.7344,161.625 125.875,161.5625 Q126.0156,161.5 126.1875,161.5 Q126.5156,161.5 126.75,161.7656 Q127,162.0156 127,162.375 Q127,162.7188 126.6563,163.125 Q126.1563,163.7188 125.3594,164.0469 Q124.3125,164.5 123.0313,164.5 Q121.5313,164.5 120.3281,163.9063 Q119.3594,163.4375 118.6719,162.4219 Q118,161.4063 118,160.2031 L118,159.1094 Q118,157.8594 118.5938,156.7656 Q119.2031,155.6719 120.25,155.0938 Q121.3125,154.5 122.5,154.5 Q123.2188,154.5 123.8438,154.75 Q124.4688,155 125,155.5 Z " fill="#000000"/><text fill="#000000" font-family="sans-serif" font-size="14" lengthAdjust="spacing" textLength="83" x="137" y="164.7285">Administrator</text><line style="stroke:#181818;stroke-width:0.5;" x1="109" x2="222" y1="175" y2="175"/></g><!--MD5=[02e4b9b7573f1156f41e60aa5b4e25a4]
class Company--><g id="elem_Company"><rect codeLine="17" fill="#F1F1F1" height="57.6094" id="Company" rx="2.5" ry="2.5" style="stroke:#181818;stroke-width:0.5;" width="99" x="7" y="7"/><ellipse cx="25.15" cy="23" fill="#ADD1B2" rx="11" ry="11" style="stroke:#181818;stroke-width:1.0;"/><path d="M27.15,19.5 Q27.3531,19 27.5875,18.75 Q27.8219,18.5 28.0875,18.5 Q28.5563,18.5 28.8531,18.7813 Q29.15,19.0625 29.15,19.7188 L29.15,21.2813 Q29.15,21.9375 28.8688,22.2188 Q28.5875,22.5 28.15,22.5 Q27.7594,22.5 27.5094,22.3281 Q27.2594,22.1563 27.15,21.7031 Q27.1031,21.3906 26.9313,21.2188 Q26.6188,20.8906 26.0563,20.7031 Q25.4938,20.5 24.9313,20.5 Q24.2281,20.5 23.6344,20.7813 Q23.0563,21.0625 22.6031,21.6875 Q22.15,22.3125 22.15,23.1719 L22.15,24.0938 Q22.15,25.125 22.9938,25.8125 Q23.8375,26.5 25.3375,26.5 Q26.2281,26.5 26.8531,26.2969 Q27.2125,26.1875 27.6188,25.8281 Q27.8844,25.625 28.025,25.5625 Q28.1656,25.5 28.3375,25.5 Q28.6656,25.5 28.9,25.7656 Q29.15,26.0156 29.15,26.375 Q29.15,26.7188 28.8063,27.125 Q28.3063,27.7188 27.5094,28.0469 Q26.4625,28.5 25.1813,28.5 Q23.6813,28.5 22.4781,27.9063 Q21.5094,27.4375 20.8219,26.4219 Q20.15,25.4063 20.15,24.2031 L20.15,23.1094 Q20.15,21.8594 20.7438,20.7656 Q21.3531,19.6719 22.4,19.0938 Q23.4625,18.5 24.65,18.5 Q25.3688,18.5 25.9938,18.75 Q26.6188,19 27.15,19.5 Z " fill="#000000"/><text fill="#000000" font-family="sans-serif" font-size="14" lengthAdjust="spacing" textLength="60" x="39.85" y="28.7285">Company</text><line style="stroke:#181818;stroke-width:0.5;" x1="8" x2="105" y1="39" y2="39"/><rect fill="none" height="6" style="stroke:#C82930;stroke-width:1.0;" width="6" x="15" y="47"/><text fill="#000000" font-family="sans-serif" font-size="14" lengthAdjust="spacing" textLength="73" x="27" y="57.5332">designation</text></g><!--MD5=[eaea43e34e45c5b9d20b595fc78f1f20]
link Company to Administrator--><g id="link_Company_Administrator"><path codeLine="21" d="M80.96,65.05 C101.67,88.81 130.81,122.21 148.9,142.96 " fill="none" id="Company-Administrator" style="stroke:#181818;stroke-width:1.0;"/><text fill="#000000" font-family="sans-serif" font-size="13" lengthAdjust="spacing" textLength="30" x="121.5" y="109.4951">owns</text><text fill="#000000" font-family="sans-serif" font-size="13" lengthAdjust="spacing" textLength="7" x="78.283" y="86.2632">1</text><text fill="#000000" font-family="sans-serif" font-size="13" lengthAdjust="spacing" textLength="5" x="138.2894" y="132.27">*</text></g><!--MD5=[1a8aa2b864b87f860d28abceaa28b7a5]
link Company to SNSUser--><g id="link_Company_SNSUser"><path codeLine="22" d="M52.76,65.28 C50.14,86.6 46.87,116.58 45.5,143 C44.58,160.75 43.58,165.33 45.5,183 C48.3,208.79 53.9,236.77 59.59,260.96 " fill="none" id="Company-SNSUser" style="stroke:#181818;stroke-width:1.0;"/><polygon fill="#000000" points="50.6744,168.1727,53.296,159.0306,47.4218,159.2357,50.6744,168.1727" style="stroke:#000000;stroke-width:1.0;"/><text fill="#000000" font-family="sans-serif" font-size="13" lengthAdjust="spacing" textLength="30" x="59.5" y="168.4951">owns</text><text fill="#000000" font-family="sans-serif" font-size="13" lengthAdjust="spacing" textLength="7" x="44.3346" y="86.1877">1</text><text fill="#000000" font-family="sans-serif" font-size="13" lengthAdjust="spacing" textLength="5" x="52.3457" y="250.1431">*</text></g><!--MD5=[2b5fc2dce8eec1aafb1a3721aa50d3a4]
link Administrator to SNSUser--><g id="link_Administrator_SNSUser"><path codeLine="23" d="M154.76,183.3 C144.08,202.5 127.11,233.01 111.7,260.73 " fill="none" id="Administrator-SNSUser" style="stroke:#181818;stroke-width:1.0;"/><polygon fill="#000000" points="139.0699,226.5455,146.0345,220.0689,140.8975,217.2122,139.0699,226.5455" style="stroke:#000000;stroke-width:1.0;"/><text fill="#000000" font-family="sans-serif" font-size="13" lengthAdjust="spacing" textLength="43" x="150.5" y="227.4951">creates</text><text fill="#000000" font-family="sans-serif" font-size="13" lengthAdjust="spacing" textLength="7" x="143.933" y="204.448">1</text><text fill="#000000" font-family="sans-serif" font-size="13" lengthAdjust="spacing" textLength="5" x="110.2766" y="250.3372">*</text></g><!--MD5=[f2fe894b705519917c7f88b636c05c4e]
@startuml

hide methods

class SNSUser {
- name
- SNSNumber
- email
- phoneNumber
- birthDate
}



class Administrator {
}

class Company{
 -designation
}

Company "1"  - - "*" Administrator : owns
Company "1" - - "*" SNSUser : owns >
Administrator "1" - - "*" SNSUser : creates >


@enduml

PlantUML version 1.2022.4(Sat Apr 09 14:29:17 BST 2022)
(GPL source distribution)
Java Runtime: OpenJDK Runtime Environment
JVM: OpenJDK 64-Bit Server VM
Default Encoding: Cp1252
Language: pt
Country: PT
--></g></svg>