<?xml version="1.0" encoding="UTF-8" standalone="no"?><svg xmlns="http://www.w3.org/2000/svg" xmlns:xlink="http://www.w3.org/1999/xlink" contentStyleType="text/css" height="916px" preserveAspectRatio="none" style="width:1264px;height:916px;background:#FFFFFF;" version="1.1" viewBox="0 0 1264 916" width="1264px" zoomAndPan="magnify"><defs/><g><!--MD5=[02e4b9b7573f1156f41e60aa5b4e25a4]
class Company--><g id="elem_Company"><rect codeLine="3" fill="#F1F1F1" height="171.2656" id="Company" rx="2.5" ry="2.5" style="stroke:#181818;stroke-width:0.5;" width="720" x="261" y="276"/><ellipse cx="586.75" cy="292" fill="#ADD1B2" rx="11" ry="11" style="stroke:#181818;stroke-width:1.0;"/><path d="M588.75,288.5 Q588.9531,288 589.1875,287.75 Q589.4219,287.5 589.6875,287.5 Q590.1563,287.5 590.4531,287.7813 Q590.75,288.0625 590.75,288.7188 L590.75,290.2813 Q590.75,290.9375 590.4688,291.2188 Q590.1875,291.5 589.75,291.5 Q589.3594,291.5 589.1094,291.3281 Q588.8594,291.1563 588.75,290.7031 Q588.7031,290.3906 588.5313,290.2188 Q588.2188,289.8906 587.6563,289.7031 Q587.0938,289.5 586.5313,289.5 Q585.8281,289.5 585.2344,289.7813 Q584.6563,290.0625 584.2031,290.6875 Q583.75,291.3125 583.75,292.1719 L583.75,293.0938 Q583.75,294.125 584.5938,294.8125 Q585.4375,295.5 586.9375,295.5 Q587.8281,295.5 588.4531,295.2969 Q588.8125,295.1875 589.2188,294.8281 Q589.4844,294.625 589.625,294.5625 Q589.7656,294.5 589.9375,294.5 Q590.2656,294.5 590.5,294.7656 Q590.75,295.0156 590.75,295.375 Q590.75,295.7188 590.4063,296.125 Q589.9063,296.7188 589.1094,297.0469 Q588.0625,297.5 586.7813,297.5 Q585.2813,297.5 584.0781,296.9063 Q583.1094,296.4375 582.4219,295.4219 Q581.75,294.4063 581.75,293.2031 L581.75,292.1094 Q581.75,290.8594 582.3438,289.7656 Q582.9531,288.6719 584,288.0938 Q585.0625,287.5 586.25,287.5 Q586.9688,287.5 587.5938,287.75 Q588.2188,288 588.75,288.5 Z " fill="#000000"/><text fill="#000000" font-family="sans-serif" font-size="14" lengthAdjust="spacing" textLength="60" x="607.25" y="297.7285">Company</text><line style="stroke:#181818;stroke-width:0.5;" x1="262" x2="980" y1="308" y2="308"/><text fill="#000000" font-family="sans-serif" font-size="14" lengthAdjust="spacing" textLength="119" x="267" y="326.5332">-String designation</text><line style="stroke:#181818;stroke-width:0.5;" x1="262" x2="980" y1="333.6094" y2="333.6094"/><text fill="#000000" font-family="sans-serif" font-size="14" lengthAdjust="spacing" textLength="103" x="267" y="352.1426">+getUserRoles()</text><text fill="#000000" font-family="sans-serif" font-size="14" lengthAdjust="spacing" textLength="228" x="267" y="369.752">+boolean createEmployee((dtoEmp)</text><text fill="#000000" font-family="sans-serif" font-size="14" lengthAdjust="spacing" textLength="134" x="267" y="387.3613">+getEmployeeStore()</text><text fill="#000000" font-family="sans-serif" font-size="14" lengthAdjust="spacing" textLength="128" x="267" y="404.9707">generatePassword()</text><text fill="#000000" font-family="sans-serif" font-size="14" lengthAdjust="spacing" textLength="708" x="267" y="422.5801">+boolean addUserWithRole(EmployeeDTO.getName(),EmployeeDTO.getEmail(),pass,UserRoleDTO.getroleId());</text><text fill="#000000" font-family="sans-serif" font-size="14" lengthAdjust="spacing" textLength="280" x="267" y="440.1895">+boolean saveEmployee(employeeCreation)</text></g><!--MD5=[00f5a8d890e3e1ee187254d4d2c6b7cb]
class EmployeeDTO--><g id="elem_EmployeeDTO"><rect codeLine="14" fill="#F1F1F1" height="171.2656" id="EmployeeDTO" rx="2.5" ry="2.5" style="stroke:#181818;stroke-width:0.5;" width="172" x="7" y="507"/><ellipse cx="43.6" cy="523" fill="#ADD1B2" rx="11" ry="11" style="stroke:#181818;stroke-width:1.0;"/><path d="M45.6,519.5 Q45.8031,519 46.0375,518.75 Q46.2719,518.5 46.5375,518.5 Q47.0063,518.5 47.3031,518.7813 Q47.6,519.0625 47.6,519.7188 L47.6,521.2813 Q47.6,521.9375 47.3188,522.2188 Q47.0375,522.5 46.6,522.5 Q46.2094,522.5 45.9594,522.3281 Q45.7094,522.1563 45.6,521.7031 Q45.5531,521.3906 45.3813,521.2188 Q45.0688,520.8906 44.5063,520.7031 Q43.9438,520.5 43.3813,520.5 Q42.6781,520.5 42.0844,520.7813 Q41.5063,521.0625 41.0531,521.6875 Q40.6,522.3125 40.6,523.1719 L40.6,524.0938 Q40.6,525.125 41.4438,525.8125 Q42.2875,526.5 43.7875,526.5 Q44.6781,526.5 45.3031,526.2969 Q45.6625,526.1875 46.0688,525.8281 Q46.3344,525.625 46.475,525.5625 Q46.6156,525.5 46.7875,525.5 Q47.1156,525.5 47.35,525.7656 Q47.6,526.0156 47.6,526.375 Q47.6,526.7188 47.2563,527.125 Q46.7563,527.7188 45.9594,528.0469 Q44.9125,528.5 43.6313,528.5 Q42.1313,528.5 40.9281,527.9063 Q39.9594,527.4375 39.2719,526.4219 Q38.6,525.4063 38.6,524.2031 L38.6,523.1094 Q38.6,521.8594 39.1938,520.7656 Q39.8031,519.6719 40.85,519.0938 Q41.9125,518.5 43.1,518.5 Q43.8188,518.5 44.4438,518.75 Q45.0688,519 45.6,519.5 Z " fill="#000000"/><text fill="#000000" font-family="sans-serif" font-size="14" lengthAdjust="spacing" textLength="92" x="62.4" y="528.7285">EmployeeDTO</text><line style="stroke:#181818;stroke-width:0.5;" x1="8" x2="178" y1="539" y2="539"/><line style="stroke:#181818;stroke-width:0.5;" x1="8" x2="178" y1="547" y2="547"/><text fill="#000000" font-family="sans-serif" font-size="14" lengthAdjust="spacing" textLength="88" x="13" y="565.5332">+generateID()</text><text fill="#000000" font-family="sans-serif" font-size="14" lengthAdjust="spacing" textLength="74" x="13" y="583.1426">+getName()</text><text fill="#000000" font-family="sans-serif" font-size="14" lengthAdjust="spacing" textLength="72" x="13" y="600.752">+getEmail()</text><text fill="#000000" font-family="sans-serif" font-size="14" lengthAdjust="spacing" textLength="99" x="13" y="618.3613">+getPassword()</text><text fill="#000000" font-family="sans-serif" font-size="14" lengthAdjust="spacing" textLength="90" x="13" y="635.9707">+getAddress()</text><text fill="#000000" font-family="sans-serif" font-size="14" lengthAdjust="spacing" textLength="128" x="13" y="653.5801">+getPhoneNumber()</text><text fill="#000000" font-family="sans-serif" font-size="14" lengthAdjust="spacing" textLength="160" x="13" y="671.1895">+getCitizenCardNumber()</text></g><!--MD5=[829fb52c07ade3ad64ef85b99d1fca10]
class EmployeeStore--><g id="elem_EmployeeStore"><rect codeLine="24" fill="#F1F1F1" height="153.6563" id="EmployeeStore" rx="2.5" ry="2.5" style="stroke:#181818;stroke-width:0.5;" width="311" x="214.5" y="515.5"/><ellipse cx="317.75" cy="531.5" fill="#ADD1B2" rx="11" ry="11" style="stroke:#181818;stroke-width:1.0;"/><path d="M319.75,528 Q319.9531,527.5 320.1875,527.25 Q320.4219,527 320.6875,527 Q321.1563,527 321.4531,527.2813 Q321.75,527.5625 321.75,528.2188 L321.75,529.7813 Q321.75,530.4375 321.4688,530.7188 Q321.1875,531 320.75,531 Q320.3594,531 320.1094,530.8281 Q319.8594,530.6563 319.75,530.2031 Q319.7031,529.8906 319.5313,529.7188 Q319.2188,529.3906 318.6563,529.2031 Q318.0938,529 317.5313,529 Q316.8281,529 316.2344,529.2813 Q315.6563,529.5625 315.2031,530.1875 Q314.75,530.8125 314.75,531.6719 L314.75,532.5938 Q314.75,533.625 315.5938,534.3125 Q316.4375,535 317.9375,535 Q318.8281,535 319.4531,534.7969 Q319.8125,534.6875 320.2188,534.3281 Q320.4844,534.125 320.625,534.0625 Q320.7656,534 320.9375,534 Q321.2656,534 321.5,534.2656 Q321.75,534.5156 321.75,534.875 Q321.75,535.2188 321.4063,535.625 Q320.9063,536.2188 320.1094,536.5469 Q319.0625,537 317.7813,537 Q316.2813,537 315.0781,536.4063 Q314.1094,535.9375 313.4219,534.9219 Q312.75,533.9063 312.75,532.7031 L312.75,531.6094 Q312.75,530.3594 313.3438,529.2656 Q313.9531,528.1719 315,527.5938 Q316.0625,527 317.25,527 Q317.9688,527 318.5938,527.25 Q319.2188,527.5 319.75,528 Z " fill="#000000"/><text fill="#000000" font-family="sans-serif" font-size="14" lengthAdjust="spacing" textLength="96" x="338.25" y="537.2285">EmployeeStore</text><line style="stroke:#181818;stroke-width:0.5;" x1="215.5" x2="524.5" y1="547.5" y2="547.5"/><line style="stroke:#181818;stroke-width:0.5;" x1="215.5" x2="524.5" y1="555.5" y2="555.5"/><text fill="#000000" font-family="sans-serif" font-size="14" lengthAdjust="spacing" textLength="223" x="220.5" y="574.0332">+boolean createEmployee(dtoEmp)</text><text fill="#000000" font-family="sans-serif" font-size="14" lengthAdjust="spacing" textLength="80" x="220.5" y="591.6426">generateID()</text><text fill="#000000" font-family="sans-serif" font-size="14" lengthAdjust="spacing" textLength="299" x="220.5" y="609.252">+boolean validateEmployee(employeeCreation)</text><text fill="#000000" font-family="sans-serif" font-size="14" lengthAdjust="spacing" textLength="280" x="220.5" y="626.8613">+boolean saveEmployee(employeeCreation)</text><text fill="#000000" font-family="sans-serif" font-size="14" lengthAdjust="spacing" textLength="299" x="220.5" y="644.4707">+boolean validateEmployee(employeeCreation)</text><text fill="#000000" font-family="sans-serif" font-size="14" lengthAdjust="spacing" textLength="274" x="220.5" y="662.0801">+boolean addEmployee(employeeCreation)</text></g><!--MD5=[3389f40f49a706b73adaab58d158a4c1]
class UserRoleDTO--><g id="elem_UserRoleDTO"><rect codeLine="33" fill="#F1F1F1" height="83.2188" id="UserRoleDTO" rx="2.5" ry="2.5" style="stroke:#181818;stroke-width:0.5;" width="121" x="560.5" y="551"/><ellipse cx="575.95" cy="567" fill="#ADD1B2" rx="11" ry="11" style="stroke:#181818;stroke-width:1.0;"/><path d="M577.95,563.5 Q578.1531,563 578.3875,562.75 Q578.6219,562.5 578.8875,562.5 Q579.3563,562.5 579.6531,562.7813 Q579.95,563.0625 579.95,563.7188 L579.95,565.2813 Q579.95,565.9375 579.6688,566.2188 Q579.3875,566.5 578.95,566.5 Q578.5594,566.5 578.3094,566.3281 Q578.0594,566.1563 577.95,565.7031 Q577.9031,565.3906 577.7313,565.2188 Q577.4188,564.8906 576.8563,564.7031 Q576.2938,564.5 575.7313,564.5 Q575.0281,564.5 574.4344,564.7813 Q573.8563,565.0625 573.4031,565.6875 Q572.95,566.3125 572.95,567.1719 L572.95,568.0938 Q572.95,569.125 573.7938,569.8125 Q574.6375,570.5 576.1375,570.5 Q577.0281,570.5 577.6531,570.2969 Q578.0125,570.1875 578.4188,569.8281 Q578.6844,569.625 578.825,569.5625 Q578.9656,569.5 579.1375,569.5 Q579.4656,569.5 579.7,569.7656 Q579.95,570.0156 579.95,570.375 Q579.95,570.7188 579.6063,571.125 Q579.1063,571.7188 578.3094,572.0469 Q577.2625,572.5 575.9813,572.5 Q574.4813,572.5 573.2781,571.9063 Q572.3094,571.4375 571.6219,570.4219 Q570.95,569.4063 570.95,568.2031 L570.95,567.1094 Q570.95,565.8594 571.5438,564.7656 Q572.1531,563.6719 573.2,563.0938 Q574.2625,562.5 575.45,562.5 Q576.1688,562.5 576.7938,562.75 Q577.4188,563 577.95,563.5 Z " fill="#000000"/><text fill="#000000" font-family="sans-serif" font-size="14" lengthAdjust="spacing" textLength="88" x="590.05" y="572.7285">UserRoleDTO</text><line style="stroke:#181818;stroke-width:0.5;" x1="561.5" x2="680.5" y1="583" y2="583"/><line style="stroke:#181818;stroke-width:0.5;" x1="561.5" x2="680.5" y1="591" y2="591"/><text fill="#000000" font-family="sans-serif" font-size="14" lengthAdjust="spacing" textLength="73" x="566.5" y="609.5332">+getroleId()</text><text fill="#000000" font-family="sans-serif" font-size="14" lengthAdjust="spacing" textLength="109" x="566.5" y="627.1426">+getDescription()</text></g><!--MD5=[8ae808d068a8995f06b9b3ec51357f0b]
class AuthFacade--><g id="elem_AuthFacade"><rect codeLine="40" fill="#F1F1F1" height="136.0469" id="AuthFacade" rx="2.5" ry="2.5" style="stroke:#181818;stroke-width:0.5;" width="374" x="717" y="524.5"/><ellipse cx="861.25" cy="540.5" fill="#ADD1B2" rx="11" ry="11" style="stroke:#181818;stroke-width:1.0;"/><path d="M863.25,537 Q863.4531,536.5 863.6875,536.25 Q863.9219,536 864.1875,536 Q864.6563,536 864.9531,536.2813 Q865.25,536.5625 865.25,537.2188 L865.25,538.7813 Q865.25,539.4375 864.9688,539.7188 Q864.6875,540 864.25,540 Q863.8594,540 863.6094,539.8281 Q863.3594,539.6563 863.25,539.2031 Q863.2031,538.8906 863.0313,538.7188 Q862.7188,538.3906 862.1563,538.2031 Q861.5938,538 861.0313,538 Q860.3281,538 859.7344,538.2813 Q859.1563,538.5625 858.7031,539.1875 Q858.25,539.8125 858.25,540.6719 L858.25,541.5938 Q858.25,542.625 859.0938,543.3125 Q859.9375,544 861.4375,544 Q862.3281,544 862.9531,543.7969 Q863.3125,543.6875 863.7188,543.3281 Q863.9844,543.125 864.125,543.0625 Q864.2656,543 864.4375,543 Q864.7656,543 865,543.2656 Q865.25,543.5156 865.25,543.875 Q865.25,544.2188 864.9063,544.625 Q864.4063,545.2188 863.6094,545.5469 Q862.5625,546 861.2813,546 Q859.7813,546 858.5781,545.4063 Q857.6094,544.9375 856.9219,543.9219 Q856.25,542.9063 856.25,541.7031 L856.25,540.6094 Q856.25,539.3594 856.8438,538.2656 Q857.4531,537.1719 858.5,536.5938 Q859.5625,536 860.75,536 Q861.4688,536 862.0938,536.25 Q862.7188,536.5 863.25,537 Z " fill="#000000"/><text fill="#000000" font-family="sans-serif" font-size="14" lengthAdjust="spacing" textLength="77" x="881.75" y="546.2285">AuthFacade</text><line style="stroke:#181818;stroke-width:0.5;" x1="718" x2="1090" y1="556.5" y2="556.5"/><line style="stroke:#181818;stroke-width:0.5;" x1="718" x2="1090" y1="564.5" y2="564.5"/><text fill="#000000" font-family="sans-serif" font-size="14" lengthAdjust="spacing" textLength="103" x="723" y="583.0332">+getUserRoles()</text><text fill="#000000" font-family="sans-serif" font-size="14" lengthAdjust="spacing" textLength="213" x="723" y="600.6426">+mapper.toDTO(this.roles.getAll()</text><text fill="#000000" font-family="sans-serif" font-size="14" lengthAdjust="spacing" textLength="163" x="723" y="618.252">+boolean existUser(email)</text><text fill="#000000" font-family="sans-serif" font-size="14" lengthAdjust="spacing" textLength="165" x="723" y="635.8613">+boolean existRole(roleId)</text><text fill="#000000" font-family="sans-serif" font-size="14" lengthAdjust="spacing" textLength="362" x="723" y="653.4707">+boolean addUser (String name, String email, String pwd)</text></g><!--MD5=[7421f545a0d8420c5bec41e74b387d9c]
class Employee--><g id="elem_Employee"><rect codeLine="48" fill="#F1F1F1" height="171.2656" id="Employee" rx="2.5" ry="2.5" style="stroke:#181818;stroke-width:0.5;" width="679" x="30.5" y="738"/><ellipse cx="334.75" cy="754" fill="#ADD1B2" rx="11" ry="11" style="stroke:#181818;stroke-width:1.0;"/><path d="M336.75,750.5 Q336.9531,750 337.1875,749.75 Q337.4219,749.5 337.6875,749.5 Q338.1563,749.5 338.4531,749.7813 Q338.75,750.0625 338.75,750.7188 L338.75,752.2813 Q338.75,752.9375 338.4688,753.2188 Q338.1875,753.5 337.75,753.5 Q337.3594,753.5 337.1094,753.3281 Q336.8594,753.1563 336.75,752.7031 Q336.7031,752.3906 336.5313,752.2188 Q336.2188,751.8906 335.6563,751.7031 Q335.0938,751.5 334.5313,751.5 Q333.8281,751.5 333.2344,751.7813 Q332.6563,752.0625 332.2031,752.6875 Q331.75,753.3125 331.75,754.1719 L331.75,755.0938 Q331.75,756.125 332.5938,756.8125 Q333.4375,757.5 334.9375,757.5 Q335.8281,757.5 336.4531,757.2969 Q336.8125,757.1875 337.2188,756.8281 Q337.4844,756.625 337.625,756.5625 Q337.7656,756.5 337.9375,756.5 Q338.2656,756.5 338.5,756.7656 Q338.75,757.0156 338.75,757.375 Q338.75,757.7188 338.4063,758.125 Q337.9063,758.7188 337.1094,759.0469 Q336.0625,759.5 334.7813,759.5 Q333.2813,759.5 332.0781,758.9063 Q331.1094,758.4375 330.4219,757.4219 Q329.75,756.4063 329.75,755.2031 L329.75,754.1094 Q329.75,752.8594 330.3438,751.7656 Q330.9531,750.6719 332,750.0938 Q333.0625,749.5 334.25,749.5 Q334.9688,749.5 335.5938,749.75 Q336.2188,750 336.75,750.5 Z " fill="#000000"/><text fill="#000000" font-family="sans-serif" font-size="14" lengthAdjust="spacing" textLength="62" x="355.25" y="759.7285">Employee</text><line style="stroke:#181818;stroke-width:0.5;" x1="31.5" x2="708.5" y1="770" y2="770"/><text fill="#000000" font-family="sans-serif" font-size="14" lengthAdjust="spacing" textLength="35" x="36.5" y="788.5332">-int id</text><text fill="#000000" font-family="sans-serif" font-size="14" lengthAdjust="spacing" textLength="81" x="36.5" y="806.1426">-String name</text><text fill="#000000" font-family="sans-serif" font-size="14" lengthAdjust="spacing" textLength="79" x="36.5" y="823.752">-String email</text><text fill="#000000" font-family="sans-serif" font-size="14" lengthAdjust="spacing" textLength="97" x="36.5" y="841.3613">-String address</text><text fill="#000000" font-family="sans-serif" font-size="14" lengthAdjust="spacing" textLength="125" x="36.5" y="858.9707">-float phoneNumber</text><text fill="#000000" font-family="sans-serif" font-size="14" lengthAdjust="spacing" textLength="165" x="36.5" y="876.5801">-String citizenCardNumber</text><line style="stroke:#181818;stroke-width:0.5;" x1="31.5" x2="708.5" y1="883.6563" y2="883.6563"/><text fill="#000000" font-family="sans-serif" font-size="14" lengthAdjust="spacing" textLength="667" x="36.5" y="902.1895">+boolean createEmployee(int id,String address,float phoneNumber,String email,String citizenCardNumber)</text></g><!--MD5=[20797d3256da551683fe14a386f67a67]
class UserRoleMapper--><g id="elem_UserRoleMapper"><rect codeLine="58" fill="#F1F1F1" height="65.6094" id="UserRoleMapper" rx="2.5" ry="2.5" style="stroke:#181818;stroke-width:0.5;" width="138" x="790" y="790.5"/><ellipse cx="805" cy="806.5" fill="#ADD1B2" rx="11" ry="11" style="stroke:#181818;stroke-width:1.0;"/><path d="M807,803 Q807.2031,802.5 807.4375,802.25 Q807.6719,802 807.9375,802 Q808.4063,802 808.7031,802.2813 Q809,802.5625 809,803.2188 L809,804.7813 Q809,805.4375 808.7188,805.7188 Q808.4375,806 808,806 Q807.6094,806 807.3594,805.8281 Q807.1094,805.6563 807,805.2031 Q806.9531,804.8906 806.7813,804.7188 Q806.4688,804.3906 805.9063,804.2031 Q805.3438,804 804.7813,804 Q804.0781,804 803.4844,804.2813 Q802.9063,804.5625 802.4531,805.1875 Q802,805.8125 802,806.6719 L802,807.5938 Q802,808.625 802.8438,809.3125 Q803.6875,810 805.1875,810 Q806.0781,810 806.7031,809.7969 Q807.0625,809.6875 807.4688,809.3281 Q807.7344,809.125 807.875,809.0625 Q808.0156,809 808.1875,809 Q808.5156,809 808.75,809.2656 Q809,809.5156 809,809.875 Q809,810.2188 808.6563,810.625 Q808.1563,811.2188 807.3594,811.5469 Q806.3125,812 805.0313,812 Q803.5313,812 802.3281,811.4063 Q801.3594,810.9375 800.6719,809.9219 Q800,808.9063 800,807.7031 L800,806.6094 Q800,805.3594 800.5938,804.2656 Q801.2031,803.1719 802.25,802.5938 Q803.3125,802 804.5,802 Q805.2188,802 805.8438,802.25 Q806.4688,802.5 807,803 Z " fill="#000000"/><text fill="#000000" font-family="sans-serif" font-size="14" lengthAdjust="spacing" textLength="106" x="819" y="812.2285">UserRoleMapper</text><line style="stroke:#181818;stroke-width:0.5;" x1="791" x2="927" y1="822.5" y2="822.5"/><line style="stroke:#181818;stroke-width:0.5;" x1="791" x2="927" y1="830.5" y2="830.5"/><text fill="#000000" font-family="sans-serif" font-size="14" lengthAdjust="spacing" textLength="58" x="796" y="849.0332">+create()</text></g><!--MD5=[45d42ff7800d812d5f83c7d3273eb427]
class UserRole--><g id="elem_UserRole"><rect codeLine="63" fill="#F1F1F1" height="83.2188" id="UserRole" rx="2.5" ry="2.5" style="stroke:#181818;stroke-width:0.5;" width="131" x="1126.5" y="551"/><ellipse cx="1159.95" cy="567" fill="#ADD1B2" rx="11" ry="11" style="stroke:#181818;stroke-width:1.0;"/><path d="M1161.95,563.5 Q1162.1531,563 1162.3875,562.75 Q1162.6219,562.5 1162.8875,562.5 Q1163.3563,562.5 1163.6531,562.7813 Q1163.95,563.0625 1163.95,563.7188 L1163.95,565.2813 Q1163.95,565.9375 1163.6688,566.2188 Q1163.3875,566.5 1162.95,566.5 Q1162.5594,566.5 1162.3094,566.3281 Q1162.0594,566.1563 1161.95,565.7031 Q1161.9031,565.3906 1161.7313,565.2188 Q1161.4188,564.8906 1160.8563,564.7031 Q1160.2938,564.5 1159.7313,564.5 Q1159.0281,564.5 1158.4344,564.7813 Q1157.8563,565.0625 1157.4031,565.6875 Q1156.95,566.3125 1156.95,567.1719 L1156.95,568.0938 Q1156.95,569.125 1157.7938,569.8125 Q1158.6375,570.5 1160.1375,570.5 Q1161.0281,570.5 1161.6531,570.2969 Q1162.0125,570.1875 1162.4188,569.8281 Q1162.6844,569.625 1162.825,569.5625 Q1162.9656,569.5 1163.1375,569.5 Q1163.4656,569.5 1163.7,569.7656 Q1163.95,570.0156 1163.95,570.375 Q1163.95,570.7188 1163.6063,571.125 Q1163.1063,571.7188 1162.3094,572.0469 Q1161.2625,572.5 1159.9813,572.5 Q1158.4813,572.5 1157.2781,571.9063 Q1156.3094,571.4375 1155.6219,570.4219 Q1154.95,569.4063 1154.95,568.2031 L1154.95,567.1094 Q1154.95,565.8594 1155.5438,564.7656 Q1156.1531,563.6719 1157.2,563.0938 Q1158.2625,562.5 1159.45,562.5 Q1160.1688,562.5 1160.7938,562.75 Q1161.4188,563 1161.95,563.5 Z " fill="#000000"/><text fill="#000000" font-family="sans-serif" font-size="14" lengthAdjust="spacing" textLength="58" x="1178.05" y="572.7285">UserRole</text><line style="stroke:#181818;stroke-width:0.5;" x1="1127.5" x2="1256.5" y1="583" y2="583"/><text fill="#000000" font-family="sans-serif" font-size="14" lengthAdjust="spacing" textLength="35" x="1132.5" y="601.5332">-int id</text><text fill="#000000" font-family="sans-serif" font-size="14" lengthAdjust="spacing" textLength="119" x="1132.5" y="619.1426">-String designation</text><line style="stroke:#181818;stroke-width:0.5;" x1="1127.5" x2="1256.5" y1="626.2188" y2="626.2188"/></g><!--MD5=[3fd616f346a44cd59a91eb10b19e157c]
class User--><g id="elem_User"><rect codeLine="69" fill="#F1F1F1" height="118.4375" id="User" rx="2.5" ry="2.5" style="stroke:#181818;stroke-width:0.5;" width="241" x="963.5" y="764.5"/><ellipse cx="1065.25" cy="780.5" fill="#ADD1B2" rx="11" ry="11" style="stroke:#181818;stroke-width:1.0;"/><path d="M1067.25,777 Q1067.4531,776.5 1067.6875,776.25 Q1067.9219,776 1068.1875,776 Q1068.6563,776 1068.9531,776.2813 Q1069.25,776.5625 1069.25,777.2188 L1069.25,778.7813 Q1069.25,779.4375 1068.9688,779.7188 Q1068.6875,780 1068.25,780 Q1067.8594,780 1067.6094,779.8281 Q1067.3594,779.6563 1067.25,779.2031 Q1067.2031,778.8906 1067.0313,778.7188 Q1066.7188,778.3906 1066.1563,778.2031 Q1065.5938,778 1065.0313,778 Q1064.3281,778 1063.7344,778.2813 Q1063.1563,778.5625 1062.7031,779.1875 Q1062.25,779.8125 1062.25,780.6719 L1062.25,781.5938 Q1062.25,782.625 1063.0938,783.3125 Q1063.9375,784 1065.4375,784 Q1066.3281,784 1066.9531,783.7969 Q1067.3125,783.6875 1067.7188,783.3281 Q1067.9844,783.125 1068.125,783.0625 Q1068.2656,783 1068.4375,783 Q1068.7656,783 1069,783.2656 Q1069.25,783.5156 1069.25,783.875 Q1069.25,784.2188 1068.9063,784.625 Q1068.4063,785.2188 1067.6094,785.5469 Q1066.5625,786 1065.2813,786 Q1063.7813,786 1062.5781,785.4063 Q1061.6094,784.9375 1060.9219,783.9219 Q1060.25,782.9063 1060.25,781.7031 L1060.25,780.6094 Q1060.25,779.3594 1060.8438,778.2656 Q1061.4531,777.1719 1062.5,776.5938 Q1063.5625,776 1064.75,776 Q1065.4688,776 1066.0938,776.25 Q1066.7188,776.5 1067.25,777 Z " fill="#000000"/><text fill="#000000" font-family="sans-serif" font-size="14" lengthAdjust="spacing" textLength="29" x="1085.75" y="786.2285">User</text><line style="stroke:#181818;stroke-width:0.5;" x1="964.5" x2="1203.5" y1="796.5" y2="796.5"/><text fill="#000000" font-family="sans-serif" font-size="14" lengthAdjust="spacing" textLength="81" x="969.5" y="815.0332">-String name</text><text fill="#000000" font-family="sans-serif" font-size="14" lengthAdjust="spacing" textLength="79" x="969.5" y="832.6426">-String email</text><text fill="#000000" font-family="sans-serif" font-size="14" lengthAdjust="spacing" textLength="106" x="969.5" y="850.252">-String password</text><line style="stroke:#181818;stroke-width:0.5;" x1="964.5" x2="1203.5" y1="857.3281" y2="857.3281"/><text fill="#000000" font-family="sans-serif" font-size="14" lengthAdjust="spacing" textLength="229" x="969.5" y="875.8613">+boolean createUser(id,name,email)</text></g><!--MD5=[a126dd63c8621c017159ae62771fbe54]
class RegisterEmployeeUI--><g id="elem_RegisterEmployeeUI"><rect codeLine="77" fill="#F1F1F1" height="48" id="RegisterEmployeeUI" rx="2.5" ry="2.5" style="stroke:#181818;stroke-width:0.5;" width="159" x="541.5" y="7"/><ellipse cx="556.5" cy="23" fill="#ADD1B2" rx="11" ry="11" style="stroke:#181818;stroke-width:1.0;"/><path d="M558.5,19.5 Q558.7031,19 558.9375,18.75 Q559.1719,18.5 559.4375,18.5 Q559.9063,18.5 560.2031,18.7813 Q560.5,19.0625 560.5,19.7188 L560.5,21.2813 Q560.5,21.9375 560.2188,22.2188 Q559.9375,22.5 559.5,22.5 Q559.1094,22.5 558.8594,22.3281 Q558.6094,22.1563 558.5,21.7031 Q558.4531,21.3906 558.2813,21.2188 Q557.9688,20.8906 557.4063,20.7031 Q556.8438,20.5 556.2813,20.5 Q555.5781,20.5 554.9844,20.7813 Q554.4063,21.0625 553.9531,21.6875 Q553.5,22.3125 553.5,23.1719 L553.5,24.0938 Q553.5,25.125 554.3438,25.8125 Q555.1875,26.5 556.6875,26.5 Q557.5781,26.5 558.2031,26.2969 Q558.5625,26.1875 558.9688,25.8281 Q559.2344,25.625 559.375,25.5625 Q559.5156,25.5 559.6875,25.5 Q560.0156,25.5 560.25,25.7656 Q560.5,26.0156 560.5,26.375 Q560.5,26.7188 560.1563,27.125 Q559.6563,27.7188 558.8594,28.0469 Q557.8125,28.5 556.5313,28.5 Q555.0313,28.5 553.8281,27.9063 Q552.8594,27.4375 552.1719,26.4219 Q551.5,25.4063 551.5,24.2031 L551.5,23.1094 Q551.5,21.8594 552.0938,20.7656 Q552.7031,19.6719 553.75,19.0938 Q554.8125,18.5 556,18.5 Q556.7188,18.5 557.3438,18.75 Q557.9688,19 558.5,19.5 Z " fill="#000000"/><text fill="#000000" font-family="sans-serif" font-size="14" lengthAdjust="spacing" textLength="127" x="570.5" y="28.7285">RegisterEmployeeUI</text><line style="stroke:#181818;stroke-width:0.5;" x1="542.5" x2="699.5" y1="39" y2="39"/><line style="stroke:#181818;stroke-width:0.5;" x1="542.5" x2="699.5" y1="47" y2="47"/></g><!--MD5=[6a4e699b59c2ecf8286aba2faa72e4bd]
class RegisterEmployeeController--><g id="elem_RegisterEmployeeController"><rect codeLine="80" fill="#F1F1F1" height="100.8281" id="RegisterEmployeeController" rx="2.5" ry="2.5" style="stroke:#181818;stroke-width:0.5;" width="292" x="475" y="115"/><ellipse cx="528.25" cy="131" fill="#ADD1B2" rx="11" ry="11" style="stroke:#181818;stroke-width:1.0;"/><path d="M530.25,127.5 Q530.4531,127 530.6875,126.75 Q530.9219,126.5 531.1875,126.5 Q531.6563,126.5 531.9531,126.7813 Q532.25,127.0625 532.25,127.7188 L532.25,129.2813 Q532.25,129.9375 531.9688,130.2188 Q531.6875,130.5 531.25,130.5 Q530.8594,130.5 530.6094,130.3281 Q530.3594,130.1563 530.25,129.7031 Q530.2031,129.3906 530.0313,129.2188 Q529.7188,128.8906 529.1563,128.7031 Q528.5938,128.5 528.0313,128.5 Q527.3281,128.5 526.7344,128.7813 Q526.1563,129.0625 525.7031,129.6875 Q525.25,130.3125 525.25,131.1719 L525.25,132.0938 Q525.25,133.125 526.0938,133.8125 Q526.9375,134.5 528.4375,134.5 Q529.3281,134.5 529.9531,134.2969 Q530.3125,134.1875 530.7188,133.8281 Q530.9844,133.625 531.125,133.5625 Q531.2656,133.5 531.4375,133.5 Q531.7656,133.5 532,133.7656 Q532.25,134.0156 532.25,134.375 Q532.25,134.7188 531.9063,135.125 Q531.4063,135.7188 530.6094,136.0469 Q529.5625,136.5 528.2813,136.5 Q526.7813,136.5 525.5781,135.9063 Q524.6094,135.4375 523.9219,134.4219 Q523.25,133.4063 523.25,132.2031 L523.25,131.1094 Q523.25,129.8594 523.8438,128.7656 Q524.4531,127.6719 525.5,127.0938 Q526.5625,126.5 527.75,126.5 Q528.4688,126.5 529.0938,126.75 Q529.7188,127 530.25,127.5 Z " fill="#000000"/><text fill="#000000" font-family="sans-serif" font-size="14" lengthAdjust="spacing" textLength="177" x="548.75" y="136.7285">RegisterEmployeeController</text><line style="stroke:#181818;stroke-width:0.5;" x1="476" x2="766" y1="147" y2="147"/><line style="stroke:#181818;stroke-width:0.5;" x1="476" x2="766" y1="155" y2="155"/><text fill="#000000" font-family="sans-serif" font-size="14" lengthAdjust="spacing" textLength="103" x="481" y="173.5332">+getUserRoles()</text><text fill="#000000" font-family="sans-serif" font-size="14" lengthAdjust="spacing" textLength="223" x="481" y="191.1426">+boolean createEmployee(dtoEmp)</text><text fill="#000000" font-family="sans-serif" font-size="14" lengthAdjust="spacing" textLength="280" x="481" y="208.752">+boolean saveEmployee(employeeCreation)</text></g><!--MD5=[3fd241ca11f270f6bde54c00b8a8581a]
link RegisterEmployeeUI to RegisterEmployeeController--><g id="link_RegisterEmployeeUI_RegisterEmployeeController"><path codeLine="88" d="M621,55.08 C621,70.13 621,90.43 621,109.47 " fill="none" id="RegisterEmployeeUI-to-RegisterEmployeeController" style="stroke:#181818;stroke-width:1.0;stroke-dasharray:7.0,7.0;"/><polygon fill="#181818" points="621,114.8,625,105.8,621,109.8,617,105.8,621,114.8" style="stroke:#181818;stroke-width:1.0;"/></g><!--MD5=[969ee03aa52aee79b0e607297418cbd4]
link RegisterEmployeeController to Company--><g id="link_RegisterEmployeeController_Company"><path codeLine="90" d="M621,216.21 C621,232.83 621,251.91 621,270.63 " fill="none" id="RegisterEmployeeController-to-Company" style="stroke:#181818;stroke-width:1.0;stroke-dasharray:7.0,7.0;"/><polygon fill="#181818" points="621,275.9,625,266.9,621,270.9,617,266.9,621,275.9" style="stroke:#181818;stroke-width:1.0;"/></g><!--MD5=[717d4b03d3c4372f4eafe5e342a0a7dd]
link Company to AuthFacade--><g id="link_Company_AuthFacade"><path codeLine="93" d="M725.57,447.12 C755.59,471.41 787.99,497.62 816.83,520.97 " fill="none" id="Company-to-AuthFacade" style="stroke:#181818;stroke-width:1.0;"/><polygon fill="#181818" points="821.06,524.39,816.5973,515.6102,817.1794,521.237,811.5526,521.8191,821.06,524.39" style="stroke:#181818;stroke-width:1.0;"/></g><!--MD5=[ce859576cba61219b3cb4d2d23fdcd81]
link Company to EmployeeStore--><g id="link_Company_EmployeeStore"><path codeLine="94" d="M528.25,447.12 C505.15,468.2 480.45,490.73 457.61,511.57 " fill="none" id="Company-to-EmployeeStore" style="stroke:#181818;stroke-width:1.0;"/><polygon fill="#181818" points="453.66,515.17,463.0006,512.0469,457.3493,511.7953,457.601,506.144,453.66,515.17" style="stroke:#181818;stroke-width:1.0;"/></g><!--MD5=[443742261134c98f399c63d003ef960d]
link Company to EmployeeDTO--><g id="link_Company_EmployeeDTO"><path codeLine="95" d="M328.03,447.07 C283,464.39 237.91,484.36 197,507 C192.5,509.49 187.99,512.18 183.53,515.02 " fill="none" id="Company-to-EmployeeDTO" style="stroke:#181818;stroke-width:1.0;"/><polygon fill="#181818" points="179.07,517.91,188.8,516.3845,183.2694,515.1961,184.4578,509.6655,179.07,517.91" style="stroke:#181818;stroke-width:1.0;"/></g><!--MD5=[0a3f07521f5b2ceab39322bfca42b93d]
link Company to UserRoleDTO--><g id="link_Company_UserRoleDTO"><path codeLine="96" d="M621,447.12 C621,480.46 621,517.44 621,545.63 " fill="none" id="Company-to-UserRoleDTO" style="stroke:#181818;stroke-width:1.0;"/><polygon fill="#181818" points="621,550.79,625,541.79,621,545.79,617,541.79,621,550.79" style="stroke:#181818;stroke-width:1.0;"/></g><!--MD5=[4d2bf9651ec2cec1e10821c6121f5fe0]
link Company to UserRole--><g id="link_Company_UserRole"><path codeLine="97" d="M981.2,446.86 C1025.37,463.66 1068.72,483.54 1108,507 C1125.68,517.56 1142.32,532.69 1156.04,547.23 " fill="none" id="Company-to-UserRole" style="stroke:#181818;stroke-width:1.0;stroke-dasharray:7.0,7.0;"/><polygon fill="#181818" points="1159.47,550.91,1156.2521,541.6017,1156.0579,547.2552,1150.4044,547.061,1159.47,550.91" style="stroke:#181818;stroke-width:1.0;"/></g><!--MD5=[2f3bac1bdf76f0b867b8cadb6fadb6bc]
link EmployeeStore to Employee--><g id="link_EmployeeStore_Employee"><path codeLine="100" d="M370,669.75 C370,689.9 370,711.84 370,732.64 " fill="none" id="EmployeeStore-to-Employee" style="stroke:#181818;stroke-width:1.0;"/><polygon fill="#181818" points="370,737.9,374,728.9,370,732.9,366,728.9,370,737.9" style="stroke:#181818;stroke-width:1.0;"/></g><!--MD5=[0d0b5a03f14f2a7c374404e8f60b5ae3]
link AuthFacade to UserRoleMapper--><g id="link_AuthFacade_UserRoleMapper"><path codeLine="102" d="M890.8,660.66 C882.83,701.25 872.96,751.47 866.35,785.11 " fill="none" id="AuthFacade-to-UserRoleMapper" style="stroke:#181818;stroke-width:1.0;stroke-dasharray:7.0,7.0;"/><polygon fill="#181818" points="865.32,790.36,870.9668,782.2907,866.2759,785.4522,863.1144,780.7613,865.32,790.36" style="stroke:#181818;stroke-width:1.0;"/></g><!--MD5=[4a0c2a87f78fc9162dd5fb599538cdb8]
link AuthFacade to User--><g id="link_AuthFacade_User"><path codeLine="103" d="M956.79,660.66 C981.51,692.11 1010.78,729.34 1035,760.16 " fill="none" id="AuthFacade-to-User" style="stroke:#181818;stroke-width:1.0;"/><polygon fill="#181818" points="1038.23,764.27,1035.795,754.7269,1035.1327,760.3449,1029.5148,759.6826,1038.23,764.27" style="stroke:#181818;stroke-width:1.0;"/></g><!--MD5=[d1896f5b2cb5a86145dd1c11fee4a957]
@startuml
skinparam classAttributeIconSize 0

class Company{
 -String designation

+getUserRoles()
+boolean createEmployee((dtoEmp)
+getEmployeeStore()
generatePassword()
+boolean addUserWithRole(EmployeeDTO.getName(),EmployeeDTO.getEmail(),pass,UserRoleDTO.getroleId());
+boolean saveEmployee(employeeCreation)
}

class EmployeeDTO{
 +generateID()
 +getName()
 +getEmail()
 +getPassword()
 +getAddress()
 +getPhoneNumber()
 +getCitizenCardNumber()
}

class EmployeeStore{
+boolean createEmployee(dtoEmp)
 generateID()
+boolean validateEmployee(employeeCreation)
+boolean saveEmployee(employeeCreation)
+boolean validateEmployee(employeeCreation)
+boolean addEmployee(employeeCreation)
}

class UserRoleDTO{
 +getroleId()
 +getDescription()
}



class AuthFacade{
      +getUserRoles()
      +mapper.toDTO(this.roles.getAll()
      +boolean existUser(email)
      +boolean existRole(roleId)
      +boolean addUser (String name, String email, String pwd)
      }

 class  Employee{
-int id
-String name
-String email
-String address
-float phoneNumber
-String citizenCardNumber
+boolean createEmployee(int id,String address,float phoneNumber,String email,String citizenCardNumber)
}

class UserRoleMapper{
+create()

}

class UserRole{
-int id
-String designation

}

 class  User{
-String name
-String email
-String password
+boolean createUser(id,name,email)
}


class RegisterEmployeeUI{

}
class RegisterEmployeeController{
+getUserRoles()
+boolean createEmployee(dtoEmp)
+boolean saveEmployee(employeeCreation)

}


RegisterEmployeeUI ..> RegisterEmployeeController

RegisterEmployeeController ..> Company


Company - -> AuthFacade
Company - -> EmployeeStore
Company - -> EmployeeDTO
Company - -> UserRoleDTO
Company ..> UserRole


EmployeeStore - -> Employee

AuthFacade ..> UserRoleMapper
AuthFacade - -> User




@enduml

PlantUML version 1.2022.4(Sat Apr 09 14:29:17 BST 2022)
(GPL source distribution)
Java Runtime: OpenJDK Runtime Environment
JVM: OpenJDK 64-Bit Server VM
Default Encoding: Cp1252
Language: pt
Country: PT
--></g></svg>