<?xml version="1.0" encoding="UTF-8" standalone="no"?><svg xmlns="http://www.w3.org/2000/svg" xmlns:xlink="http://www.w3.org/1999/xlink" contentStyleType="text/css" height="1371px" preserveAspectRatio="none" style="width:2937px;height:1371px;background:#FFFFFF;" version="1.1" viewBox="0 0 2937 1371" width="2937px" zoomAndPan="magnify"><defs/><g><rect fill="#FFFFFF" height="1188.1016" style="stroke:#181818;stroke-width:1.0;" width="10" x="44.5" y="92.6094"/><rect fill="#FFFFFF" height="30.3516" style="stroke:#181818;stroke-width:1.0;" width="10" x="506.5" y="114.9609"/><rect fill="#FFFFFF" height="699.6953" style="stroke:#181818;stroke-width:1.0;" width="10" x="506.5" y="175.6641"/><rect fill="#FFFFFF" height="375" style="stroke:#181818;stroke-width:1.0;" width="10" x="506.5" y="905.7109"/><rect fill="#FFFFFF" height="646.9922" style="stroke:#181818;stroke-width:1.0;" width="10" x="839.5" y="206.0156"/><rect fill="#FFFFFF" height="313.2969" style="stroke:#181818;stroke-width:1.0;" width="10" x="839.5" y="936.0625"/><rect fill="#FFFFFF" height="30" style="stroke:#181818;stroke-width:1.0;" width="10" x="1126.5" y="236.3672"/><rect fill="#FFFFFF" height="30" style="stroke:#181818;stroke-width:1.0;" width="10" x="1126.5" y="339.3281"/><rect fill="#FFFFFF" height="30" style="stroke:#181818;stroke-width:1.0;" width="10" x="1126.5" y="399.6797"/><rect fill="#FFFFFF" height="30" style="stroke:#181818;stroke-width:1.0;" width="10" x="1126.5" y="1112.4688"/><rect fill="#FFFFFF" height="76.5391" style="stroke:#181818;stroke-width:1.0;" width="10" x="1126.5" y="1172.8203"/><rect fill="#FFFFFF" height="392.9766" style="stroke:#181818;stroke-width:1.0;" width="10" x="1697" y="460.0313"/><rect fill="#FFFFFF" height="28" style="stroke:#181818;stroke-width:1.0;" width="10" x="1702" y="729.6563"/><rect fill="#FFFFFF" height="28" style="stroke:#181818;stroke-width:1.0;" width="10" x="1702" y="803.0078"/><rect fill="#FFFFFF" height="30" style="stroke:#181818;stroke-width:1.0;" width="10" x="1697" y="991.7656"/><rect fill="#FFFFFF" height="30" style="stroke:#181818;stroke-width:1.0;" width="10" x="1697" y="1052.1172"/><rect fill="#FFFFFF" height="30" style="stroke:#181818;stroke-width:1.0;" width="10" x="2363" y="600.9531"/><rect fill="#FFFFFF" height="30" style="stroke:#181818;stroke-width:1.0;" width="10" x="2363" y="661.3047"/><rect height="328.3672" style="stroke:#000000;stroke-width:1.5;fill:none;" width="808.5" x="1636" y="517.6406"/><rect height="291.2969" style="stroke:#000000;stroke-width:1.5;fill:none;" width="1017.5" x="750.5" y="951.0625"/><line style="stroke:#181818;stroke-width:0.5;fill:none;stroke-dasharray:5.0,5.0;" x1="49" x2="49" y1="82.6094" y2="1289.7109"/><line style="stroke:#181818;stroke-width:0.5;fill:none;stroke-dasharray:5.0,5.0;" x1="511.5" x2="511.5" y1="82.6094" y2="1289.7109"/><line style="stroke:#181818;stroke-width:0.5;fill:none;stroke-dasharray:5.0,5.0;" x1="844.5" x2="844.5" y1="82.6094" y2="1289.7109"/><line style="stroke:#181818;stroke-width:0.5;fill:none;stroke-dasharray:5.0,5.0;" x1="1131.5" x2="1131.5" y1="82.6094" y2="1289.7109"/><line style="stroke:#181818;stroke-width:0.5;fill:none;stroke-dasharray:5.0,5.0;" x1="1294" x2="1294" y1="305.6719" y2="1289.7109"/><line style="stroke:#181818;stroke-width:0.5;fill:none;stroke-dasharray:5.0,5.0;" x1="1422" x2="1422" y1="82.6094" y2="1289.7109"/><line style="stroke:#181818;stroke-width:0.5;fill:none;stroke-dasharray:5.0,5.0;" x1="1558" x2="1558" y1="82.6094" y2="1289.7109"/><line style="stroke:#181818;stroke-width:0.5;fill:none;stroke-dasharray:5.0,5.0;" x1="1702" x2="1702" y1="82.6094" y2="1289.7109"/><line style="stroke:#181818;stroke-width:0.5;fill:none;stroke-dasharray:5.0,5.0;" x1="2367.5" x2="2367.5" y1="567.2969" y2="1289.7109"/><line style="stroke:#181818;stroke-width:0.5;fill:none;stroke-dasharray:5.0,5.0;" x1="2569.5" x2="2569.5" y1="499.3359" y2="1289.7109"/><line style="stroke:#181818;stroke-width:0.5;fill:none;stroke-dasharray:5.0,5.0;" x1="2817.5" x2="2817.5" y1="82.6094" y2="1289.7109"/><text fill="#000000" font-family="sans-serif" font-size="14" lengthAdjust="spacing" textLength="83" x="5" y="79.5332">Administrator</text><ellipse cx="49.5" cy="13.5" fill="#E2E2F0" rx="8" ry="8" style="stroke:#181818;stroke-width:0.5;"/><path d="M49.5,21.5 L49.5,48.5 M36.5,29.5 L62.5,29.5 M49.5,48.5 L36.5,63.5 M49.5,48.5 L62.5,63.5 " fill="none" style="stroke:#181818;stroke-width:0.5;"/><text fill="#000000" font-family="sans-serif" font-size="14" lengthAdjust="spacing" textLength="83" x="5" y="1303.2441">Administrator</text><ellipse cx="49.5" cy="1314.8203" fill="#E2E2F0" rx="8" ry="8" style="stroke:#181818;stroke-width:0.5;"/><path d="M49.5,1322.8203 L49.5,1349.8203 M36.5,1330.8203 L62.5,1330.8203 M49.5,1349.8203 L36.5,1364.8203 M49.5,1349.8203 L62.5,1364.8203 " fill="none" style="stroke:#181818;stroke-width:0.5;"/><rect fill="#E2E2F0" height="31.6094" rx="2.5" ry="2.5" style="stroke:#181818;stroke-width:0.5;" width="118" x="452.5" y="50"/><text fill="#000000" font-family="sans-serif" font-size="14" lengthAdjust="spacing" textLength="104" x="459.5" y="71.5332">:LoadSNSUserUI</text><rect fill="#E2E2F0" height="31.6094" rx="2.5" ry="2.5" style="stroke:#181818;stroke-width:0.5;" width="118" x="452.5" y="1288.7109"/><text fill="#000000" font-family="sans-serif" font-size="14" lengthAdjust="spacing" textLength="104" x="459.5" y="1310.2441">:LoadSNSUserUI</text><rect fill="#E2E2F0" height="31.6094" rx="2.5" ry="2.5" style="stroke:#181818;stroke-width:0.5;" width="168" x="760.5" y="50"/><text fill="#000000" font-family="sans-serif" font-size="14" lengthAdjust="spacing" textLength="154" x="767.5" y="71.5332">:LoadSNSUserController</text><rect fill="#E2E2F0" height="31.6094" rx="2.5" ry="2.5" style="stroke:#181818;stroke-width:0.5;" width="168" x="760.5" y="1288.7109"/><text fill="#000000" font-family="sans-serif" font-size="14" lengthAdjust="spacing" textLength="154" x="767.5" y="1310.2441">:LoadSNSUserController</text><rect fill="#E2E2F0" height="31.6094" rx="2.5" ry="2.5" style="stroke:#181818;stroke-width:0.5;" width="74" x="1094.5" y="50"/><text fill="#000000" font-family="sans-serif" font-size="14" lengthAdjust="spacing" textLength="60" x="1101.5" y="71.5332">Company</text><rect fill="#E2E2F0" height="31.6094" rx="2.5" ry="2.5" style="stroke:#181818;stroke-width:0.5;" width="74" x="1094.5" y="1288.7109"/><text fill="#000000" font-family="sans-serif" font-size="14" lengthAdjust="spacing" textLength="60" x="1101.5" y="1310.2441">Company</text><rect fill="#E2E2F0" height="31.6094" rx="2.5" ry="2.5" style="stroke:#181818;stroke-width:0.5;" width="141" x="1224" y="1288.7109"/><text fill="#000000" font-family="sans-serif" font-size="14" lengthAdjust="spacing" textLength="127" x="1231" y="1310.2441">file: BufferedReader</text><rect fill="#E2E2F0" height="31.6094" rx="2.5" ry="2.5" style="stroke:#181818;stroke-width:0.5;" width="95" x="1375" y="50"/><text fill="#000000" font-family="sans-serif" font-size="14" lengthAdjust="spacing" textLength="81" x="1382" y="71.5332">:AuthFacade</text><rect fill="#E2E2F0" height="31.6094" rx="2.5" ry="2.5" style="stroke:#181818;stroke-width:0.5;" width="95" x="1375" y="1288.7109"/><text fill="#000000" font-family="sans-serif" font-size="14" lengthAdjust="spacing" textLength="81" x="1382" y="1310.2441">:AuthFacade</text><rect fill="#E2E2F0" height="31.6094" rx="2.5" ry="2.5" style="stroke:#181818;stroke-width:0.5;" width="156" x="1480" y="50"/><text fill="#000000" font-family="sans-serif" font-size="14" lengthAdjust="spacing" textLength="142" x="1487" y="71.5332">roleDto: UserRoleDTO</text><rect fill="#E2E2F0" height="31.6094" rx="2.5" ry="2.5" style="stroke:#181818;stroke-width:0.5;" width="156" x="1480" y="1288.7109"/><text fill="#000000" font-family="sans-serif" font-size="14" lengthAdjust="spacing" textLength="142" x="1487" y="1310.2441">roleDto: UserRoleDTO</text><rect fill="#E2E2F0" height="31.6094" rx="2.5" ry="2.5" style="stroke:#181818;stroke-width:0.5;" width="112" x="1646" y="50"/><text fill="#000000" font-family="sans-serif" font-size="14" lengthAdjust="spacing" textLength="98" x="1653" y="71.5332">: SNSUserStore</text><rect fill="#E2E2F0" height="31.6094" rx="2.5" ry="2.5" style="stroke:#181818;stroke-width:0.5;" width="112" x="1646" y="1288.7109"/><text fill="#000000" font-family="sans-serif" font-size="14" lengthAdjust="spacing" textLength="98" x="1653" y="1310.2441">: SNSUserStore</text><rect fill="#E2E2F0" height="31.6094" rx="2.5" ry="2.5" style="stroke:#181818;stroke-width:0.5;" width="133" x="2301.5" y="1288.7109"/><text fill="#000000" font-family="sans-serif" font-size="14" lengthAdjust="spacing" textLength="119" x="2308.5" y="1310.2441">snsUser : SNSUser</text><rect fill="#E2E2F0" height="31.6094" rx="2.5" ry="2.5" style="stroke:#181818;stroke-width:0.5;" width="250" x="2444.5" y="1288.7109"/><text fill="#000000" font-family="sans-serif" font-size="14" lengthAdjust="spacing" textLength="236" x="2451.5" y="1310.2441">snsUserAuxList : ArrayList&lt;SNSUser&gt;</text><rect fill="#E2E2F0" height="31.6094" rx="2.5" ry="2.5" style="stroke:#181818;stroke-width:0.5;" width="227" x="2704.5" y="50"/><text fill="#000000" font-family="sans-serif" font-size="14" lengthAdjust="spacing" textLength="213" x="2711.5" y="71.5332">snsUserList : ArrayList&lt;SNSUser&gt;</text><rect fill="#E2E2F0" height="31.6094" rx="2.5" ry="2.5" style="stroke:#181818;stroke-width:0.5;" width="227" x="2704.5" y="1288.7109"/><text fill="#000000" font-family="sans-serif" font-size="14" lengthAdjust="spacing" textLength="213" x="2711.5" y="1310.2441">snsUserList : ArrayList&lt;SNSUser&gt;</text><rect fill="#FFFFFF" height="1188.1016" style="stroke:#181818;stroke-width:1.0;" width="10" x="44.5" y="92.6094"/><rect fill="#FFFFFF" height="30.3516" style="stroke:#181818;stroke-width:1.0;" width="10" x="506.5" y="114.9609"/><rect fill="#FFFFFF" height="699.6953" style="stroke:#181818;stroke-width:1.0;" width="10" x="506.5" y="175.6641"/><rect fill="#FFFFFF" height="375" style="stroke:#181818;stroke-width:1.0;" width="10" x="506.5" y="905.7109"/><rect fill="#FFFFFF" height="646.9922" style="stroke:#181818;stroke-width:1.0;" width="10" x="839.5" y="206.0156"/><rect fill="#FFFFFF" height="313.2969" style="stroke:#181818;stroke-width:1.0;" width="10" x="839.5" y="936.0625"/><rect fill="#FFFFFF" height="30" style="stroke:#181818;stroke-width:1.0;" width="10" x="1126.5" y="236.3672"/><rect fill="#FFFFFF" height="30" style="stroke:#181818;stroke-width:1.0;" width="10" x="1126.5" y="339.3281"/><rect fill="#FFFFFF" height="30" style="stroke:#181818;stroke-width:1.0;" width="10" x="1126.5" y="399.6797"/><rect fill="#FFFFFF" height="30" style="stroke:#181818;stroke-width:1.0;" width="10" x="1126.5" y="1112.4688"/><rect fill="#FFFFFF" height="76.5391" style="stroke:#181818;stroke-width:1.0;" width="10" x="1126.5" y="1172.8203"/><rect fill="#FFFFFF" height="392.9766" style="stroke:#181818;stroke-width:1.0;" width="10" x="1697" y="460.0313"/><rect fill="#FFFFFF" height="28" style="stroke:#181818;stroke-width:1.0;" width="10" x="1702" y="729.6563"/><rect fill="#FFFFFF" height="28" style="stroke:#181818;stroke-width:1.0;" width="10" x="1702" y="803.0078"/><rect fill="#FFFFFF" height="30" style="stroke:#181818;stroke-width:1.0;" width="10" x="1697" y="991.7656"/><rect fill="#FFFFFF" height="30" style="stroke:#181818;stroke-width:1.0;" width="10" x="1697" y="1052.1172"/><rect fill="#FFFFFF" height="30" style="stroke:#181818;stroke-width:1.0;" width="10" x="2363" y="600.9531"/><rect fill="#FFFFFF" height="30" style="stroke:#181818;stroke-width:1.0;" width="10" x="2363" y="661.3047"/><polygon fill="#181818" points="494.5,110.9609,504.5,114.9609,494.5,118.9609,498.5,114.9609" style="stroke:#181818;stroke-width:1.0;"/><line style="stroke:#181818;stroke-width:1.0;" x1="54.5" x2="500.5" y1="114.9609" y2="114.9609"/><text fill="#000000" font-family="sans-serif" font-size="13" font-weight="bold" lengthAdjust="spacing" textLength="7" x="61.5" y="110.1045">1</text><text fill="#000000" font-family="sans-serif" font-size="13" lengthAdjust="spacing" textLength="245" x="72.5" y="110.1045">asks to load a set of users from a CSV file</text><polygon fill="#181818" points="65.5,141.3125,55.5,145.3125,65.5,149.3125,61.5,145.3125" style="stroke:#181818;stroke-width:1.0;"/><line style="stroke:#181818;stroke-width:1.0;stroke-dasharray:2.0,2.0;" x1="59.5" x2="510.5" y1="145.3125" y2="145.3125"/><text fill="#000000" font-family="sans-serif" font-size="13" font-weight="bold" lengthAdjust="spacing" textLength="7" x="71.5" y="140.4561">2</text><text fill="#000000" font-family="sans-serif" font-size="13" lengthAdjust="spacing" textLength="188" x="82.5" y="140.4561">requests the path of the CSV file</text><polygon fill="#181818" points="494.5,171.6641,504.5,175.6641,494.5,179.6641,498.5,175.6641" style="stroke:#181818;stroke-width:1.0;"/><line style="stroke:#181818;stroke-width:1.0;" x1="54.5" x2="500.5" y1="175.6641" y2="175.6641"/><text fill="#000000" font-family="sans-serif" font-size="13" font-weight="bold" lengthAdjust="spacing" textLength="7" x="61.5" y="170.8076">3</text><text fill="#000000" font-family="sans-serif" font-size="13" lengthAdjust="spacing" textLength="134" x="72.5" y="170.8076">types the CSV file path</text><polygon fill="#181818" points="827.5,202.0156,837.5,206.0156,827.5,210.0156,831.5,206.0156" style="stroke:#181818;stroke-width:1.0;"/><line style="stroke:#181818;stroke-width:1.0;" x1="516.5" x2="833.5" y1="206.0156" y2="206.0156"/><text fill="#000000" font-family="sans-serif" font-size="13" font-weight="bold" lengthAdjust="spacing" textLength="7" x="523.5" y="201.1592">4</text><text fill="#000000" font-family="sans-serif" font-size="13" lengthAdjust="spacing" textLength="200" x="534.5" y="201.1592">createSNSUserFromCSV(location)</text><polygon fill="#181818" points="1114.5,232.3672,1124.5,236.3672,1114.5,240.3672,1118.5,236.3672" style="stroke:#181818;stroke-width:1.0;"/><line style="stroke:#181818;stroke-width:1.0;" x1="849.5" x2="1120.5" y1="236.3672" y2="236.3672"/><text fill="#000000" font-family="sans-serif" font-size="13" font-weight="bold" lengthAdjust="spacing" textLength="7" x="856.5" y="231.5107">5</text><text fill="#000000" font-family="sans-serif" font-size="13" lengthAdjust="spacing" textLength="137" x="867.5" y="231.5107">checkLocation(location)</text><polygon fill="#181818" points="1212,292.7188,1222,296.7188,1212,300.7188,1216,296.7188" style="stroke:#181818;stroke-width:1.0;"/><line style="stroke:#181818;stroke-width:1.0;stroke-dasharray:2.0,2.0;" x1="849.5" x2="1218" y1="296.7188" y2="296.7188"/><text fill="#000000" font-family="sans-serif" font-size="13" font-weight="bold" lengthAdjust="spacing" textLength="7" x="856.5" y="291.8623">6</text><text fill="#000000" font-family="sans-serif" font-size="13" lengthAdjust="spacing" textLength="186" x="867.5" y="291.8623">create(new FileReader(location))</text><rect fill="#E2E2F0" height="31.6094" rx="2.5" ry="2.5" style="stroke:#181818;stroke-width:0.5;" width="141" x="1224" y="274.3672"/><text fill="#000000" font-family="sans-serif" font-size="14" lengthAdjust="spacing" textLength="127" x="1231" y="295.9004">file: BufferedReader</text><polygon fill="#181818" points="1114.5,335.3281,1124.5,339.3281,1114.5,343.3281,1118.5,339.3281" style="stroke:#181818;stroke-width:1.0;"/><line style="stroke:#181818;stroke-width:1.0;" x1="849.5" x2="1120.5" y1="339.3281" y2="339.3281"/><text fill="#000000" font-family="sans-serif" font-size="13" font-weight="bold" lengthAdjust="spacing" textLength="7" x="856.5" y="334.4717">7</text><text fill="#000000" font-family="sans-serif" font-size="13" lengthAdjust="spacing" textLength="163" x="867.5" y="334.4717">type = VerifyTypeofCSV(file)</text><polygon fill="#181818" points="1114.5,395.6797,1124.5,399.6797,1114.5,403.6797,1118.5,399.6797" style="stroke:#181818;stroke-width:1.0;"/><line style="stroke:#181818;stroke-width:1.0;" x1="849.5" x2="1120.5" y1="399.6797" y2="399.6797"/><text fill="#000000" font-family="sans-serif" font-size="13" font-weight="bold" lengthAdjust="spacing" textLength="7" x="856.5" y="394.8232">8</text><text fill="#000000" font-family="sans-serif" font-size="13" lengthAdjust="spacing" textLength="210" x="867.5" y="394.8232">storeSNSUser = getSNSUserStore()</text><polygon fill="#181818" points="1685,456.0313,1695,460.0313,1685,464.0313,1689,460.0313" style="stroke:#181818;stroke-width:1.0;"/><line style="stroke:#181818;stroke-width:1.0;" x1="849.5" x2="1691" y1="460.0313" y2="460.0313"/><text fill="#000000" font-family="sans-serif" font-size="13" font-weight="bold" lengthAdjust="spacing" textLength="7" x="856.5" y="455.1748">9</text><text fill="#000000" font-family="sans-serif" font-size="13" lengthAdjust="spacing" textLength="335" x="867.5" y="455.1748">snsUserAuxList=convertFileSNSUserToArrayList(file,type)</text><polygon fill="#181818" points="2432.5,486.3828,2442.5,490.3828,2432.5,494.3828,2436.5,490.3828" style="stroke:#181818;stroke-width:1.0;"/><line style="stroke:#181818;stroke-width:1.0;stroke-dasharray:2.0,2.0;" x1="1707" x2="2438.5" y1="490.3828" y2="490.3828"/><text fill="#000000" font-family="sans-serif" font-size="13" font-weight="bold" lengthAdjust="spacing" textLength="14" x="1714" y="485.5264">10</text><text fill="#000000" font-family="sans-serif" font-size="13" lengthAdjust="spacing" textLength="44" x="1732" y="485.5264">create()</text><rect fill="#E2E2F0" height="31.6094" rx="2.5" ry="2.5" style="stroke:#181818;stroke-width:0.5;" width="250" x="2444.5" y="468.0313"/><text fill="#000000" font-family="sans-serif" font-size="14" lengthAdjust="spacing" textLength="236" x="2451.5" y="489.5645">snsUserAuxList : ArrayList&lt;SNSUser&gt;</text><path d="M1636,517.6406 L1709,517.6406 L1709,525.9922 L1699,535.9922 L1636,535.9922 L1636,517.6406 " fill="#EEEEEE" style="stroke:#000000;stroke-width:1.5;"/><rect fill="none" height="328.3672" style="stroke:#000000;stroke-width:1.5;" width="808.5" x="1636" y="517.6406"/><text fill="#000000" font-family="sans-serif" font-size="13" font-weight="bold" lengthAdjust="spacing" textLength="28" x="1651" y="532.1357">loop</text><text fill="#000000" font-family="sans-serif" font-size="11" font-weight="bold" lengthAdjust="spacing" textLength="117" x="1724" y="531.0596">[while file has users]</text><polygon fill="#181818" points="2289.5,554.3438,2299.5,558.3438,2289.5,562.3438,2293.5,558.3438" style="stroke:#181818;stroke-width:1.0;"/><line style="stroke:#181818;stroke-width:1.0;stroke-dasharray:2.0,2.0;" x1="1707" x2="2295.5" y1="558.3438" y2="558.3438"/><text fill="#000000" font-family="sans-serif" font-size="13" font-weight="bold" lengthAdjust="spacing" textLength="14" x="1714" y="553.4873">11</text><text fill="#000000" font-family="sans-serif" font-size="13" lengthAdjust="spacing" textLength="44" x="1732" y="553.4873">create()</text><rect fill="#E2E2F0" height="31.6094" rx="2.5" ry="2.5" style="stroke:#181818;stroke-width:0.5;" width="133" x="2301.5" y="535.9922"/><text fill="#000000" font-family="sans-serif" font-size="14" lengthAdjust="spacing" textLength="119" x="2308.5" y="557.5254">snsUser : SNSUser</text><polygon fill="#181818" points="2351,596.9531,2361,600.9531,2351,604.9531,2355,600.9531" style="stroke:#181818;stroke-width:1.0;"/><line style="stroke:#181818;stroke-width:1.0;" x1="1707" x2="2357" y1="600.9531" y2="600.9531"/><text fill="#000000" font-family="sans-serif" font-size="13" font-weight="bold" lengthAdjust="spacing" textLength="14" x="1714" y="596.0967">12</text><text fill="#000000" font-family="sans-serif" font-size="13" lengthAdjust="spacing" textLength="340" x="1732" y="596.0967">checkSNSUsersFileAttributesPerLine(auxList, lineNumber)</text><polygon fill="#181818" points="2351,657.3047,2361,661.3047,2351,665.3047,2355,661.3047" style="stroke:#181818;stroke-width:1.0;"/><line style="stroke:#181818;stroke-width:1.0;stroke-dasharray:2.0,2.0;" x1="1707" x2="2357" y1="661.3047" y2="661.3047"/><text fill="#000000" font-family="sans-serif" font-size="13" font-weight="bold" lengthAdjust="spacing" textLength="14" x="1714" y="656.4482">13</text><text fill="#000000" font-family="sans-serif" font-size="13" lengthAdjust="spacing" textLength="619" x="1732" y="656.4482">snsUser = create(name,address,gender,phoneNumber,email,birthDate,snsUserNumber,citizenCardNumber)</text><line style="stroke:#181818;stroke-width:1.0;" x1="1712" x2="1754" y1="721.6563" y2="721.6563"/><line style="stroke:#181818;stroke-width:1.0;" x1="1754" x2="1754" y1="721.6563" y2="734.6563"/><line style="stroke:#181818;stroke-width:1.0;" x1="1713" x2="1754" y1="734.6563" y2="734.6563"/><polygon fill="#181818" points="1723,730.6563,1713,734.6563,1723,738.6563,1719,734.6563" style="stroke:#181818;stroke-width:1.0;"/><text fill="#000000" font-family="sans-serif" font-size="13" font-weight="bold" lengthAdjust="spacing" textLength="14" x="1719" y="716.7998">14</text><text fill="#000000" font-family="sans-serif" font-size="13" lengthAdjust="spacing" textLength="145" x="1737" y="716.7998">checkSNSUser(snsUser)</text><line style="stroke:#181818;stroke-width:1.0;" x1="1712" x2="1754" y1="795.0078" y2="795.0078"/><line style="stroke:#181818;stroke-width:1.0;" x1="1754" x2="1754" y1="795.0078" y2="808.0078"/><line style="stroke:#181818;stroke-width:1.0;" x1="1713" x2="1754" y1="808.0078" y2="808.0078"/><polygon fill="#181818" points="1723,804.0078,1713,808.0078,1723,812.0078,1719,808.0078" style="stroke:#181818;stroke-width:1.0;"/><text fill="#000000" font-family="sans-serif" font-size="13" font-weight="bold" lengthAdjust="spacing" textLength="14" x="1719" y="790.1514">15</text><text fill="#000000" font-family="sans-serif" font-size="13" lengthAdjust="spacing" textLength="177" x="1737" y="790.1514">addSNSUserListAUX(snsUser)</text><polygon fill="#181818" points="65.5,871.3594,55.5,875.3594,65.5,879.3594,61.5,875.3594" style="stroke:#181818;stroke-width:1.0;"/><line style="stroke:#181818;stroke-width:1.0;stroke-dasharray:2.0,2.0;" x1="59.5" x2="510.5" y1="875.3594" y2="875.3594"/><text fill="#000000" font-family="sans-serif" font-size="13" font-weight="bold" lengthAdjust="spacing" textLength="14" x="71.5" y="870.5029">16</text><text fill="#000000" font-family="sans-serif" font-size="13" lengthAdjust="spacing" textLength="410" x="89.5" y="870.5029">shows the users that are present in the file and requests a confirmation</text><polygon fill="#181818" points="494.5,901.7109,504.5,905.7109,494.5,909.7109,498.5,905.7109" style="stroke:#181818;stroke-width:1.0;"/><line style="stroke:#181818;stroke-width:1.0;" x1="54.5" x2="500.5" y1="905.7109" y2="905.7109"/><text fill="#000000" font-family="sans-serif" font-size="13" font-weight="bold" lengthAdjust="spacing" textLength="14" x="61.5" y="900.8545">17</text><text fill="#000000" font-family="sans-serif" font-size="13" lengthAdjust="spacing" textLength="107" x="79.5" y="900.8545">confirms the users</text><polygon fill="#181818" points="827.5,932.0625,837.5,936.0625,827.5,940.0625,831.5,936.0625" style="stroke:#181818;stroke-width:1.0;"/><line style="stroke:#181818;stroke-width:1.0;" x1="516.5" x2="833.5" y1="936.0625" y2="936.0625"/><text fill="#000000" font-family="sans-serif" font-size="13" font-weight="bold" lengthAdjust="spacing" textLength="14" x="523.5" y="931.2061">18</text><text fill="#000000" font-family="sans-serif" font-size="13" lengthAdjust="spacing" textLength="286" x="541.5" y="931.2061">saveSNSUsersListFromCSVFile(snsUserAuxList)</text><path d="M750.5,951.0625 L823.5,951.0625 L823.5,959.4141 L813.5,969.4141 L750.5,969.4141 L750.5,951.0625 " fill="#EEEEEE" style="stroke:#000000;stroke-width:1.5;"/><rect fill="none" height="291.2969" style="stroke:#000000;stroke-width:1.5;" width="1017.5" x="750.5" y="951.0625"/><text fill="#000000" font-family="sans-serif" font-size="13" font-weight="bold" lengthAdjust="spacing" textLength="28" x="765.5" y="965.5576">loop</text><text fill="#000000" font-family="sans-serif" font-size="11" font-weight="bold" lengthAdjust="spacing" textLength="192" x="838.5" y="964.4814">[while snsUserAuxList  has users]</text><polygon fill="#181818" points="1685,987.7656,1695,991.7656,1685,995.7656,1689,991.7656" style="stroke:#181818;stroke-width:1.0;"/><line style="stroke:#181818;stroke-width:1.0;" x1="849.5" x2="1691" y1="991.7656" y2="991.7656"/><text fill="#000000" font-family="sans-serif" font-size="13" font-weight="bold" lengthAdjust="spacing" textLength="14" x="856.5" y="986.9092">19</text><text fill="#000000" font-family="sans-serif" font-size="13" lengthAdjust="spacing" textLength="145" x="874.5" y="986.9092">checkSNSUser(snsUser)</text><polygon fill="#181818" points="1685,1048.1172,1695,1052.1172,1685,1056.1172,1689,1052.1172" style="stroke:#181818;stroke-width:1.0;"/><line style="stroke:#181818;stroke-width:1.0;" x1="849.5" x2="1691" y1="1052.1172" y2="1052.1172"/><text fill="#000000" font-family="sans-serif" font-size="13" font-weight="bold" lengthAdjust="spacing" textLength="14" x="856.5" y="1047.2607">20</text><text fill="#000000" font-family="sans-serif" font-size="13" lengthAdjust="spacing" textLength="131" x="874.5" y="1047.2607">addSNSUser(snsUser)</text><polygon fill="#181818" points="1114.5,1108.4688,1124.5,1112.4688,1114.5,1116.4688,1118.5,1112.4688" style="stroke:#181818;stroke-width:1.0;"/><line style="stroke:#181818;stroke-width:1.0;" x1="849.5" x2="1120.5" y1="1112.4688" y2="1112.4688"/><text fill="#000000" font-family="sans-serif" font-size="13" font-weight="bold" lengthAdjust="spacing" textLength="14" x="856.5" y="1107.6123">21</text><text fill="#000000" font-family="sans-serif" font-size="13" lengthAdjust="spacing" textLength="159" x="874.5" y="1107.6123">pass = generatePassword()</text><polygon fill="#181818" points="1114.5,1168.8203,1124.5,1172.8203,1114.5,1176.8203,1118.5,1172.8203" style="stroke:#181818;stroke-width:1.0;"/><line style="stroke:#181818;stroke-width:1.0;" x1="849.5" x2="1120.5" y1="1172.8203" y2="1172.8203"/><text fill="#000000" font-family="sans-serif" font-size="13" font-weight="bold" lengthAdjust="spacing" textLength="14" x="856.5" y="1167.9639">22</text><text fill="#000000" font-family="sans-serif" font-size="13" lengthAdjust="spacing" textLength="240" x="874.5" y="1167.9639">addUserWithRole(snsUser,roleDTO,pass)</text><rect height="56.5391" style="stroke:#000000;stroke-width:1.5;fill:none;" width="233" x="1091.5" y="1180.8203"/><path d="M1091.5,1180.8203 L1153.5,1180.8203 L1153.5,1188.8203 L1143.5,1198.8203 L1091.5,1198.8203 L1091.5,1180.8203 " fill="#EEEEEE" style="stroke:#000000;stroke-width:2.0;"/><text fill="#000000" font-family="sans-serif" font-size="13" font-weight="bold" lengthAdjust="spacing" textLength="17" x="1104.5" y="1196.3154">ref</text><text fill="#000000" font-family="sans-serif" font-size="12" lengthAdjust="spacing" textLength="225" x="1095.5" y="1215.2773">SD_CreateSNSUserOnAuthFacade.puml</text><text fill="#000000" font-family="sans-serif" font-size="12" lengthAdjust="spacing" textLength="3" x="1206.5" y="1230.3711"> </text><polygon fill="#181818" points="65.5,1267.7109,55.5,1271.7109,65.5,1275.7109,61.5,1271.7109" style="stroke:#181818;stroke-width:1.0;"/><line style="stroke:#181818;stroke-width:1.0;stroke-dasharray:2.0,2.0;" x1="59.5" x2="505.5" y1="1271.7109" y2="1271.7109"/><text fill="#000000" font-family="sans-serif" font-size="13" font-weight="bold" lengthAdjust="spacing" textLength="14" x="71.5" y="1266.8545">23</text><text fill="#000000" font-family="sans-serif" font-size="13" lengthAdjust="spacing" textLength="152" x="89.5" y="1266.8545">informs operation success</text><!--MD5=[64fed3af1c84f635d77ac648b5d5c23c]
@startuml
autonumber

actor "Administrator" as ADMIN

participant ":LoadSNSUserUI" as UI
participant ":LoadSNSUserController" as CONTROL
participant "Company" as COMP
participant "file: BufferedReader" as FILE
participant ":AuthFacade" as AUTH
participant "roleDto: UserRoleDTO" as DTO
participant ": SNSUserStore" as SNSUserStore
participant "snsUser : SNSUser" as SNSUser
participant "snsUserAuxList : ArrayList<SNSUser>" as ListAux
participant "snsUserList : ArrayList<SNSUser>" as List




    activate ADMIN

    ADMIN -> UI : asks to load a set of users from a CSV file

    activate UI

    ADMIN <- - UI : requests the path of the CSV file

    deactivate UI

    ADMIN-> UI : types the CSV file path

    activate UI

    UI -> CONTROL : createSNSUserFromCSV(location)


    activate CONTROL


    CONTROL -> COMP : checkLocation(location)

    activate COMP
    deactivate COMP


    CONTROL - -> FILE** : create(new FileReader(location))
    CONTROL -> COMP : type = VerifyTypeofCSV(file)

    activate COMP
    deactivate COMP

    CONTROL -> COMP : storeSNSUser = getSNSUserStore()

    activate COMP
    deactivate COMP

    CONTROL -> SNSUserStore : snsUserAuxList=convertFileSNSUserToArrayList(file,type)

    activate SNSUserStore

    SNSUserStore - -> ListAux ** : create()

    loop while file has users
     SNSUserStore - -> SNSUser** : create()
     SNSUserStore -> SNSUser  :checkSNSUsersFileAttributesPerLine(auxList, lineNumber)


     activate SNSUser
         deactivate SNSUser
     SNSUserStore - -> SNSUser  : snsUser = create(name,address,gender,phoneNumber,email,birthDate,snsUserNumber,citizenCardNumber)


    activate SNSUser
    deactivate SNSUser
    SNSUserStore -> SNSUserStore : checkSNSUser(snsUser)


    activate SNSUserStore
    deactivate SNSUserStore

    SNSUserStore -> SNSUserStore : addSNSUserListAUX(snsUser)

    activate SNSUserStore
    deactivate SNSUserStore
    end

    deactivate SNSUserStore
    deactivate CONTROL
    ADMIN <- - UI : shows the users that are present in the file and requests a confirmation

    deactivate UI

    ADMIN -> UI : confirms the users

    activate UI

    UI -> CONTROL : saveSNSUsersListFromCSVFile(snsUserAuxList)

    activate CONTROL

    loop while snsUserAuxList  has users

    CONTROL -> SNSUserStore : checkSNSUser(snsUser)


    activate SNSUserStore
    deactivate SNSUserStore

    CONTROL -> SNSUserStore : addSNSUser(snsUser)

    activate SNSUserStore

    deactivate SNSUserStore

    deactivate SNSUserStore

    CONTROL -> COMP :  pass = generatePassword()

    activate COMP
    deactivate COMP

    CONTROL-> COMP : addUserWithRole(snsUser,roleDTO,pass)

    ref over COMP
    SD_CreateSNSUserOnAuthFacade.puml

    end
    
    activate COMP
    
    end
    
   deactivate COMP
   deactivate CONTROL

ADMIN <- - UI : informs operation success



@enduml

PlantUML version 1.2022.5(Sat Apr 30 11:55:52 BST 2022)
(GPL source distribution)
Java Runtime: OpenJDK Runtime Environment
JVM: OpenJDK 64-Bit Server VM
Default Encoding: Cp1252
Language: pt
Country: PT
--></g></svg>