<?xml version="1.0" encoding="UTF-8" standalone="no"?><svg xmlns="http://www.w3.org/2000/svg" xmlns:xlink="http://www.w3.org/1999/xlink" contentStyleType="text/css" height="968px" preserveAspectRatio="none" style="width:1298px;height:968px;background:#FFFFFF;" version="1.1" viewBox="0 0 1298 968" width="1298px" zoomAndPan="magnify"><defs/><g><!--MD5=[72be06cc7ae02ccc98efe28a50e62246]
class SNSUser--><g id="elem_SNSUser"><rect codeLine="4" fill="#F1F1F1" height="224.0938" id="SNSUser" rx="2.5" ry="2.5" style="stroke:#181818;stroke-width:0.5;" width="155" x="984.07" y="505"/><ellipse cx="1029.32" cy="521" fill="#ADD1B2" rx="11" ry="11" style="stroke:#181818;stroke-width:1.0;"/><path d="M1031.32,517.5 Q1031.5231,517 1031.7575,516.75 Q1031.9919,516.5 1032.2575,516.5 Q1032.7263,516.5 1033.0231,516.7813 Q1033.32,517.0625 1033.32,517.7188 L1033.32,519.2813 Q1033.32,519.9375 1033.0388,520.2188 Q1032.7575,520.5 1032.32,520.5 Q1031.9294,520.5 1031.6794,520.3281 Q1031.4294,520.1563 1031.32,519.7031 Q1031.2731,519.3906 1031.1013,519.2188 Q1030.7888,518.8906 1030.2263,518.7031 Q1029.6638,518.5 1029.1013,518.5 Q1028.3981,518.5 1027.8044,518.7813 Q1027.2263,519.0625 1026.7731,519.6875 Q1026.32,520.3125 1026.32,521.1719 L1026.32,522.0938 Q1026.32,523.125 1027.1638,523.8125 Q1028.0075,524.5 1029.5075,524.5 Q1030.3981,524.5 1031.0231,524.2969 Q1031.3825,524.1875 1031.7888,523.8281 Q1032.0544,523.625 1032.195,523.5625 Q1032.3356,523.5 1032.5075,523.5 Q1032.8356,523.5 1033.07,523.7656 Q1033.32,524.0156 1033.32,524.375 Q1033.32,524.7188 1032.9763,525.125 Q1032.4763,525.7188 1031.6794,526.0469 Q1030.6325,526.5 1029.3513,526.5 Q1027.8513,526.5 1026.6481,525.9063 Q1025.6794,525.4375 1024.9919,524.4219 Q1024.32,523.4063 1024.32,522.2031 L1024.32,521.1094 Q1024.32,519.8594 1024.9138,518.7656 Q1025.5231,517.6719 1026.57,517.0938 Q1027.6325,516.5 1028.82,516.5 Q1029.5388,516.5 1030.1638,516.75 Q1030.7888,517 1031.32,517.5 Z " fill="#000000"/><text fill="#000000" font-family="sans-serif" font-size="14" lengthAdjust="spacing" textLength="56" x="1049.82" y="526.7285">SNSUser</text><line style="stroke:#181818;stroke-width:0.5;" x1="985.07" x2="1138.07" y1="537" y2="537"/><text fill="#000000" font-family="sans-serif" font-size="14" lengthAdjust="spacing" textLength="81" x="990.07" y="555.5332">-String name</text><text fill="#000000" font-family="sans-serif" font-size="14" lengthAdjust="spacing" textLength="67" x="990.07" y="573.1426">-String sex</text><text fill="#000000" font-family="sans-serif" font-size="14" lengthAdjust="spacing" textLength="104" x="990.07" y="590.752">-String birthDate</text><text fill="#000000" font-family="sans-serif" font-size="14" lengthAdjust="spacing" textLength="113" x="990.07" y="608.3613">-int phoneNumber</text><text fill="#000000" font-family="sans-serif" font-size="14" lengthAdjust="spacing" textLength="79" x="990.07" y="625.9707">-String email</text><text fill="#000000" font-family="sans-serif" font-size="14" lengthAdjust="spacing" textLength="129" x="990.07" y="643.5801">-int SNSUserNumber</text><text fill="#000000" font-family="sans-serif" font-size="14" lengthAdjust="spacing" textLength="143" x="990.07" y="661.1895">-int citizenCardNumber</text><line style="stroke:#181818;stroke-width:0.5;" x1="985.07" x2="1138.07" y1="668.2656" y2="668.2656"/><text fill="#000000" font-family="sans-serif" font-size="14" lengthAdjust="spacing" textLength="131" x="990.07" y="686.7988">+create(snsUserDto)</text><text fill="#000000" font-family="sans-serif" font-size="14" lengthAdjust="spacing" textLength="74" x="990.07" y="704.4082">+getName()</text><text fill="#000000" font-family="sans-serif" font-size="14" lengthAdjust="spacing" textLength="72" x="990.07" y="722.0176">+getEmail()</text></g><!--MD5=[4765fcf5d6db66eebf98d526c81910ad]
class SNSUserDTO--><g id="elem_SNSUserDTO"><rect codeLine="19" fill="#F1F1F1" height="171.2656" id="SNSUserDTO" rx="2.5" ry="2.5" style="stroke:#181818;stroke-width:0.5;" width="172" x="1073.57" y="790"/><ellipse cx="1112.87" cy="806" fill="#ADD1B2" rx="11" ry="11" style="stroke:#181818;stroke-width:1.0;"/><path d="M1114.87,802.5 Q1115.0731,802 1115.3075,801.75 Q1115.5419,801.5 1115.8075,801.5 Q1116.2763,801.5 1116.5731,801.7813 Q1116.87,802.0625 1116.87,802.7188 L1116.87,804.2813 Q1116.87,804.9375 1116.5888,805.2188 Q1116.3075,805.5 1115.87,805.5 Q1115.4794,805.5 1115.2294,805.3281 Q1114.9794,805.1563 1114.87,804.7031 Q1114.8231,804.3906 1114.6513,804.2188 Q1114.3388,803.8906 1113.7763,803.7031 Q1113.2138,803.5 1112.6513,803.5 Q1111.9481,803.5 1111.3544,803.7813 Q1110.7763,804.0625 1110.3231,804.6875 Q1109.87,805.3125 1109.87,806.1719 L1109.87,807.0938 Q1109.87,808.125 1110.7138,808.8125 Q1111.5575,809.5 1113.0575,809.5 Q1113.9481,809.5 1114.5731,809.2969 Q1114.9325,809.1875 1115.3388,808.8281 Q1115.6044,808.625 1115.745,808.5625 Q1115.8856,808.5 1116.0575,808.5 Q1116.3856,808.5 1116.62,808.7656 Q1116.87,809.0156 1116.87,809.375 Q1116.87,809.7188 1116.5263,810.125 Q1116.0263,810.7188 1115.2294,811.0469 Q1114.1825,811.5 1112.9013,811.5 Q1111.4013,811.5 1110.1981,810.9063 Q1109.2294,810.4375 1108.5419,809.4219 Q1107.87,808.4063 1107.87,807.2031 L1107.87,806.1094 Q1107.87,804.8594 1108.4638,803.7656 Q1109.0731,802.6719 1110.12,802.0938 Q1111.1825,801.5 1112.37,801.5 Q1113.0888,801.5 1113.7138,801.75 Q1114.3388,802 1114.87,802.5 Z " fill="#000000"/><text fill="#000000" font-family="sans-serif" font-size="14" lengthAdjust="spacing" textLength="86" x="1132.27" y="811.7285">SNSUserDTO</text><line style="stroke:#181818;stroke-width:0.5;" x1="1074.57" x2="1244.57" y1="822" y2="822"/><text fill="#000000" font-family="sans-serif" font-size="14" lengthAdjust="spacing" textLength="51" x="1079.57" y="840.5332">+getSex</text><line style="stroke:#181818;stroke-width:0.5;" x1="1074.57" x2="1244.57" y1="847.6094" y2="847.6094"/><text fill="#000000" font-family="sans-serif" font-size="14" lengthAdjust="spacing" textLength="74" x="1079.57" y="866.1426">+getName()</text><text fill="#000000" font-family="sans-serif" font-size="14" lengthAdjust="spacing" textLength="97" x="1079.57" y="883.752">+getBirthDate()</text><text fill="#000000" font-family="sans-serif" font-size="14" lengthAdjust="spacing" textLength="128" x="1079.57" y="901.3613">+getPhoneNumber()</text><text fill="#000000" font-family="sans-serif" font-size="14" lengthAdjust="spacing" textLength="72" x="1079.57" y="918.9707">+getEmail()</text><text fill="#000000" font-family="sans-serif" font-size="14" lengthAdjust="spacing" textLength="143" x="1079.57" y="936.5801">+getSNSUserNumber()</text><text fill="#000000" font-family="sans-serif" font-size="14" lengthAdjust="spacing" textLength="160" x="1079.57" y="954.1895">+getCitizenCardNumber()</text></g><!--MD5=[a5ad3856b0c65e07b10297b4477b22bb]
class SNSUserStore--><g id="elem_SNSUserStore"><rect codeLine="29" fill="#F1F1F1" height="171.2656" id="SNSUserStore" rx="2.5" ry="2.5" style="stroke:#181818;stroke-width:0.5;" width="212" x="541.57" y="256"/><ellipse cx="598.32" cy="272" fill="#ADD1B2" rx="11" ry="11" style="stroke:#181818;stroke-width:1.0;"/><path d="M600.32,268.5 Q600.5231,268 600.7575,267.75 Q600.9919,267.5 601.2575,267.5 Q601.7262,267.5 602.0231,267.7813 Q602.32,268.0625 602.32,268.7188 L602.32,270.2813 Q602.32,270.9375 602.0387,271.2188 Q601.7575,271.5 601.32,271.5 Q600.9294,271.5 600.6794,271.3281 Q600.4294,271.1563 600.32,270.7031 Q600.2731,270.3906 600.1012,270.2188 Q599.7887,269.8906 599.2262,269.7031 Q598.6637,269.5 598.1012,269.5 Q597.3981,269.5 596.8044,269.7813 Q596.2262,270.0625 595.7731,270.6875 Q595.32,271.3125 595.32,272.1719 L595.32,273.0938 Q595.32,274.125 596.1637,274.8125 Q597.0075,275.5 598.5075,275.5 Q599.3981,275.5 600.0231,275.2969 Q600.3825,275.1875 600.7887,274.8281 Q601.0544,274.625 601.195,274.5625 Q601.3356,274.5 601.5075,274.5 Q601.8356,274.5 602.07,274.7656 Q602.32,275.0156 602.32,275.375 Q602.32,275.7188 601.9762,276.125 Q601.4762,276.7188 600.6794,277.0469 Q599.6325,277.5 598.3512,277.5 Q596.8512,277.5 595.6481,276.9063 Q594.6794,276.4375 593.9919,275.4219 Q593.32,274.4063 593.32,273.2031 L593.32,272.1094 Q593.32,270.8594 593.9137,269.7656 Q594.5231,268.6719 595.57,268.0938 Q596.6325,267.5 597.82,267.5 Q598.5387,267.5 599.1637,267.75 Q599.7887,268 600.32,268.5 Z " fill="#000000"/><text fill="#000000" font-family="sans-serif" font-size="14" lengthAdjust="spacing" textLength="90" x="618.82" y="277.7285">SNSUserStore</text><line style="stroke:#181818;stroke-width:0.5;" x1="542.57" x2="752.57" y1="288" y2="288"/><line style="stroke:#181818;stroke-width:0.5;" x1="542.57" x2="752.57" y1="296" y2="296"/><text fill="#000000" font-family="sans-serif" font-size="14" lengthAdjust="spacing" textLength="200" x="547.57" y="314.5332">+createSNSUser(SNSUserDTO)</text><text fill="#000000" font-family="sans-serif" font-size="14" lengthAdjust="spacing" textLength="183" x="547.57" y="332.1426">+validadeSNSUser(SNSUser)</text><text fill="#000000" font-family="sans-serif" font-size="14" lengthAdjust="spacing" textLength="160" x="547.57" y="349.752">+saveSNSUser(SNSUser)</text><text fill="#000000" font-family="sans-serif" font-size="14" lengthAdjust="spacing" textLength="177" x="547.57" y="367.3613">+checkDuplicates(SNSUser)</text><text fill="#000000" font-family="sans-serif" font-size="14" lengthAdjust="spacing" textLength="133" x="547.57" y="384.9707">-generatePassword()</text><text fill="#000000" font-family="sans-serif" font-size="14" lengthAdjust="spacing" textLength="151" x="547.57" y="402.5801">-addSNSUser(SNSUser)</text><text fill="#000000" font-family="sans-serif" font-size="14" lengthAdjust="spacing" textLength="169" x="547.57" y="420.1895">-sendEmail(SNSUser, pwd)</text></g><!--MD5=[02e4b9b7573f1156f41e60aa5b4e25a4]
class Company--><g id="elem_Company"><rect codeLine="40" fill="#F1F1F1" height="171.2656" id="Company" rx="2.5" ry="2.5" style="stroke:#181818;stroke-width:0.5;" width="199" x="784.07" y="7"/><ellipse cx="849.32" cy="23" fill="#ADD1B2" rx="11" ry="11" style="stroke:#181818;stroke-width:1.0;"/><path d="M851.32,19.5 Q851.5231,19 851.7575,18.75 Q851.9919,18.5 852.2575,18.5 Q852.7262,18.5 853.0231,18.7813 Q853.32,19.0625 853.32,19.7188 L853.32,21.2813 Q853.32,21.9375 853.0387,22.2188 Q852.7575,22.5 852.32,22.5 Q851.9294,22.5 851.6794,22.3281 Q851.4294,22.1563 851.32,21.7031 Q851.2731,21.3906 851.1012,21.2188 Q850.7887,20.8906 850.2262,20.7031 Q849.6637,20.5 849.1012,20.5 Q848.3981,20.5 847.8044,20.7813 Q847.2262,21.0625 846.7731,21.6875 Q846.32,22.3125 846.32,23.1719 L846.32,24.0938 Q846.32,25.125 847.1637,25.8125 Q848.0075,26.5 849.5075,26.5 Q850.3981,26.5 851.0231,26.2969 Q851.3825,26.1875 851.7887,25.8281 Q852.0544,25.625 852.195,25.5625 Q852.3356,25.5 852.5075,25.5 Q852.8356,25.5 853.07,25.7656 Q853.32,26.0156 853.32,26.375 Q853.32,26.7188 852.9762,27.125 Q852.4762,27.7188 851.6794,28.0469 Q850.6325,28.5 849.3512,28.5 Q847.8512,28.5 846.6481,27.9063 Q845.6794,27.4375 844.9919,26.4219 Q844.32,25.4063 844.32,24.2031 L844.32,23.1094 Q844.32,21.8594 844.9137,20.7656 Q845.5231,19.6719 846.57,19.0938 Q847.6325,18.5 848.82,18.5 Q849.5387,18.5 850.1637,18.75 Q850.7887,19 851.32,19.5 Z " fill="#000000"/><text fill="#000000" font-family="sans-serif" font-size="14" lengthAdjust="spacing" textLength="60" x="869.82" y="28.7285">Company</text><line style="stroke:#181818;stroke-width:0.5;" x1="785.07" x2="982.07" y1="39" y2="39"/><text fill="#000000" font-family="sans-serif" font-size="14" lengthAdjust="spacing" textLength="119" x="790.07" y="57.5332">-String designation</text><line style="stroke:#181818;stroke-width:0.5;" x1="785.07" x2="982.07" y1="64.6094" y2="64.6094"/><text fill="#000000" font-family="sans-serif" font-size="14" lengthAdjust="spacing" textLength="187" x="790.07" y="83.1426">+createSNSUser(snsUserDto)</text><text fill="#000000" font-family="sans-serif" font-size="14" lengthAdjust="spacing" textLength="178" x="790.07" y="100.752">+validadeSNSUser(snsUser)</text><text fill="#000000" font-family="sans-serif" font-size="14" lengthAdjust="spacing" textLength="155" x="790.07" y="118.3613">+saveSNSUser(snsUser)</text><text fill="#000000" font-family="sans-serif" font-size="14" lengthAdjust="spacing" textLength="169" x="790.07" y="135.9707">-checkDuplicates(snsUser)</text><text fill="#000000" font-family="sans-serif" font-size="14" lengthAdjust="spacing" textLength="171" x="790.07" y="153.5801">-validateSNSUser(snsUser)</text><text fill="#000000" font-family="sans-serif" font-size="14" lengthAdjust="spacing" textLength="146" x="790.07" y="171.1895">-addSNSUser(snsUser)</text></g><!--MD5=[be89e96fded54ba83d4eaa5710b97d82]
class RegisterSNSUserController--><g id="elem_RegisterSNSUserController"><rect codeLine="50" fill="#F1F1F1" height="83.2188" id="RegisterSNSUserController" rx="2.5" ry="2.5" style="stroke:#181818;stroke-width:0.5;" width="203" x="1007.07" y="300"/><ellipse cx="1022.07" cy="316" fill="#ADD1B2" rx="11" ry="11" style="stroke:#181818;stroke-width:1.0;"/><path d="M1024.07,312.5 Q1024.2731,312 1024.5075,311.75 Q1024.7419,311.5 1025.0075,311.5 Q1025.4763,311.5 1025.7731,311.7813 Q1026.07,312.0625 1026.07,312.7188 L1026.07,314.2813 Q1026.07,314.9375 1025.7888,315.2188 Q1025.5075,315.5 1025.07,315.5 Q1024.6794,315.5 1024.4294,315.3281 Q1024.1794,315.1563 1024.07,314.7031 Q1024.0231,314.3906 1023.8512,314.2188 Q1023.5387,313.8906 1022.9762,313.7031 Q1022.4137,313.5 1021.8512,313.5 Q1021.1481,313.5 1020.5544,313.7813 Q1019.9762,314.0625 1019.5231,314.6875 Q1019.07,315.3125 1019.07,316.1719 L1019.07,317.0938 Q1019.07,318.125 1019.9137,318.8125 Q1020.7575,319.5 1022.2575,319.5 Q1023.1481,319.5 1023.7731,319.2969 Q1024.1325,319.1875 1024.5388,318.8281 Q1024.8044,318.625 1024.945,318.5625 Q1025.0856,318.5 1025.2575,318.5 Q1025.5856,318.5 1025.82,318.7656 Q1026.07,319.0156 1026.07,319.375 Q1026.07,319.7188 1025.7263,320.125 Q1025.2263,320.7188 1024.4294,321.0469 Q1023.3825,321.5 1022.1012,321.5 Q1020.6012,321.5 1019.3981,320.9063 Q1018.4294,320.4375 1017.7419,319.4219 Q1017.07,318.4063 1017.07,317.2031 L1017.07,316.1094 Q1017.07,314.8594 1017.6637,313.7656 Q1018.2731,312.6719 1019.32,312.0938 Q1020.3825,311.5 1021.57,311.5 Q1022.2887,311.5 1022.9137,311.75 Q1023.5387,312 1024.07,312.5 Z " fill="#000000"/><text fill="#000000" font-family="sans-serif" font-size="14" lengthAdjust="spacing" textLength="171" x="1036.07" y="321.7285">RegisterSNSUserController</text><line style="stroke:#181818;stroke-width:0.5;" x1="1008.07" x2="1209.07" y1="332" y2="332"/><line style="stroke:#181818;stroke-width:0.5;" x1="1008.07" x2="1209.07" y1="340" y2="340"/><text fill="#000000" font-family="sans-serif" font-size="14" lengthAdjust="spacing" textLength="187" x="1013.07" y="358.5332">+createSNSUser(snsUserDto)</text><text fill="#000000" font-family="sans-serif" font-size="14" lengthAdjust="spacing" textLength="104" x="1013.07" y="376.1426">+saveSNSUser()</text></g><!--MD5=[e51f1aa3cba897edd46f2fedbd5a5cd6]
class RegisterSNSUserUI--><g id="elem_RegisterSNSUserUI"><rect codeLine="55" fill="#F1F1F1" height="48" id="RegisterSNSUserUI" rx="2.5" ry="2.5" style="stroke:#181818;stroke-width:0.5;" width="153" x="1138.07" y="68.5"/><ellipse cx="1153.07" cy="84.5" fill="#ADD1B2" rx="11" ry="11" style="stroke:#181818;stroke-width:1.0;"/><path d="M1155.07,81 Q1155.2731,80.5 1155.5075,80.25 Q1155.7419,80 1156.0075,80 Q1156.4763,80 1156.7731,80.2813 Q1157.07,80.5625 1157.07,81.2188 L1157.07,82.7813 Q1157.07,83.4375 1156.7888,83.7188 Q1156.5075,84 1156.07,84 Q1155.6794,84 1155.4294,83.8281 Q1155.1794,83.6563 1155.07,83.2031 Q1155.0231,82.8906 1154.8513,82.7188 Q1154.5388,82.3906 1153.9763,82.2031 Q1153.4138,82 1152.8513,82 Q1152.1481,82 1151.5544,82.2813 Q1150.9763,82.5625 1150.5231,83.1875 Q1150.07,83.8125 1150.07,84.6719 L1150.07,85.5938 Q1150.07,86.625 1150.9138,87.3125 Q1151.7575,88 1153.2575,88 Q1154.1481,88 1154.7731,87.7969 Q1155.1325,87.6875 1155.5388,87.3281 Q1155.8044,87.125 1155.945,87.0625 Q1156.0856,87 1156.2575,87 Q1156.5856,87 1156.82,87.2656 Q1157.07,87.5156 1157.07,87.875 Q1157.07,88.2188 1156.7263,88.625 Q1156.2263,89.2188 1155.4294,89.5469 Q1154.3825,90 1153.1013,90 Q1151.6013,90 1150.3981,89.4063 Q1149.4294,88.9375 1148.7419,87.9219 Q1148.07,86.9063 1148.07,85.7031 L1148.07,84.6094 Q1148.07,83.3594 1148.6638,82.2656 Q1149.2731,81.1719 1150.32,80.5938 Q1151.3825,80 1152.57,80 Q1153.2888,80 1153.9138,80.25 Q1154.5388,80.5 1155.07,81 Z " fill="#000000"/><text fill="#000000" font-family="sans-serif" font-size="14" lengthAdjust="spacing" textLength="121" x="1167.07" y="90.2285">RegisterSNSUserUI</text><line style="stroke:#181818;stroke-width:0.5;" x1="1139.07" x2="1290.07" y1="100.5" y2="100.5"/><line style="stroke:#181818;stroke-width:0.5;" x1="1139.07" x2="1290.07" y1="108.5" y2="108.5"/></g><!--MD5=[8ae808d068a8995f06b9b3ec51357f0b]
class AuthFacade--><g id="elem_AuthFacade"><rect codeLine="58" fill="#F1F1F1" height="83.2188" id="AuthFacade" rx="2.5" ry="2.5" style="stroke:#181818;stroke-width:0.5;" width="331" x="89.07" y="575.5"/><ellipse cx="211.82" cy="591.5" fill="#ADD1B2" rx="11" ry="11" style="stroke:#181818;stroke-width:1.0;"/><path d="M213.82,588 Q214.0231,587.5 214.2575,587.25 Q214.4919,587 214.7575,587 Q215.2263,587 215.5231,587.2813 Q215.82,587.5625 215.82,588.2188 L215.82,589.7813 Q215.82,590.4375 215.5388,590.7188 Q215.2575,591 214.82,591 Q214.4294,591 214.1794,590.8281 Q213.9294,590.6563 213.82,590.2031 Q213.7731,589.8906 213.6013,589.7188 Q213.2888,589.3906 212.7263,589.2031 Q212.1638,589 211.6013,589 Q210.8981,589 210.3044,589.2813 Q209.7263,589.5625 209.2731,590.1875 Q208.82,590.8125 208.82,591.6719 L208.82,592.5938 Q208.82,593.625 209.6638,594.3125 Q210.5075,595 212.0075,595 Q212.8981,595 213.5231,594.7969 Q213.8825,594.6875 214.2888,594.3281 Q214.5544,594.125 214.695,594.0625 Q214.8356,594 215.0075,594 Q215.3356,594 215.57,594.2656 Q215.82,594.5156 215.82,594.875 Q215.82,595.2188 215.4763,595.625 Q214.9763,596.2188 214.1794,596.5469 Q213.1325,597 211.8513,597 Q210.3513,597 209.1481,596.4063 Q208.1794,595.9375 207.4919,594.9219 Q206.82,593.9063 206.82,592.7031 L206.82,591.6094 Q206.82,590.3594 207.4138,589.2656 Q208.0231,588.1719 209.07,587.5938 Q210.1325,587 211.32,587 Q212.0388,587 212.6638,587.25 Q213.2888,587.5 213.82,588 Z " fill="#000000"/><text fill="#000000" font-family="sans-serif" font-size="14" lengthAdjust="spacing" textLength="77" x="232.32" y="597.2285">AuthFacade</text><line style="stroke:#181818;stroke-width:0.5;" x1="90.07" x2="419.07" y1="607.5" y2="607.5"/><line style="stroke:#181818;stroke-width:0.5;" x1="90.07" x2="419.07" y1="615.5" y2="615.5"/><text fill="#000000" font-family="sans-serif" font-size="14" lengthAdjust="spacing" textLength="142" x="95.07" y="634.0332">+existsSNSUser(email)</text><text fill="#000000" font-family="sans-serif" font-size="14" lengthAdjust="spacing" textLength="319" x="95.07" y="651.6426">+addUserWithRole(name, email, pwd, "SNSUSER")</text></g><!--MD5=[9a2889027d1a5f59ee05c53124f224f8]
class PasswordGenerator--><g id="elem_PasswordGenerator"><rect codeLine="63" fill="#F1F1F1" height="65.6094" id="PasswordGenerator" rx="2.5" ry="2.5" style="stroke:#181818;stroke-width:0.5;" width="158" x="455.57" y="584"/><ellipse cx="470.57" cy="600" fill="#ADD1B2" rx="11" ry="11" style="stroke:#181818;stroke-width:1.0;"/><path d="M472.57,596.5 Q472.7731,596 473.0075,595.75 Q473.2419,595.5 473.5075,595.5 Q473.9763,595.5 474.2731,595.7813 Q474.57,596.0625 474.57,596.7188 L474.57,598.2813 Q474.57,598.9375 474.2888,599.2188 Q474.0075,599.5 473.57,599.5 Q473.1794,599.5 472.9294,599.3281 Q472.6794,599.1563 472.57,598.7031 Q472.5231,598.3906 472.3513,598.2188 Q472.0388,597.8906 471.4763,597.7031 Q470.9138,597.5 470.3513,597.5 Q469.6481,597.5 469.0544,597.7813 Q468.4763,598.0625 468.0231,598.6875 Q467.57,599.3125 467.57,600.1719 L467.57,601.0938 Q467.57,602.125 468.4138,602.8125 Q469.2575,603.5 470.7575,603.5 Q471.6481,603.5 472.2731,603.2969 Q472.6325,603.1875 473.0388,602.8281 Q473.3044,602.625 473.445,602.5625 Q473.5856,602.5 473.7575,602.5 Q474.0856,602.5 474.32,602.7656 Q474.57,603.0156 474.57,603.375 Q474.57,603.7188 474.2263,604.125 Q473.7263,604.7188 472.9294,605.0469 Q471.8825,605.5 470.6013,605.5 Q469.1013,605.5 467.8981,604.9063 Q466.9294,604.4375 466.2419,603.4219 Q465.57,602.4063 465.57,601.2031 L465.57,600.1094 Q465.57,598.8594 466.1638,597.7656 Q466.7731,596.6719 467.82,596.0938 Q468.8825,595.5 470.07,595.5 Q470.7888,595.5 471.4138,595.75 Q472.0388,596 472.57,596.5 Z " fill="#000000"/><text fill="#000000" font-family="sans-serif" font-size="14" lengthAdjust="spacing" textLength="126" x="484.57" y="605.7285">PasswordGenerator</text><line style="stroke:#181818;stroke-width:0.5;" x1="456.57" x2="612.57" y1="616" y2="616"/><text fill="#000000" font-family="sans-serif" font-size="14" lengthAdjust="spacing" textLength="126" x="461.57" y="634.5332">+generatePassword</text><line style="stroke:#181818;stroke-width:0.5;" x1="456.57" x2="612.57" y1="641.6094" y2="641.6094"/></g><!--MD5=[6b9c87d147b597fd90aaec39e153c56a]
class EmailNotificationSender--><g id="elem_EmailNotificationSender"><rect codeLine="67" fill="#F1F1F1" height="65.6094" id="EmailNotificationSender" rx="2.5" ry="2.5" style="stroke:#181818;stroke-width:0.5;" width="300" x="648.57" y="584"/><ellipse cx="719.82" cy="600" fill="#ADD1B2" rx="11" ry="11" style="stroke:#181818;stroke-width:1.0;"/><path d="M721.82,596.5 Q722.0231,596 722.2575,595.75 Q722.4919,595.5 722.7575,595.5 Q723.2262,595.5 723.5231,595.7813 Q723.82,596.0625 723.82,596.7188 L723.82,598.2813 Q723.82,598.9375 723.5387,599.2188 Q723.2575,599.5 722.82,599.5 Q722.4294,599.5 722.1794,599.3281 Q721.9294,599.1563 721.82,598.7031 Q721.7731,598.3906 721.6012,598.2188 Q721.2887,597.8906 720.7262,597.7031 Q720.1637,597.5 719.6012,597.5 Q718.8981,597.5 718.3044,597.7813 Q717.7262,598.0625 717.2731,598.6875 Q716.82,599.3125 716.82,600.1719 L716.82,601.0938 Q716.82,602.125 717.6637,602.8125 Q718.5075,603.5 720.0075,603.5 Q720.8981,603.5 721.5231,603.2969 Q721.8825,603.1875 722.2887,602.8281 Q722.5544,602.625 722.695,602.5625 Q722.8356,602.5 723.0075,602.5 Q723.3356,602.5 723.57,602.7656 Q723.82,603.0156 723.82,603.375 Q723.82,603.7188 723.4762,604.125 Q722.9762,604.7188 722.1794,605.0469 Q721.1325,605.5 719.8512,605.5 Q718.3512,605.5 717.1481,604.9063 Q716.1794,604.4375 715.4919,603.4219 Q714.82,602.4063 714.82,601.2031 L714.82,600.1094 Q714.82,598.8594 715.4137,597.7656 Q716.0231,596.6719 717.07,596.0938 Q718.1325,595.5 719.32,595.5 Q720.0387,595.5 720.6637,595.75 Q721.2887,596 721.82,596.5 Z " fill="#000000"/><text fill="#000000" font-family="sans-serif" font-size="14" lengthAdjust="spacing" textLength="149" x="740.32" y="605.7285">EmailNotificationSender</text><line style="stroke:#181818;stroke-width:0.5;" x1="649.57" x2="947.57" y1="616" y2="616"/><line style="stroke:#181818;stroke-width:0.5;" x1="649.57" x2="947.57" y1="624" y2="624"/><text fill="#000000" font-family="sans-serif" font-size="14" lengthAdjust="spacing" textLength="288" x="654.57" y="642.5332">+sendPasswordNotification(name, email, pwd)</text></g><!--MD5=[7bf6f1c174ef2382ab748189587a16d6]
link RegisterSNSUserUI to RegisterSNSUserController--><g id="link_RegisterSNSUserUI_RegisterSNSUserController"><path codeLine="72" d="M1204.6,116.74 C1187.14,157.42 1150.74,242.23 1128.11,294.96 " fill="none" id="RegisterSNSUserUI-to-RegisterSNSUserController" style="stroke:#181818;stroke-width:1.0;stroke-dasharray:7.0,7.0;"/><polygon fill="#181818" points="1126.1,299.65,1133.3294,292.9615,1128.0748,295.0565,1125.9798,289.8019,1126.1,299.65" style="stroke:#181818;stroke-width:1.0;"/></g><!--MD5=[10de65ee6797a63a5a6b65786e9c2d21]
link RegisterSNSUserUI to SNSUserDTO--><g id="link_RegisterSNSUserUI_SNSUserDTO"><path codeLine="73" d="M1217,116.61 C1220.18,148.09 1225.58,206.23 1227.57,256 C1236.53,480.33 1237.12,539.75 1193.57,760 C1191.97,768.09 1190.05,776.42 1187.94,784.73 " fill="none" id="RegisterSNSUserUI-to-SNSUserDTO" style="stroke:#181818;stroke-width:1.0;stroke-dasharray:7.0,7.0;"/><polygon fill="#181818" points="1186.61,789.9,1192.7217,782.1768,1187.8529,785.0569,1184.9728,780.1882,1186.61,789.9" style="stroke:#181818;stroke-width:1.0;"/></g><!--MD5=[b863452b465c122da136545eb0fe4494]
link RegisterSNSUserController to SNSUser--><g id="link_RegisterSNSUserController_SNSUser"><path codeLine="74" d="M1101.58,383.15 C1096.28,414.04 1088.7,458.15 1081.56,499.69 " fill="none" id="RegisterSNSUserController-to-SNSUser" style="stroke:#181818;stroke-width:1.0;stroke-dasharray:7.0,7.0;"/><polygon fill="#181818" points="1080.69,504.74,1086.1729,496.5585,1081.5467,499.8139,1078.2912,495.1877,1080.69,504.74" style="stroke:#181818;stroke-width:1.0;"/></g><!--MD5=[fa2e584a1dcb1e7a0256fca694ac5408]
link RegisterSNSUserController to SNSUserDTO--><g id="link_RegisterSNSUserController_SNSUserDTO"><path codeLine="75" d="M1124.04,383.19 C1135.53,415.64 1150.25,462.52 1156.57,505 C1170.65,599.65 1169.34,709.46 1165.79,784.62 " fill="none" id="RegisterSNSUserController-to-SNSUserDTO" style="stroke:#181818;stroke-width:1.0;stroke-dasharray:7.0,7.0;"/><polygon fill="#181818" points="1165.54,789.97,1169.9731,781.1753,1165.7833,784.9759,1161.9826,780.786,1165.54,789.97" style="stroke:#181818;stroke-width:1.0;"/></g><!--MD5=[afb2ab1c69d941c902569e8022ecdc6d]
link SNSUser to SNSUserDTO--><g id="link_SNSUser_SNSUserDTO"><path codeLine="76" d="M1103.98,729.01 C1111.08,747.58 1118.36,766.63 1125.22,784.58 " fill="none" id="SNSUser-to-SNSUserDTO" style="stroke:#181818;stroke-width:1.0;stroke-dasharray:7.0,7.0;"/><polygon fill="#181818" points="1127.14,789.62,1127.6627,779.785,1125.3547,784.9496,1120.1901,782.6415,1127.14,789.62" style="stroke:#181818;stroke-width:1.0;"/></g><!--MD5=[1a8aa2b864b87f860d28abceaa28b7a5]
link Company to SNSUser--><g id="link_Company_SNSUser"><path codeLine="77" d="M909.06,178.23 C929.76,245.9 960.24,342.97 989.57,427 C997.87,450.78 1007.17,476.06 1016.26,500.15 " fill="none" id="Company-to-SNSUser" style="stroke:#181818;stroke-width:1.0;stroke-dasharray:7.0,7.0;"/><polygon fill="#181818" points="1018.07,504.95,1018.619,495.1165,1016.2972,500.2748,1011.1388,497.953,1018.07,504.95" style="stroke:#181818;stroke-width:1.0;"/></g><!--MD5=[1bd9080c7e199931e49bc5a1616681ac]
link Company to SNSUserStore--><g id="link_Company_SNSUserStore"><path codeLine="78" d="M802.68,178.16 C779.88,202.02 755.03,228.03 732.03,252.11 " fill="none" id="Company-to-SNSUserStore" style="stroke:#181818;stroke-width:1.0;"/><polygon fill="#181818" points="728.35,255.95,737.4616,252.2111,731.8061,252.3368,731.6804,246.6813,728.35,255.95" style="stroke:#181818;stroke-width:1.0;"/><text fill="#000000" font-family="sans-serif" font-size="13" lengthAdjust="spacing" textLength="28" x="774.57" y="222.4951">uses</text><text fill="#000000" font-family="sans-serif" font-size="13" lengthAdjust="spacing" textLength="7" x="788.4277" y="199.7077">1</text><text fill="#000000" font-family="sans-serif" font-size="13" lengthAdjust="spacing" textLength="7" x="728.2328" y="245.1171">1</text></g><!--MD5=[b01d27099955aced792f1ce85db49798]
link SNSUserStore to SNSUser--><g id="link_SNSUserStore_SNSUser"><path codeLine="79" d="M753.75,411.94 C790.17,433.94 831.79,457.16 871.57,475 C911.58,492.94 928.97,480.84 965.57,505 C970.47,508.23 975.27,511.79 979.94,515.57 " fill="none" id="SNSUserStore-to-SNSUser" style="stroke:#181818;stroke-width:1.0;"/><polygon fill="#181818" points="983.83,518.8,979.438,509.9846,979.9749,515.616,974.3436,516.1528,983.83,518.8" style="stroke:#181818;stroke-width:1.0;"/><text fill="#000000" font-family="sans-serif" font-size="13" lengthAdjust="spacing" textLength="37" x="872.57" y="471.4951">knows</text><text fill="#000000" font-family="sans-serif" font-size="13" lengthAdjust="spacing" textLength="7" x="761.4619" y="413.8285">1</text><text fill="#000000" font-family="sans-serif" font-size="13" lengthAdjust="spacing" textLength="5" x="971.1821" y="506.1852">*</text></g><!--MD5=[bc3349464b4fa8eddccb337858e655b4]
link SNSUserStore to AuthFacade--><g id="link_SNSUserStore_AuthFacade"><path codeLine="80" d="M541.48,416.33 C469.77,466.24 377.52,530.43 317.26,572.37 " fill="none" id="SNSUserStore-to-AuthFacade" style="stroke:#181818;stroke-width:1.0;stroke-dasharray:7.0,7.0;"/><polygon fill="#181818" points="312.98,575.35,322.6509,573.4861,317.0822,572.4913,318.077,566.9226,312.98,575.35" style="stroke:#181818;stroke-width:1.0;"/></g><!--MD5=[b6e2ea40e00707054540f9b1c5529f61]
link SNSUserStore to PasswordGenerator--><g id="link_SNSUserStore_PasswordGenerator"><path codeLine="81" d="M612.59,427.16 C591.62,477.91 566.01,539.91 549.99,578.69 " fill="none" id="SNSUserStore-to-PasswordGenerator" style="stroke:#181818;stroke-width:1.0;stroke-dasharray:7.0,7.0;"/><polygon fill="#181818" points="547.89,583.77,555.0334,576.9898,549.806,579.1517,547.6441,573.9242,547.89,583.77" style="stroke:#181818;stroke-width:1.0;"/></g><!--MD5=[b1153aebe99cb4e8fa7eab8a5d299b6f]
link SNSUserStore to EmailNotificationSender--><g id="link_SNSUserStore_EmailNotificationSender"><path codeLine="82" d="M694.31,427.16 C722.45,478.12 756.84,540.42 778.23,579.16 " fill="none" id="SNSUserStore-to-EmailNotificationSender" style="stroke:#181818;stroke-width:1.0;stroke-dasharray:7.0,7.0;"/><polygon fill="#181818" points="780.77,583.77,779.9204,573.9579,778.3527,579.3932,772.9174,577.8255,780.77,583.77" style="stroke:#181818;stroke-width:1.0;"/></g><!--MD5=[67042fc6fe98c889876ade101830c1d0]
link SNSUserStore to SNSUserDTO--><g id="link_SNSUserStore_SNSUserDTO"><path codeLine="83" d="M541.28,357.1 C390.94,380.18 128.12,430.28 71.57,505 C11.49,584.38 6,654.08 71.57,729 C137.01,803.77 817.97,853.29 1068.09,869.07 " fill="none" id="SNSUserStore-to-SNSUserDTO" style="stroke:#181818;stroke-width:1.0;stroke-dasharray:7.0,7.0;"/><polygon fill="#181818" points="1073.19,869.39,1064.4595,864.8317,1068.1999,869.0754,1063.9562,872.8159,1073.19,869.39" style="stroke:#181818;stroke-width:1.0;"/></g><!--MD5=[00c9ba7ee03a5b03c7d0142af1dce1cb]
@startuml
skinparam classAttributeIconSize 0


class SNSUser {
- String name
- String sex
- String birthDate
- int phoneNumber
- String email
- int SNSUserNumber
- int citizenCardNumber
+create(snsUserDto)
+getName()
+getEmail()


}

class SNSUserDTO {
+getName()
+getSex
+getBirthDate()
+getPhoneNumber()
+getEmail()
+getSNSUserNumber()
+getCitizenCardNumber()
}

class SNSUserStore {
+createSNSUser(SNSUserDTO)
+validadeSNSUser(SNSUser)
+saveSNSUser(SNSUser)
+checkDuplicates(SNSUser)
-generatePassword()
-addSNSUser(SNSUser)
-sendEmail(SNSUser, pwd)

}

class Company {
- String designation
+createSNSUser(snsUserDto)
+validadeSNSUser(snsUser)
+saveSNSUser(snsUser)
-checkDuplicates(snsUser)
-validateSNSUser(snsUser)
-addSNSUser(snsUser)
}

class RegisterSNSUserController {
+createSNSUser(snsUserDto)
+saveSNSUser()
}

class RegisterSNSUserUI {
}

class AuthFacade {
+existsSNSUser(email)
+addUserWithRole(name, email, pwd, "SNSUSER")
}

class PasswordGenerator {
+generatePassword
}

class EmailNotificationSender {
+sendPasswordNotification(name, email, pwd)
}


RegisterSNSUserUI ..> RegisterSNSUserController
RegisterSNSUserUI ..> SNSUserDTO
RegisterSNSUserController ..> SNSUser
RegisterSNSUserController ..> SNSUserDTO
SNSUser ..> SNSUserDTO
Company ..> SNSUser
Company "1" - ->  "1" SNSUserStore : uses
SNSUserStore "1"  - -> "*" SNSUser : knows
SNSUserStore ..> AuthFacade
SNSUserStore ..> PasswordGenerator
SNSUserStore ..> EmailNotificationSender
SNSUserStore ..> SNSUserDTO


@enduml

PlantUML version 1.2022.4(Sat Apr 09 14:29:17 BST 2022)
(GPL source distribution)
Java Runtime: OpenJDK Runtime Environment
JVM: OpenJDK 64-Bit Server VM
Default Encoding: Cp1252
Language: pt
Country: PT
--></g></svg>