<?xml version="1.0" encoding="UTF-8" standalone="no"?><svg xmlns="http://www.w3.org/2000/svg" xmlns:xlink="http://www.w3.org/1999/xlink" contentStyleType="text/css" height="971px" preserveAspectRatio="none" style="width:679px;height:971px;background:#FFFFFF;" version="1.1" viewBox="0 0 679 971" width="679px" zoomAndPan="magnify"><defs/><g><!--MD5=[02e4b9b7573f1156f41e60aa5b4e25a4]
class Company--><g id="elem_Company"><rect codeLine="5" fill="#F1F1F1" height="57.6094" id="Company" rx="2.5" ry="2.5" style="stroke:#181818;stroke-width:0.5;" width="92" x="189.62" y="7"/><ellipse cx="204.62" cy="23" fill="#ADD1B2" rx="11" ry="11" style="stroke:#181818;stroke-width:1.0;"/><path d="M206.62,19.5 Q206.8231,19 207.0575,18.75 Q207.2919,18.5 207.5575,18.5 Q208.0263,18.5 208.3231,18.7813 Q208.62,19.0625 208.62,19.7188 L208.62,21.2813 Q208.62,21.9375 208.3388,22.2188 Q208.0575,22.5 207.62,22.5 Q207.2294,22.5 206.9794,22.3281 Q206.7294,22.1563 206.62,21.7031 Q206.5731,21.3906 206.4013,21.2188 Q206.0888,20.8906 205.5263,20.7031 Q204.9638,20.5 204.4013,20.5 Q203.6981,20.5 203.1044,20.7813 Q202.5263,21.0625 202.0731,21.6875 Q201.62,22.3125 201.62,23.1719 L201.62,24.0938 Q201.62,25.125 202.4638,25.8125 Q203.3075,26.5 204.8075,26.5 Q205.6981,26.5 206.3231,26.2969 Q206.6825,26.1875 207.0888,25.8281 Q207.3544,25.625 207.495,25.5625 Q207.6356,25.5 207.8075,25.5 Q208.1356,25.5 208.37,25.7656 Q208.62,26.0156 208.62,26.375 Q208.62,26.7188 208.2763,27.125 Q207.7763,27.7188 206.9794,28.0469 Q205.9325,28.5 204.6513,28.5 Q203.1513,28.5 201.9481,27.9063 Q200.9794,27.4375 200.2919,26.4219 Q199.62,25.4063 199.62,24.2031 L199.62,23.1094 Q199.62,21.8594 200.2138,20.7656 Q200.8231,19.6719 201.87,19.0938 Q202.9325,18.5 204.12,18.5 Q204.8388,18.5 205.4638,18.75 Q206.0888,19 206.62,19.5 Z " fill="#000000"/><text fill="#000000" font-family="sans-serif" font-size="14" lengthAdjust="spacing" textLength="60" x="218.62" y="28.7285">Company</text><line style="stroke:#181818;stroke-width:0.5;" x1="190.62" x2="280.62" y1="39" y2="39"/><text fill="#000000" font-family="sans-serif" font-size="14" lengthAdjust="spacing" textLength="78" x="195.62" y="57.5332">-designation</text></g><!--MD5=[72be06cc7ae02ccc98efe28a50e62246]
class SNSUser--><g id="elem_SNSUser"><rect codeLine="26" fill="#F1F1F1" height="251.3125" id="SNSUser" rx="2.5" ry="2.5" style="stroke:#181818;stroke-width:0.5;" width="136" x="302.62" y="143"/><ellipse cx="339.22" cy="159" fill="#ADD1B2" rx="11" ry="11" style="stroke:#181818;stroke-width:1.0;"/><path d="M341.22,155.5 Q341.4231,155 341.6575,154.75 Q341.8919,154.5 342.1575,154.5 Q342.6263,154.5 342.9231,154.7813 Q343.22,155.0625 343.22,155.7188 L343.22,157.2813 Q343.22,157.9375 342.9388,158.2188 Q342.6575,158.5 342.22,158.5 Q341.8294,158.5 341.5794,158.3281 Q341.3294,158.1563 341.22,157.7031 Q341.1731,157.3906 341.0013,157.2188 Q340.6888,156.8906 340.1263,156.7031 Q339.5638,156.5 339.0013,156.5 Q338.2981,156.5 337.7044,156.7813 Q337.1263,157.0625 336.6731,157.6875 Q336.22,158.3125 336.22,159.1719 L336.22,160.0938 Q336.22,161.125 337.0638,161.8125 Q337.9075,162.5 339.4075,162.5 Q340.2981,162.5 340.9231,162.2969 Q341.2825,162.1875 341.6888,161.8281 Q341.9544,161.625 342.095,161.5625 Q342.2356,161.5 342.4075,161.5 Q342.7356,161.5 342.97,161.7656 Q343.22,162.0156 343.22,162.375 Q343.22,162.7188 342.8763,163.125 Q342.3763,163.7188 341.5794,164.0469 Q340.5325,164.5 339.2513,164.5 Q337.7513,164.5 336.5481,163.9063 Q335.5794,163.4375 334.8919,162.4219 Q334.22,161.4063 334.22,160.2031 L334.22,159.1094 Q334.22,157.8594 334.8138,156.7656 Q335.4231,155.6719 336.47,155.0938 Q337.5325,154.5 338.72,154.5 Q339.4388,154.5 340.0638,154.75 Q340.6888,155 341.22,155.5 Z " fill="#000000"/><text fill="#000000" font-family="sans-serif" font-size="14" lengthAdjust="spacing" textLength="56" x="358.02" y="164.7285">SNSUser</text><line style="stroke:#181818;stroke-width:0.5;" x1="303.62" x2="437.62" y1="175" y2="175"/><text fill="#000000" font-family="sans-serif" font-size="14" lengthAdjust="spacing" textLength="40" x="308.62" y="193.5332">-name</text><text fill="#000000" font-family="sans-serif" font-size="14" lengthAdjust="spacing" textLength="26" x="308.62" y="211.1426">-sex</text><text fill="#000000" font-family="sans-serif" font-size="14" lengthAdjust="spacing" textLength="63" x="308.62" y="228.752">-birthDate</text><text fill="#000000" font-family="sans-serif" font-size="14" lengthAdjust="spacing" textLength="94" x="308.62" y="246.3613">-phoneNumber</text><text fill="#000000" font-family="sans-serif" font-size="14" lengthAdjust="spacing" textLength="38" x="308.62" y="263.9707">-email</text><text fill="#000000" font-family="sans-serif" font-size="14" lengthAdjust="spacing" textLength="56" x="308.62" y="281.5801">-address</text><text fill="#000000" font-family="sans-serif" font-size="14" lengthAdjust="spacing" textLength="110" x="308.62" y="299.1895">-SNSUserNumber</text><text fill="#000000" font-family="sans-serif" font-size="14" lengthAdjust="spacing" textLength="124" x="308.62" y="316.7988">-citizenCardNumber</text><text fill="#000000" font-family="sans-serif" font-size="14" lengthAdjust="spacing" textLength="40" x="308.62" y="334.4082">-name</text><text fill="#000000" font-family="sans-serif" font-size="14" lengthAdjust="spacing" textLength="55" x="308.62" y="352.0176">-function</text><text fill="#000000" font-family="sans-serif" font-size="14" lengthAdjust="spacing" textLength="45" x="308.62" y="369.627">-phone</text><text fill="#000000" font-family="sans-serif" font-size="14" lengthAdjust="spacing" textLength="38" x="308.62" y="387.2363">-email</text></g><!--MD5=[da547346deef918ea16944ba046651ef]
class Administrator--><g id="elem_Administrator"><rect codeLine="20" fill="#F1F1F1" height="40" id="Administrator" rx="2.5" ry="2.5" style="stroke:#181818;stroke-width:0.5;" width="115" x="97.12" y="424"/><ellipse cx="112.12" cy="440" fill="#ADD1B2" rx="11" ry="11" style="stroke:#181818;stroke-width:1.0;"/><path d="M114.12,436.5 Q114.3231,436 114.5575,435.75 Q114.7919,435.5 115.0575,435.5 Q115.5263,435.5 115.8231,435.7813 Q116.12,436.0625 116.12,436.7188 L116.12,438.2813 Q116.12,438.9375 115.8388,439.2188 Q115.5575,439.5 115.12,439.5 Q114.7294,439.5 114.4794,439.3281 Q114.2294,439.1563 114.12,438.7031 Q114.0731,438.3906 113.9013,438.2188 Q113.5888,437.8906 113.0263,437.7031 Q112.4638,437.5 111.9013,437.5 Q111.1981,437.5 110.6044,437.7813 Q110.0263,438.0625 109.5731,438.6875 Q109.12,439.3125 109.12,440.1719 L109.12,441.0938 Q109.12,442.125 109.9638,442.8125 Q110.8075,443.5 112.3075,443.5 Q113.1981,443.5 113.8231,443.2969 Q114.1825,443.1875 114.5888,442.8281 Q114.8544,442.625 114.995,442.5625 Q115.1356,442.5 115.3075,442.5 Q115.6356,442.5 115.87,442.7656 Q116.12,443.0156 116.12,443.375 Q116.12,443.7188 115.7763,444.125 Q115.2763,444.7188 114.4794,445.0469 Q113.4325,445.5 112.1513,445.5 Q110.6513,445.5 109.4481,444.9063 Q108.4794,444.4375 107.7919,443.4219 Q107.12,442.4063 107.12,441.2031 L107.12,440.1094 Q107.12,438.8594 107.7138,437.7656 Q108.3231,436.6719 109.37,436.0938 Q110.4325,435.5 111.62,435.5 Q112.3388,435.5 112.9638,435.75 Q113.5888,436 114.12,436.5 Z " fill="#000000"/><text fill="#000000" font-family="sans-serif" font-size="14" lengthAdjust="spacing" textLength="83" x="126.12" y="445.7285">Administrator</text><line style="stroke:#181818;stroke-width:0.5;" x1="98.12" x2="211.12" y1="456" y2="456"/></g><!--MD5=[03960189e81aa2c066c762ffabbee709]
class Receptionist--><g id="elem_Receptionist"><rect codeLine="23" fill="#F1F1F1" height="40" id="Receptionist" rx="2.5" ry="2.5" style="stroke:#181818;stroke-width:0.5;" width="110" x="547.62" y="16"/><ellipse cx="562.62" cy="32" fill="#ADD1B2" rx="11" ry="11" style="stroke:#181818;stroke-width:1.0;"/><path d="M564.62,28.5 Q564.8231,28 565.0575,27.75 Q565.2919,27.5 565.5575,27.5 Q566.0263,27.5 566.3231,27.7813 Q566.62,28.0625 566.62,28.7188 L566.62,30.2813 Q566.62,30.9375 566.3388,31.2188 Q566.0575,31.5 565.62,31.5 Q565.2294,31.5 564.9794,31.3281 Q564.7294,31.1563 564.62,30.7031 Q564.5731,30.3906 564.4013,30.2188 Q564.0888,29.8906 563.5263,29.7031 Q562.9638,29.5 562.4013,29.5 Q561.6981,29.5 561.1044,29.7813 Q560.5263,30.0625 560.0731,30.6875 Q559.62,31.3125 559.62,32.1719 L559.62,33.0938 Q559.62,34.125 560.4638,34.8125 Q561.3075,35.5 562.8075,35.5 Q563.6981,35.5 564.3231,35.2969 Q564.6825,35.1875 565.0888,34.8281 Q565.3544,34.625 565.495,34.5625 Q565.6356,34.5 565.8075,34.5 Q566.1356,34.5 566.37,34.7656 Q566.62,35.0156 566.62,35.375 Q566.62,35.7188 566.2763,36.125 Q565.7763,36.7188 564.9794,37.0469 Q563.9325,37.5 562.6513,37.5 Q561.1513,37.5 559.9481,36.9063 Q558.9794,36.4375 558.2919,35.4219 Q557.62,34.4063 557.62,33.2031 L557.62,32.1094 Q557.62,30.8594 558.2138,29.7656 Q558.8231,28.6719 559.87,28.0938 Q560.9325,27.5 562.12,27.5 Q562.8388,27.5 563.4638,27.75 Q564.0888,28 564.62,28.5 Z " fill="#000000"/><text fill="#000000" font-family="sans-serif" font-size="14" lengthAdjust="spacing" textLength="78" x="576.62" y="37.7285">Receptionist</text><line style="stroke:#181818;stroke-width:0.5;" x1="548.62" x2="656.62" y1="48" y2="48"/></g><!--MD5=[7421f545a0d8420c5bec41e74b387d9c]
class Employee--><g id="elem_Employee"><rect codeLine="33" fill="#F1F1F1" height="145.6563" id="Employee" rx="2.5" ry="2.5" style="stroke:#181818;stroke-width:0.5;" width="136" x="130.62" y="665"/><ellipse cx="164.52" cy="681" fill="#ADD1B2" rx="11" ry="11" style="stroke:#181818;stroke-width:1.0;"/><path d="M166.52,677.5 Q166.7231,677 166.9575,676.75 Q167.1919,676.5 167.4575,676.5 Q167.9263,676.5 168.2231,676.7813 Q168.52,677.0625 168.52,677.7188 L168.52,679.2813 Q168.52,679.9375 168.2388,680.2188 Q167.9575,680.5 167.52,680.5 Q167.1294,680.5 166.8794,680.3281 Q166.6294,680.1563 166.52,679.7031 Q166.4731,679.3906 166.3013,679.2188 Q165.9888,678.8906 165.4263,678.7031 Q164.8638,678.5 164.3013,678.5 Q163.5981,678.5 163.0044,678.7813 Q162.4263,679.0625 161.9731,679.6875 Q161.52,680.3125 161.52,681.1719 L161.52,682.0938 Q161.52,683.125 162.3638,683.8125 Q163.2075,684.5 164.7075,684.5 Q165.5981,684.5 166.2231,684.2969 Q166.5825,684.1875 166.9888,683.8281 Q167.2544,683.625 167.395,683.5625 Q167.5356,683.5 167.7075,683.5 Q168.0356,683.5 168.27,683.7656 Q168.52,684.0156 168.52,684.375 Q168.52,684.7188 168.1763,685.125 Q167.6763,685.7188 166.8794,686.0469 Q165.8325,686.5 164.5513,686.5 Q163.0513,686.5 161.8481,685.9063 Q160.8794,685.4375 160.1919,684.4219 Q159.52,683.4063 159.52,682.2031 L159.52,681.1094 Q159.52,679.8594 160.1138,678.7656 Q160.7231,677.6719 161.77,677.0938 Q162.8325,676.5 164.02,676.5 Q164.7388,676.5 165.3638,676.75 Q165.9888,677 166.52,677.5 Z " fill="#000000"/><text fill="#000000" font-family="sans-serif" font-size="14" lengthAdjust="spacing" textLength="62" x="182.72" y="686.7285">Employee</text><line style="stroke:#181818;stroke-width:0.5;" x1="131.62" x2="265.62" y1="697" y2="697"/><text fill="#000000" font-family="sans-serif" font-size="14" lengthAdjust="spacing" textLength="16" x="136.62" y="715.5332">-id</text><text fill="#000000" font-family="sans-serif" font-size="14" lengthAdjust="spacing" textLength="40" x="136.62" y="733.1426">-name</text><text fill="#000000" font-family="sans-serif" font-size="14" lengthAdjust="spacing" textLength="38" x="136.62" y="750.752">-email</text><text fill="#000000" font-family="sans-serif" font-size="14" lengthAdjust="spacing" textLength="56" x="136.62" y="768.3613">-address</text><text fill="#000000" font-family="sans-serif" font-size="14" lengthAdjust="spacing" textLength="94" x="136.62" y="785.9707">-phoneNumber</text><text fill="#000000" font-family="sans-serif" font-size="14" lengthAdjust="spacing" textLength="124" x="136.62" y="803.5801">-citizenCardNumber</text></g><!--MD5=[45d42ff7800d812d5f83c7d3273eb427]
class UserRole--><g id="elem_UserRole"><rect codeLine="42" fill="#F1F1F1" height="75.2188" id="UserRole" rx="2.5" ry="2.5" style="stroke:#181818;stroke-width:0.5;" width="90" x="446.62" y="889"/><ellipse cx="461.62" cy="905" fill="#ADD1B2" rx="11" ry="11" style="stroke:#181818;stroke-width:1.0;"/><path d="M463.62,901.5 Q463.8231,901 464.0575,900.75 Q464.2919,900.5 464.5575,900.5 Q465.0263,900.5 465.3231,900.7813 Q465.62,901.0625 465.62,901.7188 L465.62,903.2813 Q465.62,903.9375 465.3388,904.2188 Q465.0575,904.5 464.62,904.5 Q464.2294,904.5 463.9794,904.3281 Q463.7294,904.1563 463.62,903.7031 Q463.5731,903.3906 463.4013,903.2188 Q463.0888,902.8906 462.5263,902.7031 Q461.9638,902.5 461.4013,902.5 Q460.6981,902.5 460.1044,902.7813 Q459.5263,903.0625 459.0731,903.6875 Q458.62,904.3125 458.62,905.1719 L458.62,906.0938 Q458.62,907.125 459.4638,907.8125 Q460.3075,908.5 461.8075,908.5 Q462.6981,908.5 463.3231,908.2969 Q463.6825,908.1875 464.0888,907.8281 Q464.3544,907.625 464.495,907.5625 Q464.6356,907.5 464.8075,907.5 Q465.1356,907.5 465.37,907.7656 Q465.62,908.0156 465.62,908.375 Q465.62,908.7188 465.2763,909.125 Q464.7763,909.7188 463.9794,910.0469 Q462.9325,910.5 461.6513,910.5 Q460.1513,910.5 458.9481,909.9063 Q457.9794,909.4375 457.2919,908.4219 Q456.62,907.4063 456.62,906.2031 L456.62,905.1094 Q456.62,903.8594 457.2138,902.7656 Q457.8231,901.6719 458.87,901.0938 Q459.9325,900.5 461.12,900.5 Q461.8388,900.5 462.4638,900.75 Q463.0888,901 463.62,901.5 Z " fill="#000000"/><text fill="#000000" font-family="sans-serif" font-size="14" lengthAdjust="spacing" textLength="58" x="475.62" y="910.7285">UserRole</text><line style="stroke:#181818;stroke-width:0.5;" x1="447.62" x2="535.62" y1="921" y2="921"/><text fill="#000000" font-family="sans-serif" font-size="14" lengthAdjust="spacing" textLength="16" x="452.62" y="939.5332">-id</text><text fill="#000000" font-family="sans-serif" font-size="14" lengthAdjust="spacing" textLength="78" x="452.62" y="957.1426">-designation</text></g><!--MD5=[3fd616f346a44cd59a91eb10b19e157c]
class User--><g id="elem_User"><rect codeLine="47" fill="#F1F1F1" height="92.8281" id="User" rx="2.5" ry="2.5" style="stroke:#181818;stroke-width:0.5;" width="77" x="233.12" y="494"/><ellipse cx="255.32" cy="510" fill="#ADD1B2" rx="11" ry="11" style="stroke:#181818;stroke-width:1.0;"/><path d="M257.32,506.5 Q257.5231,506 257.7575,505.75 Q257.9919,505.5 258.2575,505.5 Q258.7263,505.5 259.0231,505.7813 Q259.32,506.0625 259.32,506.7188 L259.32,508.2813 Q259.32,508.9375 259.0388,509.2188 Q258.7575,509.5 258.32,509.5 Q257.9294,509.5 257.6794,509.3281 Q257.4294,509.1563 257.32,508.7031 Q257.2731,508.3906 257.1013,508.2188 Q256.7888,507.8906 256.2263,507.7031 Q255.6638,507.5 255.1013,507.5 Q254.3981,507.5 253.8044,507.7813 Q253.2263,508.0625 252.7731,508.6875 Q252.32,509.3125 252.32,510.1719 L252.32,511.0938 Q252.32,512.125 253.1638,512.8125 Q254.0075,513.5 255.5075,513.5 Q256.3981,513.5 257.0231,513.2969 Q257.3825,513.1875 257.7888,512.8281 Q258.0544,512.625 258.195,512.5625 Q258.3356,512.5 258.5075,512.5 Q258.8356,512.5 259.07,512.7656 Q259.32,513.0156 259.32,513.375 Q259.32,513.7188 258.9763,514.125 Q258.4763,514.7188 257.6794,515.0469 Q256.6325,515.5 255.3513,515.5 Q253.8513,515.5 252.6481,514.9063 Q251.6794,514.4375 250.9919,513.4219 Q250.32,512.4063 250.32,511.2031 L250.32,510.1094 Q250.32,508.8594 250.9138,507.7656 Q251.5231,506.6719 252.57,506.0938 Q253.6325,505.5 254.82,505.5 Q255.5388,505.5 256.1638,505.75 Q256.7888,506 257.32,506.5 Z " fill="#000000"/><text fill="#000000" font-family="sans-serif" font-size="14" lengthAdjust="spacing" textLength="29" x="270.92" y="515.7285">User</text><line style="stroke:#181818;stroke-width:0.5;" x1="234.12" x2="309.12" y1="526" y2="526"/><text fill="#000000" font-family="sans-serif" font-size="14" lengthAdjust="spacing" textLength="40" x="239.12" y="544.5332">-name</text><text fill="#000000" font-family="sans-serif" font-size="14" lengthAdjust="spacing" textLength="38" x="239.12" y="562.1426">-email</text><text fill="#000000" font-family="sans-serif" font-size="14" lengthAdjust="spacing" textLength="65" x="239.12" y="579.752">-password</text></g><!--MD5=[eaea43e34e45c5b9d20b595fc78f1f20]
link Company to Administrator--><g id="link_Company_Administrator"><path codeLine="53" d="M189.42,65.04 C179.51,73.38 170.31,83.43 164.62,95 C108.71,208.62 137.61,369.33 149.95,423.97 " fill="none" id="Company-Administrator" style="stroke:#181818;stroke-width:1.0;"/><polygon fill="#000000" points="169.0735,109.1458,172.9835,100.4762,167.1408,99.8337,169.0735,109.1458" style="stroke:#000000;stroke-width:1.0;"/><text fill="#000000" font-family="sans-serif" font-size="13" lengthAdjust="spacing" textLength="30" x="178.62" y="109.4951">owns</text><text fill="#000000" font-family="sans-serif" font-size="13" lengthAdjust="spacing" textLength="7" x="174.4991" y="65.9475">1</text><text fill="#000000" font-family="sans-serif" font-size="13" lengthAdjust="spacing" textLength="5" x="142.8438" y="413.2829">*</text></g><!--MD5=[1a8aa2b864b87f860d28abceaa28b7a5]
link Company to SNSUser--><g id="link_Company_SNSUser"><path codeLine="54" d="M252.17,65.26 C265.02,87.2 283.76,119.2 302.56,151.29 " fill="none" id="Company-SNSUser" style="stroke:#181818;stroke-width:1.0;"/><polygon fill="#000000" points="286.1471,108.4902,284.1115,99.2,279.0396,102.1707,286.1471,108.4902" style="stroke:#000000;stroke-width:1.0;"/><text fill="#000000" font-family="sans-serif" font-size="13" lengthAdjust="spacing" textLength="30" x="292.62" y="109.4951">owns</text><text fill="#000000" font-family="sans-serif" font-size="13" lengthAdjust="spacing" textLength="7" x="247.7392" y="86.1637">1</text><text fill="#000000" font-family="sans-serif" font-size="13" lengthAdjust="spacing" textLength="5" x="289.4015" y="134.31">*</text></g><!--MD5=[e6529539d61e4fceb49a82d3c9677c38]
link Company to User--><g id="link_Company_User"><path codeLine="55" d="M236.34,65.28 C238.05,125.71 243,271.9 253.62,394 C256.53,427.47 261.22,465.11 265.09,493.72 " fill="none" id="Company-User" style="stroke:#181818;stroke-width:1.0;"/><text fill="#000000" font-family="sans-serif" font-size="13" lengthAdjust="spacing" textLength="30" x="254.62" y="273.9951">owns</text><text fill="#000000" font-family="sans-serif" font-size="13" lengthAdjust="spacing" textLength="7" x="228.7927" y="86.1877">1</text><text fill="#000000" font-family="sans-serif" font-size="13" lengthAdjust="spacing" textLength="5" x="258.7637" y="483.2077">*</text></g><!--MD5=[09366576ee87d48d594df10cacc83f45]
link Company to Employee--><g id="link_Company_Employee"><path codeLine="56" d="M189.57,63.48 C176.36,72.42 162.58,83.17 151.62,95 C78.5,173.91 46.66,286.05 22.62,424 C6,519.35 74.27,614.16 130.57,674.03 " fill="none" id="Company-Employee" style="stroke:#181818;stroke-width:1.0;"/><polygon fill="#000000" points="27.1391,449.1526,30.9344,440.4321,25.0838,439.8668,27.1391,449.1526" style="stroke:#000000;stroke-width:1.0;"/><text fill="#000000" font-family="sans-serif" font-size="13" lengthAdjust="spacing" textLength="42" x="36.62" y="449.4951">employ</text><text fill="#000000" font-family="sans-serif" font-size="13" lengthAdjust="spacing" textLength="7" x="178.6666" y="86.162">1</text><text fill="#000000" font-family="sans-serif" font-size="13" lengthAdjust="spacing" textLength="5" x="117.4127" y="663.2438">*</text></g><!--MD5=[4d2bf9651ec2cec1e10821c6121f5fe0]
link Company to UserRole--><g id="link_Company_UserRole"><path codeLine="57" d="M281.96,47.16 C332.22,60.58 411.31,89.08 456.62,143 C493.59,187.01 491.62,210.02 491.62,267.5 C491.62,267.5 491.62,267.5 491.62,739 C491.62,790.97 491.62,851.08 491.62,888.7 " fill="none" id="Company-UserRole" style="stroke:#181818;stroke-width:1.0;"/><polygon fill="#000000" points="497.8287,545.5275,498.4939,536.0402,492.7904,537.4612,497.8287,545.5275" style="stroke:#000000;stroke-width:1.0;"/><text fill="#000000" font-family="sans-serif" font-size="13" lengthAdjust="spacing" textLength="73" x="505.62" y="545.9951">Compreends</text><text fill="#000000" font-family="sans-serif" font-size="13" lengthAdjust="spacing" textLength="7" x="289.5918" y="45.1958">1</text><text fill="#000000" font-family="sans-serif" font-size="13" lengthAdjust="spacing" textLength="5" x="486.1747" y="878.0488">*</text></g><!--MD5=[48afc90033d240f0c7566c2ff402e39b]
link User to Employee--><g id="link_User_Employee"><path codeLine="59" d="M254.5,587.34 C245.91,610.36 235.29,638.8 225.62,664.68 " fill="none" id="User-Employee" style="stroke:#181818;stroke-width:1.0;"/><polygon fill="#000000" points="249.3691,621.4917,243.4517,628.9372,248.9582,630.9934,249.3691,621.4917" style="stroke:#000000;stroke-width:1.0;"/><text fill="#000000" font-family="sans-serif" font-size="13" lengthAdjust="spacing" textLength="54" x="256.62" y="631.4951">relates to</text><text fill="#000000" font-family="sans-serif" font-size="13" lengthAdjust="spacing" textLength="22" x="228.7214" y="608.2394">0..1</text><text fill="#000000" font-family="sans-serif" font-size="13" lengthAdjust="spacing" textLength="7" x="220.9333" y="654.2044">1</text></g><!--MD5=[f51b69263ffc056cc84c9ec54d5aea1b]
link SNSUser to User--><g id="link_SNSUser_User"><path codeLine="60" d="M324.88,394.23 C311.86,429.74 298.49,466.2 288.41,493.71 " fill="none" id="SNSUser-User" style="stroke:#181818;stroke-width:1.0;"/><polygon fill="#000000" points="314.899,448.8703,320.7717,441.3895,315.253,439.3663,314.899,448.8703" style="stroke:#000000;stroke-width:1.0;"/><text fill="#000000" font-family="sans-serif" font-size="13" lengthAdjust="spacing" textLength="53" x="325.62" y="449.4951">becomes</text><text fill="#000000" font-family="sans-serif" font-size="13" lengthAdjust="spacing" textLength="22" x="299.4224" y="415.8755">0..1</text><text fill="#000000" font-family="sans-serif" font-size="13" lengthAdjust="spacing" textLength="7" x="283.362" y="483.1963">1</text></g><!--MD5=[edf9467fb81ecc5fe28608b9d8a617e0]
link Employee to UserRole--><g id="link_Employee_UserRole"><path codeLine="62" d="M266.94,782.49 C322.24,817.69 398.55,866.26 446.47,896.77 " fill="none" id="Employee-UserRole" style="stroke:#181818;stroke-width:1.0;"/><polygon fill="#000000" points="388.8379,852.8607,382.7858,845.5244,379.6294,850.4829,388.8379,852.8607" style="stroke:#000000;stroke-width:1.0;"/><text fill="#000000" font-family="sans-serif" font-size="13" lengthAdjust="spacing" textLength="56" x="393.62" y="855.4951">has/plays</text></g><!--MD5=[8f7dd94d56b58fc07b233ccd3dd98f8c]
link Administrator to Employee--><g id="link_Administrator_Employee"><path codeLine="63" d="M156.79,464.33 C159.92,491.69 166.06,543.26 172.62,587 C176.42,612.35 181.07,640.03 185.39,664.63 " fill="none" id="Administrator-Employee" style="stroke:#181818;stroke-width:1.0;"/><polygon fill="#000000" points="178.3268,545.6256,179.9576,536.2559,174.1388,537.0867,178.3268,545.6256" style="stroke:#000000;stroke-width:1.0;"/><text fill="#000000" font-family="sans-serif" font-size="13" lengthAdjust="spacing" textLength="28" x="186.62" y="545.9951">is an</text><text fill="#000000" font-family="sans-serif" font-size="13" lengthAdjust="spacing" textLength="7" x="149.4326" y="485.486">1</text><text fill="#000000" font-family="sans-serif" font-size="13" lengthAdjust="spacing" textLength="5" x="178.8416" y="654.1495">*</text></g><!--MD5=[7690a4971bd8576b261a40a0340b8203]
link Receptionist to SNSUser--><g id="link_Receptionist_SNSUser"><path codeLine="65" d="M583.24,56.26 C551.82,87.47 488.3,150.58 438.83,199.73 " fill="none" id="Receptionist-SNSUser" style="stroke:#181818;stroke-width:1.0;"/><polygon fill="#000000" points="541.0729,107.6998,549.561,103.4097,545.4183,99.2399,541.0729,107.6998" style="stroke:#000000;stroke-width:1.0;"/><text fill="#000000" font-family="sans-serif" font-size="13" lengthAdjust="spacing" textLength="50" x="553.62" y="109.4951">registers</text><text fill="#000000" font-family="sans-serif" font-size="13" lengthAdjust="spacing" textLength="5" x="572.3598" y="77.3972">*</text><text fill="#000000" font-family="sans-serif" font-size="13" lengthAdjust="spacing" textLength="7" x="446.6733" y="188.8305">1</text></g><!--MD5=[895fb06b143c3357adb3f195fd81aaae]
link Receptionist to UserRole--><g id="link_Receptionist_UserRole"><path codeLine="66" d="M609.25,56.16 C622.21,95.33 649.62,187.66 649.62,267.5 C649.62,267.5 649.62,267.5 649.62,739 C649.62,801.28 597.7,853.44 553.38,886.62 " fill="none" id="Receptionist-to-UserRole" style="stroke:#181818;stroke-width:1.0;"/><polygon fill="none" points="557.24,892.47,536.89,898.39,549.11,881.07,557.24,892.47" style="stroke:#181818;stroke-width:1.0;"/><text fill="#000000" font-family="sans-serif" font-size="13" lengthAdjust="spacing" textLength="21" x="650.62" y="545.9951">is a</text></g><!--MD5=[e4db7505a6af6b7960d7236743b7179f]
@startuml
hide methods
skinparam classAttributeIconSize 0


class Company {
  -designation
}

class SNSUser{
- name
- sex
- birthDate
- phoneNumber
- email
- address
- SNSUserNumber
- citizenCardNumber
}

class Administrator {
 }

class Receptionist {
}

class SNSUser {
  -name
  -function
  -phone
  -email
}

class Employee{
-id
-name
-email
-address
-phoneNumber
-citizenCardNumber
}

class UserRole{
-id
-designation
}

class User {
  -name
  -email
  -password
}

Company "1" - - "*" Administrator : owns >
Company "1" - - "*" SNSUser : owns >
Company "1"  - - "*" User : owns
Company "1" - - "*" Employee : employ >
Company "1" - - "*" UserRole : Compreends >

User "0..1"- - "1" Employee : relates to <
SNSUser "0..1" - - "1" User: becomes >

Employee  - - UserRole : has/plays >
Administrator "1" - - "*" Employee : is an >

Receptionist "*" - - "1" SNSUser: registers >
Receptionist  - - -|>  UserRole : is a




@enduml

PlantUML version 1.2022.4(Sat Apr 09 14:29:17 BST 2022)
(GPL source distribution)
Java Runtime: OpenJDK Runtime Environment
JVM: OpenJDK 64-Bit Server VM
Default Encoding: Cp1252
Language: pt
Country: PT
--></g></svg>